<svg id="svg" version="1.1" xmlns="http://www.w3.org/2000/svg" xmlns:xlink="http://www.w3.org/1999/xlink" width="400" height="603.55871886121" viewBox="0, 0, 400,603.55871886121"><g id="svgg"><path id="path0" d="M192.608 8.900 C 192.517 9.175,192.388 26.980,192.321 48.467 C 192.254 69.953,192.102 87.632,191.981 87.752 C 191.809 87.924,155.858 88.789,148.512 88.798 L 146.823 88.800 146.712 94.100 L 146.600 99.400 135.200 99.800 L 123.800 100.200 123.689 105.450 L 123.577 110.700 112.489 111.050 L 101.400 111.400 101.200 116.800 L 101.000 122.200 96.200 122.298 C 88.984 122.446,89.643 121.873,89.512 128.105 L 89.400 133.400 84.000 133.600 L 78.600 133.800 78.489 139.060 C 78.353 145.487,78.699 145.146,72.174 145.287 L 67.000 145.400 66.889 150.900 L 66.777 156.400 61.396 156.400 C 55.048 156.400,55.645 155.712,55.498 163.200 L 55.400 168.200 50.147 168.311 L 44.894 168.423 44.618 178.911 C 44.467 184.680,44.255 189.710,44.148 190.089 C 43.979 190.688,43.269 190.792,38.677 190.889 L 33.400 191.000 33.097 200.800 C 32.930 206.190,32.660 214.110,32.497 218.400 L 32.200 226.200 27.145 226.312 L 22.090 226.423 21.822 237.312 C 21.674 243.300,21.609 307.240,21.676 379.400 L 21.800 510.600 43.983 510.703 C 58.690 510.772,66.307 510.947,66.583 511.223 C 66.865 511.505,67.065 526.202,67.200 556.520 L 67.400 601.400 72.800 601.400 L 78.200 601.400 78.400 556.200 L 78.600 511.000 197.579 510.899 C 280.375 510.829,316.687 510.927,316.979 511.219 C 317.266 511.506,317.464 525.920,317.600 556.520 L 317.800 601.400 323.200 601.400 L 328.600 601.400 328.800 556.600 C 328.910 531.960,329.146 511.575,329.324 511.300 C 329.576 510.910,334.513 510.800,351.781 510.800 C 371.595 510.800,373.940 510.734,374.157 510.167 C 374.468 509.357,374.365 270.431,374.043 245.200 L 373.800 226.200 368.500 226.088 L 363.200 225.977 363.144 221.888 C 363.113 219.640,362.978 211.770,362.844 204.400 L 362.600 191.000 357.200 190.800 L 351.800 190.600 351.446 179.500 L 351.092 168.400 345.789 168.400 C 339.487 168.400,340.000 168.970,340.000 161.967 L 340.000 156.800 334.900 156.794 C 328.394 156.786,328.846 157.226,328.712 150.784 L 328.600 145.400 323.200 145.200 L 317.800 145.000 317.689 139.740 C 317.553 133.313,317.899 133.654,311.374 133.513 L 306.200 133.400 306.000 128.000 L 305.800 122.600 300.200 122.400 L 294.600 122.200 294.400 116.800 L 294.200 111.400 283.300 111.048 L 272.400 110.695 272.400 105.575 C 272.400 99.403,273.930 100.130,260.200 99.779 C 247.638 99.457,248.814 100.080,248.806 93.746 L 248.800 88.892 236.900 88.646 C 230.355 88.510,220.230 88.265,214.400 88.100 L 203.800 87.800 203.595 48.200 C 203.482 26.420,203.347 8.555,203.295 8.500 C 202.906 8.091,192.751 8.472,192.608 8.900 M231.700 100.203 L 237.200 100.443 237.200 105.379 C 237.200 111.405,235.877 110.800,249.059 110.800 C 262.252 110.800,261.200 110.299,261.200 116.583 L 261.200 121.538 266.700 121.778 C 269.725 121.910,274.720 122.149,277.800 122.309 L 283.400 122.600 283.512 127.900 L 283.623 133.200 288.932 133.200 C 295.554 133.200,295.200 132.856,295.200 139.280 L 295.200 144.400 300.324 144.400 C 304.209 144.400,305.635 144.542,306.224 144.987 C 306.806 145.428,308.226 145.578,311.900 145.587 L 316.800 145.600 316.800 150.629 C 316.800 154.565,316.930 155.787,317.400 156.257 C 317.871 156.729,318.000 157.965,318.000 162.029 L 318.000 167.200 323.120 167.200 C 329.560 167.200,329.200 166.816,329.200 173.680 L 329.200 179.200 334.351 179.200 C 337.987 179.200,339.623 179.347,339.912 179.700 C 340.155 179.996,340.441 184.964,340.614 191.900 L 340.907 203.600 346.030 203.600 C 348.848 203.600,351.251 203.759,351.372 203.954 C 351.492 204.149,351.694 211.394,351.821 220.054 C 351.947 228.714,352.132 236.200,352.230 236.688 C 352.402 237.542,352.603 237.580,357.505 237.688 L 362.600 237.800 362.846 250.600 C 363.292 273.835,363.238 487.181,362.786 488.026 C 362.411 488.728,361.906 488.800,357.386 488.800 L 352.400 488.800 352.400 493.786 C 352.400 498.306,352.328 498.811,351.626 499.186 C 350.431 499.825,44.720 499.760,44.080 499.120 C 43.759 498.799,43.600 497.013,43.600 493.720 L 43.600 488.800 38.680 488.800 C 35.387 488.800,33.601 488.641,33.280 488.320 C 32.766 487.806,32.646 256.714,33.153 244.000 L 33.400 237.800 38.433 237.689 L 43.465 237.577 43.995 220.600 L 44.525 203.622 49.763 203.511 L 55.000 203.400 55.249 196.000 C 55.386 191.930,55.521 186.575,55.549 184.100 L 55.600 179.600 60.992 179.600 C 67.354 179.600,66.755 180.289,66.902 172.800 L 67.000 167.800 72.300 167.688 L 77.600 167.577 77.600 162.388 C 77.600 157.733,77.682 157.118,78.400 156.400 C 79.111 155.689,79.200 155.067,79.200 150.800 L 79.200 146.000 84.000 146.000 C 88.267 146.000,88.889 145.911,89.600 145.200 C 90.315 144.485,90.933 144.400,95.400 144.400 L 100.400 144.400 100.400 139.429 C 100.400 132.945,100.137 133.200,106.829 133.200 L 112.000 133.200 112.000 128.249 C 112.000 124.774,112.149 123.176,112.500 122.888 C 112.793 122.647,117.505 122.357,123.900 122.185 L 134.800 121.892 134.800 116.826 C 134.800 110.293,134.010 110.800,144.180 110.799 C 148.811 110.798,156.245 110.680,160.700 110.535 L 168.800 110.273 168.800 105.356 C 168.800 101.097,168.894 100.385,169.500 100.029 C 170.236 99.597,221.102 99.740,231.700 100.203 " stroke="none" fill="#121212" fill-rule="evenodd"></path><path id="path1" d="M0.000 301.600 L 0.000 603.200 200.000 603.200 L 400.000 603.200 400.000 301.600 L 400.000 0.000 302.000 0.000 L 204.000 0.000 204.000 4.000 L 204.000 8.000 209.157 8.000 C 213.491 8.000,214.353 8.101,214.557 8.633 C 214.691 8.981,214.800 24.293,214.800 42.659 C 214.800 64.913,214.938 76.311,215.214 76.826 C 215.589 77.528,216.094 77.600,220.614 77.600 L 225.600 77.600 225.600 82.536 L 225.600 87.472 234.665 87.736 C 239.650 87.881,247.345 88.003,251.765 88.006 C 261.590 88.014,260.750 87.478,260.887 93.816 L 261.000 99.000 272.300 99.352 L 283.600 99.704 283.600 105.031 L 283.600 110.358 289.100 110.572 C 292.125 110.690,297.120 110.925,300.200 111.093 L 305.800 111.400 305.912 116.461 C 306.048 122.658,305.721 122.346,312.226 122.487 L 317.400 122.600 317.600 128.000 L 317.800 133.400 322.600 133.498 C 329.831 133.646,329.158 133.041,329.289 139.505 L 329.400 145.000 334.800 145.200 L 340.200 145.400 340.552 156.300 L 340.905 167.200 346.003 167.200 C 352.286 167.200,351.946 166.841,352.088 173.626 L 352.200 179.000 357.600 179.200 L 363.000 179.400 363.246 185.800 C 363.381 189.320,363.516 194.760,363.546 197.888 L 363.600 203.576 368.700 203.688 L 373.800 203.800 374.100 209.400 C 374.381 214.657,375.041 237.325,375.151 245.488 L 375.200 249.176 380.300 249.288 L 385.400 249.400 385.400 380.200 L 385.400 511.000 380.112 511.112 L 374.823 511.223 374.712 516.512 L 374.600 521.800 357.836 521.904 C 346.271 521.976,340.905 522.147,340.536 522.453 C 340.095 522.819,340.000 529.856,340.000 562.227 L 340.000 601.557 334.500 601.790 C 327.490 602.088,318.910 602.088,311.900 601.790 L 306.400 601.557 306.400 562.258 C 306.400 532.226,306.287 522.847,305.920 522.480 C 305.221 521.781,90.779 521.781,90.080 522.480 C 89.713 522.847,89.600 532.226,89.600 562.259 L 89.600 601.558 83.900 601.790 C 75.941 602.114,67.971 602.088,61.400 601.717 L 55.800 601.400 55.698 562.022 C 55.618 531.130,55.489 522.577,55.098 522.329 C 54.824 522.155,47.280 522.009,38.333 522.006 C 29.386 522.003,21.781 521.891,21.433 521.757 C 20.901 521.553,20.800 520.691,20.800 516.357 L 20.800 511.200 15.643 511.200 C 11.309 511.200,10.447 511.099,10.243 510.567 C 9.913 509.708,9.934 268.848,10.265 257.900 L 10.527 249.200 15.664 249.200 L 20.800 249.200 20.841 238.700 C 20.863 232.925,21.088 222.710,21.341 216.000 L 21.800 203.800 27.043 203.689 L 32.286 203.578 32.579 191.692 C 32.740 185.155,32.957 179.670,33.060 179.503 C 33.163 179.337,35.567 179.200,38.403 179.200 L 43.558 179.200 43.772 173.700 C 43.890 170.675,44.125 165.680,44.293 162.600 L 44.600 157.000 49.800 156.800 L 55.000 156.600 55.200 151.132 C 55.442 144.518,54.934 145.043,61.332 144.800 L 66.600 144.600 66.800 139.200 L 67.000 133.800 72.400 133.600 L 77.800 133.400 77.913 128.226 C 78.056 121.647,77.697 122.000,84.237 122.000 L 89.577 122.000 89.688 116.700 L 89.800 111.400 95.400 111.093 C 98.480 110.925,103.470 110.690,106.489 110.572 L 111.977 110.358 112.089 105.079 L 112.200 99.800 123.500 99.444 L 134.800 99.089 134.800 93.771 C 134.800 89.050,134.878 88.432,135.500 88.255 C 135.885 88.146,146.045 87.931,158.078 87.779 L 179.957 87.501 180.197 82.251 C 180.329 79.363,180.563 61.700,180.718 43.000 C 180.873 24.300,181.146 8.775,181.324 8.500 C 181.554 8.144,183.082 8.000,186.624 8.000 L 191.600 8.000 191.600 4.000 L 191.600 0.000 95.800 0.000 L 0.000 0.000 0.000 301.600 M173.600 111.222 C 163.150 111.367,152.850 111.511,150.712 111.543 L 146.823 111.600 146.712 116.900 L 146.600 122.200 135.311 122.555 L 124.022 122.911 123.911 128.155 L 123.800 133.400 118.200 133.707 C 115.120 133.875,110.125 134.110,107.100 134.228 L 101.600 134.442 101.600 139.813 C 101.600 146.141,102.259 145.553,95.000 145.702 L 90.200 145.800 90.000 151.200 L 89.800 156.600 84.400 156.800 L 79.000 157.000 78.902 161.800 C 78.754 169.056,79.336 168.400,73.046 168.400 L 67.708 168.400 67.354 179.500 L 67.000 190.600 61.600 190.800 L 56.200 191.000 55.889 202.800 C 55.718 209.290,55.403 214.913,55.189 215.295 C 54.975 215.677,54.800 218.152,54.800 220.795 L 54.800 225.600 49.847 225.600 C 45.060 225.600,44.884 225.630,44.611 226.500 C 43.975 228.527,43.856 486.982,44.491 487.509 C 44.958 487.897,77.545 487.980,198.242 487.901 L 351.400 487.800 351.400 362.400 C 351.400 293.430,351.245 232.185,351.055 226.300 L 350.709 215.600 345.804 215.600 C 342.362 215.600,340.777 215.451,340.492 215.100 C 340.253 214.806,339.966 209.699,339.794 202.711 L 339.502 190.823 334.251 190.711 L 329.000 190.600 328.646 179.511 L 328.293 168.422 322.846 168.311 L 317.400 168.200 317.200 162.600 L 317.000 157.000 311.826 156.887 C 305.264 156.745,305.600 157.076,305.600 150.751 L 305.600 145.600 300.633 145.600 C 293.857 145.600,294.400 146.107,294.400 139.778 L 294.400 134.442 288.900 134.228 C 285.875 134.110,280.880 133.875,277.800 133.707 L 272.200 133.400 272.089 128.155 L 271.978 122.911 260.689 122.555 L 249.400 122.200 249.289 116.946 L 249.177 111.691 237.089 111.456 C 215.564 111.036,193.022 110.953,173.600 111.222 " stroke="none" fill="#fbfbfb" fill-rule="evenodd"></path><path id="path2" d="M191.600 4.000 L 191.600 8.000 186.624 8.000 C 183.082 8.000,181.554 8.144,181.324 8.500 C 181.146 8.775,180.873 24.300,180.718 43.000 C 180.563 61.700,180.329 79.363,180.197 82.251 L 179.957 87.501 158.078 87.779 C 146.045 87.931,135.885 88.146,135.500 88.255 C 134.878 88.432,134.800 89.050,134.800 93.771 L 134.800 99.089 123.500 99.444 L 112.200 99.800 112.089 105.079 L 111.977 110.358 106.489 110.572 C 103.470 110.690,98.480 110.925,95.400 111.093 L 89.800 111.400 89.688 116.700 L 89.577 122.000 84.237 122.000 C 77.697 122.000,78.056 121.647,77.913 128.226 L 77.800 133.400 72.400 133.600 L 67.000 133.800 66.800 139.200 L 66.600 144.600 61.332 144.800 C 54.934 145.043,55.442 144.518,55.200 151.132 L 55.000 156.600 49.800 156.800 L 44.600 157.000 44.293 162.600 C 44.125 165.680,43.890 170.675,43.772 173.700 L 43.558 179.200 38.403 179.200 C 35.567 179.200,33.163 179.337,33.060 179.503 C 32.957 179.670,32.740 185.155,32.579 191.692 L 32.286 203.578 27.043 203.689 L 21.800 203.800 21.341 216.000 C 21.088 222.710,20.863 232.925,20.841 238.700 L 20.800 249.200 15.664 249.200 L 10.527 249.200 10.265 257.900 C 9.934 268.848,9.913 509.708,10.243 510.567 C 10.447 511.099,11.309 511.200,15.643 511.200 L 20.800 511.200 20.800 516.357 C 20.800 520.691,20.901 521.553,21.433 521.757 C 21.781 521.891,29.386 522.003,38.333 522.006 C 47.280 522.009,54.824 522.155,55.098 522.329 C 55.489 522.577,55.618 531.130,55.698 562.022 L 55.800 601.400 61.400 601.717 C 67.971 602.088,75.941 602.114,83.900 601.790 L 89.600 601.558 89.600 562.259 C 89.600 532.226,89.713 522.847,90.080 522.480 C 90.779 521.781,305.221 521.781,305.920 522.480 C 306.287 522.847,306.400 532.226,306.400 562.258 L 306.400 601.557 311.900 601.790 C 314.925 601.919,320.010 602.024,323.200 602.024 C 326.390 602.024,331.475 601.919,334.500 601.790 L 340.000 601.557 340.000 562.227 C 340.000 529.856,340.095 522.819,340.536 522.453 C 340.905 522.147,346.271 521.976,357.836 521.904 L 374.600 521.800 374.712 516.512 L 374.823 511.223 380.112 511.112 L 385.400 511.000 385.400 380.200 L 385.400 249.400 380.300 249.288 L 375.200 249.176 375.151 245.488 C 375.041 237.325,374.381 214.657,374.100 209.400 L 373.800 203.800 368.700 203.688 L 363.600 203.576 363.546 197.888 C 363.516 194.760,363.381 189.320,363.246 185.800 L 363.000 179.400 357.600 179.200 L 352.200 179.000 352.088 173.626 C 351.946 166.841,352.286 167.200,346.003 167.200 L 340.905 167.200 340.552 156.300 L 340.200 145.400 334.800 145.200 L 329.400 145.000 329.289 139.505 C 329.158 133.041,329.831 133.646,322.600 133.498 L 317.800 133.400 317.600 128.000 L 317.400 122.600 312.226 122.487 C 305.721 122.346,306.048 122.658,305.912 116.461 L 305.800 111.400 300.200 111.093 C 297.120 110.925,292.125 110.690,289.100 110.572 L 283.600 110.358 283.600 105.031 L 283.600 99.704 272.300 99.352 L 261.000 99.000 260.887 93.816 C 260.750 87.478,261.590 88.014,251.765 88.006 C 247.345 88.003,239.650 87.881,234.665 87.736 L 225.600 87.472 225.600 82.536 L 225.600 77.600 220.614 77.600 C 216.094 77.600,215.589 77.528,215.214 76.826 C 214.938 76.311,214.800 64.913,214.800 42.659 C 214.800 24.293,214.691 8.981,214.557 8.633 C 214.353 8.101,213.492 8.000,209.171 8.000 L 204.028 8.000 203.870 4.100 C 203.784 1.955,203.777 2.990,203.855 6.400 C 203.933 9.810,203.998 27.045,203.999 44.700 L 204.000 76.800 209.192 76.800 C 215.302 76.800,214.752 76.183,214.902 83.200 L 215.000 87.800 228.200 88.043 C 235.460 88.177,245.585 88.428,250.700 88.601 L 260.000 88.915 260.000 94.050 C 260.000 100.213,258.394 99.458,272.400 99.880 L 283.000 100.200 283.200 105.400 L 283.400 110.600 288.774 110.712 C 295.564 110.854,295.200 110.507,295.200 116.849 L 295.200 122.000 300.576 122.000 C 303.729 122.000,306.055 122.165,306.200 122.400 C 306.344 122.633,308.604 122.800,311.624 122.800 L 316.800 122.800 316.800 127.920 C 316.800 134.345,316.444 134.000,323.080 134.000 L 328.400 134.000 328.400 139.351 C 328.400 143.620,328.521 144.803,329.000 145.200 C 329.476 145.595,329.600 146.757,329.600 150.837 L 329.600 155.977 334.900 156.088 L 340.200 156.200 340.400 161.800 L 340.600 167.400 345.575 167.513 C 351.919 167.657,351.600 167.325,351.600 173.769 C 351.600 180.329,351.291 180.000,357.458 180.000 L 362.357 180.000 362.564 185.300 C 362.679 188.215,362.937 194.020,363.138 198.200 C 363.339 202.380,363.526 207.820,363.552 210.288 L 363.600 214.776 368.700 214.888 L 373.800 215.000 374.070 223.000 C 375.167 255.578,375.818 508.802,374.809 510.400 C 374.485 510.913,371.966 511.029,357.515 511.200 L 340.600 511.400 340.400 516.600 L 340.200 521.800 335.016 521.913 C 331.484 521.989,329.733 522.181,329.522 522.513 C 329.352 522.781,329.209 540.666,329.206 562.257 C 329.201 597.682,329.138 601.538,328.567 601.757 C 327.498 602.168,318.396 602.026,317.574 601.586 C 316.817 601.181,316.800 600.314,316.800 561.598 L 316.800 522.023 311.500 521.912 L 306.200 521.800 306.000 516.600 L 305.800 511.400 198.000 511.400 L 90.200 511.400 90.000 516.600 L 89.800 521.800 84.400 522.000 L 79.000 522.200 78.898 561.561 C 78.825 589.838,78.670 601.074,78.349 601.461 C 77.799 602.124,68.375 602.229,67.174 601.586 C 66.417 601.181,66.400 600.314,66.400 561.597 L 66.400 522.023 60.900 521.911 L 55.400 521.800 55.288 516.500 L 55.177 511.200 38.468 511.200 C 26.006 511.200,21.638 511.078,21.280 510.720 C 20.625 510.065,20.678 274.592,21.341 239.400 L 21.800 215.000 27.055 214.889 L 32.309 214.777 32.572 203.289 C 32.916 188.273,32.161 190.000,38.386 190.000 L 43.557 190.000 43.773 184.700 C 43.892 181.785,44.127 176.790,44.295 173.600 L 44.600 167.800 49.879 167.689 L 55.158 167.577 55.377 162.089 C 55.498 159.070,55.697 154.125,55.820 151.100 L 56.043 145.600 61.160 145.600 C 67.798 145.600,67.600 145.795,67.600 139.269 L 67.600 134.400 72.538 134.400 C 78.992 134.400,78.800 134.600,78.800 127.890 L 78.800 122.843 84.100 122.628 C 87.015 122.509,91.920 122.274,95.000 122.106 L 100.600 121.800 100.712 116.505 C 100.843 110.263,100.155 110.844,107.600 110.698 L 112.600 110.600 112.711 105.349 L 112.823 100.098 123.511 99.821 C 137.113 99.470,135.600 100.194,135.600 94.032 L 135.600 88.917 145.100 88.599 C 150.325 88.424,160.540 88.173,167.800 88.040 L 181.000 87.800 181.200 82.400 L 181.400 77.000 186.493 76.888 L 191.587 76.776 191.770 42.688 C 191.871 23.940,192.066 6.665,192.203 4.300 C 192.372 1.371,192.316 -0.000,192.026 -0.000 C 191.753 -0.000,191.600 1.439,191.600 4.000 M181.200 105.322 L 181.200 110.243 160.100 110.933 C 148.495 111.312,138.235 111.617,137.300 111.611 L 135.600 111.600 135.600 116.800 C 135.600 119.660,135.555 122.027,135.500 122.060 C 135.445 122.093,130.360 122.318,124.200 122.560 L 113.000 123.000 112.887 128.184 C 112.752 134.410,113.218 133.986,106.500 133.994 L 101.200 134.000 101.194 139.100 C 101.186 145.606,101.626 145.154,95.184 145.288 L 89.800 145.400 89.600 150.800 L 89.400 156.200 84.000 156.400 L 78.600 156.600 78.400 162.200 L 78.200 167.800 72.800 168.000 L 67.400 168.200 67.095 174.000 C 66.927 177.190,66.692 182.180,66.573 185.089 L 66.357 190.377 61.078 190.489 L 55.800 190.600 55.519 199.600 C 55.364 204.550,55.184 209.950,55.119 211.600 L 55.000 214.600 49.800 214.800 L 44.600 215.000 44.307 225.600 C 44.145 231.430,43.899 241.735,43.761 248.500 L 43.508 260.800 38.618 260.800 L 33.727 260.800 33.465 268.900 C 33.320 273.355,33.202 324.385,33.201 382.300 L 33.200 487.600 38.338 487.600 C 45.001 487.600,44.800 487.403,44.800 493.931 L 44.800 498.800 198.000 498.800 L 351.200 498.800 351.200 493.680 C 351.200 487.272,350.872 487.600,357.280 487.600 L 362.400 487.600 362.400 374.200 L 362.400 260.800 357.472 260.800 L 352.545 260.800 352.064 245.700 C 351.800 237.395,351.587 227.330,351.592 223.333 C 351.602 213.943,352.162 214.800,346.021 214.800 L 340.927 214.800 340.665 206.700 C 340.520 202.245,340.402 197.013,340.401 195.074 C 340.400 189.878,340.539 190.000,334.608 190.000 L 329.644 190.000 329.427 184.900 C 329.307 182.095,329.072 177.190,328.905 174.000 L 328.600 168.200 323.200 168.000 L 317.800 167.800 317.702 163.000 C 317.553 155.741,318.143 156.400,311.804 156.400 L 306.423 156.400 306.311 150.900 L 306.200 145.400 300.600 145.200 L 295.000 145.000 294.800 139.600 L 294.600 134.200 289.200 134.000 C 282.319 133.745,282.800 134.194,282.800 128.029 L 282.800 122.905 272.500 122.635 C 266.835 122.486,261.705 122.268,261.100 122.151 L 260.000 121.936 260.000 116.768 L 260.000 111.600 258.300 111.611 C 257.365 111.617,247.195 111.311,235.700 110.930 L 214.800 110.239 214.800 105.319 L 214.800 100.400 198.000 100.400 L 181.200 100.400 181.200 105.322 M237.089 111.456 L 249.177 111.691 249.289 116.946 L 249.400 122.200 260.689 122.555 L 271.978 122.911 272.089 128.155 L 272.200 133.400 277.800 133.707 C 280.880 133.875,285.875 134.110,288.900 134.228 L 294.400 134.442 294.400 139.778 C 294.400 146.107,293.857 145.600,300.633 145.600 L 305.600 145.600 305.600 150.751 C 305.600 157.076,305.264 156.745,311.826 156.887 L 317.000 157.000 317.200 162.600 L 317.400 168.200 322.846 168.311 L 328.293 168.422 328.646 179.511 L 329.000 190.600 334.251 190.711 L 339.502 190.823 339.794 202.711 C 339.966 209.699,340.253 214.806,340.492 215.100 C 340.777 215.451,342.362 215.600,345.804 215.600 L 350.709 215.600 351.055 226.300 C 351.245 232.185,351.400 293.430,351.400 362.400 L 351.400 487.800 198.242 487.901 C 77.545 487.980,44.958 487.897,44.491 487.509 C 43.856 486.982,43.975 228.527,44.611 226.500 C 44.884 225.630,45.060 225.600,49.847 225.600 L 54.800 225.600 54.800 220.795 C 54.800 218.152,54.975 215.677,55.189 215.295 C 55.403 214.913,55.718 209.290,55.889 202.800 L 56.200 191.000 61.600 190.800 L 67.000 190.600 67.354 179.500 L 67.708 168.400 73.046 168.400 C 79.336 168.400,78.754 169.056,78.902 161.800 L 79.000 157.000 84.400 156.800 L 89.800 156.600 90.000 151.200 L 90.200 145.800 95.000 145.702 C 102.259 145.553,101.600 146.141,101.600 139.813 L 101.600 134.442 107.100 134.228 C 110.125 134.110,115.120 133.875,118.200 133.707 L 123.800 133.400 123.911 128.155 L 124.022 122.911 135.311 122.555 L 146.600 122.200 146.712 116.900 L 146.823 111.600 150.712 111.543 C 192.524 110.926,209.085 110.910,237.089 111.456 " stroke="none" fill="#9f9f9f" fill-rule="evenodd"></path><path id="path3" d="M192.484 3.667 C 192.438 5.794,192.296 7.864,192.170 8.267 C 191.957 8.944,191.974 8.947,192.384 8.309 C 192.659 7.883,192.779 6.122,192.698 3.709 L 192.567 -0.200 192.484 3.667 M203.267 4.076 C 203.230 6.428,203.335 8.437,203.500 8.540 C 203.665 8.642,203.751 7.348,203.692 5.663 C 203.501 0.289,203.336 -0.327,203.267 4.076 M191.698 42.888 L 191.600 76.776 186.500 76.888 L 181.400 77.000 181.200 82.463 C 181.090 85.468,181.135 87.842,181.300 87.739 C 181.465 87.637,181.600 85.313,181.600 82.576 L 181.600 77.600 186.592 77.600 C 191.439 77.600,191.591 77.574,191.802 76.700 C 191.922 76.205,191.970 60.770,191.908 42.400 L 191.795 9.000 191.698 42.888 M204.200 77.200 C 204.343 77.432,206.537 77.600,209.424 77.600 L 214.400 77.600 214.400 82.576 C 214.400 85.313,214.535 87.637,214.700 87.739 C 215.023 87.940,214.925 79.193,214.588 77.700 C 214.390 76.823,214.251 76.800,209.169 76.800 C 205.793 76.800,204.040 76.941,204.200 77.200 M161.318 88.298 C 163.033 88.373,165.733 88.372,167.318 88.297 C 168.903 88.221,167.500 88.159,164.200 88.160 C 160.900 88.161,159.603 88.222,161.318 88.298 M228.700 88.297 C 230.295 88.373,232.905 88.373,234.500 88.297 C 236.095 88.221,234.790 88.159,231.600 88.159 C 228.410 88.159,227.105 88.221,228.700 88.297 M249.522 93.700 L 249.644 98.800 254.822 98.800 L 260.000 98.800 260.000 93.822 L 260.000 88.843 254.700 88.722 L 249.400 88.600 249.522 93.700 M135.599 93.900 L 135.599 99.000 140.799 98.878 L 146.000 98.756 146.000 93.778 L 146.000 88.800 140.800 88.800 L 135.600 88.800 135.599 93.900 M115.300 100.297 C 116.785 100.374,119.215 100.374,120.700 100.297 C 122.185 100.220,120.970 100.157,118.000 100.157 C 115.030 100.157,113.815 100.220,115.300 100.297 M175.700 100.299 L 170.000 100.422 170.000 105.378 C 170.000 108.103,169.865 110.409,169.700 110.501 C 169.535 110.593,169.640 110.608,169.933 110.534 C 170.226 110.460,172.881 110.400,175.833 110.400 L 181.200 110.400 181.200 105.400 L 181.200 100.400 198.000 100.400 L 214.800 100.400 214.800 105.400 L 214.800 110.400 220.167 110.400 C 223.119 110.400,225.774 110.460,226.067 110.534 C 226.360 110.608,226.465 110.593,226.300 110.501 C 226.135 110.409,226.000 108.127,226.000 105.430 L 226.000 100.527 217.536 100.264 C 209.510 100.014,188.097 100.032,175.700 100.299 M282.872 105.276 C 282.832 108.068,282.935 110.437,283.100 110.540 C 283.265 110.642,283.352 109.168,283.293 107.263 C 283.095 100.872,282.945 100.162,282.872 105.276 M104.100 111.097 C 105.585 111.174,108.015 111.174,109.500 111.097 C 110.985 111.020,109.770 110.957,106.800 110.957 C 103.830 110.957,102.615 111.020,104.100 111.097 M149.682 111.096 C 151.158 111.173,153.678 111.173,155.282 111.097 C 156.887 111.021,155.680 110.958,152.600 110.958 C 149.520 110.957,148.207 111.019,149.682 111.096 M240.482 111.096 C 241.958 111.173,244.478 111.173,246.082 111.097 C 247.687 111.021,246.480 110.958,243.400 110.958 C 240.320 110.957,239.007 111.019,240.482 111.096 M260.157 116.800 C 260.157 119.770,260.220 120.985,260.297 119.500 C 260.374 118.015,260.374 115.585,260.297 114.100 C 260.220 112.615,260.157 113.830,260.157 116.800 M126.900 122.297 C 128.385 122.374,130.815 122.374,132.300 122.297 C 133.785 122.220,132.570 122.157,129.600 122.157 C 126.630 122.157,125.415 122.220,126.900 122.297 M263.700 122.297 C 265.185 122.374,267.615 122.374,269.100 122.297 C 270.585 122.220,269.370 122.157,266.400 122.157 C 263.430 122.157,262.215 122.220,263.700 122.297 M84.100 122.699 L 78.800 122.823 78.800 127.880 C 78.800 132.113,78.686 133.073,78.100 133.769 C 77.401 134.599,77.401 134.599,78.300 133.838 C 79.144 133.124,79.200 132.766,79.200 128.138 L 79.200 123.200 84.176 123.200 C 87.063 123.200,89.257 123.032,89.400 122.800 C 89.536 122.580,89.592 122.439,89.524 122.487 C 89.456 122.535,87.015 122.631,84.100 122.699 M282.872 127.876 C 282.832 130.778,282.935 133.237,283.100 133.340 C 283.265 133.442,283.352 131.878,283.293 129.863 C 283.101 123.247,282.945 122.513,282.872 127.876 M306.800 128.000 L 306.800 133.200 311.800 133.200 L 316.800 133.200 316.800 128.000 L 316.800 122.800 311.800 122.800 L 306.800 122.800 306.800 128.000 M104.100 133.897 C 105.585 133.974,108.015 133.974,109.500 133.897 C 110.985 133.820,109.770 133.757,106.800 133.757 C 103.830 133.757,102.615 133.820,104.100 133.897 M286.517 133.897 C 288.011 133.974,290.351 133.974,291.717 133.896 C 293.082 133.818,291.860 133.755,289.000 133.755 C 286.140 133.756,285.022 133.820,286.517 133.897 M320.500 134.297 C 321.985 134.374,324.415 134.374,325.900 134.297 C 327.385 134.220,326.170 134.157,323.200 134.157 C 320.230 134.157,319.015 134.220,320.500 134.297 M100.955 139.400 C 100.956 142.260,101.020 143.378,101.097 141.883 C 101.174 140.389,101.174 138.049,101.096 136.683 C 101.018 135.318,100.955 136.540,100.955 139.400 M66.800 145.000 C 66.405 145.476,65.244 145.600,61.173 145.600 L 56.043 145.600 55.922 150.963 C 55.855 153.912,55.935 156.242,56.100 156.139 C 56.265 156.037,56.400 153.713,56.400 150.976 L 56.400 146.000 61.338 146.000 C 65.768 146.000,66.350 145.918,67.000 145.200 C 67.398 144.760,67.628 144.400,67.511 144.400 C 67.394 144.400,67.074 144.670,66.800 145.000 M295.151 144.912 C 295.324 145.084,297.790 145.174,300.632 145.111 L 305.800 144.997 300.319 144.798 C 297.304 144.689,294.979 144.741,295.151 144.912 M92.900 145.097 C 94.385 145.174,96.815 145.174,98.300 145.097 C 99.785 145.020,98.570 144.957,95.600 144.957 C 92.630 144.957,91.415 145.020,92.900 145.097 M329.357 150.800 C 329.357 153.770,329.420 154.985,329.497 153.500 C 329.574 152.015,329.574 149.585,329.497 148.100 C 329.420 146.615,329.357 147.830,329.357 150.800 M55.357 162.000 C 55.357 164.970,55.420 166.185,55.497 164.700 C 55.574 163.215,55.574 160.785,55.497 159.300 C 55.420 157.815,55.357 159.030,55.357 162.000 M77.998 162.481 C 77.889 165.496,77.941 167.821,78.112 167.649 C 78.284 167.476,78.374 165.010,78.311 162.168 L 78.197 157.000 77.998 162.481 M340.751 167.713 C 340.924 167.885,343.301 167.974,346.033 167.911 L 351.000 167.797 345.719 167.598 C 342.814 167.489,340.579 167.541,340.751 167.713 M47.317 167.897 C 48.811 167.974,51.151 167.974,52.517 167.896 C 53.882 167.818,52.660 167.755,49.800 167.755 C 46.940 167.756,45.822 167.820,47.317 167.897 M320.500 167.897 C 321.985 167.974,324.415 167.974,325.900 167.897 C 327.385 167.820,326.170 167.757,323.200 167.757 C 320.230 167.757,319.015 167.820,320.500 167.897 M351.922 184.619 L 352.043 190.000 357.222 190.000 L 362.400 190.000 362.400 185.000 L 362.400 180.000 357.480 180.000 C 354.774 180.000,352.389 179.828,352.180 179.619 C 351.940 179.378,351.845 181.219,351.922 184.619 M329.522 184.878 L 329.644 189.956 334.722 190.078 L 339.800 190.200 339.678 185.122 L 339.556 180.044 334.478 179.922 L 329.400 179.800 329.522 184.878 M35.700 190.297 C 37.185 190.374,39.615 190.374,41.100 190.297 C 42.585 190.220,41.370 190.157,38.400 190.157 C 35.430 190.157,34.215 190.220,35.700 190.297 M55.860 190.300 C 55.758 190.465,57.322 190.552,59.337 190.493 C 65.953 190.301,66.687 190.145,61.324 190.072 C 58.422 190.032,55.963 190.135,55.860 190.300 M362.961 197.200 C 362.961 200.610,363.022 202.005,363.097 200.300 C 363.172 198.595,363.172 195.805,363.097 194.100 C 363.022 192.395,362.961 193.790,362.961 197.200 M54.886 209.100 L 54.800 214.400 49.824 214.400 C 47.087 214.400,44.763 214.535,44.661 214.700 C 44.558 214.865,46.807 214.945,49.658 214.877 C 55.756 214.733,55.265 215.285,55.099 208.778 L 54.973 203.800 54.886 209.100 M363.382 209.499 L 363.400 215.000 368.663 215.200 C 371.558 215.310,373.842 215.265,373.739 215.100 C 373.637 214.935,371.318 214.800,368.588 214.800 L 363.623 214.800 363.494 209.399 L 363.365 203.999 363.382 209.499 M343.300 214.697 C 344.785 214.774,347.215 214.774,348.700 214.697 C 350.185 214.620,348.970 214.557,346.000 214.557 C 343.030 214.557,341.815 214.620,343.300 214.697 M21.775 215.321 C 21.665 215.608,21.631 218.173,21.701 221.021 L 21.826 226.200 21.913 220.712 L 22.000 215.223 27.300 215.099 L 32.600 214.975 27.287 214.887 C 23.228 214.821,21.928 214.923,21.775 215.321 M351.758 232.200 C 351.758 235.280,351.821 236.487,351.897 234.882 C 351.973 233.278,351.973 230.758,351.896 229.282 C 351.819 227.807,351.757 229.120,351.758 232.200 M43.758 243.400 C 43.758 246.480,43.821 247.687,43.897 246.082 C 43.973 244.478,43.973 241.958,43.896 240.482 C 43.819 239.007,43.757 240.320,43.758 243.400 M352.190 249.200 C 352.300 249.750,352.392 252.585,352.395 255.500 L 352.400 260.800 357.400 260.800 L 362.400 260.800 362.400 255.000 L 362.400 249.200 357.433 249.200 C 353.853 249.200,352.400 249.060,352.229 248.700 C 352.098 248.425,352.081 248.650,352.190 249.200 M33.397 260.156 C 33.236 265.962,33.202 270.957,33.321 271.256 C 33.440 271.555,33.551 269.325,33.568 266.300 L 33.600 260.800 38.600 260.800 L 43.600 260.800 43.600 255.200 L 43.600 249.600 38.645 249.600 L 33.691 249.600 33.397 260.156 M20.962 266.200 C 20.962 269.720,21.024 271.106,21.098 269.281 C 21.172 267.456,21.172 264.576,21.097 262.881 C 21.022 261.186,20.961 262.680,20.962 266.200 M362.499 379.300 L 362.400 487.600 357.280 487.600 C 350.843 487.600,351.179 487.253,351.282 493.780 L 351.364 499.000 351.582 493.600 L 351.800 488.200 357.117 488.088 C 360.847 488.010,362.489 487.831,362.620 487.488 C 362.721 487.220,362.758 438.400,362.702 379.000 L 362.599 271.000 362.499 379.300 M374.997 391.000 C 374.997 456.560,375.044 483.440,375.100 450.732 C 375.156 418.025,375.156 364.385,375.100 331.532 C 375.044 298.680,374.997 325.440,374.997 391.000 M35.200 487.865 C 39.565 488.158,43.911 488.175,43.740 487.900 C 43.637 487.735,41.268 487.632,38.476 487.672 C 35.684 487.712,34.210 487.799,35.200 487.865 M44.555 493.800 C 44.556 496.660,44.620 497.778,44.697 496.283 C 44.774 494.789,44.774 492.449,44.696 491.083 C 44.618 489.718,44.555 490.940,44.555 493.800 M55.288 516.469 L 55.400 521.800 61.000 521.819 L 66.600 521.837 61.300 521.707 L 56.000 521.577 56.000 516.612 C 56.000 513.639,55.835 511.545,55.588 511.393 C 55.312 511.222,55.213 512.888,55.288 516.469 M89.467 511.467 C 89.320 511.613,89.200 513.953,89.200 516.667 L 89.200 521.600 84.224 521.600 C 81.487 521.600,79.163 521.735,79.061 521.900 C 78.958 522.065,81.332 522.110,84.337 522.000 L 89.800 521.800 90.000 516.499 C 90.188 511.506,90.115 510.818,89.467 511.467 M306.000 516.499 L 306.200 521.800 311.400 521.817 L 316.600 521.835 311.500 521.706 L 306.400 521.577 306.400 516.388 C 306.400 513.535,306.265 511.200,306.100 511.199 C 305.935 511.199,305.890 513.584,306.000 516.499 M340.000 516.388 L 340.000 521.577 334.733 521.688 C 330.455 521.779,329.435 521.913,329.302 522.400 C 329.185 522.831,329.237 522.863,329.485 522.513 C 329.720 522.183,331.510 521.989,335.016 521.913 L 340.200 521.800 340.400 516.499 C 340.510 513.584,340.465 511.199,340.300 511.199 C 340.135 511.200,340.000 513.535,340.000 516.388 M316.895 561.676 C 316.843 583.388,316.935 601.236,317.100 601.338 C 317.372 601.506,317.369 573.676,317.094 536.400 C 317.037 528.590,316.947 539.964,316.895 561.676 M66.592 562.000 C 66.592 583.670,66.641 592.535,66.700 581.700 C 66.759 570.865,66.759 553.135,66.700 542.300 C 66.641 531.465,66.592 540.330,66.592 562.000 M70.100 601.897 C 71.585 601.974,74.015 601.974,75.500 601.897 C 76.985 601.820,75.770 601.757,72.800 601.757 C 69.830 601.757,68.615 601.820,70.100 601.897 M320.500 601.897 C 321.985 601.974,324.415 601.974,325.900 601.897 C 327.385 601.820,326.170 601.757,323.200 601.757 C 320.230 601.757,319.015 601.820,320.500 601.897 " stroke="none" fill="#7c7c7c" fill-rule="evenodd"></path><path id="path4" d="M192.603 4.300 C 192.466 6.665,192.226 24.080,192.070 43.000 C 191.914 61.920,191.745 77.445,191.693 77.500 C 191.642 77.555,189.355 77.600,186.612 77.600 L 181.624 77.600 181.512 82.700 L 181.400 87.800 175.800 88.041 C 172.720 88.174,175.060 88.201,181.000 88.102 C 186.940 88.003,191.890 87.834,192.000 87.728 C 192.110 87.621,192.290 69.773,192.400 48.067 L 192.600 8.600 197.769 8.488 C 201.635 8.403,203.019 8.504,203.263 8.888 C 203.441 9.169,203.591 26.984,203.594 48.476 C 203.597 69.968,203.735 87.635,203.900 87.736 C 204.065 87.837,209.060 88.001,215.000 88.101 C 220.940 88.201,223.280 88.174,220.200 88.041 L 214.600 87.800 214.488 82.712 L 214.376 77.624 209.288 77.512 L 204.200 77.400 204.098 43.218 C 204.032 21.232,203.854 8.894,203.598 8.638 C 203.379 8.419,203.200 6.386,203.200 4.120 L 203.200 0.000 198.026 -0.000 L 192.851 -0.000 192.603 4.300 M146.500 88.665 C 146.138 88.811,146.000 90.230,146.000 93.811 L 146.000 98.756 140.900 98.970 C 138.095 99.088,133.010 99.372,129.600 99.601 C 126.190 99.830,121.015 100.113,118.100 100.230 L 112.800 100.443 112.800 105.588 C 112.800 108.418,112.665 110.809,112.500 110.901 C 112.335 110.993,112.440 111.008,112.733 110.934 C 113.026 110.860,115.585 110.800,118.421 110.800 L 123.577 110.800 123.688 105.500 L 123.800 100.200 135.200 99.800 L 146.600 99.400 146.712 94.111 L 146.823 88.821 152.712 88.699 L 158.600 88.577 152.800 88.520 C 149.610 88.489,146.775 88.554,146.500 88.665 M242.900 88.694 L 248.800 88.821 248.806 93.711 C 248.814 100.085,247.634 99.457,260.200 99.779 C 273.930 100.130,272.400 99.403,272.400 105.575 L 272.400 110.695 283.300 111.048 L 294.200 111.400 294.400 116.800 L 294.600 122.200 300.200 122.400 L 305.800 122.600 306.000 128.000 L 306.200 133.400 311.460 133.511 C 317.887 133.647,317.546 133.301,317.687 139.826 L 317.800 145.000 323.200 145.200 L 328.600 145.400 328.712 150.784 C 328.846 157.226,328.394 156.786,334.900 156.794 L 340.000 156.800 340.000 161.967 C 340.000 168.970,339.487 168.400,345.789 168.400 L 351.092 168.400 351.446 179.500 L 351.800 190.600 357.301 190.800 C 360.878 190.930,362.755 190.860,362.668 190.600 C 362.591 190.368,360.337 190.153,357.315 190.089 L 352.096 189.977 351.748 179.089 L 351.400 168.200 346.000 168.000 L 340.600 167.800 340.488 162.426 C 340.346 155.636,340.693 156.000,334.351 156.000 L 329.200 156.000 329.200 150.624 C 329.200 147.471,329.035 145.145,328.800 145.000 C 328.567 144.856,328.400 142.596,328.400 139.576 L 328.400 134.400 323.249 134.400 C 319.158 134.400,317.995 134.276,317.600 133.800 C 317.205 133.324,316.042 133.200,311.951 133.200 L 306.800 133.200 306.800 128.144 C 306.800 121.766,307.080 122.030,300.300 122.013 L 295.200 122.000 295.200 116.824 C 295.200 110.587,295.711 111.054,288.600 110.800 L 283.000 110.600 282.889 105.343 L 282.777 100.087 271.581 99.792 C 265.423 99.631,260.287 99.341,260.169 99.149 C 260.050 98.957,257.629 98.800,254.788 98.800 L 249.624 98.800 249.512 93.700 L 249.400 88.600 243.200 88.583 L 237.000 88.566 242.900 88.694 M169.500 100.029 C 168.893 100.385,168.800 101.100,168.800 105.420 L 168.800 110.400 163.300 110.487 L 157.800 110.574 163.000 110.702 C 170.589 110.890,170.000 111.331,170.000 105.456 L 170.000 100.527 178.464 100.264 C 183.120 100.119,191.911 100.000,198.000 100.000 C 204.089 100.000,212.880 100.119,217.536 100.264 L 226.000 100.527 226.000 105.421 C 226.000 111.269,225.423 110.811,232.733 110.768 C 235.740 110.751,237.975 110.646,237.700 110.535 C 237.338 110.389,237.200 108.970,237.200 105.388 L 237.200 100.443 231.700 100.203 C 221.102 99.740,170.236 99.597,169.500 100.029 M135.280 111.280 C 134.674 111.886,134.599 122.000,135.200 122.000 C 135.446 122.000,135.600 120.000,135.600 116.800 L 135.600 111.600 140.700 111.572 C 143.505 111.556,146.160 111.389,146.600 111.200 C 147.098 110.986,145.204 110.846,141.580 110.828 C 137.553 110.809,135.612 110.948,135.280 111.280 M249.400 111.200 C 249.840 111.389,252.495 111.556,255.300 111.572 L 260.400 111.600 260.400 116.800 L 260.400 122.000 265.900 121.913 L 271.400 121.826 266.300 121.701 L 261.200 121.576 261.200 116.602 C 261.200 110.494,261.563 110.790,254.126 110.828 C 250.666 110.846,248.899 110.985,249.400 111.200 M101.067 111.467 C 100.920 111.613,100.800 114.043,100.800 116.867 L 100.800 122.000 95.676 122.000 C 91.791 122.000,90.365 122.142,89.776 122.587 C 89.194 123.028,87.774 123.178,84.100 123.187 L 79.200 123.200 79.200 128.138 C 79.200 134.595,79.403 134.400,72.669 134.400 L 67.600 134.400 67.600 139.538 C 67.600 146.201,67.797 146.000,61.269 146.000 L 56.400 146.000 56.400 150.976 C 56.400 153.863,56.232 156.057,56.000 156.200 C 55.780 156.336,55.614 156.662,55.632 156.924 C 55.654 157.267,55.719 157.261,55.865 156.900 C 56.012 156.535,57.512 156.400,61.422 156.400 L 66.777 156.400 66.889 150.900 L 67.000 145.400 72.260 145.289 C 78.687 145.153,78.346 145.499,78.487 138.974 L 78.600 133.800 84.000 133.600 L 89.400 133.400 89.512 128.105 C 89.643 121.873,88.984 122.446,96.200 122.298 L 101.000 122.200 101.200 116.699 C 101.310 113.674,101.385 111.199,101.367 111.199 C 101.348 111.200,101.213 111.320,101.067 111.467 M118.226 122.299 C 111.684 122.458,112.000 122.156,112.000 128.249 L 112.000 133.200 106.829 133.200 C 100.137 133.200,100.400 132.945,100.400 139.429 L 100.400 144.400 95.400 144.400 C 90.933 144.400,90.315 144.485,89.600 145.200 C 88.889 145.911,88.267 146.000,84.000 146.000 L 79.200 146.000 79.200 150.800 C 79.200 155.067,79.111 155.689,78.400 156.400 C 77.682 157.118,77.600 157.733,77.600 162.388 L 77.600 167.577 72.300 167.688 L 67.000 167.800 66.902 172.800 C 66.755 180.289,67.354 179.600,60.992 179.600 L 55.600 179.600 55.549 184.100 C 55.521 186.575,55.386 191.930,55.249 196.000 L 55.000 203.400 49.763 203.511 L 44.525 203.622 43.995 220.600 L 43.465 237.577 38.433 237.689 L 33.400 237.800 33.153 244.000 C 32.646 256.714,32.766 487.806,33.280 488.320 C 33.601 488.641,35.387 488.800,38.680 488.800 L 43.600 488.800 43.600 493.720 C 43.600 497.013,43.759 498.799,44.080 499.120 C 44.720 499.760,350.431 499.825,351.626 499.186 C 352.328 498.811,352.400 498.306,352.400 493.786 L 352.400 488.800 357.386 488.800 C 361.906 488.800,362.411 488.728,362.786 488.026 C 363.238 487.181,363.292 273.835,362.846 250.600 L 362.600 237.800 357.616 237.687 C 354.244 237.611,352.531 237.416,352.322 237.087 C 351.960 236.517,351.883 247.631,352.243 248.567 C 352.446 249.097,353.287 249.200,357.395 249.200 L 362.304 249.200 362.577 271.300 C 362.727 283.455,362.793 337.140,362.725 390.600 L 362.600 487.800 357.200 488.000 L 351.800 488.200 351.688 493.500 L 351.577 498.800 197.988 498.800 L 44.400 498.800 44.400 493.608 C 44.400 487.498,45.017 488.048,38.000 487.898 L 33.400 487.800 33.276 379.200 C 33.209 319.470,33.274 265.875,33.422 260.100 L 33.691 249.600 38.578 249.600 L 43.465 249.600 44.032 232.100 L 44.600 214.600 49.679 214.488 L 54.757 214.376 54.977 209.088 C 55.098 206.180,55.332 200.740,55.498 197.000 L 55.800 190.200 61.078 190.089 L 66.357 189.977 66.580 184.489 C 66.703 181.470,66.902 176.530,67.023 173.511 L 67.242 168.023 72.521 167.911 L 77.800 167.800 77.898 163.000 C 78.046 155.769,77.441 156.442,83.905 156.311 L 89.400 156.200 89.512 150.816 C 89.646 144.374,89.194 144.814,95.700 144.806 L 100.800 144.800 100.800 139.649 C 100.800 133.307,100.436 133.654,107.226 133.512 L 112.600 133.400 112.712 128.100 L 112.823 122.800 118.112 122.794 C 121.020 122.791,123.670 122.613,124.000 122.400 C 124.533 122.055,124.533 122.021,124.000 122.093 C 123.670 122.138,121.072 122.230,118.226 122.299 M272.136 122.494 C 272.391 122.656,274.980 122.791,277.888 122.794 L 283.177 122.800 283.288 128.100 L 283.400 133.400 288.200 133.498 C 295.416 133.646,294.757 133.073,294.888 139.305 L 295.000 144.600 300.174 144.713 C 306.699 144.854,306.353 144.513,306.489 150.940 L 306.600 156.200 312.000 156.400 L 317.400 156.600 317.511 162.100 L 317.623 167.600 323.004 167.600 C 329.341 167.600,328.746 166.936,328.916 174.200 L 329.028 179.000 329.114 173.580 C 329.221 166.825,329.574 167.200,323.120 167.200 L 318.000 167.200 318.000 162.029 C 318.000 157.965,317.871 156.729,317.400 156.257 C 316.930 155.787,316.800 154.565,316.800 150.629 L 316.800 145.600 311.900 145.587 C 308.226 145.578,306.806 145.428,306.224 144.987 C 305.635 144.542,304.209 144.400,300.324 144.400 L 295.200 144.400 295.200 139.280 C 295.200 132.855,295.556 133.200,288.920 133.200 L 283.600 133.200 283.600 127.987 C 283.600 124.176,283.466 122.729,283.100 122.603 C 282.207 122.296,271.658 122.191,272.136 122.494 M55.016 167.573 C 54.852 167.840,52.811 168.000,49.576 168.000 L 44.400 168.000 44.487 173.500 L 44.575 179.000 44.699 173.700 L 44.823 168.400 49.988 168.400 C 54.655 168.400,56.231 168.098,55.480 167.347 C 55.370 167.237,55.161 167.339,55.016 167.573 M43.900 179.733 C 43.735 180.136,43.600 182.701,43.600 185.433 L 43.600 190.400 38.408 190.400 C 32.157 190.400,32.916 188.669,32.572 203.700 L 32.309 215.200 27.202 215.200 L 22.095 215.200 21.799 226.019 C 21.637 231.969,21.616 236.949,21.752 237.086 C 21.888 237.222,22.000 234.879,22.000 231.879 L 22.000 226.424 27.100 226.312 L 32.200 226.200 32.497 218.400 C 32.660 214.110,32.930 206.190,33.097 200.800 L 33.400 191.000 38.695 190.888 C 43.790 190.781,43.999 190.743,44.211 189.888 C 44.542 188.552,44.246 178.887,43.900 179.733 M329.400 179.600 C 329.543 179.832,331.737 180.000,334.624 180.000 L 339.600 180.000 339.606 184.900 C 339.609 187.595,339.787 190.070,340.000 190.400 C 340.261 190.804,340.390 189.227,340.394 185.580 C 340.398 181.890,340.247 180.007,339.920 179.680 C 339.310 179.070,329.024 178.992,329.400 179.600 M340.490 194.600 C 340.442 196.580,340.520 201.845,340.665 206.300 L 340.927 214.400 346.056 214.400 C 352.116 214.400,351.541 213.691,351.738 221.400 C 351.812 224.260,351.791 221.560,351.693 215.400 C 351.595 209.240,351.433 204.065,351.333 203.900 C 351.234 203.735,348.828 203.600,345.987 203.600 L 340.820 203.600 340.699 197.300 C 340.633 193.834,340.539 192.620,340.490 194.600 M362.884 206.036 C 362.838 207.705,362.918 212.871,363.063 217.515 L 363.326 225.958 368.674 226.079 L 374.023 226.200 373.911 220.800 L 373.800 215.400 368.600 215.200 L 363.400 215.000 363.184 209.000 C 363.058 205.508,362.932 204.269,362.884 206.036 M374.339 367.718 C 374.415 445.333,374.367 509.278,374.231 509.818 L 373.985 510.800 351.816 510.800 C 334.520 510.800,329.576 510.910,329.324 511.300 C 328.917 511.929,328.492 601.669,328.898 601.262 C 329.062 601.098,329.242 583.152,329.298 561.382 L 329.400 521.800 334.700 521.688 L 340.000 521.577 340.000 516.388 L 340.000 511.200 356.920 511.200 C 369.547 511.200,373.962 511.078,374.320 510.720 C 374.834 510.206,374.947 266.200,374.445 239.600 C 374.310 232.450,374.263 290.103,374.339 367.718 M21.100 263.800 C 20.408 322.936,20.731 509.814,21.527 510.534 C 22.172 511.118,24.119 511.203,39.027 511.296 L 55.800 511.400 55.912 516.500 L 56.024 521.600 61.165 521.600 C 66.159 521.600,66.314 521.626,66.548 522.500 C 66.681 522.995,66.792 540.995,66.795 562.500 C 66.798 584.005,66.935 601.600,67.100 601.600 C 67.585 601.600,67.071 511.711,66.583 511.223 C 66.307 510.947,58.690 510.772,43.983 510.703 L 21.800 510.600 21.600 374.400 C 21.462 280.648,21.307 246.178,21.100 263.800 M78.587 511.300 C 78.269 512.147,78.181 601.579,78.498 601.262 C 78.662 601.098,78.842 583.152,78.898 561.382 L 79.000 521.800 84.088 521.688 L 89.176 521.576 89.288 516.488 L 89.400 511.400 197.900 511.299 L 306.400 511.199 306.400 516.399 L 306.400 521.600 311.557 521.600 C 315.891 521.600,316.753 521.701,316.957 522.233 C 317.091 522.581,317.200 540.480,317.200 562.009 C 317.200 583.538,317.335 601.236,317.500 601.338 C 317.907 601.590,317.485 511.931,317.076 511.300 C 316.600 510.564,78.863 510.564,78.587 511.300 " stroke="none" fill="#747474" fill-rule="evenodd"></path></g></svg>