<?xml version="1.0" standalone="no"?>
<!DOCTYPE svg PUBLIC "-//W3C//DTD SVG 20010904//EN"
 "http://www.w3.org/TR/2001/REC-SVG-20010904/DTD/svg10.dtd">
<svg version="1.0" xmlns="http://www.w3.org/2000/svg"
 width="32.000000pt" height="31.000000pt" viewBox="0 0 32.000000 31.000000"
 preserveAspectRatio="xMidYMid meet">

<g transform="translate(0.000000,31.000000) scale(0.100000,-0.100000)"
fill="#000000" stroke="none">
<path d="M95 296 c-107 -48 -124 -186 -32 -260 34 -27 47 -31 97 -31 95 0 155
58 155 150 0 57 -18 91 -67 128 -33 25 -113 32 -153 13z m153 -23 c87 -64 77
-196 -19 -246 -48 -25 -118 -18 -163 17 -83 63 -67 199 28 242 41 19 120 12
154 -13z"/>
</g>
</svg>
