<svg id="svg" version="1.1" xmlns="http://www.w3.org/2000/svg" xmlns:xlink="http://www.w3.org/1999/xlink" width="400" height="413.5064935064935" viewBox="0, 0, 400,413.5064935064935"><g id="svgg"><path id="path0" d="M158.100 11.898 L 154.000 12.028 154.000 15.590 C 154.000 17.550,153.835 19.255,153.634 19.379 C 153.432 19.504,147.768 19.723,141.047 19.867 L 128.827 20.129 128.714 23.964 L 128.600 27.800 120.300 28.155 L 112.000 28.510 112.000 32.208 L 112.000 35.905 103.900 36.253 L 95.800 36.600 95.600 40.600 L 95.400 44.600 87.514 44.950 L 79.628 45.299 79.514 49.150 L 79.400 53.000 75.200 53.200 L 71.000 53.400 70.800 57.400 L 70.600 61.400 66.514 61.514 L 62.428 61.628 62.314 65.714 L 62.200 69.800 58.314 69.914 L 54.429 70.029 54.314 73.914 L 54.200 77.800 50.200 78.000 L 46.200 78.200 46.000 82.400 L 45.800 86.600 41.950 86.714 L 38.099 86.828 37.750 94.714 L 37.400 102.600 33.400 102.800 L 29.400 103.000 29.053 111.100 L 28.705 119.200 24.980 119.200 C 20.480 119.200,20.933 118.224,20.575 128.700 L 20.298 136.800 16.549 136.800 L 12.800 136.800 12.748 140.300 C 12.720 142.225,12.585 147.850,12.448 152.800 L 12.200 161.800 8.562 161.914 L 4.924 162.028 4.662 168.078 C 4.322 175.922,4.324 240.071,4.664 247.500 L 4.924 253.200 8.599 253.200 L 12.274 253.200 12.537 259.864 C 12.682 263.529,12.800 269.103,12.800 272.249 L 12.800 277.971 16.700 278.086 L 20.600 278.200 20.950 286.486 L 21.299 294.772 25.150 294.886 L 29.000 295.000 29.347 303.086 L 29.694 311.172 33.547 311.286 L 37.400 311.400 37.600 315.800 L 37.800 320.200 41.500 320.315 L 45.200 320.430 45.200 323.991 C 45.200 325.950,45.380 327.664,45.600 327.800 C 45.823 327.938,46.000 329.799,46.000 332.010 L 46.000 335.972 50.100 336.086 L 54.200 336.200 54.314 340.300 L 54.428 344.400 58.371 344.400 C 63.013 344.400,62.800 344.168,62.800 349.219 L 62.800 352.772 66.900 352.886 L 71.000 353.000 71.114 356.874 L 71.228 360.747 75.314 360.976 C 77.561 361.102,81.149 361.305,83.286 361.428 L 87.172 361.653 87.286 365.526 L 87.400 369.400 91.500 369.514 L 95.600 369.628 95.600 373.565 L 95.600 377.502 103.786 377.795 L 111.972 378.087 112.086 381.944 L 112.200 385.800 120.500 386.150 L 128.800 386.500 128.800 390.193 L 128.800 393.885 141.400 394.406 L 154.000 394.928 154.000 398.601 L 154.000 402.275 160.300 402.536 C 168.486 402.876,230.714 402.876,238.900 402.536 L 245.200 402.275 245.200 398.537 L 245.200 394.800 248.100 394.747 C 249.695 394.717,255.230 394.582,260.400 394.447 L 269.800 394.200 270.000 390.400 L 270.200 386.600 278.500 386.245 L 286.800 385.890 286.800 381.994 L 286.800 378.098 294.986 377.805 L 303.172 377.513 303.286 373.656 L 303.400 369.800 311.486 369.448 L 319.572 369.095 319.686 365.248 L 319.800 361.400 323.886 361.286 L 327.972 361.172 328.086 357.086 L 328.200 353.000 332.286 352.886 L 336.372 352.772 336.486 348.686 L 336.600 344.600 340.686 344.486 L 344.772 344.372 344.886 340.286 L 345.000 336.200 348.900 336.086 L 352.800 335.971 352.800 332.266 C 352.800 327.614,352.814 327.600,357.427 327.600 L 361.094 327.600 361.447 319.500 L 361.800 311.400 365.656 311.286 L 369.513 311.172 369.805 302.986 L 370.098 294.800 374.000 294.800 L 377.902 294.800 378.195 286.614 L 378.487 278.428 382.344 278.314 L 386.200 278.200 386.446 268.600 C 386.581 263.320,386.716 257.695,386.746 256.100 L 386.800 253.200 390.537 253.200 L 394.275 253.200 394.536 246.900 C 394.876 238.714,394.876 176.486,394.536 168.300 L 394.275 162.000 390.537 162.000 L 386.800 162.000 386.747 158.900 C 386.719 157.195,386.584 151.660,386.447 146.600 L 386.200 137.400 382.400 137.200 L 378.600 137.000 378.200 128.200 L 377.800 119.400 373.944 119.286 L 370.087 119.172 369.795 110.986 L 369.502 102.800 365.565 102.800 L 361.628 102.800 361.514 98.700 L 361.400 94.600 357.526 94.486 L 353.653 94.372 353.426 90.386 C 353.302 88.194,353.098 84.606,352.974 82.414 L 352.747 78.428 348.874 78.314 L 345.000 78.200 344.886 74.114 L 344.772 70.028 340.686 69.914 L 336.600 69.800 336.486 65.714 L 336.372 61.628 332.286 61.514 L 328.200 61.400 328.086 57.314 L 327.972 53.228 323.886 53.114 L 319.800 53.000 319.686 49.147 L 319.572 45.294 311.486 44.947 L 303.400 44.600 303.200 40.600 L 303.000 36.600 295.000 36.400 L 287.000 36.200 286.886 32.355 L 286.772 28.509 278.486 28.155 L 270.200 27.800 270.086 23.900 L 269.971 20.000 263.886 19.999 C 260.538 19.998,254.965 19.880,251.500 19.736 L 245.200 19.475 245.200 15.800 L 245.200 12.125 239.136 11.862 C 233.253 11.608,166.352 11.637,158.100 11.898 M222.136 19.863 L 228.800 20.126 228.800 23.800 L 228.800 27.475 235.100 27.736 C 238.565 27.880,245.750 27.998,251.067 27.999 C 263.017 28.000,262.000 27.609,262.000 32.201 L 262.000 35.917 270.400 36.209 L 278.800 36.502 278.800 40.402 L 278.800 44.302 286.986 44.595 L 295.172 44.887 295.286 48.744 L 295.400 52.600 303.400 53.000 L 311.400 53.400 311.600 57.200 L 311.800 61.000 315.800 61.200 L 319.800 61.400 320.000 65.400 L 320.200 69.400 324.300 69.514 L 328.400 69.628 328.400 73.600 L 328.400 77.572 332.500 77.686 L 336.600 77.800 336.714 81.900 L 336.828 86.000 340.534 86.000 C 345.217 86.000,345.200 85.982,345.200 90.880 L 345.200 94.800 349.000 94.800 L 352.800 94.800 352.800 98.576 C 352.800 100.663,352.979 102.463,353.200 102.600 C 353.423 102.738,353.600 104.599,353.600 106.809 L 353.600 110.771 357.500 110.886 L 361.400 111.000 361.753 119.100 L 362.106 127.200 365.853 127.200 C 367.914 127.200,369.636 127.245,369.680 127.300 C 369.724 127.355,369.859 131.360,369.980 136.200 L 370.200 145.000 374.000 145.200 L 377.800 145.400 378.100 153.600 C 378.264 158.110,378.509 165.529,378.643 170.086 L 378.887 178.371 382.543 178.486 L 386.200 178.600 386.200 207.800 L 386.200 237.000 382.562 237.114 L 378.923 237.228 378.663 242.914 C 378.520 246.041,378.402 250.686,378.401 253.236 C 378.401 255.786,378.282 260.595,378.138 263.923 L 377.876 269.973 374.038 270.086 L 370.200 270.200 370.000 278.400 L 369.800 286.600 365.948 286.714 L 362.097 286.828 361.804 295.014 L 361.512 303.200 357.556 303.200 L 353.600 303.200 353.600 307.376 C 353.600 309.729,353.425 311.661,353.200 311.800 C 352.979 311.937,352.800 313.737,352.800 315.824 L 352.800 319.600 349.014 319.600 L 345.228 319.600 345.114 323.700 L 345.000 327.800 341.000 328.000 L 337.000 328.200 336.886 332.286 L 336.772 336.372 332.686 336.486 L 328.600 336.600 328.486 340.686 L 328.372 344.772 324.286 344.886 L 320.200 345.000 320.000 349.000 L 319.800 353.000 315.714 353.114 L 311.629 353.228 311.514 357.114 L 311.400 361.000 303.300 361.358 L 295.200 361.715 295.200 365.609 L 295.200 369.502 287.014 369.795 L 278.828 370.087 278.714 373.944 L 278.600 377.800 270.300 378.150 L 262.000 378.500 262.000 382.188 L 262.000 385.875 255.936 386.138 C 252.601 386.282,247.860 386.400,245.400 386.400 C 242.940 386.400,238.205 386.518,234.878 386.662 L 228.828 386.924 228.714 390.562 L 228.600 394.200 199.500 394.303 L 170.400 394.405 170.400 390.665 L 170.400 386.925 164.336 386.662 C 161.001 386.518,156.260 386.400,153.800 386.400 C 151.340 386.400,146.599 386.282,143.264 386.138 L 137.200 385.875 137.200 382.186 L 137.200 378.498 129.300 378.222 C 119.049 377.864,120.000 378.313,120.000 373.826 L 120.000 370.106 111.900 369.753 L 103.800 369.400 103.686 365.546 L 103.572 361.692 95.586 361.399 L 87.600 361.107 87.600 357.161 C 87.600 352.566,87.948 352.864,82.400 352.700 L 79.000 352.600 78.886 348.714 L 78.771 344.828 74.686 344.714 L 70.600 344.600 70.486 340.500 L 70.372 336.400 66.400 336.400 L 62.428 336.400 62.314 332.300 L 62.200 328.200 58.114 328.086 L 54.028 327.972 53.914 323.886 L 53.800 319.800 49.952 319.686 L 46.105 319.572 45.752 311.486 L 45.400 303.400 41.552 303.286 L 37.705 303.172 37.352 295.086 L 37.000 287.000 33.146 286.886 L 29.292 286.772 29.000 278.400 L 28.708 270.028 24.854 269.914 L 21.000 269.800 20.648 253.300 L 20.297 236.800 16.611 236.800 L 12.925 236.800 12.664 230.500 C 12.326 222.360,12.326 192.840,12.664 184.700 L 12.925 178.400 16.614 178.400 L 20.302 178.400 20.651 161.900 L 21.000 145.400 24.859 145.286 L 28.717 145.172 29.009 136.386 L 29.302 127.600 33.202 127.600 L 37.102 127.600 37.395 119.414 L 37.687 111.228 41.544 111.114 L 45.400 111.000 45.600 106.800 L 45.800 102.600 49.645 102.486 L 53.490 102.372 53.845 94.486 L 54.200 86.600 58.200 86.400 L 62.200 86.200 62.314 82.114 L 62.428 78.028 66.514 77.914 L 70.600 77.800 70.800 73.800 L 71.000 69.800 75.000 69.600 L 79.000 69.400 79.200 65.400 L 79.400 61.400 87.286 61.045 L 95.172 60.690 95.286 56.845 L 95.400 53.000 99.600 52.800 L 103.800 52.600 103.914 48.744 L 104.028 44.887 112.214 44.595 L 120.400 44.302 120.400 40.398 L 120.400 36.493 128.786 36.200 L 137.172 35.908 137.286 32.054 L 137.400 28.200 151.200 27.957 C 158.790 27.824,166.215 27.689,167.700 27.657 L 170.400 27.600 170.400 23.808 L 170.400 20.016 178.700 19.900 C 197.735 19.632,215.893 19.617,222.136 19.863 " stroke="none" fill="#1c1c1c" fill-rule="evenodd"></path><path id="path1" d="M0.000 93.600 L 0.000 187.200 1.737 187.200 L 3.474 187.200 3.737 180.536 C 3.882 176.871,4.000 170.240,4.000 165.800 C 4.000 161.360,4.118 154.999,4.262 151.664 L 4.525 145.600 8.262 145.600 C 10.318 145.600,12.036 145.555,12.081 145.500 C 12.125 145.445,12.260 141.350,12.381 136.400 L 12.600 127.400 16.443 127.286 L 20.286 127.172 20.643 119.086 L 21.000 111.000 24.843 110.886 L 28.686 110.772 29.043 102.686 L 29.400 94.600 33.286 94.486 L 37.172 94.371 37.286 90.286 L 37.400 86.200 41.300 86.086 L 45.200 85.971 45.200 82.418 C 45.200 77.368,44.987 77.600,49.629 77.600 L 53.572 77.600 53.686 73.500 L 53.800 69.400 57.886 69.286 L 61.972 69.172 62.086 65.086 L 62.200 61.000 66.100 60.886 L 70.000 60.771 70.006 57.286 C 70.014 52.727,69.888 52.852,74.614 52.716 L 78.600 52.600 78.800 48.600 L 79.000 44.600 83.086 44.486 L 87.171 44.372 87.286 40.486 L 87.400 36.600 95.486 36.248 L 103.572 35.895 103.686 32.048 L 103.800 28.200 111.886 27.848 L 119.972 27.495 120.086 23.648 L 120.200 19.800 128.800 19.580 C 133.530 19.459,137.445 19.324,137.500 19.280 C 137.555 19.236,137.600 17.490,137.600 15.400 L 137.600 11.600 139.500 11.543 C 140.545 11.512,149.770 11.377,160.000 11.243 L 178.600 11.000 178.714 7.362 L 178.828 3.724 184.878 3.462 C 192.635 3.126,206.572 3.126,214.336 3.462 L 220.400 3.725 220.400 7.262 L 220.400 10.800 222.500 10.852 C 223.655 10.881,231.080 11.060,239.000 11.249 C 246.920 11.439,255.238 11.697,257.485 11.823 L 261.571 12.053 261.685 15.726 L 261.800 19.400 270.200 19.600 L 278.600 19.800 278.714 23.656 L 278.828 27.513 287.014 27.805 L 295.200 28.098 295.200 32.000 L 295.200 35.902 303.386 36.195 L 311.572 36.487 311.686 40.344 L 311.800 44.200 316.000 44.400 L 320.200 44.600 320.314 48.686 L 320.428 52.772 324.514 52.886 L 328.600 53.000 328.714 56.900 L 328.829 60.800 332.534 60.800 C 337.191 60.800,337.200 60.809,337.200 65.466 L 337.200 69.171 341.100 69.286 L 345.000 69.400 345.114 73.486 L 345.228 77.572 349.314 77.686 L 353.400 77.800 353.514 81.900 L 353.628 86.000 357.600 86.000 L 361.572 86.000 361.686 90.100 L 361.800 94.200 365.800 94.400 L 369.800 94.600 370.147 102.686 L 370.494 110.772 374.347 110.886 L 378.200 111.000 378.547 119.100 L 378.895 127.200 382.398 127.200 C 387.018 127.200,386.763 126.655,386.892 136.831 L 387.000 145.400 390.800 145.600 L 394.600 145.800 394.847 150.400 C 394.983 152.930,395.118 162.155,395.147 170.900 L 395.200 186.800 397.600 186.800 L 400.000 186.800 400.000 93.400 L 400.000 0.000 200.000 0.000 L 0.000 0.000 0.000 93.600 M166.300 28.300 L 153.600 28.411 153.600 32.206 L 153.600 36.000 152.300 35.994 C 151.585 35.990,146.011 36.203,139.914 36.467 L 128.827 36.946 128.714 40.773 L 128.600 44.600 120.600 44.800 L 112.600 45.000 112.400 49.000 L 112.200 53.000 104.114 53.347 L 96.028 53.694 95.914 57.547 L 95.800 61.400 91.714 61.514 L 87.629 61.628 87.514 65.514 L 87.400 69.400 83.400 69.600 L 79.400 69.800 79.200 73.800 L 79.000 77.800 74.914 77.914 L 70.828 78.028 70.714 82.114 L 70.600 86.200 66.514 86.314 L 62.428 86.428 62.314 90.514 L 62.200 94.600 58.314 94.714 L 54.428 94.829 54.314 98.914 L 54.200 103.000 50.157 103.113 L 46.114 103.227 45.757 111.313 L 45.400 119.400 41.500 119.514 L 37.600 119.629 37.600 127.782 C 37.600 138.010,37.959 137.200,33.427 137.200 L 29.740 137.200 29.262 148.100 C 29.000 154.095,28.788 159.585,28.793 160.300 L 28.800 161.600 25.065 161.600 L 21.329 161.600 21.065 174.500 C 20.727 191.054,20.727 224.146,21.065 240.700 L 21.329 253.600 25.065 253.600 L 28.800 253.600 28.794 254.900 C 28.790 255.615,29.003 261.189,29.267 267.286 L 29.746 278.373 33.573 278.486 L 37.400 278.600 37.508 286.686 L 37.616 294.771 41.508 294.886 L 45.400 295.000 45.758 303.100 L 46.115 311.200 50.015 311.200 C 54.607 311.200,54.400 310.972,54.400 316.018 L 54.400 319.571 58.300 319.686 L 62.200 319.800 62.400 324.000 L 62.600 328.200 66.486 328.314 L 70.371 328.429 70.486 332.314 L 70.600 336.200 74.600 336.400 L 78.600 336.600 78.716 340.386 C 78.855 344.906,78.725 344.786,83.486 344.794 L 87.171 344.800 87.286 348.700 L 87.400 352.600 91.386 352.716 C 96.109 352.852,95.986 352.731,95.994 357.256 L 96.000 360.713 103.791 361.005 C 112.861 361.345,112.328 361.049,112.483 365.821 L 112.600 369.400 120.600 369.600 L 128.600 369.800 128.714 373.700 L 128.829 377.600 130.914 377.594 C 132.062 377.591,137.635 377.802,143.300 378.064 L 153.600 378.539 153.600 382.205 L 153.600 385.871 180.500 386.092 C 195.295 386.214,215.950 386.198,226.400 386.057 L 245.400 385.800 245.514 382.172 L 245.628 378.544 255.714 378.065 C 261.261 377.802,266.738 377.590,267.886 377.593 L 269.971 377.600 270.086 373.700 L 270.200 369.800 278.400 369.600 L 286.600 369.400 286.800 365.400 L 287.000 361.400 295.000 361.200 L 303.000 361.000 303.200 357.000 L 303.400 353.000 307.486 352.886 L 311.571 352.772 311.686 348.886 L 311.800 345.000 315.200 344.900 C 320.731 344.736,320.400 345.011,320.400 340.592 L 320.400 336.800 324.029 336.800 C 328.717 336.800,328.800 336.717,328.800 332.029 L 328.800 328.400 332.351 328.400 C 336.727 328.400,336.736 328.390,336.884 323.578 L 337.000 319.800 340.886 319.686 L 344.772 319.571 344.886 315.486 L 345.000 311.400 348.853 311.286 L 352.706 311.172 353.053 303.086 L 353.400 295.000 357.256 294.886 L 361.113 294.772 361.405 286.586 L 361.698 278.400 365.649 278.400 L 369.600 278.400 369.652 275.100 C 369.680 273.285,369.815 267.750,369.952 262.800 L 370.200 253.800 374.000 253.600 L 377.800 253.400 378.057 233.800 C 378.315 214.188,378.111 164.196,377.767 162.500 C 377.593 161.643,377.404 161.600,373.792 161.600 L 370.000 161.600 370.000 156.064 C 370.000 153.019,369.882 147.535,369.738 143.878 L 369.475 137.227 365.638 137.114 L 361.800 137.000 361.452 128.100 L 361.105 119.200 357.203 119.200 L 353.302 119.200 353.010 111.214 L 352.719 103.228 348.859 103.114 L 345.000 103.000 344.800 98.800 L 344.600 94.600 340.700 94.486 L 336.800 94.371 336.800 90.818 C 336.800 85.787,336.987 86.000,332.557 86.000 L 328.800 86.000 328.800 82.280 C 328.800 77.605,328.795 77.600,324.120 77.600 L 320.400 77.600 320.400 73.808 C 320.400 69.389,320.731 69.664,315.200 69.500 L 311.800 69.400 311.686 65.514 L 311.571 61.628 307.486 61.514 L 303.400 61.400 303.200 57.400 L 303.000 53.400 294.914 53.048 L 286.828 52.695 286.714 48.848 L 286.600 45.000 278.400 44.779 C 268.697 44.518,270.000 45.155,270.000 40.670 L 270.000 36.940 259.100 36.462 C 253.105 36.200,247.615 35.988,246.900 35.993 L 245.600 36.000 245.600 32.265 L 245.600 28.531 226.700 28.266 C 209.021 28.018,197.681 28.024,166.300 28.300 M0.000 320.800 L 0.000 413.200 200.000 413.200 L 400.000 413.200 400.000 320.800 L 400.000 228.400 397.600 228.400 L 395.200 228.400 395.207 238.900 C 395.210 244.675,394.998 253.939,394.735 259.486 L 394.256 269.572 390.628 269.686 L 387.000 269.800 386.779 278.200 C 386.658 282.820,386.523 286.645,386.479 286.700 C 386.436 286.755,384.604 286.800,382.408 286.800 L 378.417 286.800 378.308 294.900 L 378.200 303.000 374.350 303.114 L 370.499 303.228 370.150 311.514 L 369.800 319.800 365.900 319.914 L 362.000 320.029 362.000 323.582 C 362.000 328.632,362.213 328.400,357.571 328.400 L 353.628 328.400 353.514 332.500 L 353.400 336.600 349.314 336.714 L 345.228 336.828 345.114 340.914 L 345.000 345.000 341.100 345.114 L 337.200 345.229 337.200 348.934 C 337.200 353.591,337.191 353.600,332.534 353.600 L 328.829 353.600 328.714 357.500 L 328.600 361.400 324.500 361.514 L 320.400 361.628 320.400 365.571 C 320.400 370.229,320.660 370.000,315.367 370.000 L 311.600 370.000 311.600 373.951 L 311.600 377.902 303.414 378.195 L 295.228 378.487 295.114 382.344 L 295.000 386.200 286.900 386.308 L 278.800 386.417 278.800 390.128 C 278.800 395.088,279.359 394.800,269.720 394.800 L 261.600 394.800 261.600 398.530 L 261.600 402.261 251.300 402.736 C 245.635 402.998,236.365 403.209,230.700 403.206 L 220.400 403.200 220.400 406.937 L 220.400 410.675 214.100 410.936 C 206.040 411.270,193.160 411.270,185.100 410.936 L 178.800 410.675 178.800 406.937 L 178.800 403.200 164.264 403.200 C 156.269 403.200,147.005 403.082,143.677 402.938 L 137.627 402.676 137.514 398.838 L 137.400 395.000 129.000 394.800 L 120.600 394.600 120.486 390.750 L 120.372 386.899 112.086 386.550 L 103.800 386.200 103.686 382.352 L 103.572 378.505 95.486 378.152 L 87.400 377.800 87.200 373.800 L 87.000 369.800 82.900 369.686 L 78.800 369.572 78.800 365.600 L 78.800 361.628 74.700 361.514 L 70.600 361.400 70.486 357.314 L 70.372 353.228 66.286 353.114 L 62.200 353.000 62.086 349.100 L 61.971 345.200 58.028 345.200 C 53.386 345.200,53.600 345.434,53.600 340.367 L 53.600 336.800 49.643 336.800 C 44.985 336.800,45.200 337.033,45.200 331.982 L 45.200 328.429 41.300 328.314 L 37.400 328.200 37.200 324.000 L 37.000 319.800 33.144 319.686 L 29.287 319.572 28.995 311.386 L 28.702 303.200 24.795 303.200 L 20.888 303.200 20.596 295.014 L 20.303 286.828 16.452 286.714 L 12.600 286.600 12.379 278.200 C 12.119 268.270,12.734 269.600,8.400 269.600 L 4.800 269.600 4.800 265.824 C 4.800 263.737,4.621 261.937,4.400 261.800 C 4.150 261.646,3.999 257.694,3.999 251.276 C 3.998 245.624,3.880 238.165,3.736 234.700 L 3.475 228.400 1.737 228.400 L 0.000 228.400 0.000 320.800 " stroke="none" fill="#fbfbfb" fill-rule="evenodd"></path><path id="path2" d="M166.300 11.498 C 168.555 11.570,172.245 11.570,174.500 11.498 C 176.755 11.427,174.910 11.369,170.400 11.369 C 165.890 11.369,164.045 11.427,166.300 11.498 M224.721 11.499 C 226.988 11.570,230.588 11.570,232.721 11.498 C 234.855 11.426,233.000 11.368,228.600 11.368 C 224.200 11.368,222.455 11.427,224.721 11.499 M147.913 11.895 C 149.076 11.976,150.876 11.976,151.913 11.893 C 152.951 11.811,152.000 11.745,149.800 11.746 C 147.600 11.747,146.751 11.814,147.913 11.895 M245.527 15.474 L 245.654 19.148 249.527 19.274 L 253.400 19.400 253.273 15.726 L 253.146 12.052 249.273 11.926 L 245.400 11.800 245.527 15.474 M130.700 19.895 C 131.855 19.976,133.745 19.976,134.900 19.895 C 136.055 19.814,135.110 19.748,132.800 19.748 C 130.490 19.748,129.545 19.814,130.700 19.895 M264.313 19.895 C 265.476 19.976,267.276 19.976,268.313 19.893 C 269.351 19.811,268.400 19.745,266.200 19.746 C 264.000 19.747,263.151 19.814,264.313 19.895 M182.700 20.298 L 178.800 20.429 178.800 24.014 L 178.800 27.600 182.973 27.600 L 187.145 27.600 187.273 23.799 C 187.353 21.409,187.251 20.030,187.000 20.083 C 186.780 20.129,184.845 20.226,182.700 20.298 M211.927 23.787 L 212.055 27.600 216.242 27.600 L 220.430 27.600 220.315 23.900 L 220.200 20.200 216.000 20.087 L 211.800 19.973 211.927 23.787 M270.400 23.800 L 270.400 27.600 274.200 27.600 L 278.000 27.600 278.000 23.800 L 278.000 20.000 274.200 20.000 L 270.400 20.000 270.400 23.800 M103.997 32.282 C 103.889 34.527,103.942 36.221,104.116 36.046 C 104.290 35.871,104.378 34.034,104.313 31.964 L 104.195 28.200 103.997 32.282 M137.600 32.200 L 137.600 36.000 141.400 36.000 L 145.200 36.000 145.200 32.200 L 145.200 28.400 141.400 28.400 L 137.600 28.400 137.600 32.200 M253.600 32.200 L 253.600 36.000 257.400 36.000 L 261.200 36.000 261.200 32.200 L 261.200 28.400 257.400 28.400 L 253.600 28.400 253.600 32.200 M287.200 32.200 L 287.200 36.000 291.000 36.000 L 294.800 36.000 294.800 32.200 L 294.800 28.400 291.000 28.400 L 287.200 28.400 287.200 32.200 M303.597 40.518 L 303.795 44.600 303.913 40.836 C 303.978 38.766,303.890 36.929,303.716 36.754 C 303.542 36.579,303.489 38.273,303.597 40.518 M278.146 40.600 C 278.147 42.800,278.214 43.649,278.295 42.487 C 278.376 41.324,278.376 39.524,278.293 38.487 C 278.211 37.449,278.145 38.400,278.146 40.600 M87.460 44.300 C 87.358 44.465,88.562 44.551,90.137 44.491 C 95.010 44.304,95.574 44.131,91.524 44.064 C 89.392 44.029,87.563 44.135,87.460 44.300 M114.313 44.695 C 115.476 44.776,117.276 44.776,118.313 44.693 C 119.351 44.611,118.400 44.545,116.200 44.546 C 114.000 44.547,113.151 44.614,114.313 44.695 M289.113 45.095 C 290.276 45.176,292.076 45.176,293.113 45.093 C 294.151 45.011,293.200 44.945,291.000 44.946 C 288.800 44.947,287.951 45.014,289.113 45.095 M75.000 52.800 L 71.000 53.045 74.876 53.123 C 77.117 53.167,78.857 53.031,79.000 52.800 C 79.136 52.580,79.192 52.435,79.124 52.477 C 79.056 52.520,77.200 52.665,75.000 52.800 M97.913 53.095 C 99.076 53.176,100.876 53.176,101.913 53.093 C 102.951 53.011,102.000 52.945,99.800 52.946 C 97.600 52.947,96.751 53.014,97.913 53.095 M297.513 53.095 C 298.676 53.176,300.476 53.176,301.513 53.093 C 302.551 53.011,301.600 52.945,299.400 52.946 C 297.200 52.947,296.351 53.014,297.513 53.095 M322.313 53.095 C 323.476 53.176,325.276 53.176,326.313 53.093 C 327.351 53.011,326.400 52.945,324.200 52.946 C 322.000 52.947,321.151 53.014,322.313 53.095 M70.544 57.200 C 70.544 59.290,70.612 60.145,70.694 59.100 C 70.776 58.055,70.776 56.345,70.694 55.300 C 70.612 54.255,70.544 55.110,70.544 57.200 M305.700 61.094 C 306.745 61.176,308.455 61.176,309.500 61.094 C 310.545 61.012,309.690 60.944,307.600 60.944 C 305.510 60.944,304.655 61.012,305.700 61.094 M79.600 65.400 L 79.600 69.200 83.200 69.200 L 86.800 69.200 86.800 65.400 L 86.800 61.600 83.200 61.600 L 79.600 61.600 79.600 65.400 M324.199 69.892 L 328.000 70.029 328.000 73.791 C 328.000 75.860,328.135 77.637,328.300 77.740 C 328.465 77.842,328.510 76.098,328.400 73.863 L 328.200 69.800 324.299 69.777 L 320.398 69.754 324.199 69.892 M71.200 73.800 L 71.200 77.600 75.000 77.600 L 78.800 77.600 78.800 73.800 L 78.800 70.000 75.000 70.000 L 71.200 70.000 71.200 73.800 M344.946 73.800 C 344.947 76.000,345.014 76.849,345.095 75.687 C 345.176 74.524,345.176 72.724,345.093 71.687 C 345.011 70.649,344.945 71.600,344.946 73.800 M48.100 77.894 C 49.145 77.976,50.855 77.976,51.900 77.894 C 52.945 77.812,52.090 77.744,50.000 77.744 C 47.910 77.744,47.055 77.812,48.100 77.894 M45.744 82.000 C 45.744 84.090,45.812 84.945,45.894 83.900 C 45.976 82.855,45.976 81.145,45.894 80.100 C 45.812 79.055,45.744 79.910,45.744 82.000 M62.800 82.215 L 62.800 86.030 66.500 85.915 L 70.200 85.800 70.315 82.100 L 70.430 78.400 66.615 78.400 L 62.800 78.400 62.800 82.215 M340.885 86.692 L 344.370 86.830 344.510 90.515 L 344.650 94.200 344.625 90.400 L 344.600 86.600 341.000 86.578 L 337.400 86.555 340.885 86.692 M54.400 90.400 L 54.400 94.000 58.200 94.000 L 62.000 94.000 62.000 90.400 L 62.000 86.800 58.200 86.800 L 54.400 86.800 54.400 90.400 M36.971 94.932 C 36.859 95.224,36.821 97.069,36.887 99.032 L 37.007 102.600 37.203 98.499 C 37.398 94.432,37.364 93.907,36.971 94.932 M45.746 107.000 C 45.747 109.200,45.814 110.049,45.895 108.887 C 45.976 107.724,45.976 105.924,45.893 104.887 C 45.811 103.849,45.745 104.800,45.746 107.000 M25.000 111.200 L 21.000 111.445 24.876 111.523 C 27.117 111.567,28.857 111.431,29.000 111.200 C 29.136 110.980,29.192 110.835,29.124 110.877 C 29.056 110.920,27.200 111.065,25.000 111.200 M355.513 111.495 C 356.676 111.576,358.476 111.576,359.513 111.493 C 360.551 111.411,359.600 111.345,357.400 111.346 C 355.200 111.347,354.351 111.414,355.513 111.495 M37.746 115.400 C 37.747 117.600,37.814 118.449,37.895 117.287 C 37.976 116.124,37.976 114.324,37.893 113.287 C 37.811 112.249,37.745 113.200,37.746 115.400 M377.746 115.400 C 377.747 117.600,377.814 118.449,377.895 117.287 C 377.976 116.124,377.976 114.324,377.893 113.287 C 377.811 112.249,377.745 113.200,377.746 115.400 M37.346 123.400 C 37.347 125.600,37.414 126.449,37.495 125.287 C 37.576 124.124,37.576 122.324,37.493 121.287 C 37.411 120.249,37.345 121.200,37.346 123.400 M380.500 128.294 C 381.545 128.376,383.255 128.376,384.300 128.294 C 385.345 128.212,384.490 128.144,382.400 128.144 C 380.310 128.144,379.455 128.212,380.500 128.294 M370.327 149.700 L 370.453 153.600 374.127 153.601 L 377.800 153.602 377.673 149.828 L 377.546 146.054 373.873 145.927 L 370.200 145.800 370.327 149.700 M21.200 149.800 L 21.200 153.600 25.000 153.600 L 28.800 153.600 28.800 149.800 L 28.800 146.000 25.000 146.000 L 21.200 146.000 21.200 149.800 M8.400 153.577 L 4.600 153.800 4.577 157.701 L 4.554 161.602 4.692 157.801 L 4.829 154.000 8.391 154.000 C 10.350 154.000,12.064 153.820,12.200 153.600 C 12.336 153.380,12.392 153.234,12.324 153.277 C 12.256 153.319,10.490 153.454,8.400 153.577 M390.585 153.891 L 394.372 154.029 394.507 157.914 L 394.642 161.800 394.621 157.800 L 394.600 153.800 390.699 153.777 L 386.798 153.754 390.585 153.891 M20.946 157.800 C 20.947 160.000,21.014 160.849,21.095 159.687 C 21.176 158.524,21.176 156.724,21.093 155.687 C 21.011 154.649,20.945 155.600,20.946 157.800 M378.148 166.400 C 378.148 168.710,378.214 169.655,378.295 168.500 C 378.376 167.345,378.376 165.455,378.295 164.300 C 378.214 163.145,378.148 164.090,378.148 166.400 M4.150 174.200 C 4.151 176.620,4.216 177.558,4.296 176.285 C 4.376 175.012,4.375 173.032,4.294 171.885 C 4.214 170.738,4.149 171.780,4.150 174.200 M378.484 180.836 C 378.438 182.066,378.518 185.801,378.662 189.136 L 378.925 195.200 382.462 195.200 L 386.000 195.200 386.000 191.000 L 386.000 186.800 382.414 186.800 L 378.828 186.800 378.698 182.700 C 378.627 180.445,378.531 179.606,378.484 180.836 M394.950 183.000 C 394.951 185.420,395.016 186.358,395.096 185.085 C 395.176 183.812,395.175 181.832,395.094 180.685 C 395.014 179.538,394.949 180.580,394.950 183.000 M12.800 191.200 L 12.800 195.200 16.600 195.200 L 20.400 195.200 20.400 191.200 L 20.400 187.200 16.600 187.200 L 12.800 187.200 12.800 191.200 M386.178 207.800 C 386.178 214.620,386.232 217.466,386.299 214.125 C 386.366 210.784,386.366 205.204,386.299 201.725 C 386.233 198.246,386.178 200.980,386.178 207.800 M3.750 207.800 C 3.751 210.220,3.816 211.158,3.896 209.885 C 3.976 208.612,3.975 206.632,3.894 205.485 C 3.814 204.338,3.749 205.380,3.750 207.800 M12.800 224.200 L 12.800 228.400 16.600 228.400 L 20.400 228.400 20.400 224.200 L 20.400 220.000 16.600 220.000 L 12.800 220.000 12.800 224.200 M378.604 228.222 C 378.443 232.524,378.421 236.154,378.555 236.289 C 378.690 236.423,378.800 234.793,378.800 232.667 L 378.800 228.800 382.400 228.800 L 386.000 228.800 386.000 224.600 L 386.000 220.400 382.449 220.400 L 378.898 220.400 378.604 228.222 M394.951 232.400 C 394.951 234.930,395.016 235.965,395.096 234.700 C 395.175 233.435,395.175 231.365,395.096 230.100 C 395.016 228.835,394.951 229.870,394.951 232.400 M4.150 241.000 C 4.151 243.420,4.216 244.358,4.296 243.085 C 4.376 241.812,4.375 239.832,4.294 238.685 C 4.214 237.538,4.149 238.580,4.150 241.000 M378.148 249.200 C 378.148 251.510,378.214 252.455,378.295 251.300 C 378.376 250.145,378.376 248.255,378.295 247.100 C 378.214 245.945,378.148 246.890,378.148 249.200 M4.800 257.400 L 4.800 261.200 8.367 261.200 C 10.328 261.200,12.009 261.335,12.101 261.500 C 12.193 261.665,12.208 261.560,12.134 261.267 C 12.060 260.974,12.000 259.129,12.000 257.167 L 12.000 253.600 8.400 253.600 L 4.800 253.600 4.800 257.400 M20.946 257.400 C 20.947 259.600,21.014 260.449,21.095 259.287 C 21.176 258.124,21.176 256.324,21.093 255.287 C 21.011 254.249,20.945 255.200,20.946 257.400 M387.127 257.700 L 387.000 261.400 390.700 261.273 L 394.400 261.145 394.400 257.573 L 394.400 254.000 390.827 254.000 L 387.255 254.000 387.127 257.700 M374.100 261.898 L 370.400 262.030 370.400 265.815 L 370.400 269.600 373.973 269.600 L 377.547 269.600 377.673 265.599 C 377.743 263.399,377.800 261.636,377.800 261.682 C 377.800 261.728,376.135 261.825,374.100 261.898 M21.200 265.800 L 21.200 269.600 25.000 269.600 L 28.800 269.600 28.800 265.800 L 28.800 262.000 25.000 262.000 L 21.200 262.000 21.200 265.800 M382.527 278.698 L 378.854 278.829 378.727 282.515 L 378.600 286.200 382.273 286.073 L 385.946 285.946 386.073 282.172 C 386.143 280.097,386.200 278.436,386.200 278.482 C 386.200 278.528,384.547 278.625,382.527 278.698 M12.800 282.400 L 12.800 286.000 16.600 286.000 L 20.400 286.000 20.400 282.400 L 20.400 278.800 16.600 278.800 L 12.800 278.800 12.800 282.400 M378.146 290.600 C 378.147 292.800,378.214 293.649,378.295 292.487 C 378.376 291.324,378.376 289.524,378.293 288.487 C 378.211 287.449,378.145 288.400,378.146 290.600 M21.127 298.900 L 21.253 302.800 25.027 302.800 L 28.800 302.800 28.800 299.027 L 28.800 295.253 24.900 295.127 L 21.000 295.000 21.127 298.900 M37.746 299.000 C 37.747 301.200,37.814 302.049,37.895 300.887 C 37.976 299.724,37.976 297.924,37.893 296.887 C 37.811 295.849,37.745 296.800,37.746 299.000 M370.327 299.100 L 370.200 303.000 373.900 302.873 L 377.600 302.745 377.600 298.973 L 377.600 295.200 374.027 295.200 L 370.453 295.200 370.327 299.100 M353.460 303.100 C 353.358 303.265,354.562 303.351,356.137 303.291 C 361.010 303.104,361.574 302.931,357.524 302.864 C 355.392 302.829,353.563 302.935,353.460 303.100 M29.554 311.716 C 29.729 311.890,31.566 311.978,33.636 311.913 L 37.400 311.795 33.318 311.597 C 31.073 311.489,29.379 311.542,29.554 311.716 M349.000 311.600 L 345.000 311.845 348.876 311.923 C 351.117 311.967,352.857 311.831,353.000 311.600 C 353.136 311.380,353.192 311.235,353.124 311.277 C 353.056 311.320,351.200 311.465,349.000 311.600 M365.800 311.600 L 361.800 311.845 365.676 311.923 C 367.917 311.967,369.657 311.831,369.800 311.600 C 369.936 311.380,369.992 311.235,369.924 311.277 C 369.856 311.320,368.000 311.465,365.800 311.600 M50.086 311.892 L 53.571 312.030 53.709 315.816 L 53.846 319.602 53.823 315.701 L 53.800 311.800 50.200 311.778 L 46.600 311.755 50.086 311.892 M54.400 324.000 L 54.400 327.600 58.200 327.600 L 62.000 327.600 62.000 324.000 L 62.000 320.400 58.200 320.400 L 54.400 320.400 54.400 324.000 M344.481 323.885 L 344.400 327.570 340.700 327.702 L 337.000 327.834 340.713 327.917 C 345.069 328.014,344.886 328.214,344.699 323.567 L 344.563 320.200 344.481 323.885 M361.344 324.000 C 361.344 326.090,361.412 326.945,361.494 325.900 C 361.576 324.855,361.576 323.145,361.494 322.100 C 361.412 321.055,361.344 321.910,361.344 324.000 M45.746 332.200 C 45.747 334.400,45.814 335.249,45.895 334.087 C 45.976 332.924,45.976 331.124,45.893 330.087 C 45.811 329.049,45.745 330.000,45.746 332.200 M62.577 332.299 L 62.600 336.200 66.663 336.400 C 68.898 336.510,70.642 336.465,70.540 336.300 C 70.437 336.135,68.660 336.000,66.591 336.000 L 62.829 336.000 62.692 332.199 L 62.554 328.398 62.577 332.299 M330.713 336.295 C 331.876 336.376,333.676 336.376,334.713 336.293 C 335.751 336.211,334.800 336.145,332.600 336.146 C 330.400 336.147,329.551 336.214,330.713 336.295 M328.146 340.600 C 328.147 342.800,328.214 343.649,328.295 342.487 C 328.376 341.324,328.376 339.524,328.293 338.487 C 328.211 337.449,328.145 338.400,328.146 340.600 M344.946 340.600 C 344.947 342.800,345.014 343.649,345.095 342.487 C 345.176 341.324,345.176 339.524,345.093 338.487 C 345.011 337.449,344.945 338.400,344.946 340.600 M79.285 348.900 L 79.400 352.600 83.100 352.715 L 86.800 352.830 86.800 349.015 L 86.800 345.200 82.985 345.200 L 79.170 345.200 79.285 348.900 M313.913 352.695 C 315.076 352.776,316.876 352.776,317.913 352.693 C 318.951 352.611,318.000 352.545,315.800 352.546 C 313.600 352.547,312.751 352.614,313.913 352.695 M332.600 352.800 L 328.600 353.045 332.476 353.123 C 334.717 353.167,336.457 353.031,336.600 352.800 C 336.736 352.580,336.792 352.435,336.724 352.477 C 336.656 352.520,334.800 352.665,332.600 352.800 M64.713 353.095 C 65.876 353.176,67.676 353.176,68.713 353.093 C 69.751 353.011,68.800 352.945,66.600 352.946 C 64.400 352.947,63.551 353.014,64.713 353.095 M295.060 361.500 C 294.958 361.665,296.162 361.751,297.737 361.691 C 302.610 361.504,303.174 361.331,299.124 361.264 C 296.992 361.229,295.163 361.335,295.060 361.500 M104.146 365.400 C 104.147 367.600,104.214 368.449,104.295 367.287 C 104.376 366.124,104.376 364.324,104.293 363.287 C 104.211 362.249,104.145 363.200,104.146 365.400 M79.344 365.600 C 79.344 367.690,79.412 368.545,79.494 367.500 C 79.576 366.455,79.576 364.745,79.494 363.700 C 79.412 362.655,79.344 363.510,79.344 365.600 M289.113 369.495 C 290.276 369.576,292.076 369.576,293.113 369.493 C 294.151 369.411,293.200 369.345,291.000 369.346 C 288.800 369.347,287.951 369.414,289.113 369.495 M278.146 373.800 C 278.147 376.000,278.214 376.849,278.295 375.687 C 278.376 374.524,278.376 372.724,278.293 371.687 C 278.211 370.649,278.145 371.600,278.146 373.800 M303.746 373.800 C 303.747 376.000,303.814 376.849,303.895 375.687 C 303.976 374.524,303.976 372.724,303.893 371.687 C 303.811 370.649,303.745 371.600,303.746 373.800 M137.527 381.900 L 137.655 385.600 141.427 385.600 L 145.200 385.600 145.200 382.027 L 145.200 378.453 141.300 378.327 L 137.400 378.200 137.527 381.900 M291.100 378.298 L 287.200 378.429 287.200 382.214 L 287.200 386.000 290.973 386.000 L 294.747 386.000 294.873 381.999 C 294.943 379.799,295.000 378.036,295.000 378.083 C 295.000 378.129,293.245 378.226,291.100 378.298 M253.599 382.100 L 253.598 385.800 257.399 385.673 L 261.200 385.545 261.200 381.973 L 261.200 378.400 257.400 378.400 L 253.600 378.400 253.599 382.100 M106.100 385.894 C 107.145 385.976,108.855 385.976,109.900 385.894 C 110.945 385.812,110.090 385.744,108.000 385.744 C 105.910 385.744,105.055 385.812,106.100 385.894 M155.500 386.295 C 156.655 386.376,158.545 386.376,159.700 386.295 C 160.855 386.214,159.910 386.148,157.600 386.148 C 155.290 386.148,154.345 386.214,155.500 386.295 M174.700 386.698 L 178.800 386.828 178.800 390.414 L 178.800 394.000 183.000 394.000 L 187.200 394.000 187.200 390.462 L 187.200 386.925 181.136 386.662 C 177.801 386.518,174.066 386.438,172.836 386.484 C 171.606 386.531,172.445 386.627,174.700 386.698 M216.100 386.698 L 212.000 386.828 212.000 390.414 L 212.000 394.000 216.200 394.000 L 220.400 394.000 220.400 390.414 L 220.400 386.828 224.500 386.698 L 228.600 386.569 224.400 386.569 C 222.090 386.569,218.355 386.627,216.100 386.698 M274.500 386.698 L 270.800 386.830 270.800 390.415 L 270.800 394.000 274.373 394.000 L 277.945 394.000 278.073 390.199 C 278.143 388.109,278.200 386.436,278.200 386.482 C 278.200 386.528,276.535 386.625,274.500 386.698 M120.800 390.373 L 120.800 393.947 124.700 394.073 L 128.600 394.200 128.473 390.500 L 128.345 386.800 124.573 386.800 L 120.800 386.800 120.800 390.373 M193.500 394.299 C 196.855 394.366,202.345 394.366,205.700 394.299 C 209.055 394.232,206.310 394.178,199.600 394.178 C 192.890 394.178,190.145 394.232,193.500 394.299 M245.527 398.900 L 245.400 402.600 249.300 402.473 L 253.200 402.347 253.200 398.773 L 253.200 395.200 249.427 395.200 L 245.655 395.200 245.527 398.900 M172.915 403.096 C 174.188 403.176,176.168 403.175,177.315 403.094 C 178.462 403.014,177.420 402.949,175.000 402.950 C 172.580 402.951,171.642 403.016,172.915 403.096 M222.115 403.096 C 223.388 403.176,225.368 403.175,226.515 403.094 C 227.662 403.014,226.620 402.949,224.200 402.950 C 221.780 402.951,220.842 403.016,222.115 403.096 " stroke="none" fill="#7c7c7c" fill-rule="evenodd"></path><path id="path3" d="M182.927 3.498 L 178.854 3.627 178.727 7.415 L 178.600 11.202 203.400 11.117 C 217.040 11.071,226.445 10.974,224.300 10.902 L 220.400 10.771 220.400 7.248 L 220.400 3.725 214.336 3.462 C 208.502 3.210,191.390 3.229,182.927 3.498 M141.700 11.498 L 137.600 11.628 137.600 15.381 C 137.600 18.004,137.450 19.196,137.100 19.343 C 136.825 19.458,138.580 19.518,141.000 19.476 L 145.400 19.400 145.600 15.600 L 145.800 11.800 154.200 11.588 L 162.600 11.375 154.200 11.372 C 149.580 11.370,143.955 11.427,141.700 11.498 M241.600 11.613 C 244.570 11.774,248.388 11.927,250.085 11.953 L 253.170 12.000 253.285 15.700 L 253.400 19.400 257.600 19.513 L 261.800 19.627 261.673 15.839 L 261.546 12.052 257.473 11.811 C 255.233 11.678,249.530 11.514,244.800 11.446 C 237.529 11.341,237.034 11.367,241.600 11.613 M120.267 19.867 C 120.120 20.013,120.000 21.790,120.000 23.814 L 120.000 27.494 111.900 27.847 L 103.800 28.200 103.686 32.048 L 103.572 35.895 95.486 36.248 L 87.400 36.600 87.286 40.486 L 87.171 44.372 83.086 44.486 L 79.000 44.600 78.800 48.663 C 78.690 50.898,78.735 52.642,78.900 52.540 C 79.065 52.437,79.200 50.653,79.200 48.576 L 79.200 44.800 83.176 44.800 C 85.396 44.800,87.262 44.623,87.400 44.400 C 87.536 44.179,89.332 44.000,91.409 44.000 L 95.170 44.000 95.285 40.300 L 95.400 36.600 99.600 36.400 L 103.800 36.200 103.914 32.350 L 104.028 28.499 112.314 28.150 L 120.600 27.800 120.714 23.914 L 120.829 20.028 124.914 19.898 L 129.000 19.769 124.767 19.684 C 122.438 19.638,120.413 19.720,120.267 19.867 M273.886 19.891 L 277.971 20.028 278.086 23.914 L 278.200 27.800 286.486 28.150 L 294.772 28.499 294.886 32.350 L 295.000 36.200 299.400 36.400 L 303.800 36.600 303.914 40.454 L 304.028 44.308 312.000 44.600 L 319.973 44.892 320.110 48.946 L 320.246 53.000 320.223 48.800 L 320.200 44.600 316.000 44.400 L 311.800 44.200 311.686 40.344 L 311.572 36.487 303.386 36.195 L 295.200 35.902 295.200 32.000 L 295.200 28.098 287.014 27.805 L 278.828 27.513 278.714 23.656 L 278.600 19.800 274.200 19.777 L 269.800 19.754 273.886 19.891 M187.472 20.261 C 187.323 20.411,187.200 22.101,187.200 24.016 L 187.200 27.499 170.500 27.850 C 156.407 28.145,160.950 28.200,199.600 28.200 C 238.222 28.200,242.785 28.145,228.714 27.850 L 212.029 27.500 211.914 23.850 L 211.800 20.200 199.772 20.094 C 193.157 20.036,187.622 20.111,187.472 20.261 M145.200 32.138 L 145.200 35.877 133.000 36.400 L 120.800 36.923 120.800 40.628 C 120.800 43.214,120.649 44.397,120.300 44.543 C 120.025 44.658,121.780 44.718,124.200 44.676 L 128.600 44.600 128.714 40.773 L 128.827 36.946 139.914 36.467 C 146.011 36.203,151.585 35.990,152.300 35.994 L 153.600 36.000 153.600 32.200 L 153.600 28.400 149.400 28.400 L 145.200 28.400 145.200 32.138 M245.600 32.156 L 245.600 35.913 253.417 36.206 C 257.717 36.367,261.347 36.387,261.484 36.249 C 261.621 36.112,259.903 36.000,257.667 36.000 L 253.600 36.000 253.600 32.200 L 253.600 28.400 249.600 28.400 L 245.600 28.400 245.600 32.156 M265.900 36.698 L 270.000 36.828 270.000 40.614 C 270.000 45.165,268.695 44.517,278.400 44.779 L 286.600 45.000 286.714 48.900 L 286.829 52.800 290.582 52.800 C 292.646 52.800,294.574 52.860,294.867 52.934 C 295.160 53.008,295.265 52.993,295.100 52.901 C 294.935 52.809,294.800 51.050,294.800 48.993 L 294.800 45.253 290.700 45.022 C 288.445 44.896,284.665 44.692,282.300 44.571 L 278.000 44.350 278.000 40.637 L 278.000 36.924 272.300 36.664 C 269.165 36.520,265.520 36.440,264.200 36.486 C 262.880 36.531,263.645 36.627,265.900 36.698 M108.300 45.098 L 104.400 45.229 104.400 48.972 C 104.400 53.400,104.637 53.200,99.382 53.200 L 95.629 53.200 95.514 57.100 L 95.400 61.000 92.000 61.100 C 86.470 61.263,86.800 60.991,86.800 65.393 L 86.800 69.171 82.900 69.286 L 79.000 69.400 78.886 73.486 L 78.772 77.572 74.686 77.686 L 70.600 77.800 70.400 81.800 L 70.200 85.800 66.200 86.000 L 62.200 86.200 62.086 90.100 L 61.971 94.000 58.193 94.000 C 53.791 94.000,54.063 93.670,53.900 99.200 L 53.800 102.600 49.800 102.830 L 45.800 103.060 50.000 103.030 L 54.200 103.000 54.314 98.914 L 54.428 94.829 58.314 94.714 L 62.200 94.600 62.314 90.514 L 62.428 86.428 66.514 86.314 L 70.600 86.200 70.714 82.114 L 70.828 78.028 74.914 77.914 L 79.000 77.800 79.200 73.800 L 79.400 69.800 83.400 69.600 L 87.400 69.400 87.514 65.514 L 87.629 61.628 91.714 61.514 L 95.800 61.400 95.914 57.547 L 96.028 53.694 104.114 53.347 L 112.200 53.000 112.400 48.899 C 112.510 46.644,112.510 44.836,112.400 44.883 C 112.290 44.929,110.445 45.026,108.300 45.098 M70.243 53.433 C 70.109 53.781,70.000 55.574,70.000 57.418 L 70.000 60.771 66.100 60.886 L 62.200 61.000 62.086 65.086 L 61.972 69.172 57.886 69.286 L 53.800 69.400 53.779 73.400 L 53.758 77.400 53.893 73.514 L 54.028 69.628 58.114 69.514 L 62.200 69.400 62.314 65.300 L 62.428 61.200 66.414 61.200 L 70.400 61.200 70.400 57.480 C 70.400 55.120,70.575 53.585,70.880 53.280 C 71.201 52.959,71.215 52.800,70.923 52.800 C 70.682 52.800,70.376 53.085,70.243 53.433 M328.400 56.937 L 328.600 61.000 332.600 61.200 L 336.600 61.400 336.800 65.400 L 337.000 69.400 341.063 69.600 C 343.298 69.710,345.042 69.665,344.940 69.500 C 344.837 69.335,343.053 69.200,340.976 69.200 L 337.200 69.200 337.200 65.480 C 337.200 60.805,337.195 60.800,332.520 60.800 L 328.800 60.800 328.800 57.024 C 328.800 54.947,328.665 53.163,328.500 53.060 C 328.335 52.958,328.290 54.702,328.400 56.937 M303.200 57.299 L 303.400 61.400 307.486 61.514 L 311.571 61.628 311.686 65.514 L 311.800 69.400 315.200 69.500 C 320.731 69.664,320.400 69.389,320.400 73.808 L 320.400 77.600 324.120 77.600 C 328.795 77.600,328.800 77.605,328.800 82.280 L 328.800 86.000 332.557 86.000 C 336.987 86.000,336.800 85.787,336.800 90.818 L 336.800 94.371 340.700 94.486 L 344.600 94.600 344.800 98.800 L 345.000 103.000 348.859 103.114 L 352.719 103.228 353.010 111.214 L 353.302 119.200 357.203 119.200 L 361.105 119.200 361.452 128.100 L 361.800 137.000 365.638 137.114 L 369.475 137.227 369.738 143.878 C 369.882 147.535,370.000 153.019,370.000 156.064 L 370.000 161.600 373.767 161.600 C 376.406 161.600,377.594 161.750,377.735 162.100 C 377.846 162.375,377.951 160.575,377.968 158.100 L 378.000 153.600 374.200 153.600 L 370.400 153.600 370.407 152.500 C 370.411 151.895,370.196 146.141,369.929 139.714 L 369.443 128.027 365.621 127.914 L 361.800 127.800 361.453 119.700 L 361.105 111.600 357.360 111.600 C 352.983 111.600,353.260 111.951,353.100 106.200 L 353.000 102.600 349.126 102.486 L 345.253 102.372 345.030 98.486 C 344.907 96.349,344.703 92.845,344.576 90.700 L 344.345 86.800 340.853 86.800 C 336.412 86.800,336.400 86.787,336.400 81.934 L 336.400 78.028 332.300 77.914 L 328.200 77.800 328.086 73.900 L 327.971 70.000 324.266 70.000 C 319.614 70.000,319.600 69.986,319.600 65.375 L 319.600 61.711 311.700 61.355 L 303.800 61.000 303.686 57.100 C 303.623 54.955,303.443 53.200,303.286 53.199 C 303.128 53.199,303.090 55.044,303.200 57.299 M45.443 78.233 C 45.309 78.581,45.200 80.464,45.200 82.418 L 45.200 85.971 41.300 86.086 L 37.400 86.200 37.286 90.286 L 37.172 94.371 33.286 94.486 L 29.400 94.600 29.043 102.686 L 28.686 110.772 24.843 110.886 L 21.000 111.000 20.643 119.086 L 20.286 127.172 16.443 127.286 L 12.600 127.400 12.579 132.200 L 12.557 137.000 12.692 132.500 L 12.826 128.000 16.586 128.000 C 21.116 128.000,20.665 128.923,21.025 118.914 L 21.301 111.228 25.150 111.114 L 29.000 111.000 29.200 106.800 L 29.400 102.600 33.100 102.485 L 36.800 102.370 36.800 98.609 C 36.800 96.532,36.979 94.736,37.200 94.600 C 37.423 94.462,37.600 92.601,37.600 90.391 L 37.600 86.429 41.500 86.314 L 45.400 86.200 45.516 82.422 C 45.580 80.344,45.827 78.409,46.065 78.122 C 46.343 77.786,46.353 77.600,46.092 77.600 C 45.868 77.600,45.576 77.885,45.443 78.233 M349.086 77.891 L 353.172 78.028 353.286 82.114 L 353.400 86.200 357.274 86.314 L 361.147 86.428 361.374 90.414 C 361.498 92.606,361.702 96.188,361.826 98.374 L 362.052 102.348 366.040 102.474 L 370.028 102.600 369.914 98.600 L 369.800 94.600 365.800 94.400 L 361.800 94.200 361.686 90.100 L 361.572 86.000 357.600 86.000 L 353.628 86.000 353.514 81.900 L 353.400 77.800 349.200 77.777 L 345.000 77.754 349.086 77.891 M370.176 107.200 L 370.200 111.400 374.056 111.514 L 377.913 111.628 378.205 119.814 L 378.498 128.000 382.187 128.000 L 385.876 128.000 386.399 140.786 L 386.923 153.573 390.761 153.686 L 394.600 153.800 394.809 166.400 L 395.017 179.000 395.056 167.000 C 395.077 160.400,394.983 152.930,394.847 150.400 L 394.600 145.800 390.800 145.600 L 387.000 145.400 386.892 136.831 C 386.763 126.655,387.018 127.200,382.398 127.200 L 378.895 127.200 378.547 119.100 L 378.200 111.000 374.314 110.886 L 370.429 110.771 370.290 106.886 L 370.152 103.000 370.176 107.200 M45.600 111.133 C 45.600 111.456,44.435 111.600,41.827 111.600 L 38.053 111.600 37.927 115.614 L 37.800 119.628 41.600 119.514 L 45.400 119.400 45.604 115.200 C 45.717 112.890,45.762 110.925,45.704 110.833 C 45.647 110.742,45.600 110.877,45.600 111.133 M37.284 127.500 C 37.224 127.858,36.142 128.000,33.468 128.000 L 29.736 128.000 29.206 140.800 L 28.676 153.600 24.997 153.600 L 21.318 153.600 21.063 160.300 C 20.923 163.985,20.690 173.345,20.544 181.100 L 20.279 195.200 16.539 195.200 L 12.800 195.200 12.800 207.600 L 12.800 220.000 16.539 220.000 L 20.279 220.000 20.545 234.100 C 20.692 241.855,20.926 251.305,21.066 255.100 L 21.320 262.000 24.998 262.000 L 28.677 262.000 29.200 274.200 L 29.723 286.400 33.448 286.400 L 37.172 286.400 37.306 290.500 C 37.380 292.755,37.431 291.000,37.420 286.600 L 37.400 278.600 33.573 278.486 L 29.746 278.373 29.267 267.286 C 29.003 261.189,28.790 255.615,28.794 254.900 L 28.800 253.600 25.065 253.600 L 21.329 253.600 21.065 240.700 C 20.727 224.146,20.727 191.054,21.065 174.500 L 21.329 161.600 25.065 161.600 L 28.800 161.600 28.793 160.300 C 28.788 159.585,29.000 154.095,29.262 148.100 L 29.740 137.200 33.462 137.200 C 37.897 137.200,37.699 137.494,37.501 131.200 C 37.428 128.890,37.331 127.225,37.284 127.500 M12.084 145.100 C 12.024 145.458,10.941 145.600,8.262 145.600 L 4.525 145.600 4.262 151.664 C 4.118 154.999,4.039 160.534,4.087 163.964 L 4.175 170.200 4.387 162.000 L 4.600 153.800 8.318 153.685 C 12.697 153.549,12.474 153.836,12.299 148.572 C 12.227 146.387,12.130 144.825,12.084 145.100 M378.200 207.800 C 378.200 238.940,378.366 243.641,378.746 223.300 L 378.800 220.400 382.400 220.400 L 386.000 220.400 386.000 207.800 L 386.000 195.200 382.400 195.200 L 378.800 195.200 378.746 192.300 C 378.366 171.959,378.200 176.660,378.200 207.800 M3.600 182.800 L 3.600 187.200 1.800 187.200 L 0.000 187.200 0.000 207.800 L 0.000 228.400 1.786 228.400 L 3.573 228.400 3.686 232.700 C 3.749 235.065,3.832 223.815,3.871 207.700 C 3.910 191.585,3.865 178.400,3.771 178.400 C 3.677 178.400,3.600 180.380,3.600 182.800 M395.200 207.600 L 395.200 228.400 397.600 228.400 L 400.000 228.400 400.000 207.600 L 400.000 186.800 397.600 186.800 L 395.200 186.800 395.200 207.600 M394.885 243.200 C 394.836 246.830,394.680 252.359,394.537 255.486 L 394.277 261.172 390.638 261.286 L 387.000 261.400 386.540 270.800 C 386.287 275.970,386.062 281.505,386.040 283.100 L 386.000 286.000 382.424 286.000 C 380.457 286.000,378.736 286.180,378.600 286.400 C 378.390 286.740,386.211 287.038,386.479 286.700 C 386.523 286.645,386.658 282.820,386.779 278.200 L 387.000 269.800 390.641 269.686 L 394.283 269.572 394.779 257.886 C 395.052 251.459,395.207 244.040,395.124 241.400 C 394.980 236.838,394.968 236.928,394.885 243.200 M4.066 253.276 C 4.025 258.436,4.151 261.646,4.400 261.800 C 4.621 261.937,4.800 263.737,4.800 265.824 L 4.800 269.600 8.367 269.600 C 10.846 269.600,11.995 269.752,12.135 270.100 C 12.246 270.375,12.351 268.770,12.368 266.533 C 12.412 260.957,12.592 261.200,8.405 261.200 L 4.895 261.200 4.514 253.100 L 4.132 245.000 4.066 253.276 M374.000 253.600 L 370.200 253.800 369.898 265.000 C 369.732 271.160,369.647 276.650,369.710 277.200 C 369.774 277.750,369.973 274.555,370.154 270.100 L 370.482 262.000 374.054 262.000 C 378.267 262.000,378.071 262.245,377.915 257.172 L 377.800 253.400 374.000 253.600 M12.577 282.200 L 12.600 286.600 16.452 286.714 L 20.303 286.828 20.596 295.014 L 20.888 303.200 24.944 303.116 L 29.000 303.033 25.146 302.902 L 21.291 302.772 21.017 295.086 C 20.660 285.070,21.113 286.000,16.587 286.000 L 12.828 286.000 12.691 281.900 L 12.554 277.800 12.577 282.200 M361.405 286.586 L 361.113 294.772 357.256 294.886 L 353.400 295.000 353.286 299.000 L 353.172 303.000 357.140 302.874 L 361.107 302.749 361.454 294.674 L 361.800 286.600 365.700 286.486 L 369.600 286.371 369.600 282.386 L 369.600 278.400 365.649 278.400 L 361.698 278.400 361.405 286.586 M377.900 294.933 C 377.735 295.336,377.600 297.264,377.600 299.218 L 377.600 302.770 373.900 302.885 L 370.200 303.000 370.178 307.101 L 370.156 311.202 370.292 307.201 L 370.428 303.200 374.227 303.200 C 377.006 303.200,378.080 303.058,378.228 302.672 C 378.558 301.813,378.232 294.123,377.900 294.933 M37.926 298.771 L 38.053 302.771 41.726 302.885 L 45.400 303.000 45.600 307.200 L 45.800 311.400 49.800 311.600 L 53.800 311.800 54.000 316.000 L 54.200 320.200 58.100 320.314 L 62.000 320.429 62.000 324.191 C 62.000 326.267,62.179 328.064,62.400 328.200 C 62.621 328.336,62.800 330.133,62.800 332.209 L 62.800 335.971 66.700 336.086 L 70.600 336.200 70.714 340.300 L 70.828 344.400 74.790 344.400 C 77.001 344.400,78.862 344.577,79.000 344.800 C 79.137 345.021,80.937 345.200,83.024 345.200 L 86.800 345.200 86.800 348.957 C 86.800 353.387,86.587 353.200,91.618 353.200 L 95.171 353.200 95.286 357.100 L 95.400 361.000 99.000 361.100 C 104.756 361.260,104.400 360.976,104.400 365.408 L 104.400 369.200 107.967 369.200 C 109.929 369.200,111.774 369.292,112.067 369.405 C 112.703 369.651,112.603 362.527,111.960 361.752 C 111.718 361.460,108.790 361.192,103.791 361.005 L 96.000 360.713 95.994 357.256 C 95.986 352.731,96.109 352.852,91.386 352.716 L 87.400 352.600 87.286 348.700 L 87.171 344.800 83.486 344.794 C 78.725 344.786,78.855 344.906,78.716 340.386 L 78.600 336.600 74.600 336.400 L 70.600 336.200 70.486 332.314 L 70.371 328.429 66.486 328.314 L 62.600 328.200 62.400 324.000 L 62.200 319.800 58.300 319.686 L 54.400 319.571 54.400 316.018 C 54.400 310.972,54.607 311.200,50.015 311.200 L 46.115 311.200 45.758 303.100 L 45.400 295.000 41.600 294.886 L 37.800 294.772 37.926 298.771 M29.051 309.764 C 29.133 313.044,29.200 316.592,29.200 317.649 L 29.200 319.571 33.100 319.686 L 37.000 319.800 37.200 324.000 L 37.400 328.200 41.300 328.314 L 45.200 328.429 45.200 331.982 C 45.200 337.033,44.985 336.800,49.643 336.800 L 53.600 336.800 53.600 340.367 C 53.600 345.435,53.384 345.200,58.043 345.200 L 62.000 345.200 62.000 348.976 C 62.000 351.053,62.135 352.837,62.300 352.940 C 62.465 353.042,62.510 351.298,62.400 349.063 L 62.200 345.000 58.200 344.800 L 54.200 344.600 54.000 340.600 L 53.800 336.600 49.800 336.400 L 45.800 336.200 45.686 332.100 L 45.572 328.000 41.632 328.000 L 37.693 328.000 37.401 320.014 L 37.108 312.028 33.254 311.914 L 29.400 311.800 29.151 307.800 C 28.974 304.945,28.945 305.507,29.051 309.764 M352.882 307.286 L 352.800 311.171 348.900 311.286 L 345.000 311.400 344.886 315.486 L 344.772 319.571 340.886 319.686 L 337.000 319.800 336.884 323.578 C 336.736 328.390,336.727 328.400,332.351 328.400 L 328.800 328.400 328.800 332.029 C 328.800 336.717,328.717 336.800,324.029 336.800 L 320.400 336.800 320.400 340.592 C 320.400 345.011,320.731 344.736,315.200 344.900 L 311.800 345.000 311.686 348.886 L 311.571 352.772 307.486 352.886 L 303.400 353.000 303.200 357.101 C 303.090 359.356,303.135 361.201,303.300 361.201 C 303.465 361.200,303.600 359.400,303.600 357.200 L 303.600 353.200 307.576 353.200 C 309.796 353.200,311.662 353.023,311.800 352.800 C 311.937 352.579,313.737 352.400,315.824 352.400 L 319.600 352.400 319.600 348.880 C 319.600 344.430,319.632 344.400,324.280 344.400 L 328.000 344.400 328.000 340.680 C 328.000 336.005,328.005 336.000,332.680 336.000 L 336.400 336.000 336.400 332.280 C 336.400 327.635,336.434 327.600,340.853 327.600 L 344.345 327.600 344.577 323.700 C 344.704 321.555,344.908 317.955,345.030 315.700 L 345.251 311.600 349.038 311.600 C 353.486 311.600,353.282 311.832,353.099 306.968 L 352.965 303.400 352.882 307.286 M365.950 311.914 L 362.099 312.028 361.750 319.914 L 361.400 327.800 357.400 328.000 L 353.400 328.200 353.286 332.286 L 353.172 336.372 349.286 336.507 L 345.400 336.642 349.400 336.621 L 353.400 336.600 353.514 332.500 L 353.628 328.400 357.571 328.400 C 362.214 328.400,362.000 328.634,362.000 323.567 L 362.000 320.000 365.813 320.000 C 370.286 320.000,370.074 320.239,369.916 315.370 L 369.800 311.800 365.950 311.914 M340.914 344.698 L 336.828 344.828 336.714 348.914 L 336.600 353.000 332.500 353.114 L 328.400 353.228 328.400 357.200 L 328.400 361.172 324.300 361.286 L 320.200 361.400 320.000 365.400 L 319.800 369.400 311.900 369.750 L 304.000 370.100 304.000 373.843 C 304.000 378.217,304.350 377.940,298.600 378.100 L 295.000 378.200 294.886 382.086 L 294.771 385.972 290.686 386.109 L 286.600 386.246 290.800 386.223 L 295.000 386.200 295.114 382.344 L 295.228 378.487 303.414 378.195 L 311.600 377.902 311.600 373.951 L 311.600 370.000 315.367 370.000 C 320.660 370.000,320.400 370.229,320.400 365.571 L 320.400 361.628 324.500 361.514 L 328.600 361.400 328.714 357.500 L 328.829 353.600 332.534 353.600 C 337.193 353.600,337.200 353.593,337.200 348.920 L 337.200 345.200 340.976 345.200 C 343.063 345.200,344.863 345.021,345.000 344.800 C 345.136 344.580,345.192 344.438,345.124 344.484 C 345.056 344.531,343.161 344.627,340.914 344.698 M70.577 357.200 L 70.600 361.400 74.700 361.514 L 78.800 361.628 78.800 365.600 L 78.800 369.572 82.900 369.686 L 87.000 369.800 87.200 373.800 L 87.400 377.800 95.486 378.152 L 103.572 378.505 103.686 382.352 L 103.800 386.200 112.086 386.550 L 120.372 386.899 120.486 390.750 L 120.600 394.600 128.800 394.638 L 137.000 394.676 128.900 394.291 L 120.800 393.905 120.800 390.201 L 120.800 386.498 112.614 386.205 L 104.428 385.913 104.314 382.056 L 104.200 378.200 99.800 378.000 L 95.400 377.800 95.286 373.926 L 95.172 370.053 91.186 369.826 C 88.994 369.702,85.406 369.498,83.214 369.374 L 79.228 369.147 79.114 365.274 L 79.000 361.400 74.914 361.286 L 70.828 361.172 70.691 357.086 L 70.554 353.000 70.577 357.200 M287.002 361.700 C 286.509 363.125,286.619 369.604,287.133 369.405 C 287.426 369.292,289.259 369.200,291.206 369.200 L 294.747 369.200 294.873 365.199 L 295.000 361.198 291.087 361.199 C 288.317 361.200,287.124 361.346,287.002 361.700 M120.725 373.518 L 120.850 377.463 131.725 377.939 C 137.706 378.201,143.185 378.412,143.900 378.407 L 145.200 378.400 145.200 382.200 L 145.200 386.000 149.400 386.000 L 153.600 386.000 153.600 382.270 L 153.600 378.539 143.300 378.064 C 137.635 377.802,132.062 377.591,130.914 377.594 L 128.829 377.600 128.714 373.700 L 128.600 369.800 124.600 369.686 L 120.600 369.572 120.725 373.518 M270.267 369.867 C 270.120 370.013,270.000 371.813,270.000 373.867 L 270.000 377.600 267.900 377.593 C 266.745 377.590,261.267 377.802,255.726 378.065 L 245.652 378.543 245.526 382.272 L 245.400 386.002 249.500 386.001 L 253.600 386.000 253.600 382.262 L 253.600 378.523 265.800 378.000 L 278.000 377.477 278.000 373.772 C 278.000 371.182,278.151 370.006,278.500 369.865 C 278.775 369.754,277.095 369.649,274.767 369.632 C 272.438 369.614,270.413 369.720,270.267 369.867 M171.400 386.444 C 176.900 386.579,182.705 386.714,184.300 386.744 L 187.200 386.800 187.200 390.400 L 187.200 394.000 199.600 394.000 L 212.000 394.000 212.000 390.400 L 212.000 386.800 214.300 386.746 C 215.565 386.717,222.990 386.581,230.800 386.445 C 239.522 386.293,228.874 386.198,203.200 386.199 C 180.210 386.199,165.900 386.310,171.400 386.444 M278.300 386.632 C 278.135 386.798,278.000 388.502,278.000 390.419 L 278.000 393.905 269.900 394.286 L 261.800 394.668 269.851 394.734 C 276.323 394.787,277.993 394.690,278.367 394.240 C 278.881 393.620,278.816 386.113,278.300 386.632 M137.525 398.725 L 137.650 402.677 143.689 402.939 C 147.010 403.082,154.514 403.166,160.364 403.125 L 171.000 403.049 161.000 402.781 C 155.500 402.633,149.792 402.486,148.315 402.456 L 145.630 402.400 145.515 398.700 L 145.400 395.000 141.400 394.886 L 137.400 394.772 137.525 398.725 M253.200 398.600 L 253.200 402.400 250.500 402.455 C 235.117 402.768,228.423 403.053,234.600 403.131 C 238.120 403.175,245.635 402.998,251.300 402.736 L 261.600 402.261 261.600 398.530 L 261.600 394.800 257.400 394.800 L 253.200 394.800 253.200 398.600 M178.800 406.937 L 178.800 410.675 185.100 410.936 C 188.565 411.080,195.090 411.197,199.600 411.197 C 204.110 411.197,210.635 411.080,214.100 410.936 L 220.400 410.675 220.400 406.937 L 220.400 403.200 199.600 403.200 L 178.800 403.200 178.800 406.937 " stroke="none" fill="#9d9d9d" fill-rule="evenodd"></path><path id="path4" d="M188.900 11.500 C 194.785 11.562,204.415 11.562,210.300 11.500 C 216.185 11.437,211.370 11.386,199.600 11.386 C 187.830 11.386,183.015 11.437,188.900 11.500 M149.700 11.898 L 145.600 12.028 145.600 15.828 L 145.600 19.628 149.700 19.514 L 153.800 19.400 153.915 15.714 L 154.030 12.028 158.115 11.898 L 162.200 11.769 158.000 11.769 C 155.690 11.769,151.955 11.827,149.700 11.898 M241.100 11.891 L 245.200 12.028 245.200 15.814 L 245.200 19.600 249.300 19.516 L 253.400 19.433 249.515 19.302 L 245.630 19.171 245.515 15.486 L 245.400 11.800 241.200 11.777 L 237.000 11.754 241.100 11.891 M138.915 19.896 C 140.188 19.976,142.168 19.975,143.315 19.894 C 144.462 19.814,143.420 19.749,141.000 19.750 C 138.580 19.751,137.642 19.816,138.915 19.896 M203.400 19.993 L 220.200 20.200 220.314 23.852 L 220.429 27.503 228.636 27.796 C 233.150 27.958,236.954 27.979,237.089 27.845 C 237.223 27.710,235.413 27.600,233.067 27.600 L 228.800 27.600 228.800 23.863 L 228.800 20.126 222.136 19.863 C 218.471 19.718,208.976 19.642,201.036 19.693 L 186.600 19.787 203.400 19.993 M255.700 19.896 C 256.965 19.975,259.035 19.975,260.300 19.896 C 261.565 19.816,260.530 19.751,258.000 19.751 C 255.470 19.751,254.435 19.816,255.700 19.896 M120.995 20.500 C 120.896 20.775,120.767 22.530,120.707 24.400 L 120.600 27.800 116.600 28.042 C 114.400 28.175,116.110 28.201,120.400 28.099 C 129.736 27.876,128.800 28.358,128.800 23.776 L 128.800 20.000 124.987 20.000 C 122.300 20.000,121.122 20.148,120.995 20.500 M170.400 23.800 L 170.400 27.600 166.133 27.600 C 163.787 27.600,161.977 27.710,162.111 27.845 C 162.246 27.979,166.056 27.957,170.578 27.796 L 178.800 27.502 178.800 23.966 L 178.800 20.429 182.700 20.298 C 184.845 20.226,182.955 20.130,178.500 20.084 L 170.400 20.000 170.400 23.800 M270.084 23.676 C 269.982 28.374,269.021 27.873,278.600 28.114 L 286.600 28.316 278.514 27.906 L 270.428 27.495 270.298 23.648 L 270.167 19.800 270.084 23.676 M137.467 28.267 C 137.320 28.413,137.200 30.207,137.200 32.253 L 137.200 35.973 132.900 36.109 L 128.600 36.245 133.000 36.222 L 137.400 36.200 137.514 32.308 L 137.629 28.417 145.514 28.299 L 153.400 28.182 145.567 28.091 C 141.258 28.041,137.613 28.120,137.467 28.267 M253.300 28.300 L 261.200 28.417 261.200 32.201 C 261.200 36.673,260.986 36.511,266.600 36.300 L 270.200 36.165 266.100 36.082 L 262.000 36.000 262.000 32.243 C 262.000 27.632,262.741 27.976,253.067 28.091 L 245.400 28.182 253.300 28.300 M104.327 32.300 L 104.200 36.200 108.100 36.073 L 112.000 35.947 112.000 32.173 L 112.000 28.400 108.227 28.400 L 104.453 28.400 104.327 32.300 M286.977 32.299 L 287.000 36.200 291.000 36.221 L 295.000 36.242 291.114 36.107 L 287.229 35.972 287.091 32.185 L 286.954 28.398 286.977 32.299 M95.467 36.667 C 95.320 36.813,95.200 38.607,95.200 40.652 L 95.200 44.371 91.399 44.508 L 87.598 44.646 91.499 44.623 L 95.400 44.600 95.600 40.499 C 95.710 38.244,95.785 36.399,95.767 36.399 C 95.748 36.400,95.613 36.520,95.467 36.667 M120.484 40.500 L 120.567 44.600 120.698 40.714 L 120.829 36.829 124.714 36.698 L 128.600 36.567 124.500 36.484 L 120.400 36.400 120.484 40.500 M274.486 36.698 L 278.371 36.829 278.502 40.714 L 278.633 44.600 278.716 40.500 L 278.800 36.400 274.700 36.484 L 270.600 36.567 274.486 36.698 M303.200 40.537 L 303.400 44.600 307.600 44.623 L 311.800 44.646 307.700 44.509 L 303.600 44.372 303.600 40.610 C 303.600 38.540,303.465 36.763,303.300 36.660 C 303.135 36.558,303.090 38.302,303.200 40.537 M79.402 45.300 C 79.087 46.211,78.994 53.130,79.300 52.940 C 79.465 52.837,79.600 51.060,79.600 48.991 L 79.600 45.229 83.500 45.098 L 87.400 44.967 83.487 44.884 C 80.654 44.823,79.527 44.938,79.402 45.300 M103.927 48.763 C 103.857 50.943,103.935 52.642,104.100 52.539 C 104.265 52.437,104.400 50.750,104.400 48.791 L 104.400 45.230 108.100 45.098 L 111.800 44.966 107.927 44.883 L 104.053 44.800 103.927 48.763 M294.864 48.476 C 294.829 50.608,294.935 52.437,295.100 52.540 C 295.265 52.642,295.351 51.438,295.291 49.863 C 295.104 44.990,294.931 44.426,294.864 48.476 M315.799 45.092 L 319.600 45.229 319.600 48.991 C 319.600 51.060,319.735 52.837,319.900 52.940 C 320.065 53.042,320.110 51.298,320.000 49.063 L 319.800 45.000 315.899 44.977 L 311.998 44.954 315.799 45.092 M95.467 53.067 C 95.320 53.213,95.200 54.988,95.200 57.011 L 95.200 60.689 87.300 61.045 L 79.400 61.400 79.200 65.400 L 79.000 69.400 75.000 69.600 L 71.000 69.800 70.800 73.800 L 70.600 77.800 66.514 77.914 L 62.428 78.028 62.314 82.114 L 62.200 86.200 58.200 86.400 L 54.200 86.600 53.845 94.500 L 53.489 102.400 49.768 102.400 C 47.722 102.400,45.963 102.535,45.860 102.700 C 45.758 102.865,47.502 102.910,49.737 102.800 L 53.800 102.600 54.150 94.700 L 54.500 86.800 58.170 86.800 C 62.788 86.800,62.800 86.788,62.800 82.120 L 62.800 78.400 66.520 78.400 C 68.880 78.400,70.415 78.225,70.720 77.920 C 71.025 77.615,71.200 76.080,71.200 73.720 L 71.200 70.000 74.920 70.000 C 79.588 70.000,79.600 69.988,79.600 65.370 L 79.600 61.700 87.500 61.350 L 95.400 61.000 95.600 56.899 C 95.710 54.644,95.785 52.799,95.767 52.799 C 95.748 52.800,95.613 52.920,95.467 53.067 M303.526 56.874 L 303.652 60.748 307.526 60.972 C 309.657 61.095,313.245 61.299,315.500 61.424 L 319.600 61.653 319.600 65.403 C 319.600 67.465,319.735 69.237,319.900 69.340 C 320.065 69.442,320.110 67.698,320.000 65.463 L 319.800 61.400 315.800 61.200 L 311.800 61.000 311.600 57.200 L 311.400 53.400 307.400 53.200 L 303.400 53.000 303.526 56.874 M328.177 57.200 L 328.200 61.400 332.286 61.514 L 336.372 61.628 336.486 65.714 L 336.600 69.800 340.800 69.823 L 345.000 69.846 340.914 69.709 L 336.828 69.572 336.714 65.486 L 336.600 61.400 332.514 61.286 L 328.428 61.172 328.291 57.086 L 328.154 53.000 328.177 57.200 M66.600 61.200 L 62.600 61.445 66.476 61.523 C 68.717 61.567,70.457 61.431,70.600 61.200 C 70.736 60.980,70.792 60.835,70.724 60.877 C 70.656 60.920,68.800 61.065,66.600 61.200 M58.200 69.577 L 54.200 69.800 54.000 73.863 C 53.890 76.098,53.935 77.842,54.100 77.740 C 54.265 77.637,54.400 75.853,54.400 73.776 L 54.400 70.000 58.176 70.000 C 60.263 70.000,62.063 69.821,62.200 69.600 C 62.336 69.380,62.392 69.235,62.324 69.277 C 62.256 69.320,60.400 69.455,58.200 69.577 M332.585 77.891 L 336.371 78.029 336.507 81.714 L 336.643 85.400 336.622 81.600 L 336.600 77.800 332.699 77.777 L 328.798 77.754 332.585 77.891 M345.060 78.100 C 345.163 78.265,346.935 78.400,348.997 78.400 L 352.747 78.400 352.971 82.300 C 353.095 84.445,353.298 88.039,353.424 90.286 L 353.653 94.372 357.526 94.486 L 361.400 94.600 361.514 98.700 L 361.628 102.800 365.714 102.716 L 369.800 102.633 365.900 102.502 L 362.000 102.371 362.000 98.609 C 362.000 96.533,361.821 94.736,361.600 94.600 C 361.377 94.462,361.200 92.601,361.200 90.391 L 361.200 86.429 357.300 86.314 L 353.400 86.200 353.200 82.200 L 353.000 78.200 348.937 78.000 C 346.702 77.890,344.958 77.935,345.060 78.100 M45.600 85.933 C 45.600 86.258,44.381 86.400,41.600 86.400 L 37.600 86.400 37.684 90.500 L 37.767 94.600 37.898 90.700 L 38.029 86.800 41.791 86.800 C 45.212 86.800,46.567 86.434,45.840 85.707 C 45.708 85.575,45.600 85.677,45.600 85.933 M340.600 86.377 L 344.600 86.600 344.823 90.600 L 345.045 94.600 345.123 90.780 C 345.220 85.950,345.250 85.980,340.420 86.077 L 336.600 86.155 340.600 86.377 M37.282 98.500 L 37.200 102.400 33.424 102.400 C 31.347 102.400,29.563 102.535,29.461 102.700 C 29.358 102.865,31.068 102.943,33.260 102.873 C 37.909 102.725,37.680 102.979,37.499 98.168 L 37.365 94.600 37.282 98.500 M345.200 98.586 L 345.200 102.371 349.100 102.486 L 353.000 102.600 353.200 106.800 L 353.400 111.000 357.250 111.114 L 361.099 111.228 361.375 118.914 C 361.735 128.925,361.282 128.000,365.827 128.000 L 369.600 128.000 369.684 132.500 L 369.767 137.000 369.901 133.000 C 370.103 126.933,370.289 127.200,365.845 127.200 L 362.106 127.200 361.753 119.100 L 361.400 111.000 357.500 110.886 L 353.600 110.771 353.600 106.809 C 353.600 104.599,353.423 102.738,353.200 102.600 C 352.979 102.463,352.800 100.663,352.800 98.576 L 352.800 94.800 349.000 94.800 L 345.200 94.800 345.200 98.586 M369.851 109.364 C 369.933 112.644,370.000 116.187,370.000 117.237 L 370.000 119.147 373.900 119.273 L 377.800 119.400 377.674 115.515 L 377.547 111.629 373.874 111.515 L 370.200 111.400 369.951 107.400 C 369.774 104.545,369.745 105.107,369.851 109.364 M41.400 111.200 L 37.400 111.445 41.276 111.523 C 43.517 111.567,45.257 111.431,45.400 111.200 C 45.536 110.980,45.592 110.835,45.524 110.877 C 45.456 110.920,43.600 111.065,41.400 111.200 M25.100 111.498 L 21.200 111.629 21.200 115.182 C 21.200 117.136,21.140 118.974,21.066 119.267 C 20.992 119.560,21.007 119.665,21.099 119.500 C 21.191 119.335,22.950 119.200,25.007 119.200 L 28.747 119.200 28.873 115.199 C 28.943 112.999,29.000 111.236,29.000 111.283 C 29.000 111.329,27.245 111.426,25.100 111.498 M378.124 123.200 C 378.106 125.070,378.206 128.940,378.346 131.800 L 378.600 137.000 382.505 137.200 C 385.653 137.361,386.371 137.297,386.205 136.867 C 386.092 136.574,386.000 134.556,386.000 132.382 L 386.000 128.430 382.300 128.315 L 378.600 128.200 378.378 124.000 L 378.157 119.800 378.124 123.200 M16.700 127.914 L 12.800 128.029 12.800 132.414 L 12.800 136.800 16.575 136.800 L 20.350 136.800 20.475 132.300 C 20.544 129.825,20.600 127.800,20.600 127.800 C 20.600 127.800,18.845 127.852,16.700 127.914 M29.285 132.100 L 29.370 136.600 29.498 132.314 L 29.627 128.029 33.513 127.898 L 37.400 127.767 33.300 127.684 L 29.200 127.600 29.285 132.100 M28.883 140.886 L 28.800 145.171 24.900 145.286 L 21.000 145.400 20.977 149.800 L 20.954 154.200 21.091 150.100 L 21.228 146.000 25.006 146.000 C 29.484 146.000,29.307 146.243,29.100 140.400 L 28.966 136.600 28.883 140.886 M12.551 141.600 C 12.551 144.130,12.616 145.165,12.696 143.900 C 12.775 142.635,12.775 140.565,12.696 139.300 C 12.616 138.035,12.551 139.070,12.551 141.600 M370.131 145.400 C 370.205 145.620,371.908 145.852,373.918 145.915 L 377.570 146.030 377.710 149.715 L 377.850 153.400 377.825 149.400 L 377.800 145.400 373.899 145.200 C 371.389 145.071,370.046 145.143,370.131 145.400 M386.548 149.600 C 386.548 151.910,386.614 152.855,386.695 151.700 C 386.776 150.545,386.776 148.655,386.695 147.500 C 386.614 146.345,386.548 147.290,386.548 149.600 M8.543 153.914 L 4.886 154.029 4.594 161.832 C 4.433 166.123,4.413 169.747,4.551 169.884 C 4.688 170.021,4.800 168.303,4.800 166.067 L 4.800 162.000 8.413 162.000 C 12.659 162.000,12.473 162.221,12.316 157.370 L 12.200 153.800 8.543 153.914 M378.151 158.000 C 378.151 160.530,378.216 161.565,378.296 160.300 C 378.375 159.035,378.375 156.965,378.296 155.700 C 378.216 154.435,378.151 155.470,378.151 158.000 M386.800 158.000 L 386.800 162.000 390.600 162.000 L 394.400 162.000 394.400 166.267 C 394.400 168.613,394.511 170.422,394.647 170.286 C 394.783 170.150,394.762 166.430,394.601 162.020 L 394.307 154.000 390.554 154.000 L 386.800 154.000 386.800 158.000 M20.568 170.200 C 20.568 174.600,20.626 176.455,20.698 174.321 C 20.770 172.188,20.770 168.588,20.699 166.321 C 20.627 164.055,20.568 165.800,20.568 170.200 M378.484 172.436 C 378.438 173.666,378.518 177.401,378.662 180.736 L 378.925 186.800 382.449 186.800 L 385.974 186.800 386.106 191.300 C 386.178 193.775,386.229 191.930,386.219 187.200 L 386.200 178.600 382.514 178.485 L 378.828 178.370 378.698 174.285 C 378.627 172.038,378.531 171.206,378.484 172.436 M4.190 207.600 C 4.190 223.770,4.239 230.385,4.300 222.300 C 4.360 214.215,4.360 200.985,4.300 192.900 C 4.239 184.815,4.190 191.430,4.190 207.600 M12.664 184.700 C 12.326 192.840,12.326 222.360,12.664 230.500 L 12.925 236.800 16.663 236.800 L 20.400 236.800 20.400 232.600 L 20.400 228.400 16.600 228.400 L 12.800 228.400 12.800 207.800 L 12.800 187.200 16.600 187.200 L 20.400 187.200 20.400 182.800 L 20.400 178.400 16.663 178.400 L 12.925 178.400 12.664 184.700 M394.986 207.600 C 394.986 218.930,395.037 223.565,395.100 217.900 C 395.162 212.235,395.162 202.965,395.100 197.300 C 395.037 191.635,394.986 196.270,394.986 207.600 M386.091 224.300 L 386.000 228.800 382.444 228.800 L 378.887 228.800 378.594 236.617 C 378.433 240.917,378.413 244.547,378.551 244.684 C 378.688 244.821,378.800 243.193,378.800 241.067 L 378.800 237.200 382.413 237.200 C 386.815 237.200,386.444 238.078,386.300 227.989 C 386.235 223.485,386.141 221.825,386.091 224.300 M20.569 245.200 C 20.569 249.710,20.627 251.555,20.698 249.300 C 20.770 247.045,20.770 243.355,20.698 241.100 C 20.627 238.845,20.569 240.690,20.569 245.200 M394.483 248.900 L 394.400 253.200 390.646 253.200 L 386.893 253.200 386.599 261.220 C 386.438 265.630,386.417 269.350,386.553 269.486 C 386.689 269.622,386.800 268.652,386.800 267.330 C 386.800 266.008,386.918 262.468,387.062 259.463 L 387.324 254.000 390.854 254.000 C 395.047 254.000,394.905 254.206,394.700 248.400 L 394.566 244.600 394.483 248.900 M4.484 249.500 L 4.400 253.600 8.186 253.600 L 11.971 253.600 12.102 257.500 L 12.233 261.400 12.316 257.300 L 12.400 253.200 8.614 253.200 L 4.829 253.200 4.698 249.300 L 4.567 245.400 4.484 249.500 M377.999 255.633 C 377.998 257.045,377.880 260.765,377.736 263.900 L 377.476 269.600 373.738 269.600 C 371.682 269.600,370.000 269.735,369.999 269.900 C 369.999 270.065,371.779 270.143,373.956 270.074 L 377.914 269.949 378.206 261.757 C 378.367 257.252,378.387 253.453,378.249 253.316 C 378.112 253.179,377.999 254.222,377.999 255.633 M20.978 265.400 L 21.000 269.800 24.901 269.823 L 28.802 269.846 25.014 269.709 L 21.227 269.571 21.091 265.286 L 20.955 261.000 20.978 265.400 M12.491 269.667 C 12.376 279.566,12.030 278.800,16.628 278.800 L 20.371 278.800 20.509 282.700 L 20.648 286.600 20.624 282.400 L 20.600 278.200 16.708 278.086 L 12.816 277.971 12.699 269.886 L 12.582 261.800 12.491 269.667 M28.948 274.400 C 28.948 276.710,29.014 277.655,29.095 276.500 C 29.176 275.345,29.176 273.455,29.095 272.300 C 29.014 271.145,28.948 272.090,28.948 274.400 M382.300 278.298 L 378.400 278.429 378.483 282.314 L 378.566 286.200 378.698 282.500 L 378.830 278.800 382.391 278.800 C 384.350 278.800,386.064 278.620,386.200 278.400 C 386.336 278.180,386.392 278.038,386.324 278.084 C 386.256 278.130,384.445 278.226,382.300 278.298 M369.683 282.286 L 369.600 286.371 365.700 286.502 L 361.800 286.633 365.713 286.716 C 370.322 286.815,370.079 287.090,369.899 281.970 L 369.766 278.200 369.683 282.286 M29.284 282.673 L 29.200 286.747 33.201 286.873 C 35.401 286.943,37.201 286.865,37.201 286.700 C 37.200 286.535,35.497 286.400,33.414 286.400 L 29.629 286.400 29.498 282.500 L 29.367 278.600 29.284 282.673 M20.977 290.800 L 21.000 295.000 24.886 295.114 L 28.772 295.229 28.907 299.114 L 29.042 303.000 29.021 299.000 L 29.000 295.000 25.114 294.886 L 21.228 294.771 21.091 290.686 L 20.954 286.600 20.977 290.800 M361.405 295.005 C 361.243 299.317,361.199 302.932,361.306 303.039 C 361.413 303.147,361.633 299.707,361.795 295.395 C 361.957 291.083,362.001 287.468,361.894 287.361 C 361.787 287.253,361.567 290.693,361.405 295.005 M370.084 298.900 L 370.167 303.000 370.298 299.114 L 370.429 295.229 374.314 295.098 L 378.200 294.967 374.100 294.884 L 370.000 294.800 370.084 298.900 M38.600 303.055 C 41.397 303.349,45.512 303.377,45.340 303.100 C 45.237 302.935,43.408 302.829,41.276 302.864 C 39.144 302.899,37.940 302.985,38.600 303.055 M369.683 307.100 L 369.600 311.200 365.787 311.200 C 363.094 311.200,361.926 311.347,361.807 311.700 C 361.501 312.611,361.394 320.336,361.694 319.863 C 361.856 319.609,361.991 317.645,361.994 315.500 L 362.000 311.600 365.813 311.600 C 370.302 311.600,370.079 311.864,369.899 306.770 L 369.766 303.000 369.683 307.100 M29.377 307.499 L 29.400 311.400 33.286 311.514 L 37.172 311.629 37.309 315.714 L 37.446 319.800 37.423 315.600 L 37.400 311.400 33.514 311.286 L 29.629 311.171 29.491 307.385 L 29.354 303.598 29.377 307.499 M353.191 307.600 L 353.000 311.800 349.100 311.914 L 345.200 312.029 345.200 315.814 L 345.200 319.600 349.000 319.600 L 352.800 319.600 352.800 315.880 C 352.800 313.834,352.987 311.973,353.215 311.745 C 353.464 311.496,353.581 309.742,353.507 307.365 L 353.383 303.400 353.191 307.600 M45.925 315.404 L 46.051 319.572 49.925 319.686 L 53.800 319.800 53.914 323.875 L 54.027 327.949 58.177 328.075 C 60.459 328.144,62.242 328.065,62.139 327.900 C 62.037 327.735,60.253 327.600,58.176 327.600 L 54.400 327.600 54.400 323.824 C 54.400 321.737,54.221 319.937,54.000 319.800 C 53.779 319.663,53.600 317.863,53.600 315.776 L 53.600 312.000 50.080 312.000 C 48.144 312.000,46.389 311.828,46.180 311.618 C 45.940 311.377,45.846 312.771,45.925 315.404 M37.686 324.000 L 37.800 327.800 41.882 328.000 C 44.461 328.126,45.823 328.060,45.582 327.820 C 45.372 327.611,45.200 325.868,45.200 323.947 L 45.200 320.455 41.386 320.327 L 37.572 320.200 37.686 324.000 M344.797 323.882 C 344.689 326.127,344.742 327.821,344.916 327.646 C 345.090 327.471,345.178 325.634,345.113 323.564 L 344.995 319.800 344.797 323.882 M353.280 328.080 C 352.975 328.385,352.800 329.920,352.800 332.280 L 352.800 336.000 349.024 336.000 C 346.947 336.000,345.163 336.135,345.060 336.300 C 344.958 336.465,346.702 336.510,348.937 336.400 L 353.000 336.200 353.200 332.200 L 353.400 328.200 357.400 327.977 L 361.400 327.755 357.580 327.677 C 355.047 327.626,353.598 327.762,353.280 328.080 M336.572 328.530 C 336.460 328.822,336.422 330.757,336.487 332.830 L 336.606 336.600 336.803 332.299 C 336.998 328.038,336.965 327.504,336.572 328.530 M49.886 336.291 L 53.972 336.428 54.086 340.514 L 54.200 344.600 58.400 344.623 L 62.600 344.646 58.514 344.509 L 54.428 344.372 54.314 340.286 L 54.200 336.200 50.000 336.177 L 45.800 336.154 49.886 336.291 M70.577 340.699 L 70.600 344.600 74.400 344.622 L 78.200 344.643 74.514 344.507 L 70.829 344.371 70.691 340.585 L 70.554 336.798 70.577 340.699 M320.080 344.880 C 319.777 345.183,319.600 346.708,319.600 349.025 L 319.600 352.689 311.700 353.045 L 303.800 353.400 303.684 357.186 C 303.620 359.269,303.412 361.069,303.221 361.186 C 302.823 361.431,310.341 361.246,311.100 360.992 C 311.453 360.874,311.600 359.710,311.600 357.027 L 311.600 353.228 315.700 353.114 L 319.800 353.000 320.000 349.000 L 320.200 345.000 324.400 344.778 L 328.600 344.557 324.580 344.478 C 321.891 344.426,320.401 344.559,320.080 344.880 M336.571 344.932 C 336.459 345.224,336.427 347.069,336.501 349.032 L 336.635 352.600 336.718 348.714 L 336.800 344.828 340.900 344.698 L 345.000 344.569 340.887 344.484 C 337.775 344.421,336.725 344.529,336.571 344.932 M78.864 348.476 C 78.829 350.608,78.935 352.437,79.100 352.540 C 79.265 352.642,79.351 351.438,79.291 349.863 C 79.104 344.990,78.931 344.426,78.864 348.476 M62.546 349.000 C 62.547 351.200,62.614 352.049,62.695 350.887 C 62.776 349.724,62.776 347.924,62.693 346.887 C 62.611 345.849,62.545 346.800,62.546 349.000 M70.800 356.937 L 71.000 361.000 74.778 361.116 C 79.590 361.264,79.600 361.273,79.600 365.649 L 79.600 369.200 83.376 369.200 C 85.463 369.200,87.263 369.379,87.400 369.600 C 87.536 369.821,89.333 370.000,91.409 370.000 L 95.171 370.000 95.302 373.900 L 95.433 377.800 95.516 373.714 L 95.600 369.628 91.500 369.514 L 87.400 369.400 87.286 365.526 L 87.172 361.653 83.086 361.424 C 80.839 361.298,77.245 361.095,75.100 360.971 L 71.200 360.747 71.200 356.997 C 71.200 354.935,71.065 353.163,70.900 353.060 C 70.735 352.958,70.690 354.702,70.800 356.937 M328.171 353.332 C 328.059 353.624,328.021 355.469,328.087 357.432 L 328.207 361.000 328.403 356.899 C 328.598 352.832,328.564 352.307,328.171 353.332 M87.600 357.154 L 87.600 361.107 95.586 361.399 L 103.572 361.692 103.686 365.546 L 103.800 369.400 107.701 369.423 L 111.602 369.446 107.815 369.309 L 104.029 369.171 103.914 365.286 L 103.800 361.400 99.600 361.200 L 95.400 361.000 95.286 357.100 L 95.171 353.200 91.386 353.200 L 87.600 353.200 87.600 357.154 M319.867 361.467 C 319.720 361.613,319.600 363.407,319.600 365.453 L 319.600 369.172 315.500 369.309 L 311.400 369.446 315.600 369.423 L 319.800 369.400 320.000 365.299 C 320.110 363.044,320.185 361.199,320.167 361.199 C 320.148 361.200,320.013 361.320,319.867 361.467 M294.946 365.800 C 294.947 368.000,295.014 368.849,295.095 367.687 C 295.176 366.524,295.176 364.724,295.093 363.687 C 295.011 362.649,294.945 363.600,294.946 365.800 M115.900 369.898 L 120.000 370.028 120.000 373.806 C 120.000 378.272,119.787 378.111,125.400 377.900 L 129.000 377.765 124.900 377.682 L 120.800 377.600 120.800 373.843 C 120.800 369.377,121.034 369.567,115.667 369.684 L 111.800 369.769 115.900 369.898 M278.667 369.867 C 278.520 370.013,278.400 371.807,278.400 373.853 L 278.400 377.572 274.300 377.709 L 270.200 377.846 274.400 377.823 L 278.600 377.800 278.714 373.914 L 278.829 370.028 282.914 369.898 L 287.000 369.769 282.967 369.684 C 280.748 369.638,278.813 369.720,278.667 369.867 M303.467 369.867 C 303.320 370.013,303.200 371.807,303.200 373.853 L 303.200 377.572 299.100 377.709 L 295.000 377.846 299.200 377.823 L 303.400 377.800 303.514 373.914 L 303.629 370.029 307.514 369.898 L 311.400 369.767 307.567 369.684 C 305.458 369.638,303.613 369.720,303.467 369.867 M100.000 377.978 L 104.200 378.200 104.315 381.873 L 104.429 385.546 108.115 385.759 C 110.142 385.877,115.529 386.182,120.086 386.439 L 128.371 386.904 128.486 390.552 L 128.600 394.200 132.600 394.221 L 136.600 394.242 132.700 394.107 L 128.800 393.972 128.800 390.236 L 128.800 386.500 120.500 386.150 L 112.200 385.800 112.086 381.962 L 111.973 378.124 105.923 377.862 C 102.595 377.718,98.956 377.635,97.836 377.678 C 96.716 377.721,97.690 377.856,100.000 377.978 M133.100 378.291 L 137.200 378.428 137.200 382.168 L 137.200 385.907 145.220 386.201 C 149.630 386.362,153.327 386.406,153.435 386.299 C 153.542 386.191,150.030 385.972,145.630 385.811 L 137.629 385.519 137.514 381.859 L 137.400 378.200 133.200 378.177 L 129.000 378.154 133.100 378.291 M261.700 378.265 C 261.353 378.405,261.200 379.542,261.200 381.971 L 261.200 385.476 255.737 385.738 C 252.732 385.882,249.102 386.000,247.670 386.000 C 246.238 386.000,245.179 386.112,245.316 386.249 C 245.453 386.387,249.263 386.367,253.783 386.205 L 262.000 385.912 262.000 382.170 L 262.000 378.428 266.100 378.298 L 270.200 378.169 266.200 378.116 C 264.000 378.087,261.975 378.154,261.700 378.265 M286.884 382.100 L 286.967 386.200 287.098 382.314 L 287.229 378.429 291.114 378.298 L 295.000 378.167 290.900 378.084 L 286.800 378.000 286.884 382.100 M280.300 386.295 C 281.455 386.376,283.345 386.376,284.500 386.295 C 285.655 386.214,284.710 386.148,282.400 386.148 C 280.090 386.148,279.145 386.214,280.300 386.295 M166.300 386.698 L 170.400 386.828 170.400 390.614 L 170.400 394.400 179.100 394.314 C 183.885 394.267,185.775 394.172,183.300 394.101 L 178.800 393.974 178.800 390.449 L 178.800 386.925 172.736 386.662 C 169.401 386.518,165.666 386.438,164.436 386.484 C 163.206 386.531,164.045 386.627,166.300 386.698 M224.500 386.698 L 220.400 386.828 220.400 390.401 L 220.400 393.974 215.900 394.106 C 213.425 394.178,215.270 394.229,220.000 394.219 L 228.600 394.200 228.715 390.514 L 228.830 386.828 232.915 386.698 L 237.000 386.569 232.800 386.569 C 230.490 386.569,226.755 386.627,224.500 386.698 M270.203 386.900 C 269.816 388.022,269.814 394.398,270.200 394.269 C 270.420 394.195,270.652 392.492,270.715 390.482 L 270.830 386.830 274.515 386.698 L 278.200 386.566 274.287 386.483 C 271.454 386.423,270.327 386.538,270.203 386.900 M141.300 394.698 L 145.600 394.827 145.600 398.565 L 145.600 402.302 153.822 402.596 C 158.344 402.757,162.154 402.779,162.289 402.645 C 162.423 402.510,160.613 402.400,158.267 402.400 L 154.000 402.400 154.000 398.663 L 154.000 394.925 147.700 394.664 C 144.235 394.520,140.410 394.440,139.200 394.486 C 137.990 394.532,138.935 394.628,141.300 394.698 M249.300 394.698 L 245.200 394.828 245.200 398.600 L 245.200 402.373 240.900 402.509 L 236.600 402.645 241.000 402.622 L 245.400 402.600 245.514 398.947 L 245.629 395.294 253.714 394.913 C 258.185 394.702,259.922 394.540,257.600 394.550 C 255.290 394.561,251.555 394.627,249.300 394.698 M189.300 403.100 C 194.965 403.162,204.235 403.162,209.900 403.100 C 215.565 403.037,210.930 402.986,199.600 402.986 C 188.270 402.986,183.635 403.037,189.300 403.100 " stroke="none" fill="#747474" fill-rule="evenodd"></path></g></svg>