<svg id="svg" version="1.1" xmlns="http://www.w3.org/2000/svg" xmlns:xlink="http://www.w3.org/1999/xlink" width="400" height="353.5353535353535" viewBox="0, 0, 400,353.5353535353535"><g id="svgg"><path id="path0" d="M150.044 86.207 L 141.821 86.308 141.821 89.978 C 141.821 94.520,143.182 94.076,129.266 94.076 C 115.387 94.076,116.711 93.664,116.711 97.981 L 116.711 101.458 112.909 101.668 C 110.818 101.783,105.447 101.992,100.973 102.132 L 92.838 102.387 92.738 106.145 L 92.638 109.903 84.604 110.212 L 76.569 110.522 76.469 114.147 L 76.368 117.772 72.737 117.772 C 70.741 117.772,68.954 117.925,68.766 118.113 C 68.579 118.300,66.677 118.499,64.540 118.555 L 60.654 118.656 60.555 122.948 L 60.456 127.239 52.686 127.498 L 44.916 127.757 44.916 131.359 C 44.916 135.885,44.992 135.809,40.436 135.809 L 36.806 135.809 36.705 139.611 L 36.605 143.413 32.626 143.513 L 28.647 143.613 28.647 147.421 C 28.647 152.177,28.742 152.078,24.200 152.078 L 20.602 152.078 20.292 160.124 L 19.982 168.170 16.396 168.270 L 12.809 168.370 12.505 175.697 C 12.115 185.113,12.115 206.303,12.506 216.168 L 12.810 223.849 16.396 223.949 L 19.982 224.050 20.296 232.095 L 20.610 240.141 24.414 240.141 C 28.907 240.141,28.647 239.857,28.647 244.768 L 28.647 248.276 32.290 248.276 C 36.864 248.276,36.782 248.193,36.782 252.767 L 36.782 256.410 40.424 256.410 C 44.975 256.410,44.916 256.354,44.916 260.702 L 44.916 264.145 48.718 264.348 C 50.809 264.460,54.305 264.639,56.487 264.746 L 60.454 264.941 60.554 268.721 L 60.654 272.502 64.540 272.603 C 66.677 272.659,68.579 272.858,68.766 273.046 C 68.954 273.233,70.741 273.386,72.737 273.386 L 76.368 273.386 76.469 277.011 L 76.569 280.637 84.615 280.946 L 92.661 281.256 92.661 284.925 C 92.661 286.943,92.701 288.625,92.750 288.663 C 92.798 288.701,96.499 288.857,100.973 289.009 C 105.447 289.162,110.818 289.380,112.909 289.494 L 116.711 289.701 116.711 293.159 L 116.711 296.617 122.812 296.849 C 126.167 296.976,131.565 297.081,134.808 297.081 C 142.414 297.083,141.821 296.740,141.821 301.140 L 141.821 304.768 171.919 305.032 C 188.472 305.177,215.607 305.177,232.219 305.032 L 262.423 304.769 262.423 301.144 L 262.423 297.519 270.115 297.304 C 274.346 297.186,281.587 296.991,286.207 296.870 L 294.607 296.649 294.607 293.013 C 294.607 288.567,293.811 288.948,303.095 288.948 C 312.355 288.948,311.583 289.303,311.583 285.042 L 311.583 281.566 315.208 281.379 C 317.202 281.276,322.454 281.006,326.879 280.779 L 334.925 280.367 334.925 276.737 C 334.925 272.433,334.635 272.679,339.716 272.679 L 343.389 272.679 343.489 268.877 L 343.590 265.075 351.448 264.760 L 359.306 264.445 359.405 260.516 L 359.505 256.587 363.484 256.487 L 367.462 256.387 367.462 252.756 C 367.462 248.196,367.383 248.276,371.942 248.276 L 375.574 248.276 375.674 244.297 L 375.774 240.318 379.537 240.218 L 383.300 240.118 383.556 232.438 C 383.859 223.330,383.580 223.873,387.963 223.873 L 391.401 223.873 391.633 217.981 C 391.933 210.370,391.934 181.503,391.634 173.896 L 391.402 168.016 387.655 167.916 L 383.908 167.816 383.601 159.947 L 383.293 152.078 379.887 152.072 C 375.457 152.065,375.641 152.252,375.521 147.644 L 375.420 143.767 371.530 143.590 L 367.639 143.413 367.539 139.611 L 367.438 135.809 363.808 135.809 C 359.252 135.809,359.328 135.884,359.328 131.364 L 359.328 127.768 351.459 127.456 L 343.590 127.144 343.490 122.812 L 343.391 118.479 339.717 118.479 C 334.634 118.479,334.925 118.725,334.925 114.421 L 334.925 110.792 326.879 110.379 C 322.454 110.152,317.207 109.882,315.220 109.779 L 311.607 109.592 311.506 105.990 L 311.406 102.387 303.476 102.292 C 294.011 102.178,294.607 102.468,294.607 97.979 L 294.607 94.541 288.715 94.308 C 285.474 94.181,280.884 94.076,278.515 94.076 C 276.145 94.076,271.555 93.971,268.315 93.844 L 262.423 93.611 262.423 90.011 L 262.423 86.410 250.163 86.176 C 238.726 85.957,168.431 85.979,150.044 86.207 M232.835 94.308 L 238.727 94.541 238.727 98.022 C 238.727 99.937,238.846 101.506,238.992 101.510 C 239.138 101.514,248.141 101.671,258.998 101.858 C 269.855 102.045,278.887 102.290,279.069 102.402 C 279.250 102.514,279.399 104.188,279.399 106.122 L 279.399 109.637 282.493 109.674 C 284.195 109.694,289.567 109.893,294.430 110.116 L 303.271 110.522 303.372 114.108 L 303.472 117.694 311.153 117.924 C 315.377 118.051,319.109 118.307,319.447 118.494 C 319.785 118.680,321.575 118.833,323.426 118.833 L 326.790 118.833 326.790 122.893 C 326.790 127.651,326.360 127.272,331.919 127.410 L 335.455 127.498 335.556 131.300 L 335.656 135.102 339.514 135.102 C 341.704 135.102,343.466 135.255,343.590 135.455 C 343.713 135.655,345.421 135.809,347.501 135.809 L 351.194 135.809 351.194 139.275 C 351.194 143.667,351.110 143.590,355.850 143.590 L 359.659 143.590 359.759 147.569 L 359.859 151.547 363.749 151.724 L 367.639 151.901 367.739 155.868 L 367.839 159.835 371.630 159.935 L 375.420 160.035 375.774 167.993 L 376.127 175.950 379.698 176.051 L 383.268 176.151 383.498 181.709 C 383.796 188.875,383.796 203.520,383.499 210.377 L 383.267 215.738 379.809 215.738 C 375.636 215.738,376.071 214.800,375.758 224.480 L 375.515 231.984 371.754 232.084 L 367.993 232.184 367.816 236.251 L 367.639 240.318 363.749 240.495 L 359.859 240.672 359.682 244.562 L 359.505 248.453 356.145 248.541 C 350.821 248.680,351.194 248.369,351.194 252.681 L 351.194 256.366 347.303 256.565 C 345.164 256.674,341.668 256.853,339.534 256.963 L 335.656 257.161 335.556 260.941 L 335.455 264.721 331.211 264.898 L 326.967 265.075 326.867 268.678 L 326.766 272.280 323.153 272.467 C 321.166 272.570,315.925 272.839,311.506 273.066 L 303.472 273.479 303.372 277.058 L 303.271 280.637 294.430 281.042 C 289.567 281.265,284.195 281.464,282.493 281.484 L 279.399 281.521 279.399 285.051 C 279.399 289.360,281.221 288.857,264.721 289.109 C 257.524 289.219,248.731 289.410,245.181 289.533 L 238.727 289.756 238.727 293.186 L 238.727 296.617 232.304 296.850 C 223.979 297.151,180.265 297.151,171.940 296.850 L 165.517 296.617 165.517 293.186 L 165.517 289.756 159.063 289.533 C 155.513 289.410,146.720 289.219,139.523 289.109 C 123.023 288.857,124.845 289.360,124.845 285.051 L 124.845 281.521 123.519 281.526 C 122.790 281.529,117.378 281.340,111.494 281.107 L 100.796 280.682 100.796 277.076 L 100.796 273.469 93.280 273.226 C 83.564 272.911,84.527 273.377,84.527 268.988 L 84.527 265.345 76.658 265.033 L 68.789 264.721 68.689 260.941 L 68.588 257.160 64.621 256.964 C 62.439 256.857,58.869 256.678,56.687 256.568 L 52.720 256.367 52.620 252.586 L 52.520 248.806 48.553 248.706 L 44.585 248.607 44.485 244.639 L 44.385 240.672 40.495 240.495 L 36.605 240.318 36.517 236.958 C 36.377 231.638,36.684 232.007,32.405 232.007 L 28.749 232.007 28.283 220.336 L 27.816 208.665 24.202 208.665 C 19.724 208.665,20.159 210.016,20.159 196.110 C 20.159 182.203,19.724 183.554,24.204 183.554 L 27.820 183.554 28.288 171.718 L 28.756 159.881 32.504 159.782 L 36.251 159.682 36.351 155.703 L 36.451 151.724 40.292 151.724 C 44.827 151.724,44.562 152.010,44.562 147.109 L 44.562 143.613 48.541 143.513 L 52.520 143.413 52.620 139.633 L 52.720 135.853 56.687 135.652 C 58.869 135.541,62.445 135.362,64.633 135.255 L 68.612 135.059 68.612 131.233 L 68.612 127.407 76.559 127.148 L 84.506 126.889 84.605 122.596 L 84.704 118.302 92.750 117.993 L 100.796 117.683 100.796 114.052 C 100.796 109.648,100.203 109.992,107.810 109.990 C 111.052 109.989,116.211 109.885,119.275 109.758 L 124.845 109.527 124.845 106.066 C 124.845 104.163,124.993 102.515,125.173 102.403 C 125.423 102.249,143.786 101.838,165.075 101.510 C 165.399 101.505,165.517 100.559,165.517 97.978 L 165.517 94.452 169.673 94.340 C 178.227 94.110,227.170 94.085,232.835 94.308 " stroke="none" fill="#202020" fill-rule="evenodd"></path><path id="path1" d="M0.000 176.835 L 0.000 353.669 200.000 353.669 L 400.000 353.669 400.000 280.990 L 400.000 208.311 396.330 208.311 L 392.659 208.311 392.398 215.473 C 392.254 219.412,392.036 224.783,391.913 227.409 L 391.689 232.184 387.975 232.361 L 384.262 232.538 384.085 236.605 L 383.908 240.672 380.106 240.772 L 376.304 240.873 376.304 244.549 C 376.304 247.345,376.177 248.352,375.774 248.756 C 375.376 249.153,375.243 250.134,375.243 252.671 L 375.243 256.057 371.744 256.057 C 368.960 256.057,368.204 256.165,368.042 256.587 C 367.878 257.014,367.080 257.118,363.949 257.118 L 360.059 257.118 359.959 260.920 L 359.859 264.721 355.791 264.898 L 351.724 265.075 351.547 268.966 L 351.370 272.856 343.678 273.166 L 335.986 273.475 335.986 276.897 C 335.986 281.218,336.039 281.167,331.523 281.167 C 326.524 281.167,326.790 280.947,326.790 285.073 L 326.790 288.549 322.989 288.761 C 320.897 288.878,315.645 289.053,311.317 289.150 L 303.448 289.327 303.448 293.007 C 303.448 295.031,303.297 296.780,303.113 296.894 C 302.929 297.008,297.358 297.202,290.735 297.326 L 278.691 297.550 278.691 301.164 L 278.691 304.778 274.182 304.996 C 271.702 305.116,260.885 305.315,250.144 305.438 L 230.616 305.663 230.516 309.242 L 230.416 312.821 225.464 313.043 C 219.201 313.324,194.280 313.320,182.670 313.036 L 173.828 312.821 173.728 309.242 L 173.628 305.663 154.100 305.438 C 143.359 305.315,132.542 305.116,130.062 304.996 L 125.553 304.778 125.553 301.107 L 125.553 297.436 119.452 297.435 C 116.096 297.434,110.611 297.330,107.262 297.203 L 101.172 296.972 101.072 293.225 L 100.973 289.478 92.838 289.285 C 88.364 289.178,84.664 289.059,84.615 289.019 C 84.567 288.980,84.527 287.297,84.527 285.279 L 84.527 281.611 77.011 281.366 C 67.300 281.050,68.258 281.514,68.258 277.121 L 68.258 273.475 60.566 273.166 L 52.874 272.856 52.697 268.966 L 52.520 265.075 48.364 264.976 L 44.209 264.876 44.209 261.008 L 44.209 257.141 40.230 257.041 L 36.251 256.941 36.151 252.973 L 36.051 249.006 32.084 248.906 L 28.117 248.806 28.017 244.828 L 27.917 240.849 24.038 240.849 L 20.159 240.849 20.159 237.164 C 20.159 232.084,20.384 232.361,16.252 232.361 C 14.339 232.361,12.704 232.241,12.619 232.095 C 12.533 231.950,12.258 226.544,12.006 220.082 L 11.549 208.335 7.985 208.235 L 4.421 208.134 4.328 196.021 L 4.235 183.908 7.887 183.908 L 11.540 183.908 11.964 173.210 C 12.198 167.325,12.386 161.914,12.384 161.185 L 12.378 159.859 16.054 159.859 C 20.412 159.859,20.159 160.155,20.159 155.055 L 20.159 151.370 24.050 151.370 L 27.940 151.370 27.940 147.551 C 27.940 142.778,27.840 142.882,32.420 142.882 L 36.050 142.882 36.151 139.080 L 36.251 135.279 40.230 135.179 L 44.209 135.079 44.209 131.238 C 44.209 126.690,43.897 126.967,49.012 126.967 L 52.697 126.967 52.697 122.591 L 52.697 118.216 60.466 117.957 L 68.235 117.698 68.335 113.933 L 68.435 110.168 76.469 109.859 L 84.504 109.549 84.604 105.791 L 84.704 102.034 92.838 101.857 L 100.973 101.680 101.073 97.878 L 101.173 94.076 104.256 94.026 C 105.951 93.999,111.397 93.879,116.357 93.761 L 125.376 93.546 125.476 89.982 L 125.576 86.419 135.555 85.999 C 141.044 85.768,151.861 85.581,159.593 85.583 L 173.652 85.588 173.652 81.932 L 173.652 78.275 185.588 78.042 C 200.761 77.745,215.484 77.745,223.961 78.041 L 230.592 78.273 230.592 81.930 L 230.592 85.588 244.651 85.583 C 252.383 85.581,263.200 85.768,268.689 85.999 L 278.668 86.419 278.768 89.982 L 278.868 93.546 290.708 93.804 C 304.972 94.114,303.448 93.623,303.448 97.916 L 303.448 101.425 311.141 101.655 C 315.371 101.782,319.109 102.038,319.447 102.225 C 319.785 102.411,321.575 102.564,323.426 102.564 L 326.790 102.564 326.790 106.063 C 326.790 110.230,326.488 109.991,331.771 109.991 L 335.632 109.991 335.632 113.835 L 335.632 117.679 343.501 117.991 L 351.370 118.302 351.470 122.635 L 351.569 126.967 355.378 126.967 C 360.138 126.967,360.035 126.868,360.035 131.447 L 360.035 135.079 364.014 135.179 L 367.993 135.279 368.093 139.080 L 368.194 142.882 371.883 142.882 C 376.367 142.882,376.304 142.812,376.304 147.799 L 376.304 151.347 380.106 151.447 L 383.908 151.547 384.085 155.615 L 384.262 159.682 387.975 159.859 L 391.689 160.035 391.912 164.810 C 392.034 167.436,392.252 172.728,392.395 176.569 L 392.655 183.554 396.328 183.554 L 400.000 183.554 400.000 91.777 L 400.000 0.000 200.000 0.000 L 0.000 0.000 0.000 176.835 M145.270 102.475 L 141.114 102.587 141.114 106.289 L 141.114 109.991 138.727 110.041 C 137.414 110.068,130.292 110.188,122.900 110.306 L 109.461 110.522 109.284 114.235 L 109.107 117.949 100.973 118.302 L 92.838 118.656 92.739 122.812 L 92.639 126.967 88.957 126.967 C 86.885 126.967,85.181 127.122,85.057 127.321 C 84.931 127.525,83.050 127.675,80.616 127.675 L 76.393 127.675 76.393 131.388 L 76.393 135.102 72.700 135.102 C 70.620 135.102,68.912 135.256,68.789 135.455 C 68.665 135.656,66.903 135.809,64.713 135.809 L 60.855 135.809 60.755 139.611 L 60.654 143.413 56.764 143.590 L 52.874 143.767 52.772 147.283 C 52.640 151.799,52.717 151.724,48.244 151.724 L 44.586 151.724 44.485 155.703 L 44.385 159.682 40.495 159.859 L 36.605 160.035 36.428 163.926 L 36.251 167.816 32.502 167.916 L 28.754 168.016 28.498 182.026 C 28.357 189.732,28.357 202.379,28.498 210.131 L 28.753 224.226 32.579 224.226 L 36.405 224.226 36.505 228.205 L 36.605 232.184 40.495 232.361 L 44.385 232.538 44.562 236.428 L 44.739 240.318 47.922 240.407 C 53.048 240.549,52.697 240.242,52.697 244.569 L 52.697 248.276 56.204 248.276 C 61.120 248.276,60.831 248.009,60.831 252.558 L 60.831 256.410 64.877 256.410 C 67.193 256.410,69.017 256.561,69.142 256.764 C 69.264 256.961,70.910 257.118,72.864 257.118 L 76.368 257.118 76.469 260.743 L 76.569 264.368 80.631 264.469 C 82.865 264.524,84.847 264.723,85.034 264.911 C 85.222 265.098,87.009 265.252,89.006 265.252 L 92.637 265.252 92.737 268.877 L 92.838 272.502 100.619 272.786 C 110.283 273.138,109.284 272.666,109.284 276.873 L 109.284 280.381 117.241 280.597 C 121.618 280.716,128.780 280.911,133.156 281.030 L 141.114 281.246 141.114 284.863 L 141.114 288.480 153.373 288.714 C 169.208 289.016,234.515 289.016,250.663 288.713 L 263.130 288.480 263.130 285.023 L 263.130 281.566 266.932 281.368 C 271.488 281.130,287.942 280.564,292.042 280.503 L 294.960 280.460 294.960 276.809 L 294.960 273.158 305.482 272.736 C 311.269 272.503,316.600 272.316,317.330 272.319 L 318.656 272.325 318.656 268.619 C 318.656 264.270,318.258 264.593,323.784 264.456 L 327.321 264.368 327.422 260.743 L 327.523 257.118 331.153 257.118 C 333.150 257.118,334.937 256.964,335.124 256.777 C 335.312 256.589,337.214 256.390,339.351 256.335 L 343.236 256.233 343.413 252.343 L 343.590 248.453 347.557 248.353 L 351.524 248.253 351.624 244.462 L 351.724 240.672 355.615 240.495 L 359.505 240.318 359.605 236.340 L 359.705 232.361 363.572 232.361 L 367.439 232.361 367.539 228.382 L 367.639 224.403 371.530 224.226 L 375.420 224.050 375.606 210.080 C 375.708 202.396,375.708 189.823,375.606 182.140 L 375.420 168.170 371.530 167.993 L 367.639 167.816 367.539 163.849 L 367.439 159.882 363.649 159.782 L 359.859 159.682 359.771 156.322 C 359.631 150.980,359.971 151.370,355.443 151.370 L 351.571 151.370 351.471 147.569 L 351.370 143.767 347.392 143.667 L 343.413 143.567 343.413 139.709 L 343.413 135.852 339.434 135.656 C 337.246 135.548,333.665 135.370,331.477 135.259 L 327.498 135.058 327.498 131.366 L 327.498 127.675 323.501 127.675 C 318.489 127.675,318.656 127.842,318.656 122.829 L 318.656 118.833 317.330 118.839 C 316.600 118.842,311.274 118.655,305.493 118.423 L 294.983 118.001 294.883 114.261 L 294.783 110.522 282.759 110.271 C 276.145 110.134,269.023 109.924,266.932 109.806 L 263.130 109.592 263.130 106.119 C 263.130 102.817,263.091 102.636,262.334 102.433 C 261.545 102.222,153.236 102.260,145.270 102.475 " stroke="none" fill="#fbfbfb" fill-rule="evenodd"></path><path id="path2" d="M181.698 78.072 L 173.652 78.174 173.652 81.881 L 173.652 85.588 202.122 85.588 L 230.592 85.588 230.592 81.930 L 230.592 78.273 223.961 78.041 C 217.755 77.824,200.239 77.837,181.698 78.072 M133.434 86.043 L 125.576 86.379 125.476 89.962 L 125.376 93.546 116.357 93.761 C 111.397 93.879,105.956 93.999,104.266 94.026 L 101.194 94.076 101.083 97.971 C 100.994 101.103,101.065 101.831,101.444 101.685 C 101.703 101.585,103.488 101.503,105.410 101.503 L 108.905 101.503 109.006 97.878 L 109.107 94.253 120.955 93.990 C 135.229 93.674,133.687 94.176,133.687 89.843 L 133.687 86.295 136.074 86.245 C 137.387 86.217,144.589 86.089,152.078 85.960 L 165.694 85.725 153.492 85.715 C 146.782 85.710,137.755 85.858,133.434 86.043 M252.166 85.960 C 259.655 86.089,266.857 86.217,268.170 86.245 L 270.557 86.295 270.557 89.843 C 270.557 94.176,269.015 93.674,283.289 93.990 L 295.137 94.253 295.237 97.826 L 295.337 101.398 306.908 101.833 C 313.272 102.072,318.678 102.329,318.921 102.404 C 319.238 102.503,319.363 103.587,319.363 106.223 L 319.363 109.905 327.309 110.164 L 335.255 110.423 335.355 114.186 L 335.455 117.949 339.341 118.050 C 341.478 118.106,343.380 118.305,343.567 118.492 C 343.755 118.680,345.542 118.833,347.540 118.833 L 351.171 118.833 351.271 122.989 L 351.370 127.144 355.438 127.321 L 359.505 127.498 359.682 131.388 L 359.859 135.279 363.749 135.455 L 367.639 135.632 367.740 139.434 L 367.840 143.236 371.498 143.236 C 375.987 143.236,375.896 143.143,376.026 147.854 L 376.127 151.547 379.883 151.647 L 383.639 151.747 383.950 159.605 L 384.262 167.462 387.975 167.639 L 391.689 167.816 391.883 171.883 L 392.078 175.950 392.101 172.237 C 392.113 170.195,392.026 166.614,391.906 164.279 L 391.689 160.035 387.975 159.859 L 384.262 159.682 384.085 155.615 L 383.908 151.547 380.106 151.447 L 376.304 151.347 376.304 147.799 C 376.304 142.812,376.367 142.882,371.883 142.882 L 368.194 142.882 368.093 139.080 L 367.993 135.279 364.014 135.179 L 360.035 135.079 360.035 131.447 C 360.035 126.868,360.138 126.967,355.378 126.967 L 351.569 126.967 351.470 122.635 L 351.370 118.302 343.501 117.991 L 335.632 117.679 335.632 113.835 L 335.632 109.991 331.771 109.991 C 326.488 109.991,326.790 110.230,326.790 106.063 L 326.790 102.564 323.426 102.564 C 321.575 102.564,319.785 102.411,319.447 102.225 C 319.109 102.038,315.371 101.782,311.141 101.655 L 303.448 101.425 303.448 97.916 C 303.448 93.623,304.972 94.114,290.708 93.804 L 278.868 93.546 278.768 89.982 L 278.668 86.419 268.689 85.999 C 263.200 85.768,254.173 85.611,248.630 85.652 L 238.550 85.725 252.166 85.960 M189.567 97.966 L 189.567 101.503 187.003 101.553 C 185.592 101.580,178.391 101.709,170.999 101.838 C 162.543 101.987,174.085 102.074,202.122 102.074 C 230.159 102.074,241.701 101.987,233.245 101.838 C 225.853 101.709,218.652 101.580,217.241 101.553 L 214.677 101.503 214.677 97.966 L 214.677 94.430 202.122 94.430 L 189.567 94.430 189.567 97.966 M84.763 102.093 C 84.633 102.222,84.527 103.953,84.527 105.938 L 84.527 109.549 76.481 109.858 L 68.435 110.168 68.335 113.933 L 68.235 117.698 60.466 117.957 L 52.697 118.216 52.697 122.591 L 52.697 126.967 49.012 126.967 C 43.897 126.967,44.209 126.690,44.209 131.238 L 44.209 135.079 40.230 135.179 L 36.251 135.279 36.151 139.080 L 36.050 142.882 32.420 142.882 C 27.840 142.882,27.940 142.778,27.940 147.551 L 27.940 151.370 24.050 151.370 C 21.910 151.370,20.159 151.490,20.158 151.636 C 20.158 151.782,21.948 151.821,24.137 151.724 L 28.117 151.547 28.217 147.569 L 28.317 143.590 32.158 143.590 C 36.692 143.590,36.428 143.876,36.428 138.975 L 36.428 135.479 40.407 135.379 L 44.385 135.279 44.562 131.388 L 44.739 127.498 48.806 127.321 L 52.874 127.144 52.973 123.011 L 53.072 118.878 56.863 118.675 C 58.948 118.564,62.439 118.385,64.621 118.278 L 68.588 118.083 68.689 114.302 L 68.789 110.522 76.823 110.208 L 84.858 109.895 84.958 106.141 L 85.057 102.387 89.302 102.193 L 93.546 101.999 89.272 101.928 C 86.922 101.889,84.892 101.963,84.763 102.093 M133.422 102.445 C 133.110 102.571,132.980 103.655,132.980 106.130 L 132.980 109.637 130.062 109.682 C 128.457 109.706,124.836 109.838,122.016 109.974 L 116.888 110.221 123.109 110.283 C 126.530 110.317,131.981 110.240,135.222 110.112 L 141.114 109.880 141.114 106.233 L 141.114 102.587 145.270 102.475 C 147.555 102.413,145.924 102.341,141.645 102.314 C 137.365 102.288,133.665 102.347,133.422 102.445 M262.511 102.454 C 263.048 102.594,263.130 103.079,263.130 106.104 L 263.130 109.592 266.932 109.805 C 269.023 109.922,274.394 110.066,278.868 110.126 C 285.569 110.216,286.130 110.190,282.051 109.980 C 279.328 109.839,275.787 109.704,274.182 109.681 L 271.264 109.637 271.264 106.139 C 271.264 101.952,271.594 102.196,266.019 102.251 C 263.749 102.274,262.171 102.365,262.511 102.454 M105.140 110.608 L 101.528 110.723 101.427 114.336 L 101.326 117.949 93.192 118.302 L 85.057 118.656 84.881 122.900 L 84.704 127.144 80.637 127.339 L 76.569 127.534 80.704 127.604 C 83.158 127.646,84.928 127.531,85.057 127.321 C 85.181 127.122,86.885 126.967,88.957 126.967 L 92.639 126.967 92.739 122.812 L 92.838 118.656 100.973 118.302 L 109.107 117.949 109.284 114.146 C 109.397 111.704,109.334 110.370,109.107 110.419 C 108.912 110.460,107.128 110.546,105.140 110.608 M294.893 114.169 L 295.002 118.002 305.503 118.424 C 311.278 118.655,316.600 118.842,317.330 118.839 L 318.656 118.833 318.656 122.829 C 318.656 127.842,318.489 127.675,323.501 127.675 L 327.498 127.675 327.498 131.366 L 327.498 135.058 331.477 135.259 C 333.665 135.370,337.246 135.548,339.434 135.656 L 343.413 135.852 343.413 139.709 L 343.413 143.567 347.392 143.667 L 351.370 143.767 351.471 147.569 L 351.571 151.370 355.443 151.370 C 359.971 151.370,359.631 150.980,359.771 156.322 L 359.859 159.682 363.649 159.782 L 367.439 159.882 367.539 163.849 L 367.639 167.816 371.619 167.993 C 373.808 168.090,375.598 168.056,375.598 167.916 C 375.597 167.777,373.886 167.618,371.795 167.563 L 367.993 167.462 367.905 164.103 C 367.765 158.777,368.080 159.151,363.742 159.151 L 360.035 159.151 360.035 155.459 C 360.035 153.378,359.881 151.670,359.682 151.547 C 359.483 151.424,359.328 149.724,359.328 147.658 L 359.328 143.988 355.438 143.789 C 353.298 143.679,349.802 143.500,347.669 143.391 L 343.790 143.192 343.690 139.412 L 343.590 135.632 339.523 135.455 L 335.455 135.279 335.355 131.523 L 335.256 127.767 327.398 127.456 L 319.540 127.144 319.363 122.900 L 319.187 118.656 310.964 118.341 L 302.741 118.025 302.741 114.362 L 302.741 110.698 299.233 110.698 C 297.304 110.698,295.513 110.617,295.254 110.517 C 294.876 110.371,294.805 111.089,294.893 114.169 M68.889 131.477 L 68.789 135.279 64.721 135.455 L 60.654 135.632 60.554 139.412 L 60.454 143.192 56.575 143.391 C 54.442 143.500,50.946 143.679,48.806 143.789 L 44.916 143.988 44.916 147.636 C 44.916 150.447,44.794 151.385,44.385 151.724 C 43.979 152.061,43.855 152.984,43.855 155.658 L 43.855 159.151 40.331 159.151 C 36.035 159.151,36.074 159.106,36.074 164.067 L 36.074 167.615 32.360 167.735 L 28.646 167.854 32.448 167.835 L 36.251 167.816 36.428 163.926 L 36.605 160.035 40.495 159.859 L 44.385 159.682 44.485 155.703 L 44.586 151.724 48.244 151.724 C 52.717 151.724,52.640 151.799,52.772 147.283 L 52.874 143.767 56.764 143.590 L 60.654 143.413 60.755 139.611 L 60.855 135.809 64.713 135.809 C 66.903 135.809,68.665 135.656,68.789 135.455 C 68.912 135.256,70.620 135.102,72.700 135.102 L 76.393 135.102 76.393 131.388 L 76.393 127.675 72.691 127.675 L 68.989 127.675 68.889 131.477 M19.805 159.446 C 19.805 159.734,18.695 159.859,16.131 159.859 L 12.457 159.859 12.197 167.478 C 12.054 171.668,12.037 175.196,12.158 175.317 C 12.279 175.439,12.378 173.761,12.378 171.589 L 12.378 167.639 16.062 167.639 L 19.745 167.639 19.872 163.484 C 19.942 161.198,19.956 159.262,19.902 159.181 C 19.849 159.100,19.805 159.219,19.805 159.446 M28.292 173.917 C 28.292 176.981,28.187 182.233,28.060 185.588 L 27.829 191.689 24.354 191.689 C 20.244 191.689,20.426 191.449,20.586 196.640 L 20.690 200.000 24.315 200.101 L 27.940 200.202 27.989 203.284 C 28.016 204.979,28.136 210.345,28.254 215.208 C 28.383 220.455,28.476 212.727,28.484 196.198 C 28.491 180.880,28.451 168.347,28.395 168.347 C 28.339 168.347,28.293 170.853,28.292 173.917 M11.671 179.841 L 11.671 183.908 7.953 183.908 L 4.235 183.908 4.328 196.021 L 4.421 208.134 8.035 208.235 L 11.649 208.336 11.748 212.479 C 11.803 214.758,11.870 207.431,11.897 196.198 C 11.925 184.965,11.885 175.774,11.809 175.774 C 11.733 175.774,11.671 177.604,11.671 179.841 M375.753 196.110 C 375.753 214.041,375.793 215.610,376.073 208.576 L 376.393 200.531 379.885 200.531 L 383.378 200.531 383.378 196.110 L 383.378 191.689 379.885 191.689 L 376.393 191.689 376.073 183.643 C 375.793 176.610,375.753 178.179,375.753 196.110 M392.369 196.110 C 392.369 207.003,392.421 214.204,392.483 212.113 L 392.597 208.311 396.298 208.311 L 400.000 208.311 400.000 195.933 L 400.000 183.554 396.299 183.554 L 392.598 183.554 392.483 179.929 C 392.420 177.935,392.369 185.217,392.369 196.110 M391.854 220.159 L 391.689 224.403 387.930 224.503 L 384.171 224.603 383.912 232.538 L 383.653 240.472 379.890 240.572 L 376.127 240.672 375.950 244.562 L 375.774 248.453 371.883 248.630 L 367.993 248.806 367.816 252.697 L 367.639 256.587 363.749 256.764 L 359.859 256.941 359.682 260.887 C 359.584 263.057,359.624 264.759,359.770 264.668 C 359.916 264.577,360.035 262.841,360.035 260.810 L 360.035 257.118 363.937 257.118 C 367.079 257.118,367.878 257.014,368.042 256.587 C 368.204 256.165,368.960 256.057,371.744 256.057 L 375.243 256.057 375.243 252.671 C 375.243 250.134,375.376 249.153,375.774 248.756 C 376.177 248.352,376.304 247.345,376.304 244.549 L 376.304 240.873 380.106 240.772 L 383.908 240.672 384.085 236.605 L 384.262 232.538 387.975 232.361 L 391.689 232.184 391.959 226.702 C 392.107 223.687,392.182 220.027,392.124 218.568 C 392.037 216.350,391.993 216.611,391.854 220.159 M12.290 224.403 C 12.485 233.275,12.028 232.361,16.260 232.361 C 18.701 232.361,19.810 232.493,19.957 232.803 C 20.072 233.046,20.088 232.847,19.991 232.361 C 19.894 231.874,19.813 229.930,19.810 228.041 L 19.805 224.605 16.180 224.504 L 12.555 224.403 12.341 220.690 C 12.223 218.647,12.200 220.318,12.290 224.403 M371.530 224.208 L 367.639 224.403 367.539 228.382 L 367.439 232.361 363.572 232.361 L 359.705 232.361 359.605 236.340 L 359.505 240.318 355.615 240.495 L 351.724 240.672 351.624 244.462 L 351.524 248.253 347.557 248.353 L 343.590 248.453 343.413 252.343 L 343.236 256.233 339.351 256.335 C 337.214 256.390,335.312 256.589,335.124 256.777 C 334.937 256.964,333.150 257.118,331.153 257.118 L 327.523 257.118 327.422 260.743 L 327.321 264.368 323.784 264.456 C 318.259 264.593,318.656 264.272,318.656 268.607 L 318.656 272.301 314.854 272.421 L 311.052 272.541 315.119 272.522 L 319.187 272.502 319.286 268.750 L 319.386 264.998 327.244 264.683 L 335.102 264.368 335.202 260.566 L 335.302 256.764 338.975 256.764 C 344.061 256.764,343.767 257.016,343.767 252.659 L 343.767 248.983 347.459 248.983 C 349.540 248.983,351.247 248.829,351.370 248.630 C 351.495 248.429,353.253 248.276,355.436 248.276 L 359.284 248.276 359.480 244.474 C 359.588 242.383,359.768 238.961,359.879 236.870 L 360.081 233.068 363.524 233.068 C 367.891 233.068,367.816 233.150,367.816 228.400 L 367.816 224.580 371.509 224.580 C 373.589 224.580,375.297 224.426,375.420 224.226 C 375.540 224.032,375.589 223.904,375.529 223.943 C 375.469 223.981,373.669 224.100,371.530 224.208 M32.272 224.490 L 36.074 224.604 36.086 228.217 C 36.101 233.051,36.116 233.068,40.446 233.068 L 43.855 233.068 43.855 236.561 C 43.855 239.235,43.979 240.158,44.385 240.495 C 44.794 240.834,44.916 241.772,44.916 244.584 L 44.916 248.232 48.806 248.431 C 50.946 248.540,54.442 248.719,56.575 248.828 L 60.454 249.027 60.554 252.807 L 60.654 256.587 64.721 256.764 L 68.789 256.941 68.889 260.704 L 68.989 264.467 76.923 264.725 L 84.858 264.984 84.958 268.743 L 85.057 272.502 93.192 272.856 L 101.326 273.210 101.427 276.796 L 101.527 280.382 109.134 280.642 C 113.318 280.784,116.841 280.802,116.962 280.680 C 117.083 280.559,115.405 280.460,113.233 280.460 L 109.284 280.460 109.284 276.912 C 109.284 272.660,110.287 273.138,100.619 272.786 L 92.838 272.502 92.737 268.877 L 92.637 265.252 89.006 265.252 C 87.009 265.252,85.222 265.098,85.034 264.911 C 84.847 264.723,82.865 264.524,80.631 264.469 L 76.569 264.368 76.469 260.743 L 76.368 257.118 72.864 257.118 C 70.910 257.118,69.264 256.961,69.142 256.764 C 69.017 256.561,67.193 256.410,64.877 256.410 L 60.831 256.410 60.831 252.558 C 60.831 248.009,61.120 248.276,56.204 248.276 L 52.697 248.276 52.697 244.569 C 52.697 240.242,53.048 240.549,47.922 240.407 L 44.739 240.318 44.562 236.428 L 44.385 232.538 40.495 232.361 L 36.605 232.184 36.505 228.205 L 36.405 224.226 32.438 224.301 L 28.470 224.377 32.272 224.490 M20.158 240.584 C 20.159 240.729,21.905 240.849,24.038 240.849 L 27.917 240.849 28.017 244.828 L 28.117 248.806 32.084 248.906 L 36.051 249.006 36.151 252.973 L 36.251 256.941 40.230 257.041 L 44.209 257.141 44.209 261.020 C 44.209 263.153,44.328 264.899,44.474 264.899 C 44.620 264.900,44.660 263.109,44.562 260.920 L 44.385 256.941 40.418 256.841 L 36.451 256.741 36.351 252.774 L 36.251 248.806 32.361 248.630 L 28.470 248.453 28.294 244.562 L 28.117 240.672 24.137 240.495 C 21.948 240.398,20.158 240.438,20.158 240.584 M52.697 268.910 L 52.874 272.856 60.566 273.166 L 68.258 273.475 68.258 277.121 C 68.258 281.514,67.300 281.050,77.011 281.366 L 84.527 281.611 84.527 285.279 C 84.527 287.297,84.567 288.980,84.615 289.019 C 84.664 289.059,88.364 289.178,92.838 289.285 L 100.973 289.478 101.073 293.241 L 101.173 297.004 109.384 297.247 C 113.900 297.380,119.346 297.431,121.485 297.361 C 123.815 297.284,122.301 297.202,117.712 297.157 C 108.101 297.063,108.930 297.442,108.930 293.143 C 108.930 288.856,110.412 289.348,96.552 289.033 L 85.057 288.771 84.958 285.017 L 84.858 281.263 76.823 280.950 L 68.789 280.637 68.689 276.856 L 68.588 273.075 64.621 272.880 C 62.439 272.773,58.943 272.594,56.852 272.483 L 53.050 272.280 53.050 268.787 C 53.050 266.866,52.931 265.219,52.785 265.129 C 52.639 265.038,52.599 266.739,52.697 268.910 M351.429 265.134 C 351.300 265.264,351.194 266.935,351.194 268.848 L 351.194 272.325 347.501 272.325 C 345.421 272.325,343.713 272.480,343.590 272.679 C 343.466 272.880,341.704 273.033,339.514 273.033 L 335.656 273.033 335.556 276.835 L 335.455 280.637 327.421 280.950 L 319.386 281.263 319.286 285.017 L 319.187 288.771 314.766 288.975 L 310.345 289.180 314.766 289.068 C 317.197 289.007,320.897 288.865,322.989 288.753 L 326.790 288.549 326.790 285.073 C 326.790 280.947,326.524 281.167,331.523 281.167 C 336.039 281.167,335.986 281.218,335.986 276.897 L 335.986 273.475 343.678 273.166 L 351.370 272.856 351.547 268.876 C 351.645 266.688,351.711 264.897,351.695 264.898 C 351.678 264.898,351.559 265.004,351.429 265.134 M298.939 272.943 L 294.960 273.056 294.960 276.758 L 294.960 280.460 290.805 280.488 C 288.519 280.503,286.865 280.601,287.128 280.706 C 287.392 280.811,291.013 280.781,295.174 280.639 L 302.741 280.381 302.741 276.718 L 302.741 273.055 306.897 272.943 L 311.052 272.831 306.985 272.831 C 304.748 272.830,301.127 272.881,298.939 272.943 M122.193 281.185 C 124.916 281.322,128.457 281.454,130.062 281.478 L 132.980 281.521 132.980 285.020 C 132.980 289.371,131.622 288.965,145.829 288.866 C 155.995 288.796,156.463 288.771,149.337 288.683 L 141.114 288.581 141.114 284.930 L 141.114 281.278 135.222 281.046 C 131.981 280.918,126.610 280.841,123.286 280.875 L 117.241 280.936 122.193 281.185 M270.557 281.167 C 270.265 281.356,268.475 281.512,266.578 281.515 L 263.130 281.521 263.130 285.051 L 263.130 288.581 254.730 288.683 C 247.388 288.772,247.829 288.795,258.238 288.866 C 272.646 288.965,271.264 289.373,271.264 285.020 L 271.264 281.521 274.182 281.479 C 283.556 281.345,286.755 280.935,278.868 280.879 C 274.343 280.847,270.866 280.968,270.557 281.167 M174.889 289.321 C 180.141 289.453,185.592 289.583,187.003 289.609 L 189.567 289.655 189.567 293.192 L 189.567 296.729 202.122 296.729 L 214.677 296.729 214.677 293.192 L 214.677 289.655 217.241 289.609 C 237.763 289.235,233.322 289.080,202.122 289.080 C 179.944 289.080,169.132 289.175,174.889 289.321 M299.128 289.565 L 295.338 289.679 295.238 293.292 L 295.137 296.905 287.179 297.120 C 281.211 297.280,282.167 297.304,291.003 297.216 C 297.482 297.151,302.933 297.005,303.116 296.892 C 303.507 296.651,303.573 289.266,303.183 289.377 C 303.037 289.418,301.212 289.503,299.128 289.565 M125.553 301.107 L 125.553 304.778 130.062 304.996 C 132.542 305.116,143.359 305.315,154.100 305.438 L 173.628 305.663 173.728 309.242 L 173.828 312.821 182.670 313.036 C 194.280 313.320,219.201 313.324,225.464 313.043 L 230.416 312.821 230.516 309.242 L 230.616 305.663 250.144 305.438 C 260.885 305.315,271.702 305.116,274.182 304.996 L 278.691 304.778 278.691 301.107 L 278.691 297.436 274.624 297.436 L 270.557 297.436 270.557 301.110 L 270.557 304.784 262.157 305.072 C 257.538 305.230,230.522 305.359,202.122 305.359 C 173.722 305.359,146.706 305.230,142.087 305.072 L 133.687 304.784 133.687 301.110 L 133.687 297.436 129.620 297.436 L 125.553 297.436 125.553 301.107 " stroke="none" fill="#9c9c9c" fill-rule="evenodd"></path><path id="path3" d="M187.913 85.853 C 195.854 85.906,208.746 85.906,216.560 85.853 C 224.375 85.800,217.878 85.757,202.122 85.757 C 186.366 85.757,179.972 85.800,187.913 85.853 M151.105 86.204 C 152.418 86.272,154.567 86.272,155.880 86.204 C 157.193 86.136,156.118 86.080,153.492 86.080 C 150.866 86.080,149.792 86.136,151.105 86.204 M254.200 86.207 L 262.423 86.308 262.423 89.960 L 262.423 93.611 268.315 93.844 C 271.555 93.971,275.256 94.044,276.537 94.005 C 278.058 93.958,277.393 93.866,274.624 93.740 L 270.380 93.546 270.280 89.976 L 270.180 86.405 264.300 86.174 C 261.065 86.046,255.620 85.978,252.198 86.023 C 246.361 86.100,246.485 86.111,254.200 86.207 M133.687 89.998 L 133.687 93.700 129.531 93.812 C 127.074 93.878,128.508 93.955,133.039 94.000 C 142.651 94.095,141.821 94.476,141.821 89.971 L 141.821 86.295 137.754 86.295 L 133.687 86.295 133.687 89.998 M109.372 94.310 C 109.058 94.437,108.930 95.554,108.930 98.161 L 108.930 101.834 104.951 101.955 C 101.007 102.075,101.008 102.075,105.040 101.971 C 107.277 101.912,110.818 101.773,112.909 101.661 L 116.711 101.458 116.711 97.973 C 116.711 95.516,116.841 94.436,117.153 94.310 C 117.396 94.212,115.844 94.132,113.705 94.132 C 111.565 94.132,109.615 94.212,109.372 94.310 M169.673 94.340 L 165.517 94.452 165.517 97.966 L 165.517 101.481 161.362 101.593 C 157.986 101.684,158.368 101.719,163.395 101.780 C 166.799 101.821,172.330 101.750,175.685 101.623 L 181.786 101.392 181.786 97.911 L 181.786 94.430 202.299 94.430 L 222.812 94.430 222.812 97.911 L 222.812 101.392 228.704 101.624 C 231.944 101.752,237.316 101.823,240.640 101.781 C 245.430 101.721,245.859 101.682,242.706 101.593 L 238.727 101.480 238.727 98.010 L 238.727 94.541 232.835 94.308 C 227.170 94.085,178.227 94.110,169.673 94.340 M290.628 94.334 L 294.607 94.453 294.607 97.907 C 294.607 102.314,294.489 102.212,299.540 102.205 C 302.308 102.201,303.454 102.089,303.095 101.857 C 302.803 101.668,300.938 101.511,298.951 101.509 L 295.339 101.503 295.238 97.878 L 295.137 94.253 290.893 94.234 L 286.649 94.215 290.628 94.334 M137.686 102.121 C 139.982 102.183,143.643 102.183,145.820 102.121 C 147.997 102.059,146.118 102.008,141.645 102.008 C 137.171 102.009,135.389 102.059,137.686 102.121 M258.267 102.121 C 260.553 102.182,264.293 102.182,266.578 102.121 C 268.864 102.059,266.994 102.009,262.423 102.009 C 257.851 102.009,255.981 102.059,258.267 102.121 M85.158 106.012 L 85.057 109.814 81.167 110.033 C 78.386 110.190,78.931 110.215,83.080 110.122 C 86.272 110.050,89.724 109.991,90.751 109.991 L 92.617 109.991 92.728 106.100 L 92.838 102.209 89.048 102.210 L 85.258 102.210 85.158 106.012 M125.081 102.446 C 124.951 102.576,124.845 104.242,124.845 106.148 L 124.845 109.614 121.043 109.733 L 117.241 109.853 121.485 109.834 L 125.729 109.814 125.830 106.201 L 125.931 102.588 129.720 102.474 L 133.510 102.361 129.413 102.286 C 127.160 102.244,125.211 102.317,125.081 102.446 M274.524 102.468 L 278.313 102.588 278.414 106.201 L 278.515 109.814 282.759 109.834 L 287.003 109.853 283.213 109.733 L 279.423 109.614 279.323 106.001 L 279.222 102.387 274.978 102.368 L 270.734 102.349 274.524 102.468 M311.517 105.901 L 311.627 109.593 315.230 109.779 C 317.212 109.882,322.454 110.152,326.879 110.379 L 334.925 110.792 334.925 114.421 C 334.925 118.725,334.634 118.479,339.717 118.479 L 343.391 118.479 343.490 122.812 L 343.590 127.144 351.459 127.456 L 359.328 127.768 359.328 131.364 C 359.328 135.886,359.251 135.809,363.820 135.809 L 367.462 135.809 367.462 139.502 C 367.462 141.533,367.582 143.269,367.728 143.359 C 367.874 143.450,367.913 141.749,367.816 139.578 L 367.639 135.632 363.749 135.455 L 359.859 135.279 359.682 131.388 L 359.505 127.498 351.646 127.186 L 343.788 126.875 343.689 122.589 L 343.590 118.302 339.523 118.126 L 335.455 117.949 335.355 114.191 L 335.255 110.433 327.221 110.124 L 319.187 109.814 319.086 106.012 L 318.986 102.210 315.196 102.210 L 311.406 102.209 311.517 105.901 M101.238 110.225 C 100.924 110.352,100.796 111.469,100.796 114.076 L 100.796 117.749 96.905 117.867 L 93.014 117.985 96.993 117.967 L 100.973 117.949 101.149 114.235 L 101.326 110.522 109.107 110.334 L 116.888 110.147 109.284 110.097 C 105.102 110.070,101.481 110.127,101.238 110.225 M289.227 110.253 C 290.450 110.323,292.360 110.322,293.471 110.252 C 294.582 110.182,293.581 110.125,291.247 110.126 C 288.912 110.127,288.004 110.184,289.227 110.253 M68.889 114.147 L 68.789 117.949 64.919 118.050 C 59.971 118.179,60.124 118.023,60.124 122.943 L 60.124 126.967 56.499 126.973 C 54.478 126.976,52.639 127.147,52.343 127.360 C 51.902 127.677,51.922 127.706,52.460 127.531 C 52.817 127.416,54.761 127.321,56.782 127.321 L 60.456 127.321 60.555 122.989 L 60.654 118.656 64.540 118.555 C 66.677 118.499,68.579 118.300,68.766 118.113 C 68.954 117.925,70.736 117.772,72.727 117.772 L 76.347 117.772 76.458 114.058 L 76.569 110.343 72.779 110.344 L 68.989 110.345 68.889 114.147 M302.817 114.118 L 302.918 117.949 306.985 117.968 L 311.052 117.988 307.250 117.868 L 303.448 117.748 303.448 114.244 C 303.448 112.211,303.295 110.645,303.082 110.514 C 302.837 110.362,302.749 111.546,302.817 114.118 M84.763 118.361 C 84.633 118.491,84.527 120.475,84.527 122.771 L 84.527 126.944 80.636 127.062 L 76.745 127.181 80.724 127.162 L 84.704 127.144 84.803 122.823 L 84.902 118.502 88.870 118.389 L 92.838 118.277 88.918 118.201 C 86.762 118.160,84.892 118.232,84.763 118.361 M315.385 118.390 L 319.363 118.502 319.363 122.735 L 319.363 126.967 322.871 126.967 C 324.800 126.967,326.591 127.021,326.850 127.086 C 327.109 127.152,327.202 127.138,327.056 127.057 C 326.910 126.975,326.790 125.091,326.790 122.871 L 326.790 118.833 323.275 118.833 C 321.312 118.833,319.662 118.677,319.540 118.479 C 319.411 118.270,317.706 118.156,315.364 118.201 L 311.406 118.277 315.385 118.390 M68.687 131.300 L 68.762 135.279 68.876 131.488 L 68.989 127.698 72.779 127.585 L 76.569 127.471 72.591 127.396 L 68.612 127.321 68.687 131.300 M331.465 127.578 L 335.255 127.698 335.355 131.488 L 335.455 135.279 339.523 135.455 L 343.590 135.632 343.690 139.434 L 343.791 143.236 347.648 143.236 C 349.838 143.236,351.600 143.389,351.724 143.590 C 351.847 143.789,353.555 143.943,355.635 143.943 L 359.328 143.943 359.328 147.586 C 359.328 152.159,359.247 152.078,363.808 152.078 L 367.438 152.078 367.558 155.792 L 367.677 159.506 367.658 155.704 L 367.639 151.901 363.749 151.724 L 359.859 151.547 359.759 147.569 L 359.659 143.590 355.850 143.590 C 351.110 143.590,351.194 143.667,351.194 139.275 L 351.194 135.809 347.501 135.809 C 345.421 135.809,343.713 135.655,343.590 135.455 C 343.466 135.255,341.704 135.102,339.514 135.102 L 335.656 135.102 335.556 131.300 L 335.455 127.498 331.565 127.478 L 327.675 127.458 331.465 127.578 M44.555 131.388 L 44.385 135.279 40.495 135.455 L 36.605 135.632 36.428 139.578 C 36.331 141.749,36.370 143.450,36.516 143.359 C 36.662 143.269,36.782 141.533,36.782 139.502 L 36.782 135.809 40.452 135.809 C 45.054 135.809,44.973 135.895,44.833 131.160 L 44.724 127.498 44.555 131.388 M60.477 135.455 C 60.186 135.644,58.326 135.801,56.344 135.804 L 52.741 135.809 52.630 139.611 L 52.520 143.413 56.322 143.302 L 60.124 143.192 60.124 139.507 C 60.124 135.197,59.745 135.515,65.075 135.352 L 68.435 135.248 64.721 135.180 C 62.679 135.143,60.769 135.267,60.477 135.455 M44.562 147.098 C 44.562 152.012,44.828 151.724,40.292 151.724 L 36.451 151.724 36.351 155.703 L 36.251 159.682 32.470 159.782 L 28.690 159.882 28.580 163.849 L 28.470 167.816 32.272 167.706 L 36.074 167.595 36.074 163.748 C 36.074 161.564,36.227 159.806,36.428 159.682 C 36.627 159.559,36.782 157.851,36.782 155.770 L 36.782 152.078 40.483 152.078 C 44.965 152.078,44.916 152.131,44.916 147.339 L 44.916 143.968 48.541 143.854 L 52.166 143.739 48.364 143.664 L 44.562 143.590 44.562 147.098 M375.595 147.762 L 375.770 151.901 375.873 148.041 C 375.929 145.918,375.851 144.055,375.698 143.902 C 375.545 143.748,375.499 145.485,375.595 147.762 M28.286 147.657 L 28.117 151.547 24.226 151.743 L 20.336 151.938 24.095 152.008 C 28.801 152.095,28.705 152.193,28.564 147.428 L 28.456 143.767 28.286 147.657 M379.741 151.988 L 383.354 152.102 383.467 155.892 L 383.581 159.682 383.656 155.703 L 383.731 151.724 379.929 151.799 L 376.127 151.873 379.741 151.988 M367.893 163.660 L 367.993 167.462 371.783 167.563 L 375.574 167.663 375.707 171.453 C 375.780 173.538,375.768 171.901,375.681 167.816 C 375.491 158.927,375.981 159.859,371.497 159.859 L 367.792 159.859 367.893 163.660 M383.891 163.926 L 383.908 167.816 387.699 167.916 L 391.489 168.017 391.607 171.896 L 391.725 175.775 391.707 171.796 L 391.689 167.816 387.898 167.716 L 384.108 167.616 383.991 163.825 L 383.873 160.035 383.891 163.926 M16.269 167.639 L 12.555 167.816 12.535 171.706 L 12.515 175.597 12.636 171.972 L 12.757 168.347 16.260 168.347 C 18.360 168.347,19.857 168.195,19.997 167.969 C 20.325 167.439,20.380 167.444,16.269 167.639 M12.161 180.018 C 12.161 182.449,12.218 183.444,12.287 182.228 C 12.356 181.012,12.356 179.023,12.287 177.807 C 12.218 176.592,12.161 177.586,12.161 180.018 M375.950 179.547 C 375.951 184.529,375.728 184.262,379.879 184.262 L 383.378 184.262 383.419 188.417 C 383.441 190.703,383.539 192.260,383.636 191.878 C 383.733 191.495,383.697 187.805,383.557 183.677 L 383.301 176.171 379.625 176.061 L 375.949 175.950 375.950 179.547 M391.951 194.020 C 391.904 203.958,391.761 214.740,391.633 217.981 L 391.401 223.873 387.963 223.873 C 383.607 223.873,383.675 223.793,383.821 228.698 L 383.935 232.538 384.010 228.571 L 384.085 224.604 387.887 224.504 L 391.689 224.403 391.950 218.568 C 392.094 215.358,392.172 204.456,392.124 194.341 L 392.036 175.950 391.951 194.020 M20.374 184.114 C 20.094 184.844,20.094 207.375,20.374 208.105 C 20.685 208.915,27.940 208.943,27.940 208.134 C 27.940 207.699,27.317 207.604,24.457 207.604 L 20.975 207.604 20.732 201.917 C 20.598 198.790,20.598 193.538,20.732 190.246 L 20.975 184.262 24.457 184.262 C 26.543 184.262,27.940 184.120,27.940 183.908 C 27.940 183.259,20.626 183.458,20.374 184.114 M383.431 203.613 L 383.378 207.933 379.752 208.034 L 376.127 208.134 376.061 212.378 C 376.024 214.713,376.077 216.424,376.178 216.180 C 376.308 215.869,377.391 215.738,379.831 215.738 L 383.300 215.738 383.552 208.576 C 383.690 204.637,383.731 200.937,383.643 200.354 C 383.555 199.770,383.460 201.237,383.431 203.613 M12.087 209.935 C 12.053 211.314,12.129 215.094,12.257 218.334 L 12.490 224.226 16.118 224.226 C 18.243 224.226,19.821 224.377,19.926 224.589 C 20.025 224.788,20.065 224.748,20.015 224.500 C 19.951 224.179,18.895 224.021,16.328 223.949 L 12.732 223.848 12.688 220.766 C 12.612 215.486,12.154 207.232,12.087 209.935 M375.597 220.619 L 375.597 224.556 371.795 224.656 L 367.993 224.757 367.679 232.449 L 367.365 240.141 363.771 240.141 C 359.254 240.141,359.328 240.067,359.328 244.611 L 359.328 248.232 355.438 248.431 C 353.298 248.540,349.806 248.719,347.679 248.828 L 343.810 249.027 343.700 252.807 L 343.590 256.587 347.392 256.477 L 351.194 256.366 351.194 252.681 C 351.194 248.369,350.821 248.680,356.145 248.541 L 359.505 248.453 359.682 244.562 L 359.859 240.672 363.749 240.495 L 367.639 240.318 367.816 236.251 L 367.993 232.184 371.754 232.084 L 375.515 231.984 375.775 224.551 C 375.917 220.463,375.936 217.020,375.815 216.900 C 375.695 216.780,375.597 218.453,375.597 220.619 M28.581 228.205 L 28.691 232.007 32.383 232.007 L 36.074 232.007 36.074 228.316 L 36.074 224.624 32.272 224.514 L 28.470 224.403 28.581 228.205 M36.428 236.372 L 36.605 240.318 40.495 240.495 L 44.385 240.672 44.485 244.639 L 44.585 248.607 48.553 248.706 L 52.520 248.806 52.620 252.586 L 52.720 256.367 56.687 256.568 C 58.869 256.678,62.439 256.857,64.621 256.964 L 68.588 257.160 68.689 260.941 L 68.789 264.721 76.646 265.033 L 84.504 265.344 84.623 269.012 L 84.741 272.680 84.723 268.878 L 84.704 265.075 76.846 264.764 L 68.989 264.452 68.889 260.697 L 68.789 256.941 64.919 256.840 C 60.034 256.712,60.124 256.794,60.124 252.477 L 60.124 248.983 56.431 248.983 C 54.351 248.983,52.643 248.829,52.520 248.630 C 52.397 248.430,50.689 248.276,48.609 248.276 L 44.916 248.276 44.916 244.633 C 44.916 240.059,44.999 240.141,40.424 240.141 L 36.782 240.141 36.782 236.449 C 36.782 234.418,36.662 232.682,36.516 232.591 C 36.370 232.500,36.331 234.202,36.428 236.372 M383.452 236.328 L 383.378 240.118 379.576 240.218 L 375.774 240.318 375.674 244.297 L 375.574 248.276 371.942 248.276 C 367.383 248.276,367.462 248.196,367.462 252.756 L 367.462 256.387 363.484 256.487 L 359.505 256.587 359.486 260.390 L 359.467 264.192 359.586 260.490 L 359.705 256.787 363.672 256.687 L 367.639 256.587 367.816 252.697 L 367.993 248.806 371.883 248.630 L 375.774 248.453 375.874 244.474 L 375.974 240.495 379.687 240.495 C 384.056 240.495,383.799 240.784,383.642 236.049 L 383.526 232.538 383.452 236.328 M24.226 240.477 L 28.117 240.672 28.294 244.562 L 28.470 248.453 32.361 248.630 L 36.251 248.806 36.428 252.697 L 36.605 256.587 40.495 256.764 L 44.385 256.941 44.486 260.743 L 44.586 264.545 48.376 264.470 L 52.166 264.395 48.541 264.281 L 44.916 264.166 44.916 260.713 C 44.916 256.352,44.977 256.410,40.424 256.410 L 36.782 256.410 36.782 252.767 C 36.782 248.193,36.864 248.276,32.290 248.276 L 28.647 248.276 28.647 244.768 C 28.647 239.832,28.932 240.129,24.277 240.211 L 20.336 240.281 24.226 240.477 M335.514 257.000 C 335.385 257.129,335.279 258.875,335.279 260.878 L 335.279 264.521 331.387 264.640 L 327.496 264.758 331.476 264.740 L 335.455 264.721 335.556 260.931 L 335.656 257.141 339.446 257.028 L 343.236 256.914 339.493 256.839 C 337.434 256.798,335.644 256.870,335.514 257.000 M347.480 264.880 L 343.590 265.075 343.489 268.877 L 343.389 272.679 339.716 272.679 C 334.631 272.679,334.925 272.428,334.925 276.772 L 334.925 280.436 331.123 280.550 L 327.321 280.663 331.288 280.738 L 335.255 280.813 335.355 277.011 L 335.455 273.210 339.523 273.033 L 343.590 272.856 343.690 269.054 L 343.791 265.252 347.404 265.247 C 349.391 265.244,351.256 265.087,351.547 264.898 C 351.839 264.710,351.919 264.585,351.724 264.620 C 351.530 264.655,349.620 264.772,347.480 264.880 M56.499 265.162 L 60.124 265.277 60.124 268.758 C 60.124 273.061,60.035 272.981,64.919 273.108 L 68.789 273.210 68.889 277.011 L 68.989 280.813 72.779 280.814 L 76.569 280.815 76.458 277.101 L 76.347 273.386 72.727 273.386 C 70.736 273.386,68.954 273.233,68.766 273.046 C 68.579 272.858,66.677 272.659,64.540 272.603 L 60.654 272.502 60.554 268.700 L 60.454 264.898 56.664 264.973 L 52.874 265.047 56.499 265.162 M319.599 265.134 C 319.469 265.264,319.363 266.975,319.363 268.936 L 319.362 272.502 323.054 272.391 L 326.746 272.281 326.857 268.589 L 326.967 264.897 323.401 264.898 C 321.440 264.898,319.729 265.004,319.599 265.134 M87.091 272.940 C 88.210 273.011,90.040 273.011,91.158 272.940 C 92.277 272.870,91.362 272.813,89.125 272.813 C 86.888 272.813,85.973 272.870,87.091 272.940 M313.086 272.940 C 314.204 273.011,316.034 273.011,317.153 272.940 C 318.271 272.870,317.356 272.813,315.119 272.813 C 312.882 272.813,311.967 272.870,313.086 272.940 M96.994 273.297 L 100.796 273.410 100.796 277.112 C 100.796 279.148,100.915 280.814,101.061 280.814 C 101.207 280.815,101.277 279.064,101.216 276.924 L 101.105 273.033 97.149 273.108 L 93.192 273.183 96.994 273.297 M302.977 273.268 C 302.581 273.664,302.697 280.882,303.095 280.637 C 303.292 280.515,303.448 278.869,303.448 276.914 L 303.448 273.410 307.250 273.297 L 311.052 273.183 307.132 273.108 C 304.976 273.067,303.106 273.139,302.977 273.268 M80.990 281.149 L 85.057 281.344 85.158 284.969 L 85.259 288.594 88.754 288.594 C 90.677 288.594,92.462 288.648,92.721 288.713 C 92.980 288.778,93.073 288.765,92.927 288.684 C 92.781 288.602,92.661 286.902,92.661 284.907 L 92.661 281.278 86.769 281.046 C 83.529 280.918,79.988 280.845,78.900 280.884 C 77.813 280.923,78.753 281.042,80.990 281.149 M110.978 281.076 C 112.201 281.145,114.111 281.144,115.222 281.074 C 116.332 281.004,115.332 280.948,112.997 280.948 C 110.663 280.949,109.754 281.006,110.978 281.076 M282.759 281.150 L 278.515 281.344 278.414 284.969 L 278.313 288.594 274.347 288.669 L 270.380 288.743 274.094 288.860 C 279.692 289.037,279.399 289.247,279.399 285.051 L 279.399 281.521 282.493 281.478 C 284.195 281.454,287.816 281.322,290.539 281.185 L 295.491 280.936 291.247 280.946 C 288.912 280.951,285.093 281.043,282.759 281.150 M319.010 281.167 C 318.718 281.356,316.927 281.512,315.031 281.515 L 311.583 281.521 311.583 285.028 C 311.583 287.499,311.452 288.590,311.141 288.720 C 310.897 288.822,312.529 288.875,314.766 288.838 L 318.833 288.771 319.010 285.057 L 319.187 281.344 323.254 281.149 L 327.321 280.955 323.431 280.889 C 321.291 280.854,319.302 280.979,319.010 281.167 M121.043 281.425 L 124.845 281.545 124.845 285.063 C 124.845 289.245,124.554 289.037,130.150 288.860 L 133.864 288.743 129.897 288.669 L 125.931 288.594 125.830 284.969 L 125.729 281.344 121.485 281.325 L 117.241 281.305 121.043 281.425 M105.128 289.203 L 108.930 289.325 108.930 292.985 L 108.930 296.646 116.728 296.906 C 121.017 297.049,124.624 297.068,124.744 296.947 C 124.865 296.827,123.106 296.729,120.837 296.729 L 116.711 296.729 116.711 293.215 L 116.711 289.701 112.909 289.498 C 110.818 289.386,107.356 289.247,105.217 289.188 C 101.434 289.084,101.431 289.084,105.128 289.203 M145.093 289.212 C 147.378 289.274,151.118 289.274,153.404 289.212 C 155.690 289.150,153.820 289.100,149.248 289.100 C 144.677 289.100,142.807 289.150,145.093 289.212 M250.683 289.212 C 253.077 289.273,256.897 289.273,259.171 289.212 C 261.446 289.150,259.487 289.100,254.819 289.100 C 250.150 289.101,248.289 289.151,250.683 289.212 M295.049 289.182 C 294.735 289.309,294.607 290.428,294.607 293.045 L 294.607 296.729 290.451 296.803 L 286.295 296.878 290.009 296.995 C 295.628 297.172,295.314 297.407,295.314 293.020 L 295.314 289.324 299.469 289.212 L 303.625 289.100 299.558 289.052 C 297.321 289.025,295.292 289.084,295.049 289.182 M161.715 289.565 L 165.517 289.679 165.517 293.148 L 165.517 296.617 171.940 296.850 C 175.472 296.978,189.054 297.082,202.122 297.082 C 215.190 297.082,228.772 296.978,232.304 296.850 L 238.727 296.617 238.727 293.148 L 238.727 289.679 242.529 289.565 C 245.254 289.484,244.578 289.431,240.141 289.378 C 236.737 289.337,231.446 289.408,228.382 289.535 L 222.812 289.766 222.812 293.247 L 222.812 296.729 202.299 296.729 L 181.786 296.729 181.786 293.247 L 181.786 289.766 175.894 289.534 C 172.653 289.406,167.282 289.335,163.958 289.377 C 159.460 289.433,158.886 289.481,161.715 289.565 M129.531 297.346 L 133.687 297.458 133.687 301.161 L 133.687 304.863 137.754 304.863 L 141.821 304.863 141.821 301.187 C 141.821 296.682,142.651 297.063,133.039 297.158 C 128.508 297.203,127.074 297.280,129.531 297.346 M266.401 297.346 L 262.423 297.459 262.423 301.161 L 262.423 304.863 266.313 304.863 L 270.203 304.863 270.203 301.160 L 270.203 297.458 274.536 297.346 L 278.868 297.235 274.624 297.234 C 272.290 297.234,268.590 297.284,266.401 297.346 M155.327 305.128 C 158.572 305.186,163.983 305.186,167.351 305.128 C 170.719 305.070,168.064 305.022,161.450 305.022 C 154.836 305.022,152.081 305.069,155.327 305.128 M236.870 305.128 C 240.225 305.186,245.716 305.186,249.072 305.128 C 252.427 305.070,249.682 305.022,242.971 305.022 C 236.260 305.022,233.515 305.070,236.870 305.128 M191.600 305.482 C 197.290 305.536,206.600 305.536,212.290 305.482 C 217.980 305.427,213.324 305.382,201.945 305.382 C 190.566 305.382,185.911 305.427,191.600 305.482 " stroke="none" fill="#7c7c7c" fill-rule="evenodd"></path><path id="path4" d="M167.565 85.850 C 168.788 85.919,170.698 85.919,171.809 85.849 C 172.920 85.779,171.919 85.722,169.584 85.723 C 167.250 85.724,166.341 85.781,167.565 85.850 M232.640 85.850 C 233.863 85.919,235.773 85.919,236.884 85.849 C 237.995 85.779,236.994 85.722,234.660 85.723 C 232.325 85.724,231.416 85.781,232.640 85.850 M143.337 86.203 C 144.463 86.274,146.214 86.273,147.228 86.202 C 148.242 86.131,147.321 86.073,145.181 86.074 C 143.042 86.075,142.212 86.133,143.337 86.203 M270.263 89.723 C 270.230 91.705,270.323 93.401,270.469 93.492 C 270.615 93.583,270.690 92.518,270.637 91.126 C 270.464 86.576,270.323 86.051,270.263 89.723 M181.786 97.966 L 181.786 101.503 185.676 101.503 L 189.567 101.503 189.567 97.966 L 189.567 94.430 185.676 94.430 L 181.786 94.430 181.786 97.966 M214.677 97.921 L 214.677 101.413 222.479 101.673 C 226.770 101.815,230.378 101.836,230.496 101.718 C 230.614 101.600,228.933 101.503,226.761 101.503 L 222.812 101.503 222.812 97.966 L 222.812 94.430 218.744 94.430 L 214.677 94.430 214.677 97.921 M103.373 101.765 C 104.498 101.835,106.249 101.835,107.263 101.763 C 108.277 101.692,107.356 101.635,105.217 101.635 C 103.077 101.636,102.247 101.694,103.373 101.765 M175.508 101.764 C 176.627 101.835,178.457 101.835,179.576 101.764 C 180.694 101.694,179.779 101.637,177.542 101.637 C 175.305 101.637,174.390 101.694,175.508 101.764 M95.238 102.119 C 96.364 102.189,98.115 102.188,99.129 102.117 C 100.143 102.046,99.222 101.988,97.082 101.989 C 94.943 101.990,94.113 102.048,95.238 102.119 M151.650 102.119 C 152.873 102.188,154.783 102.188,155.894 102.118 C 157.004 102.048,156.004 101.991,153.669 101.992 C 151.335 101.992,150.426 102.050,151.650 102.119 M248.364 102.118 C 249.483 102.188,251.313 102.188,252.431 102.118 C 253.550 102.048,252.635 101.991,250.398 101.991 C 248.161 101.991,247.246 102.048,248.364 102.118 M305.318 102.119 C 306.444 102.189,308.194 102.188,309.208 102.117 C 310.222 102.046,309.302 101.988,307.162 101.989 C 305.022 101.990,304.192 102.048,305.318 102.119 M85.011 106.101 C 85.011 108.143,85.070 108.979,85.141 107.958 C 85.213 106.936,85.213 105.265,85.141 104.244 C 85.070 103.223,85.011 104.058,85.011 106.101 M125.841 106.189 L 125.729 109.814 129.355 109.703 L 132.980 109.592 132.980 106.078 L 132.980 102.564 129.466 102.564 L 125.952 102.564 125.841 106.189 M271.264 106.078 L 271.264 109.592 274.889 109.703 L 278.515 109.814 278.403 106.189 L 278.292 102.564 274.778 102.564 L 271.264 102.564 271.264 106.078 M319.141 106.101 C 319.141 108.143,319.199 108.979,319.270 107.958 C 319.342 106.936,319.342 105.265,319.270 104.244 C 319.199 103.223,319.141 104.058,319.141 106.101 M101.327 110.787 C 101.049 111.590,100.967 118.064,101.238 117.895 C 101.384 117.804,101.503 116.154,101.503 114.227 L 101.503 110.723 105.128 110.609 L 108.753 110.494 105.117 110.419 C 102.470 110.365,101.439 110.465,101.327 110.787 M297.184 110.607 C 298.309 110.677,300.060 110.676,301.074 110.605 C 302.088 110.534,301.167 110.476,299.027 110.477 C 296.888 110.478,296.058 110.536,297.184 110.607 M68.743 114.235 C 68.743 116.278,68.801 117.113,68.873 116.092 C 68.944 115.071,68.944 113.400,68.873 112.378 C 68.801 111.357,68.743 112.193,68.743 114.235 M56.676 118.743 L 53.050 118.858 53.050 122.912 L 53.050 126.967 56.566 126.967 L 60.082 126.967 60.191 122.723 C 60.251 120.388,60.301 118.512,60.301 118.553 C 60.301 118.595,58.669 118.680,56.676 118.743 M343.767 122.900 L 343.767 126.967 347.480 126.967 L 351.194 126.967 351.194 122.900 L 351.194 118.833 347.480 118.833 L 343.767 118.833 343.767 122.900 M321.397 127.228 C 322.418 127.299,324.089 127.299,325.111 127.228 C 326.132 127.157,325.296 127.098,323.254 127.098 C 321.211 127.098,320.376 127.157,321.397 127.228 M46.596 127.582 C 47.617 127.653,49.288 127.653,50.309 127.582 C 51.331 127.510,50.495 127.452,48.453 127.452 C 46.410 127.452,45.575 127.510,46.596 127.582 M60.256 139.523 C 60.257 141.662,60.315 142.492,60.386 141.366 C 60.456 140.241,60.455 138.490,60.384 137.476 C 60.313 136.462,60.255 137.383,60.256 139.523 M369.850 143.497 C 370.871 143.568,372.542 143.568,373.563 143.497 C 374.584 143.425,373.749 143.367,371.706 143.367 C 369.664 143.367,368.828 143.425,369.850 143.497 M20.290 155.615 C 20.290 157.657,20.348 158.492,20.420 157.471 C 20.491 156.450,20.491 154.779,20.420 153.758 C 20.348 152.737,20.290 153.572,20.290 155.615 M36.782 155.615 L 36.782 159.151 40.318 159.151 L 43.855 159.151 43.855 155.615 L 43.855 152.078 40.318 152.078 L 36.782 152.078 36.782 155.615 M360.035 155.615 L 360.035 159.151 363.749 159.151 L 367.462 159.151 367.462 155.615 L 367.462 152.078 363.749 152.078 L 360.035 152.078 360.035 155.615 M19.936 163.749 C 19.936 165.791,19.995 166.627,20.066 165.606 C 20.138 164.584,20.138 162.913,20.066 161.892 C 19.995 160.871,19.936 161.706,19.936 163.749 M28.071 180.018 C 28.071 182.060,28.129 182.896,28.201 181.874 C 28.272 180.853,28.272 179.182,28.201 178.161 C 28.129 177.140,28.071 177.975,28.071 180.018 M20.866 187.769 C 20.866 189.699,20.813 191.489,20.748 191.748 C 20.682 192.007,20.696 192.100,20.777 191.954 C 20.859 191.808,22.504 191.689,24.433 191.689 L 27.940 191.689 27.940 187.975 L 27.940 184.262 24.403 184.262 L 20.866 184.262 20.866 187.769 M376.304 187.975 L 376.304 191.689 379.841 191.689 L 383.378 191.689 383.378 187.975 L 383.378 184.262 379.841 184.262 L 376.304 184.262 376.304 187.975 M11.809 196.110 C 11.809 198.638,11.865 199.626,11.934 198.305 C 12.002 196.984,12.001 194.915,11.933 193.708 C 11.864 192.500,11.808 193.581,11.809 196.110 M383.508 195.933 C 383.508 197.975,383.567 198.811,383.638 197.790 C 383.710 196.768,383.710 195.097,383.638 194.076 C 383.567 193.055,383.508 193.890,383.508 195.933 M20.685 200.471 C 20.785 200.730,20.866 202.441,20.866 204.273 L 20.866 207.604 24.403 207.604 L 27.940 207.604 27.940 203.913 L 27.940 200.222 24.222 200.111 C 21.237 200.022,20.539 200.093,20.685 200.471 M376.304 204.244 L 376.304 207.958 379.841 207.958 L 383.378 207.958 383.378 204.244 L 383.378 200.531 379.841 200.531 L 376.304 200.531 376.304 204.244 M28.072 212.025 C 28.073 214.164,28.131 214.994,28.202 213.869 C 28.272 212.743,28.271 210.992,28.200 209.978 C 28.129 208.964,28.071 209.885,28.072 212.025 M14.412 224.487 C 15.433 224.559,17.104 224.559,18.126 224.487 C 19.147 224.416,18.311 224.357,16.269 224.357 C 14.226 224.357,13.391 224.416,14.412 224.487 M19.936 228.470 C 19.936 230.513,19.995 231.348,20.066 230.327 C 20.138 229.306,20.138 227.635,20.066 226.614 C 19.995 225.592,19.936 226.428,19.936 228.470 M20.291 236.428 C 20.292 238.568,20.350 239.397,20.421 238.272 C 20.491 237.146,20.491 235.396,20.419 234.381 C 20.348 233.367,20.291 234.288,20.291 236.428 M363.683 232.978 L 360.080 233.092 359.969 236.705 L 359.859 240.318 363.660 240.208 L 367.462 240.097 367.462 236.406 C 367.462 234.376,367.423 232.748,367.374 232.789 C 367.325 232.830,365.664 232.915,363.683 232.978 M36.782 236.605 L 36.782 240.141 40.318 240.141 L 43.855 240.141 43.855 236.605 L 43.855 233.068 40.318 233.068 L 36.782 233.068 36.782 236.605 M60.255 252.520 C 60.255 254.562,60.313 255.398,60.385 254.377 C 60.456 253.355,60.456 251.684,60.385 250.663 C 60.313 249.642,60.255 250.477,60.255 252.520 M355.615 264.545 L 351.724 264.758 355.505 264.828 C 357.723 264.869,359.377 264.752,359.505 264.545 C 359.625 264.350,359.674 264.222,359.614 264.261 C 359.554 264.299,357.754 264.427,355.615 264.545 M46.786 264.806 C 47.911 264.877,49.662 264.876,50.676 264.805 C 51.690 264.734,50.769 264.676,48.630 264.677 C 46.490 264.678,45.660 264.736,46.786 264.806 M52.984 268.678 L 53.095 272.281 56.698 272.391 L 60.301 272.502 60.190 268.899 L 60.079 265.297 56.476 265.186 L 52.874 265.075 52.984 268.678 M347.569 265.162 L 343.767 265.276 343.767 268.801 L 343.767 272.325 347.457 272.325 L 351.148 272.325 351.259 268.611 C 351.320 266.568,351.370 264.931,351.370 264.973 C 351.370 265.014,349.660 265.100,347.569 265.162 M68.743 276.923 C 68.743 278.966,68.801 279.801,68.873 278.780 C 68.944 277.759,68.944 276.088,68.873 275.066 C 68.801 274.045,68.743 274.881,68.743 276.923 M101.306 276.923 L 101.326 280.637 105.040 280.655 L 108.753 280.672 105.140 280.554 L 101.528 280.436 101.406 276.823 L 101.285 273.210 101.306 276.923 M335.409 276.923 C 335.409 278.966,335.468 279.801,335.539 278.780 C 335.611 277.759,335.611 276.088,335.539 275.066 C 335.468 274.045,335.409 274.881,335.409 276.923 M297.184 280.722 C 298.309 280.792,300.060 280.791,301.074 280.720 C 302.088 280.649,301.167 280.591,299.027 280.592 C 296.888 280.593,296.058 280.651,297.184 280.722 M125.841 284.969 L 125.952 288.594 129.466 288.594 L 132.980 288.594 132.980 285.080 L 132.980 281.566 129.355 281.455 L 125.729 281.344 125.841 284.969 M274.889 281.431 L 271.264 281.546 271.264 285.070 L 271.264 288.594 274.778 288.594 L 278.292 288.594 278.403 284.880 C 278.465 282.837,278.515 281.200,278.515 281.241 C 278.515 281.282,276.883 281.368,274.889 281.431 M85.037 285.057 L 85.057 288.771 88.771 288.789 L 92.485 288.807 88.872 288.689 L 85.259 288.570 85.138 284.957 L 85.016 281.344 85.037 285.057 M319.008 285.130 C 318.912 287.212,318.958 288.789,319.112 288.635 C 319.265 288.481,319.344 286.777,319.286 284.849 L 319.182 281.344 319.008 285.130 M159.430 289.210 C 160.654 289.279,162.563 289.279,163.674 289.209 C 164.785 289.139,163.784 289.082,161.450 289.083 C 159.116 289.084,158.207 289.141,159.430 289.210 M240.584 289.209 C 241.702 289.279,243.532 289.279,244.651 289.209 C 245.769 289.139,244.854 289.082,242.617 289.082 C 240.380 289.082,239.465 289.139,240.584 289.209 M305.128 289.209 C 306.149 289.280,307.821 289.280,308.842 289.209 C 309.863 289.137,309.027 289.079,306.985 289.079 C 304.943 289.079,304.107 289.137,305.128 289.209 M177.807 289.566 L 181.786 289.678 181.786 293.203 L 181.786 296.729 185.676 296.729 L 189.567 296.729 189.567 293.247 L 189.567 289.766 183.996 289.535 C 180.933 289.408,177.392 289.337,176.127 289.378 C 174.863 289.419,175.619 289.503,177.807 289.566 M218.479 289.565 L 214.677 289.679 214.677 293.204 L 214.677 296.729 218.744 296.729 L 222.812 296.729 222.812 293.204 L 222.812 289.679 226.614 289.565 L 230.416 289.452 226.348 289.452 C 224.111 289.452,220.570 289.503,218.479 289.565 M297.184 289.563 C 298.309 289.634,300.060 289.633,301.074 289.562 C 302.088 289.491,301.167 289.433,299.027 289.434 C 296.888 289.435,296.058 289.493,297.184 289.563 M111.317 296.989 C 112.339 297.061,114.010 297.061,115.031 296.989 C 116.052 296.918,115.217 296.859,113.174 296.859 C 111.132 296.859,110.296 296.918,111.317 296.989 M270.336 301.149 C 270.336 303.289,270.395 304.119,270.465 302.993 C 270.536 301.868,270.535 300.117,270.464 299.103 C 270.392 298.089,270.335 299.010,270.336 301.149 M143.678 305.124 C 144.797 305.194,146.627 305.194,147.745 305.124 C 148.864 305.054,147.949 304.997,145.712 304.997 C 143.475 304.997,142.560 305.054,143.678 305.124 M256.865 305.125 C 257.991 305.195,259.742 305.194,260.756 305.123 C 261.770 305.052,260.849 304.994,258.709 304.995 C 256.569 304.996,255.740 305.054,256.865 305.125 M175.508 305.478 C 176.627 305.548,178.457 305.548,179.576 305.478 C 180.694 305.408,179.779 305.350,177.542 305.350 C 175.305 305.350,174.390 305.408,175.508 305.478 M224.505 305.479 C 225.729 305.548,227.639 305.548,228.749 305.478 C 229.860 305.408,228.859 305.351,226.525 305.352 C 224.191 305.352,223.282 305.410,224.505 305.479 " stroke="none" fill="#848484" fill-rule="evenodd"></path></g></svg>