<?xml version="1.0" standalone="no"?>
<!DOCTYPE svg PUBLIC "-//W3C//DTD SVG 20010904//EN"
 "http://www.w3.org/TR/2001/REC-SVG-20010904/DTD/svg10.dtd">
<svg version="1.0" xmlns="http://www.w3.org/2000/svg"
 width="381.000000pt" height="249.000000pt" viewBox="0 0 381.000000 249.000000"
 preserveAspectRatio="xMidYMid meet">

<g transform="translate(0.000000,249.000000) scale(0.100000,-0.100000)"
fill="#000000" stroke="none">
<path d="M1770 2355 l0 -35 -75 0 -75 0 0 -40 0 -40 -40 0 c-39 0 -40 -1 -40
-35 l0 -35 -75 0 -75 0 0 -40 0 -40 -76 0 c-72 0 -75 -1 -74 -22 4 -43 0 -48
-35 -48 -34 0 -35 -1 -35 -40 l0 -40 -75 0 -75 0 0 -35 c0 -34 -1 -35 -40 -35
l-40 0 0 -40 0 -40 -75 0 -75 0 0 -35 0 -35 -75 0 -75 0 0 -40 c0 -39 -1 -40
-35 -40 -33 0 -35 -2 -35 -35 l0 -35 -75 0 -75 0 0 -40 0 -40 -40 0 c-39 0
-40 -1 -40 -35 l0 -35 -75 0 -75 0 0 -40 0 -40 -75 0 -75 0 0 -35 c0 -28 -4
-35 -20 -35 -17 0 -20 -7 -20 -40 0 -33 3 -40 20 -40 16 0 20 -7 20 -35 l0
-35 75 0 75 0 0 -40 0 -40 75 0 75 0 0 -35 c0 -34 1 -35 40 -35 l40 0 0 -40 0
-40 75 0 75 0 0 -35 c0 -33 2 -35 35 -35 34 0 35 -1 35 -40 l0 -40 75 0 75 0
0 -35 0 -35 75 0 75 0 0 -40 0 -40 40 0 c39 0 40 -1 40 -35 l0 -35 75 0 75 0
0 -40 0 -40 75 0 75 0 0 -35 c0 -33 2 -35 35 -35 34 0 35 -1 35 -40 l0 -40 75
0 75 0 0 -35 c0 -34 1 -35 40 -35 l40 0 0 -40 0 -40 75 0 75 0 0 -35 0 -35
110 0 110 0 0 35 0 35 75 0 75 0 0 40 0 40 40 0 c39 0 40 1 40 35 l0 35 75 0
75 0 0 40 c0 39 1 40 35 40 33 0 35 2 35 35 l0 35 75 0 75 0 0 40 0 40 75 0
75 0 0 35 c0 34 1 35 40 35 l40 0 0 40 0 40 75 0 75 0 0 35 0 35 75 0 75 0 0
40 c0 39 1 40 35 40 33 0 35 2 35 35 l0 35 75 0 75 0 0 40 0 40 43 1 c23 1 49
0 57 -1 8 -1 12 1 8 6 -4 4 -3 13 4 21 16 20 3 27 -15 8 -14 -14 -16 -13 -14
4 0 11 5 17 10 14 5 -3 13 0 17 7 6 9 10 7 15 -9 8 -27 29 -28 22 -1 -5 18 0
20 39 20 l44 0 0 40 0 40 75 0 75 0 0 35 c0 34 1 35 40 35 l40 0 0 40 0 40
-40 0 c-39 0 -40 1 -40 35 l0 35 -75 0 -75 0 0 40 0 40 -76 0 c-72 0 -75 1
-74 23 4 43 1 47 -40 47 l-40 0 0 40 0 40 -75 0 -75 0 0 35 c0 33 -2 35 -35
35 -34 0 -35 1 -35 40 l0 40 -75 0 -75 0 0 35 0 35 -75 0 -75 0 0 40 0 40 -40
0 c-39 0 -40 1 -40 35 l0 35 -75 0 -75 0 0 40 0 40 -75 0 -75 0 0 35 c0 33 -2
35 -35 35 -34 0 -35 1 -35 40 l0 40 -75 0 -75 0 0 35 c0 34 -1 35 -40 35 l-40
0 0 40 0 40 -75 0 -75 0 0 35 0 35 -110 0 -110 0 0 -35z m220 -150 l0 -35 75
0 75 0 0 -40 0 -40 40 0 c39 0 40 -1 40 -35 l0 -35 75 0 75 0 0 -40 0 -40 75
0 75 0 0 -35 c0 -33 2 -35 35 -35 34 0 35 -1 35 -40 l0 -40 75 0 75 0 0 -35
c0 -34 1 -35 40 -35 l40 0 0 -40 0 -40 75 0 75 0 0 -35 0 -35 75 0 75 0 0 -40
c0 -39 1 -40 35 -40 33 0 35 -2 35 -35 l0 -35 75 0 75 0 0 -40 0 -40 40 0 c39
0 40 -1 40 -35 l0 -35 75 0 75 0 0 -41 c0 -32 -3 -40 -17 -38 -10 1 -44 1 -75
0 l-58 -1 0 -35 c0 -34 -1 -35 -40 -35 l-40 0 0 -40 0 -40 -75 0 -75 0 0 -35
c0 -33 -2 -35 -35 -35 -34 0 -35 -1 -35 -40 l0 -40 -75 0 -75 0 0 -35 0 -35
-75 0 -75 0 0 -40 0 -40 -40 0 c-39 0 -40 -1 -40 -35 l0 -35 -75 0 -75 0 0
-40 c0 -39 -1 -40 -35 -40 -33 0 -35 -2 -35 -35 l0 -35 -75 0 -75 0 0 -40 0
-40 -75 0 -75 0 0 -35 c0 -34 -1 -35 -40 -35 l-40 0 0 -40 0 -40 -75 0 -75 0
0 -35 0 -35 -110 0 -110 0 0 35 0 35 -75 0 -75 0 0 40 0 40 -40 0 c-39 0 -40
1 -40 35 l0 35 -75 0 -75 0 0 40 c0 39 -1 40 -35 40 -33 0 -35 2 -35 35 l0 35
-75 0 -75 0 0 40 0 40 -75 0 -75 0 0 35 c0 34 -1 35 -40 35 l-40 0 0 40 0 40
-75 0 -75 0 0 35 c0 33 -2 35 -35 35 -34 0 -35 1 -35 40 l0 40 -75 0 -75 0 0
35 0 35 -75 0 -75 0 0 40 0 40 -40 0 c-39 0 -40 1 -40 35 0 33 -2 35 -35 35
-34 0 -35 1 -35 40 0 39 1 40 35 40 33 0 35 2 35 35 0 34 1 35 40 35 l40 0 0
40 c0 22 5 40 11 40 5 0 7 -6 3 -12 -6 -10 -4 -10 7 0 7 7 38 12 71 12 l58 0
0 35 0 35 75 0 75 0 0 40 c0 39 1 40 35 40 33 0 35 2 35 35 l0 35 75 0 75 0 0
40 0 40 40 0 c39 0 40 1 40 35 l0 35 75 0 75 0 0 40 0 40 75 0 75 0 0 35 c0
33 2 35 35 35 34 0 35 1 35 40 l0 40 75 0 75 0 0 35 c0 34 1 35 40 35 l40 0 0
40 0 40 75 0 75 0 0 35 0 35 110 0 110 0 0 -35z"/>
<path d="M1770 1905 l0 -35 -75 0 -75 0 0 -40 0 -40 -40 0 c-39 0 -40 -1 -40
-35 l0 -35 -75 0 -75 0 0 -40 c0 -39 -1 -40 -35 -40 -33 0 -35 -2 -35 -35 l0
-35 -75 0 -75 0 0 -40 0 -40 -40 0 c-39 0 -40 -1 -40 -35 l0 -35 -75 0 -75 0
0 -40 0 -40 -75 0 -75 0 0 -35 c0 -33 -2 -35 -35 -35 -34 0 -35 -1 -35 -40 0
-39 1 -40 35 -40 33 0 35 -2 35 -35 l0 -35 75 0 75 0 0 -40 0 -40 46 0 c29 0
43 -4 39 -11 -4 -5 1 -20 12 -31 16 -20 17 -21 1 -15 -10 4 -18 2 -18 -3 0 -5
15 -9 33 -8 17 1 51 0 75 0 l42 -2 0 -40 0 -40 75 0 75 0 0 -35 c0 -33 2 -35
35 -35 34 0 35 -1 35 -40 l0 -40 75 0 75 0 0 -35 c0 -34 1 -35 40 -35 l40 0 0
-40 0 -40 75 0 75 0 0 -35 0 -35 110 0 110 0 0 35 0 35 75 0 75 0 0 40 0 40
40 0 c39 0 40 1 40 35 l0 35 75 0 75 0 0 40 c0 39 1 40 35 40 33 0 35 2 35 35
l0 35 75 0 75 0 0 40 0 40 76 0 c66 0 75 2 73 17 -4 47 0 53 41 53 l40 0 0 40
0 40 75 0 75 0 0 35 c0 33 2 35 35 35 34 0 35 1 35 40 0 39 -1 40 -35 40 -33
0 -35 2 -35 35 l0 35 -75 0 -75 0 0 40 0 40 -57 1 c-32 1 -50 3 -40 6 9 2 17
10 17 17 0 15 -33 48 -46 45 -5 -1 -30 -1 -56 0 l-48 1 0 40 0 40 -75 0 -75 0
0 35 c0 33 -2 35 -35 35 -34 0 -35 1 -35 40 l0 40 -75 0 -75 0 0 35 c0 34 -1
35 -40 35 l-40 0 0 40 0 40 -75 0 -75 0 0 35 0 35 -110 0 -110 0 0 -35z m220
-150 l0 -35 51 0 c40 0 49 -3 42 -12 -5 -7 -10 -25 -11 -40 -2 -34 20 -37 42
-6 15 21 13 43 -3 34 -4 -3 -8 1 -8 8 0 8 7 13 16 11 10 -1 16 -13 16 -33 0
-17 -3 -28 -7 -26 -4 3 -8 0 -8 -5 0 -6 21 -11 50 -11 l50 0 0 -35 0 -35 75 0
75 0 0 -40 c0 -39 1 -40 35 -40 33 0 35 -2 35 -35 l0 -35 75 0 75 0 0 -40 0
-40 40 0 c39 0 40 -1 40 -35 0 -33 2 -35 35 -35 34 0 35 -1 35 -40 0 -39 -1
-40 -35 -40 -33 0 -35 -2 -35 -35 0 -34 -1 -35 -40 -35 l-40 0 0 -40 0 -40
-75 0 -75 0 0 -35 c0 -33 -2 -35 -35 -35 -34 0 -35 -1 -35 -40 l0 -40 -75 0
-75 0 0 -35 c0 -34 -1 -35 -40 -35 l-40 0 0 -40 0 -40 -75 0 -75 0 0 -35 0
-35 -110 0 -110 0 0 35 c0 35 0 35 -44 35 -25 0 -48 5 -52 12 -4 6 -3 8 3 5
14 -9 10 40 -5 55 -9 9 -12 9 -12 -2 0 -11 -3 -11 -12 -2 -7 7 -34 12 -60 12
l-48 0 0 35 0 35 -75 0 -75 0 0 40 c0 39 -1 40 -35 40 -33 0 -35 2 -35 35 l0
35 -75 0 -75 0 0 40 0 40 -40 0 c-39 0 -40 1 -40 35 0 33 -2 35 -35 35 -34 0
-35 1 -35 40 0 39 1 40 35 40 33 0 35 2 35 35 0 34 1 35 40 35 l40 0 0 40 0
40 75 0 75 0 0 35 c0 33 2 35 35 35 34 0 35 1 35 40 l0 40 75 0 75 0 0 35 0
35 75 0 75 0 0 40 0 40 40 0 c39 0 40 1 40 35 l0 35 110 0 110 0 0 -35z m720
-285 c0 -5 -5 -9 -11 -7 -6 1 -14 -5 -16 -13 -3 -9 -1 -11 4 -5 11 14 43 18
43 5 0 -5 -9 -10 -21 -10 -11 0 -17 -4 -14 -10 3 -6 -1 -7 -9 -4 -19 7 -21 25
-4 42 15 15 28 16 28 2z m-1626 -438 c2 -4 -5 -9 -17 -9 -17 -2 -19 0 -7 7 18
12 18 12 24 2z m-29 -30 c-3 -3 -11 0 -18 7 -9 10 -8 11 6 5 10 -3 15 -9 12
-12z m29 -7 c-4 -8 -8 -15 -10 -15 -2 0 -4 7 -4 15 0 8 4 15 10 15 5 0 7 -7 4
-15z m580 -202 c11 5 12 0 3 -24 -15 -39 -41 -34 -43 9 -1 26 1 30 12 21 8 -6
20 -9 28 -6z"/>
<path d="M1630 780 c0 -6 7 -10 15 -10 8 0 15 2 15 4 0 2 -7 6 -15 10 -8 3
-15 1 -15 -4z"/>
<path d="M3460 990 c0 -13 18 -22 24 -11 3 5 -1 11 -9 15 -8 3 -15 1 -15 -4z"/>
</g>

</svg>
