<svg id="svg" xmlns="http://www.w3.org/2000/svg" xmlns:xlink="http://www.w3.org/1999/xlink" width="400" height="279.14614121510675" viewBox="0, 0, 400,279.14614121510675"><g id="svgg"><path id="path0" d="M80.131 72.250 L 80.131 138.588 77.176 138.588 C 74.675 138.588,74.220 138.389,74.220 137.297 C 74.220 136.244,73.615 135.926,70.936 135.570 C 68.041 135.186,67.652 134.950,67.652 133.577 C 67.652 132.169,67.368 132.020,64.696 132.020 C 62.145 132.020,61.741 131.834,61.741 130.660 C 61.741 129.626,61.387 129.351,60.263 129.511 C 58.920 129.702,58.767 130.126,58.591 134.154 L 58.396 138.588 29.198 138.588 L 0.000 138.588 0.000 141.544 L 0.000 144.499 29.228 144.499 L 58.456 144.499 58.456 149.097 C 58.456 153.563,58.503 153.695,60.099 153.695 C 61.303 153.695,61.741 153.344,61.741 152.381 C 61.741 151.262,62.178 151.067,64.696 151.067 C 67.411 151.067,67.652 150.934,67.652 149.425 C 67.652 147.893,67.871 147.783,70.936 147.783 C 74.001 147.783,74.220 147.674,74.220 146.141 C 74.220 144.633,74.461 144.499,77.176 144.499 L 80.131 144.499 80.131 165.764 C 80.131 177.459,80.316 187.952,80.542 189.080 C 81.066 191.702,83.415 192.038,83.415 189.491 L 83.415 187.849 111.002 187.849 L 138.588 187.849 138.588 209.524 L 138.588 231.199 141.544 231.199 L 144.499 231.199 144.499 209.524 L 144.499 187.849 192.447 187.849 L 240.394 187.849 240.394 209.524 L 240.394 231.199 243.350 231.199 L 246.305 231.199 246.305 209.524 L 246.305 187.849 292.611 187.849 L 338.916 187.849 338.916 209.524 L 338.916 231.199 341.872 231.199 L 344.828 231.199 344.828 209.524 L 344.828 187.849 371.100 187.849 L 397.373 187.849 397.373 96.880 L 397.373 5.911 238.752 5.911 L 80.131 5.911 80.131 72.250 M391.461 55.172 L 391.461 98.522 238.752 98.522 L 86.043 98.522 86.043 55.172 L 86.043 11.823 238.752 11.823 L 391.461 11.823 391.461 55.172 M89.327 106.076 C 89.327 107.584,89.568 107.718,92.282 107.718 C 94.800 107.718,95.238 107.912,95.238 109.031 C 95.238 110.170,95.676 110.345,98.522 110.345 C 101.587 110.345,101.806 110.454,101.806 111.987 C 101.806 113.495,102.047 113.629,104.762 113.629 C 107.477 113.629,107.718 113.763,107.718 115.271 C 107.718 116.779,107.958 116.913,110.673 116.913 C 113.388 116.913,113.629 117.047,113.629 118.555 C 113.629 120.088,113.848 120.197,116.913 120.197 C 119.759 120.197,120.197 120.372,120.197 121.511 C 120.197 122.630,120.635 122.824,123.153 122.824 C 125.868 122.824,126.108 122.958,126.108 124.466 C 126.108 125.999,126.327 126.108,129.392 126.108 C 132.458 126.108,132.677 126.218,132.677 127.750 C 132.677 129.259,132.917 129.392,135.632 129.392 C 138.150 129.392,138.588 129.587,138.588 130.706 C 138.588 131.825,139.026 132.020,141.544 132.020 C 144.216 132.020,144.499 132.169,144.499 133.577 C 144.499 134.950,144.888 135.186,147.783 135.570 C 150.385 135.915,151.067 136.259,151.067 137.222 C 151.067 138.160,151.743 138.540,154.023 138.882 C 158.529 139.558,158.665 144.302,154.187 144.626 C 151.902 144.791,151.359 145.086,151.193 146.249 C 151.027 147.413,150.402 147.751,147.745 148.117 C 145.209 148.466,144.499 148.824,144.499 149.758 C 144.499 150.639,143.811 151.068,141.872 151.396 C 140.257 151.669,139.245 152.197,139.245 152.767 C 139.245 153.288,138.597 153.699,137.767 153.704 C 134.989 153.720,133.333 154.481,133.333 155.742 C 133.333 156.678,132.855 156.979,131.363 156.979 C 129.699 156.979,129.392 157.234,129.392 158.621 C 129.392 160.129,129.152 160.263,126.437 160.263 C 123.919 160.263,123.481 160.457,123.481 161.576 C 123.481 162.715,123.043 162.890,120.197 162.890 C 117.132 162.890,116.913 162.999,116.913 164.532 C 116.913 166.040,116.672 166.174,113.957 166.174 C 111.242 166.174,111.002 166.308,111.002 167.816 C 111.002 169.349,110.783 169.458,107.718 169.458 C 104.871 169.458,104.433 169.633,104.433 170.772 C 104.433 171.891,103.996 172.085,101.478 172.085 C 98.763 172.085,98.522 172.219,98.522 173.727 C 98.522 175.236,98.281 175.369,95.567 175.369 C 92.852 175.369,92.611 175.503,92.611 177.011 C 92.611 178.544,92.392 178.654,89.327 178.654 L 86.043 178.654 86.043 141.544 L 86.043 104.433 87.685 104.433 C 88.998 104.433,89.327 104.762,89.327 106.076 M391.461 142.857 L 391.461 181.281 244.944 181.281 C 105.758 181.281,98.437 181.223,98.644 180.131 C 98.809 179.265,99.630 178.933,101.976 178.782 C 104.518 178.618,105.090 178.354,105.090 177.344 C 105.090 176.381,105.746 176.008,108.046 175.664 C 110.308 175.324,111.002 174.939,111.002 174.021 C 111.002 173.104,111.696 172.719,113.957 172.379 C 116.259 172.034,116.913 171.662,116.913 170.697 C 116.913 169.651,117.416 169.458,120.151 169.458 C 123.010 169.458,123.414 169.285,123.600 167.980 C 123.774 166.752,124.280 166.468,126.601 166.300 C 129.068 166.122,129.392 165.912,129.392 164.494 C 129.392 163.031,129.652 162.890,132.348 162.890 C 134.866 162.890,135.304 162.695,135.304 161.576 C 135.304 160.438,135.742 160.263,138.588 160.263 C 141.653 160.263,141.872 160.153,141.872 158.621 C 141.872 157.112,142.113 156.979,144.828 156.979 C 147.542 156.979,147.783 156.845,147.783 155.337 C 147.783 153.828,148.024 153.695,150.739 153.695 C 153.257 153.695,153.695 153.500,153.695 152.381 C 153.695 151.242,154.132 151.067,156.979 151.067 C 160.044 151.067,160.263 150.958,160.263 149.425 C 160.263 147.917,160.504 147.783,163.218 147.783 C 165.933 147.783,166.174 147.649,166.174 146.141 C 166.174 144.609,166.393 144.499,169.458 144.499 C 172.523 144.499,172.742 144.390,172.742 142.857 C 172.742 141.544,172.414 141.215,171.100 141.215 C 169.896 141.215,169.458 140.865,169.458 139.901 C 169.458 138.782,169.020 138.588,166.502 138.588 C 163.788 138.588,163.547 138.454,163.547 136.946 C 163.547 135.413,163.328 135.304,160.263 135.304 C 157.198 135.304,156.979 135.194,156.979 133.662 C 156.979 132.153,156.738 132.020,154.023 132.020 C 151.505 132.020,151.067 131.825,151.067 130.706 C 151.067 129.568,150.629 129.392,147.783 129.392 C 144.718 129.392,144.499 129.283,144.499 127.750 C 144.499 126.277,144.233 126.108,141.918 126.108 C 139.740 126.108,139.303 125.877,139.126 124.631 C 138.976 123.572,138.403 123.094,137.110 122.945 C 136.117 122.831,135.304 122.348,135.304 121.872 C 135.304 120.959,133.340 120.221,130.870 120.206 C 129.863 120.200,129.392 119.802,129.392 118.958 C 129.392 117.993,128.739 117.621,126.437 117.276 C 124.124 116.929,123.481 116.561,123.481 115.582 C 123.481 114.577,122.836 114.245,120.197 113.895 C 117.302 113.511,116.913 113.275,116.913 111.902 C 116.913 110.494,116.629 110.345,113.957 110.345 C 111.440 110.345,111.002 110.150,111.002 109.031 C 111.002 107.893,110.564 107.718,107.718 107.718 C 104.652 107.718,104.433 107.608,104.433 106.076 L 104.433 104.433 247.947 104.433 L 391.461 104.433 391.461 142.857 M18.391 108.995 C 18.391 110.053,18.927 110.307,21.511 110.473 L 24.631 110.673 24.699 121.313 C 24.766 131.655,24.729 131.959,23.386 132.151 C 22.531 132.273,21.923 132.912,21.793 133.826 C 21.588 135.270,21.726 135.304,27.869 135.304 C 34.136 135.304,34.154 135.299,34.154 133.662 C 34.154 132.129,33.935 132.020,30.870 132.020 C 28.024 132.020,27.586 131.845,27.586 130.706 C 27.586 129.743,28.024 129.392,29.228 129.392 C 30.542 129.392,30.870 129.064,30.870 127.750 C 30.870 126.437,30.542 126.108,29.228 126.108 C 27.720 126.108,27.586 125.868,27.586 123.153 C 27.586 120.438,27.720 120.197,29.228 120.197 C 30.834 120.197,30.870 120.088,30.870 115.271 L 30.870 110.345 35.468 110.345 C 40.429 110.345,42.047 108.935,38.013 108.128 C 32.556 107.037,18.391 107.663,18.391 108.995 M219.173 123.247 C 217.640 124.779,218.802 126.108,221.675 126.108 L 224.631 126.108 224.631 138.550 L 224.631 150.992 221.845 151.194 C 219.813 151.341,219.000 151.707,218.841 152.545 C 218.646 153.575,219.277 153.695,224.911 153.695 C 230.761 153.695,231.199 153.603,231.199 152.381 C 231.199 151.418,230.761 151.067,229.557 151.067 C 227.920 151.067,227.915 151.045,227.915 144.828 L 227.915 138.588 230.932 138.588 C 233.397 138.588,234.012 138.828,234.292 139.901 C 235.018 142.676,237.110 141.457,237.110 138.259 L 237.110 135.304 232.512 135.304 L 227.915 135.304 227.915 130.706 L 227.915 126.108 234.528 126.108 C 241.012 126.108,241.138 126.079,240.932 124.631 C 240.721 123.143,220.559 121.860,219.173 123.247 M243.021 124.466 C 243.021 125.999,243.240 126.108,246.305 126.108 L 249.589 126.108 249.589 138.552 L 249.589 150.995 246.476 151.196 C 244.129 151.346,243.308 151.679,243.143 152.545 C 242.942 153.607,243.876 153.695,255.453 153.695 C 267.542 153.695,267.980 153.649,267.980 152.381 C 267.980 151.418,268.418 151.067,269.622 151.067 C 270.936 151.067,271.264 150.739,271.264 149.425 C 271.264 148.252,271.619 147.783,272.508 147.783 C 273.608 147.783,273.782 147.155,274.007 142.365 C 274.428 133.421,273.960 129.392,272.499 129.392 C 271.620 129.392,271.264 128.920,271.264 127.750 C 271.264 126.437,270.936 126.108,269.622 126.108 C 268.309 126.108,267.980 125.780,267.980 124.466 L 267.980 122.824 255.501 122.824 L 243.021 122.824 243.021 124.466 M277.614 123.262 C 276.095 124.780,277.270 126.108,280.131 126.108 L 283.087 126.108 283.087 138.550 L 283.087 150.992 280.301 151.194 C 278.269 151.341,277.456 151.707,277.297 152.545 C 277.096 153.607,278.031 153.695,289.607 153.695 L 302.135 153.695 302.135 150.739 C 302.135 148.221,301.940 147.783,300.821 147.783 C 299.858 147.783,299.507 148.221,299.507 149.425 L 299.507 151.067 292.939 151.067 L 286.371 151.067 286.371 144.828 L 286.371 138.588 292.611 138.588 C 298.829 138.588,298.851 138.582,298.851 136.946 C 298.851 135.310,298.829 135.304,292.611 135.304 L 286.371 135.304 286.371 130.625 L 286.371 125.946 294.253 126.227 L 302.135 126.508 302.135 124.666 L 302.135 122.824 290.093 122.824 C 283.470 122.824,277.854 123.021,277.614 123.262 M305.200 123.262 C 303.607 124.855,304.860 126.108,308.046 126.108 L 311.330 126.108 311.330 138.588 L 311.330 151.067 308.046 151.067 C 305.200 151.067,304.762 151.242,304.762 152.381 C 304.762 153.622,305.200 153.695,312.644 153.695 C 320.088 153.695,320.525 153.622,320.525 152.381 C 320.525 151.242,320.088 151.067,317.241 151.067 L 313.957 151.067 313.957 146.141 L 313.957 141.215 320.197 141.215 C 325.999 141.215,326.437 141.123,326.437 139.901 C 326.437 138.956,326.875 138.588,328.000 138.588 C 329.439 138.588,329.585 138.278,329.844 134.698 C 330.310 128.260,329.850 126.108,328.007 126.108 C 326.770 126.108,326.437 125.760,326.437 124.466 L 326.437 122.824 316.037 122.824 C 310.317 122.824,305.441 123.021,305.200 123.262 M264.696 127.750 C 264.696 129.064,265.025 129.392,266.338 129.392 C 267.542 129.392,267.980 129.743,267.980 130.706 C 267.980 131.669,268.418 132.020,269.622 132.020 C 271.259 132.020,271.264 132.042,271.264 138.259 C 271.264 144.477,271.259 144.499,269.622 144.499 C 268.309 144.499,267.980 144.828,267.980 146.141 C 267.980 147.455,267.652 147.783,266.338 147.783 C 265.025 147.783,264.696 148.112,264.696 149.425 C 264.696 151.055,264.652 151.067,258.785 151.067 L 252.874 151.067 252.874 138.588 L 252.874 126.108 258.785 126.108 C 264.652 126.108,264.696 126.121,264.696 127.750 M323.273 127.915 C 323.422 129.208,323.901 129.780,324.959 129.931 C 327.310 130.265,327.156 135.304,324.795 135.304 C 323.481 135.304,323.153 135.632,323.153 136.946 C 323.153 138.541,323.021 138.588,318.555 138.588 L 313.957 138.588 313.957 132.348 L 313.957 126.108 318.511 126.108 C 322.991 126.108,323.069 126.138,323.273 127.915 M135.304 243.350 C 135.304 246.051,135.443 246.305,136.917 246.305 C 138.464 246.305,138.538 246.501,138.723 251.067 C 138.900 255.437,139.038 255.847,140.394 256.039 C 144.458 256.616,141.994 258.785,137.274 258.785 C 132.808 258.785,132.677 258.738,132.677 257.143 C 132.677 255.829,132.348 255.501,131.034 255.501 C 129.502 255.501,129.392 255.720,129.392 258.785 L 129.392 262.069 135.546 262.069 L 141.700 262.069 142.073 264.368 C 142.278 265.632,142.278 267.701,142.073 268.966 L 141.700 271.264 146.384 271.264 C 150.942 271.264,151.067 271.220,151.067 269.622 C 151.067 268.309,150.739 267.980,149.425 267.980 C 148.112 267.980,147.783 267.652,147.783 266.338 C 147.783 265.025,147.455 264.696,146.141 264.696 C 144.546 264.696,144.499 264.565,144.499 260.099 C 144.499 256.635,144.276 255.501,143.596 255.501 C 142.468 255.501,141.872 252.633,141.872 247.209 C 141.872 243.180,141.810 243.021,140.230 243.021 C 139.026 243.021,138.588 242.671,138.588 241.708 C 138.588 240.744,138.150 240.394,136.946 240.394 C 135.438 240.394,135.304 240.635,135.304 243.350 M231.637 240.832 C 230.499 241.970,231.452 242.910,234.154 243.315 L 237.110 243.759 237.110 255.832 L 237.110 267.905 234.319 268.107 C 231.998 268.275,231.492 268.558,231.317 269.787 L 231.107 271.264 243.304 271.264 L 255.501 271.264 255.501 269.622 C 255.501 268.309,255.829 267.980,257.143 267.980 C 258.738 267.980,258.785 267.849,258.785 263.383 C 258.785 259.278,258.649 258.785,257.517 258.785 C 256.702 258.785,256.174 258.257,256.039 257.307 C 255.904 256.357,255.301 255.754,254.351 255.619 C 252.361 255.337,252.210 252.217,254.187 252.217 C 255.063 252.217,255.501 251.779,255.501 250.903 C 255.501 249.940,255.939 249.589,257.143 249.589 C 258.347 249.589,258.785 249.239,258.785 248.276 C 258.785 247.415,258.347 246.962,257.515 246.962 C 256.618 246.962,256.184 246.432,256.037 245.156 C 255.888 243.863,255.410 243.290,254.351 243.140 C 253.402 243.005,252.874 242.477,252.874 241.662 C 252.874 240.375,232.875 239.594,231.637 240.832 M337.767 240.858 C 336.954 241.014,336.289 241.565,336.289 242.082 C 336.289 242.688,335.590 243.021,334.319 243.021 C 332.655 243.021,332.348 243.277,332.348 244.663 C 332.348 245.615,331.970 246.305,331.449 246.305 C 330.245 246.305,329.737 249.747,329.728 257.964 C 329.721 264.261,329.806 264.696,331.034 264.696 C 331.998 264.696,332.348 265.134,332.348 266.338 C 332.348 267.652,332.677 267.980,333.990 267.980 C 335.304 267.980,335.632 268.309,335.632 269.622 L 335.632 271.264 343.514 271.264 L 351.396 271.264 351.396 269.622 C 351.396 268.418,351.746 267.980,352.709 267.980 C 353.673 267.980,354.023 267.542,354.023 266.338 C 354.023 265.134,353.673 264.696,352.709 264.696 C 351.746 264.696,351.396 265.134,351.396 266.338 C 351.396 267.975,351.374 267.980,345.156 267.980 C 338.938 267.980,338.916 267.975,338.916 266.338 C 338.916 265.025,338.588 264.696,337.274 264.696 C 336.070 264.696,335.632 264.346,335.632 263.383 C 335.632 262.419,335.194 262.069,333.990 262.069 C 332.400 262.069,332.348 261.929,332.357 257.635 C 332.369 251.950,332.839 250.246,334.395 250.246 C 335.332 250.246,335.632 249.768,335.632 248.276 C 335.632 246.612,335.888 246.305,337.274 246.305 C 338.588 246.305,338.916 245.977,338.916 244.663 C 338.916 243.068,339.048 243.021,343.514 243.021 C 347.980 243.021,348.112 243.068,348.112 244.663 C 348.112 245.926,348.453 246.307,349.589 246.314 C 350.402 246.319,351.732 246.502,352.545 246.719 C 353.922 247.088,354.023 246.907,354.023 244.083 C 354.023 241.826,353.771 241.051,353.038 241.051 C 352.496 241.051,352.053 241.494,352.053 242.036 C 352.053 242.693,351.396 243.021,350.082 243.021 C 348.550 243.021,348.112 242.729,348.112 241.708 C 348.112 240.392,342.555 239.935,337.767 240.858 M250.411 243.443 L 252.874 243.850 252.874 248.033 L 252.874 252.217 246.634 252.217 L 240.394 252.217 240.394 247.619 L 240.394 243.021 244.171 243.029 C 246.248 243.033,249.056 243.219,250.411 243.443 M132.677 250.903 C 132.677 251.779,133.114 252.217,133.990 252.217 C 134.866 252.217,135.304 251.779,135.304 250.903 C 135.304 250.027,134.866 249.589,133.990 249.589 C 133.114 249.589,132.677 250.027,132.677 250.903 M250.757 255.898 C 253.074 256.362,253.962 259.726,253.168 265.025 L 252.724 267.980 246.559 267.980 L 240.394 267.980 240.394 261.741 L 240.394 255.501 244.581 255.501 C 246.884 255.501,249.663 255.680,250.757 255.898 M126.108 266.262 C 126.108 267.275,125.645 267.948,124.795 268.171 C 121.093 269.139,123.349 271.264,128.079 271.264 C 132.545 271.264,132.677 271.217,132.677 269.622 C 132.677 268.309,132.348 267.980,131.034 267.980 C 129.721 267.980,129.392 267.652,129.392 266.338 C 129.392 265.025,129.064 264.696,127.750 264.696 C 126.458 264.696,126.108 265.030,126.108 266.262 " stroke="none" fill="#000000" fill-rule="evenodd"></path></g></svg>