<svg id="svg" version="1.1" xmlns="http://www.w3.org/2000/svg" xmlns:xlink="http://www.w3.org/1999/xlink" width="400" height="428.8770053475936" viewBox="0, 0, 400,428.8770053475936"><g id="svgg"><path id="path0" d="M193.479 12.254 C 193.326 12.408,193.200 14.213,193.200 16.267 L 193.200 20.000 189.480 20.000 C 184.805 20.000,184.800 20.005,184.800 24.680 L 184.800 28.400 181.024 28.400 C 178.937 28.400,177.137 28.579,177.000 28.800 C 176.861 29.025,174.929 29.200,172.576 29.200 L 168.400 29.200 168.400 33.120 C 168.400 38.043,168.443 38.000,163.534 38.000 L 159.628 38.000 159.514 42.100 L 159.400 46.200 155.314 46.314 L 151.228 46.428 151.114 50.514 L 151.000 54.600 146.714 54.713 L 142.428 54.827 142.314 58.913 L 142.200 63.000 138.000 63.200 L 133.800 63.400 133.686 67.486 L 133.572 71.572 129.486 71.686 L 125.400 71.800 125.286 75.900 L 125.172 80.000 121.266 80.000 C 116.382 80.000,116.400 79.983,116.400 84.680 L 116.400 88.400 112.480 88.400 C 107.580 88.400,107.600 88.381,107.600 93.080 L 107.600 96.800 103.880 96.800 C 101.834 96.800,99.987 96.973,99.776 97.184 C 99.564 97.396,97.593 97.621,95.396 97.684 L 91.400 97.800 91.284 101.786 C 91.147 106.531,91.297 106.386,86.514 106.394 L 82.828 106.400 82.714 110.500 L 82.600 114.600 78.314 114.713 L 74.028 114.827 73.914 118.913 L 73.800 123.000 69.714 123.114 L 65.628 123.228 65.514 127.314 L 65.400 131.400 61.200 131.600 L 57.000 131.800 56.887 136.487 L 56.775 141.173 52.487 141.287 L 48.200 141.400 48.086 145.486 L 47.972 149.572 43.886 149.686 L 39.800 149.800 39.800 282.200 L 39.800 414.600 197.900 414.701 L 356.000 414.801 356.000 282.214 L 356.000 149.628 351.900 149.514 L 347.800 149.400 347.600 145.400 L 347.400 141.400 343.313 141.286 L 339.225 141.172 339.113 136.486 L 339.000 131.800 334.800 131.600 L 330.600 131.400 330.486 127.300 L 330.372 123.200 326.229 123.200 C 321.359 123.200,321.600 123.451,321.600 118.381 L 321.600 114.828 317.500 114.714 L 313.400 114.600 313.200 110.400 L 313.000 106.200 308.800 106.000 L 304.600 105.800 304.486 101.714 L 304.372 97.628 300.286 97.514 L 296.200 97.400 296.086 93.300 L 295.972 89.200 291.810 89.200 C 289.466 89.200,287.539 89.025,287.400 88.800 C 287.263 88.579,285.463 88.400,283.376 88.400 L 279.600 88.400 279.600 84.680 C 279.600 79.983,279.618 80.000,274.734 80.000 L 270.828 80.000 270.714 75.900 L 270.600 71.800 266.400 71.600 L 262.200 71.400 262.000 67.400 L 261.800 63.400 257.714 63.286 L 253.628 63.172 253.514 59.086 L 253.400 55.000 249.200 54.800 L 245.000 54.600 244.886 50.500 L 244.772 46.400 240.866 46.400 C 235.957 46.400,236.000 46.443,236.000 41.520 L 236.000 37.600 231.800 37.600 L 227.600 37.600 227.600 33.414 L 227.600 29.227 223.300 29.114 L 219.000 29.000 218.886 24.900 L 218.772 20.800 214.810 20.800 C 212.599 20.800,210.738 20.623,210.600 20.400 C 210.464 20.179,208.667 20.000,206.591 20.000 L 202.829 20.000 202.714 16.100 L 202.600 12.200 198.179 12.088 C 195.747 12.026,193.632 12.101,193.479 12.254 M210.714 33.100 L 210.828 37.200 214.734 37.200 C 219.643 37.200,219.600 37.157,219.600 42.080 L 219.600 46.000 223.786 46.000 L 227.972 46.000 228.086 50.100 L 228.200 54.200 232.400 54.400 L 236.600 54.600 236.714 58.686 L 236.828 62.772 240.914 62.886 L 245.000 63.000 245.114 67.075 L 245.227 71.149 249.314 71.371 C 251.561 71.494,255.245 71.697,257.500 71.823 L 261.600 72.053 261.613 75.727 C 261.630 80.727,261.701 80.800,266.544 80.800 L 270.400 80.800 270.400 84.520 C 270.400 89.193,270.407 89.200,275.066 89.200 L 278.771 89.200 278.886 93.100 L 279.000 97.000 283.200 97.200 L 287.400 97.400 287.514 101.487 L 287.628 105.573 291.914 105.687 L 296.200 105.800 296.400 110.000 L 296.600 114.200 300.800 114.400 L 305.000 114.600 305.114 118.686 L 305.228 122.772 309.314 122.886 L 313.400 123.000 313.514 127.100 L 313.628 131.200 317.534 131.200 C 322.487 131.200,322.400 131.106,322.400 136.480 L 322.400 140.800 326.320 140.800 C 331.220 140.800,331.200 140.781,331.200 145.480 L 331.200 149.200 334.986 149.200 C 339.580 149.200,339.600 149.222,339.600 154.359 L 339.600 157.971 343.500 158.086 L 347.400 158.200 347.400 278.200 L 347.400 398.200 343.514 398.314 L 339.629 398.429 339.514 402.314 L 339.400 406.200 198.000 406.200 L 56.600 406.200 56.486 402.300 L 56.371 398.400 52.393 398.400 C 48.599 398.400,48.405 398.358,48.198 397.500 C 48.079 397.005,48.031 342.960,48.091 277.400 L 48.200 158.200 52.300 158.086 L 56.400 157.972 56.400 154.066 C 56.400 149.182,56.383 149.200,61.080 149.200 L 64.800 149.200 64.800 145.243 C 64.800 140.570,64.540 140.800,69.820 140.800 L 73.575 140.800 73.687 136.100 L 73.800 131.400 77.900 131.286 L 82.000 131.172 82.000 127.619 C 82.000 122.548,81.757 122.800,86.643 122.800 L 90.800 122.800 90.800 118.600 L 90.800 114.400 94.986 114.400 L 99.172 114.400 99.286 110.300 L 99.400 106.200 103.600 106.000 L 107.800 105.800 107.914 101.700 L 108.028 97.600 111.934 97.600 C 116.818 97.600,116.800 97.617,116.800 92.920 L 116.800 89.200 120.720 89.200 C 125.620 89.200,125.600 89.219,125.600 84.520 L 125.600 80.800 129.351 80.800 C 132.197 80.800,133.222 80.655,133.600 80.200 C 133.981 79.741,135.023 79.600,138.035 79.600 L 141.972 79.600 142.086 75.500 L 142.200 71.400 146.300 71.286 L 150.400 71.172 150.400 67.466 C 150.400 62.784,150.384 62.800,155.266 62.800 L 159.172 62.800 159.286 58.700 L 159.400 54.600 163.486 54.486 L 167.572 54.372 167.686 50.286 L 167.800 46.200 172.000 46.000 L 176.200 45.800 176.314 41.700 L 176.428 37.600 180.181 37.600 C 185.459 37.600,185.200 37.828,185.200 33.171 L 185.200 29.228 189.300 29.095 C 191.555 29.021,197.270 28.970,202.000 28.981 L 210.600 29.000 210.714 33.100 " stroke="none" fill="#0f0f0f" fill-rule="evenodd"></path><path id="path1" d="M0.000 214.400 L 0.000 428.800 200.000 428.800 L 400.000 428.800 400.000 214.400 L 400.000 0.000 200.000 0.000 L 0.000 0.000 0.000 214.400 M202.086 7.300 L 202.200 11.400 206.500 11.514 L 210.800 11.627 210.800 15.800 L 210.800 19.973 215.100 20.086 L 219.400 20.200 219.514 24.300 L 219.628 28.400 223.534 28.400 C 228.441 28.400,228.400 28.359,228.400 33.266 L 228.400 37.172 232.500 37.286 L 236.600 37.400 236.714 41.500 L 236.828 45.600 240.990 45.600 C 243.334 45.600,245.261 45.775,245.400 46.000 C 245.537 46.221,247.337 46.400,249.424 46.400 L 253.200 46.400 253.200 50.120 C 253.200 54.817,253.182 54.800,258.066 54.800 L 261.972 54.800 262.086 58.900 L 262.200 63.000 266.400 63.200 L 270.600 63.400 270.800 67.400 L 271.000 71.400 275.200 71.600 L 279.400 71.800 279.514 75.886 L 279.628 79.972 283.714 80.086 L 287.800 80.200 287.914 84.300 L 288.028 88.400 291.934 88.400 C 296.818 88.400,296.800 88.383,296.800 93.080 L 296.800 96.800 300.367 96.800 C 305.435 96.800,305.200 96.584,305.200 101.243 L 305.200 105.200 308.924 105.200 C 311.578 105.200,312.870 105.369,313.424 105.787 C 313.973 106.203,315.282 106.378,317.900 106.387 L 321.600 106.400 321.600 110.120 C 321.600 114.819,321.580 114.800,326.480 114.800 L 330.400 114.800 330.400 118.757 C 330.400 123.416,330.165 123.200,335.233 123.200 L 338.800 123.200 338.800 127.157 C 338.800 131.830,338.540 131.600,343.820 131.600 L 347.575 131.600 347.687 136.300 L 347.800 141.000 352.000 141.200 L 356.200 141.400 356.314 145.486 L 356.428 149.572 360.514 149.686 L 364.600 149.800 364.600 282.400 L 364.600 415.000 360.500 415.114 L 356.400 415.228 356.400 419.171 C 356.400 422.398,356.285 423.159,355.767 423.357 C 354.940 423.675,40.660 423.675,39.833 423.357 C 39.315 423.159,39.200 422.398,39.200 419.172 L 39.200 415.229 35.300 415.114 L 31.400 415.000 31.400 282.400 L 31.400 149.800 35.400 149.600 L 39.400 149.400 39.514 145.314 L 39.628 141.228 43.714 141.114 L 47.800 141.000 48.000 136.400 L 48.200 131.800 52.400 131.600 L 56.600 131.400 56.714 127.300 L 56.828 123.200 60.734 123.200 C 65.618 123.200,65.600 123.217,65.600 118.520 L 65.600 114.800 69.376 114.800 C 71.463 114.800,73.263 114.621,73.400 114.400 C 73.539 114.175,75.466 114.000,77.810 114.000 L 81.972 114.000 82.086 109.900 L 82.200 105.800 86.286 105.686 L 90.372 105.572 90.486 101.486 L 90.600 97.400 94.800 97.200 L 99.000 97.000 99.116 93.014 C 99.254 88.252,99.079 88.414,104.086 88.406 L 107.972 88.400 108.086 84.300 L 108.200 80.200 112.286 80.086 L 116.372 79.972 116.486 75.886 L 116.600 71.800 120.800 71.600 L 125.000 71.400 125.114 67.300 L 125.228 63.200 128.981 63.200 C 134.260 63.200,134.000 63.430,134.000 58.757 L 134.000 54.800 137.920 54.800 C 142.820 54.800,142.800 54.819,142.800 50.120 L 142.800 46.400 146.576 46.400 C 148.663 46.400,150.463 46.221,150.600 46.000 C 150.738 45.777,152.604 45.600,154.824 45.600 L 158.800 45.600 158.800 42.033 C 158.800 36.946,158.556 37.200,163.443 37.200 L 167.600 37.200 167.600 33.014 L 167.600 28.827 171.900 28.714 L 176.200 28.600 176.400 24.400 L 176.600 20.200 180.686 20.086 L 184.772 19.972 184.886 15.886 L 185.000 11.800 189.300 11.686 L 193.600 11.573 193.600 7.653 C 193.600 2.891,193.291 3.200,198.053 3.200 L 201.972 3.200 202.086 7.300 M193.867 29.467 C 193.720 29.613,193.600 31.503,193.600 33.667 L 193.600 37.600 189.414 37.600 L 185.228 37.600 185.114 41.700 L 185.000 45.800 180.800 46.000 L 176.600 46.200 176.486 50.300 L 176.372 54.400 172.466 54.400 C 167.582 54.400,167.600 54.383,167.600 59.080 L 167.600 62.800 163.624 62.800 C 161.404 62.800,159.538 62.977,159.400 63.200 C 159.262 63.423,157.401 63.600,155.190 63.600 L 151.228 63.600 151.114 67.700 L 151.000 71.800 146.900 71.914 L 142.800 72.028 142.794 75.714 C 142.786 80.497,142.931 80.347,138.186 80.484 L 134.200 80.600 134.084 84.586 C 133.947 89.332,134.099 89.186,129.300 89.194 L 125.600 89.200 125.600 92.920 C 125.600 97.617,125.618 97.600,120.734 97.600 L 116.828 97.600 116.714 101.700 L 116.600 105.800 112.400 106.000 L 108.200 106.200 108.086 110.300 L 107.972 114.400 104.219 114.400 C 98.940 114.400,99.200 114.170,99.200 118.843 L 99.200 122.800 95.280 122.800 C 90.380 122.800,90.400 122.781,90.400 127.480 L 90.400 131.200 86.624 131.200 C 84.537 131.200,82.737 131.379,82.600 131.600 C 82.462 131.823,80.596 132.000,78.376 132.000 L 74.400 132.000 74.400 136.320 C 74.400 141.694,74.487 141.600,69.534 141.600 L 65.628 141.600 65.514 145.700 L 65.400 149.800 61.344 149.914 L 57.287 150.027 57.021 158.114 C 56.874 162.561,56.809 218.310,56.877 282.000 L 57.000 397.800 197.558 397.901 C 301.135 397.975,338.259 397.883,338.658 397.552 C 339.240 397.068,339.502 170.989,338.937 156.664 L 338.674 150.000 334.580 150.000 C 329.766 150.000,330.000 150.246,330.000 145.181 L 330.000 141.628 325.900 141.514 L 321.800 141.400 321.687 136.700 L 321.575 132.000 317.667 132.000 C 312.785 132.000,312.800 132.014,312.800 127.347 L 312.800 123.653 308.700 123.423 C 306.445 123.297,302.761 123.094,300.514 122.971 L 296.427 122.749 296.314 118.675 L 296.200 114.600 292.114 114.486 L 288.028 114.372 287.914 110.286 L 287.800 106.200 283.600 106.000 L 279.400 105.800 279.286 101.713 L 279.172 97.627 274.886 97.513 L 270.600 97.400 270.486 93.314 L 270.372 89.228 266.286 89.114 L 262.200 89.000 262.000 84.800 L 261.800 80.600 257.600 80.400 L 253.400 80.200 253.286 76.113 L 253.172 72.027 248.886 71.913 L 244.600 71.800 244.486 67.714 L 244.372 63.628 240.286 63.514 L 236.200 63.400 236.086 59.300 L 235.972 55.200 232.010 55.200 C 229.799 55.200,227.938 55.023,227.800 54.800 C 227.662 54.577,225.796 54.400,223.576 54.400 L 219.600 54.400 219.600 50.480 C 219.600 45.557,219.643 45.600,214.734 45.600 L 210.829 45.600 210.714 41.700 L 210.600 37.800 206.400 37.600 L 202.200 37.400 202.086 33.300 L 201.972 29.200 198.053 29.200 C 195.897 29.200,194.013 29.320,193.867 29.467 " stroke="none" fill="#fbfbfb" fill-rule="evenodd"></path><path id="path2" d="M193.867 3.467 C 193.720 3.613,193.600 5.497,193.600 7.653 L 193.600 11.573 189.300 11.686 L 185.000 11.800 184.886 15.886 L 184.772 19.972 180.686 20.086 L 176.600 20.200 176.400 24.463 C 176.290 26.808,176.335 28.642,176.500 28.539 C 176.665 28.437,176.800 26.570,176.800 24.390 L 176.800 20.428 180.900 20.314 L 185.000 20.200 185.114 16.100 L 185.228 12.000 189.334 12.000 C 191.721 12.000,193.619 11.821,193.869 11.571 C 194.296 11.144,196.183 11.192,206.301 11.890 C 208.776 12.060,210.801 12.071,210.801 11.914 C 210.800 11.756,208.865 11.576,206.500 11.514 L 202.200 11.400 202.086 7.300 L 201.972 3.200 198.053 3.200 C 195.897 3.200,194.013 3.320,193.867 3.467 M214.886 20.291 L 219.172 20.427 219.286 24.513 L 219.400 28.600 223.600 28.800 L 227.800 29.000 228.022 33.200 L 228.243 37.400 228.322 33.380 C 228.420 28.339,228.478 28.400,223.534 28.400 L 219.628 28.400 219.514 24.300 L 219.400 20.200 215.000 20.178 L 210.600 20.155 214.886 20.291 M167.600 33.000 L 167.600 37.200 163.443 37.200 C 158.556 37.200,158.800 36.946,158.800 42.033 L 158.800 45.600 154.824 45.600 C 152.604 45.600,150.738 45.777,150.600 46.000 C 150.463 46.221,148.663 46.400,146.576 46.400 L 142.800 46.400 142.800 50.120 C 142.800 54.819,142.820 54.800,137.920 54.800 L 134.000 54.800 134.000 58.757 C 134.000 63.430,134.260 63.200,128.981 63.200 L 125.228 63.200 125.114 67.300 L 125.000 71.400 120.800 71.600 L 116.600 71.800 116.486 75.886 L 116.372 79.972 112.286 80.086 L 108.200 80.200 108.086 84.300 L 107.972 88.400 104.086 88.406 C 99.091 88.414,99.282 88.234,99.129 93.088 C 99.058 95.329,99.128 97.035,99.284 96.878 C 99.440 96.721,99.620 94.884,99.684 92.796 L 99.800 89.000 104.000 88.800 L 108.200 88.600 108.314 84.514 L 108.428 80.428 112.514 80.314 L 116.600 80.200 116.714 76.125 L 116.827 72.051 120.914 71.829 C 123.161 71.706,126.845 71.503,129.100 71.377 L 133.200 71.147 133.200 67.453 C 133.200 62.786,133.185 62.800,138.066 62.800 L 141.972 62.800 142.086 58.700 L 142.200 54.600 146.400 54.400 L 150.600 54.200 150.714 50.114 L 150.828 46.028 154.914 45.914 L 159.000 45.800 159.200 41.800 L 159.400 37.800 163.600 37.600 L 167.800 37.400 168.000 33.099 C 168.110 30.734,168.065 28.799,167.900 28.799 C 167.735 28.800,167.600 30.690,167.600 33.000 M193.200 33.200 L 193.200 37.200 189.224 37.200 C 187.004 37.200,185.138 37.377,185.000 37.600 C 184.862 37.823,183.001 38.000,180.790 38.000 L 176.828 38.000 176.714 42.100 L 176.600 46.200 172.500 46.314 L 168.400 46.428 168.400 50.134 C 168.400 54.816,168.416 54.800,163.534 54.800 L 159.628 54.800 159.514 58.900 L 159.400 63.000 155.200 63.200 L 151.000 63.400 150.886 67.486 L 150.772 71.572 146.686 71.686 L 142.600 71.800 142.400 75.800 L 142.200 79.800 138.422 79.916 C 133.617 80.064,133.653 80.028,133.514 84.737 L 133.400 88.600 129.200 88.800 L 125.000 89.000 124.886 93.086 L 124.772 97.172 120.686 97.286 L 116.600 97.400 116.400 101.400 L 116.200 105.400 112.000 105.708 C 109.690 105.877,106.045 106.114,103.900 106.235 L 100.000 106.453 100.000 110.147 C 100.000 114.814,100.015 114.800,95.134 114.800 L 91.228 114.800 91.114 118.900 L 91.000 123.000 86.800 123.200 L 82.600 123.400 82.486 127.500 L 82.372 131.600 78.199 131.600 L 74.025 131.600 73.913 136.300 L 73.800 141.000 69.600 141.200 L 65.400 141.400 65.286 145.486 L 65.172 149.572 61.086 149.686 L 57.000 149.800 56.977 154.000 L 56.954 158.200 57.091 154.114 L 57.228 150.028 61.314 149.914 L 65.400 149.800 65.514 145.700 L 65.628 141.600 69.534 141.600 C 74.487 141.600,74.400 141.694,74.400 136.320 L 74.400 132.000 78.376 132.000 C 80.596 132.000,82.462 131.823,82.600 131.600 C 82.737 131.379,84.537 131.200,86.624 131.200 L 90.400 131.200 90.400 127.480 C 90.400 122.781,90.380 122.800,95.280 122.800 L 99.200 122.800 99.200 118.843 C 99.200 114.170,98.940 114.400,104.219 114.400 L 107.972 114.400 108.086 110.300 L 108.200 106.200 112.400 106.000 L 116.600 105.800 116.714 101.700 L 116.828 97.600 120.734 97.600 C 125.618 97.600,125.600 97.617,125.600 92.920 L 125.600 89.200 129.300 89.194 C 134.099 89.186,133.947 89.332,134.084 84.586 L 134.200 80.600 138.186 80.484 C 142.931 80.347,142.786 80.497,142.794 75.714 L 142.800 72.028 146.900 71.914 L 151.000 71.800 151.114 67.700 L 151.228 63.600 155.190 63.600 C 157.401 63.600,159.262 63.423,159.400 63.200 C 159.538 62.977,161.404 62.800,163.624 62.800 L 167.600 62.800 167.600 59.080 C 167.600 54.383,167.582 54.400,172.466 54.400 L 176.372 54.400 176.486 50.300 L 176.600 46.200 180.800 46.000 L 185.000 45.800 185.114 41.700 L 185.228 37.600 189.388 37.600 L 193.549 37.600 193.674 33.399 C 193.743 31.089,193.665 29.199,193.500 29.199 C 193.335 29.200,193.200 31.000,193.200 33.200 M202.086 33.268 L 202.200 37.400 206.400 37.600 L 210.600 37.800 210.714 41.700 L 210.829 45.600 214.734 45.600 C 219.643 45.600,219.600 45.557,219.600 50.480 L 219.600 54.400 223.576 54.400 C 225.796 54.400,227.662 54.577,227.800 54.800 C 227.938 55.023,229.799 55.200,232.010 55.200 L 235.972 55.200 236.086 59.300 L 236.200 63.400 240.286 63.514 L 244.372 63.628 244.486 67.714 L 244.600 71.800 248.886 71.913 L 253.172 72.027 253.286 76.113 L 253.400 80.200 257.600 80.400 L 261.800 80.600 262.000 84.800 L 262.200 89.000 266.286 89.114 L 270.372 89.228 270.486 93.314 L 270.600 97.400 274.886 97.513 L 279.172 97.627 279.286 101.713 L 279.400 105.800 283.600 106.000 L 287.800 106.200 287.914 110.286 L 288.028 114.372 292.114 114.486 L 296.200 114.600 296.314 118.675 L 296.427 122.749 300.514 122.971 C 302.761 123.094,306.445 123.297,308.700 123.423 L 312.800 123.653 312.800 127.347 C 312.800 132.014,312.785 132.000,317.667 132.000 L 321.575 132.000 321.687 136.700 L 321.800 141.400 325.900 141.514 L 330.000 141.628 330.000 145.181 C 330.000 150.246,329.766 150.000,334.580 150.000 L 338.674 150.000 338.937 156.664 C 339.502 170.989,339.240 397.068,338.658 397.552 C 338.259 397.883,301.135 397.975,197.558 397.901 L 57.000 397.800 56.900 278.200 L 56.800 158.600 52.600 158.726 L 48.399 158.851 48.499 278.126 L 48.600 397.400 52.378 397.516 C 57.218 397.665,57.200 397.647,57.200 402.249 L 57.200 406.000 197.986 406.000 L 338.772 406.000 338.886 401.900 L 339.000 397.800 343.100 397.686 L 347.200 397.572 347.200 278.200 L 347.200 158.829 343.300 158.714 L 339.400 158.600 339.200 154.200 L 339.000 149.800 334.800 149.600 L 330.600 149.400 330.486 145.300 L 330.372 141.200 326.199 141.200 L 322.025 141.200 321.913 136.500 L 321.800 131.800 317.600 131.600 L 313.400 131.400 313.286 127.300 L 313.172 123.200 309.266 123.200 C 304.384 123.200,304.400 123.216,304.400 118.534 L 304.400 114.828 300.300 114.714 L 296.200 114.600 296.086 110.500 L 295.972 106.400 292.010 106.400 C 289.799 106.400,287.938 106.223,287.800 106.000 C 287.662 105.777,285.801 105.600,283.590 105.600 L 279.628 105.600 279.514 101.500 L 279.400 97.400 275.200 97.200 L 271.000 97.000 270.800 93.000 L 270.600 89.000 266.500 88.886 L 262.400 88.772 262.400 84.866 C 262.400 79.959,262.441 80.000,257.534 80.000 L 253.628 80.000 253.514 75.900 L 253.400 71.800 249.200 71.600 L 245.000 71.400 244.886 67.300 L 244.772 63.200 240.600 63.200 L 236.428 63.200 236.314 59.100 L 236.200 55.000 232.000 54.800 L 227.800 54.600 227.686 50.500 L 227.572 46.400 223.666 46.400 C 218.763 46.400,218.800 46.437,218.800 41.566 L 218.800 37.693 210.800 37.400 L 202.800 37.107 202.800 33.377 C 202.800 31.236,202.624 29.538,202.386 29.391 C 202.107 29.219,202.009 30.492,202.086 33.268 M236.400 41.537 L 236.600 45.800 240.800 46.000 L 245.000 46.200 245.114 50.287 L 245.228 54.373 249.514 54.487 L 253.800 54.600 253.914 58.700 L 254.028 62.800 257.990 62.800 C 260.201 62.800,262.062 62.977,262.200 63.200 C 262.338 63.423,264.204 63.600,266.424 63.600 L 270.400 63.600 270.400 67.557 C 270.400 72.216,270.165 72.000,275.233 72.000 L 278.800 72.000 278.800 75.720 C 278.800 80.417,278.782 80.400,283.666 80.400 L 287.572 80.400 287.686 84.500 L 287.800 88.600 292.000 88.800 L 296.200 89.000 296.314 93.086 L 296.428 97.172 300.514 97.286 L 304.600 97.400 304.800 101.400 L 305.000 105.400 308.800 105.422 L 312.600 105.443 308.900 105.307 L 305.200 105.171 305.200 101.228 C 305.200 96.586,305.434 96.800,300.367 96.800 L 296.800 96.800 296.800 93.080 C 296.800 88.383,296.818 88.400,291.934 88.400 L 288.028 88.400 287.914 84.300 L 287.800 80.200 283.714 80.086 L 279.628 79.972 279.514 75.886 L 279.400 71.800 275.200 71.600 L 271.000 71.400 270.800 67.400 L 270.600 63.400 266.400 63.200 L 262.200 63.000 262.086 58.900 L 261.972 54.800 258.066 54.800 C 253.182 54.800,253.200 54.817,253.200 50.120 L 253.200 46.400 249.424 46.400 C 247.337 46.400,245.537 46.221,245.400 46.000 C 245.261 45.775,243.329 45.600,240.976 45.600 L 236.800 45.600 236.800 41.624 C 236.800 39.437,236.665 37.563,236.500 37.461 C 236.335 37.358,236.290 39.192,236.400 41.537 M90.667 97.467 C 90.520 97.613,90.400 99.497,90.400 101.653 L 90.400 105.572 86.300 105.686 L 82.200 105.800 82.086 109.900 L 81.972 114.000 77.810 114.000 C 75.466 114.000,73.539 114.175,73.400 114.400 C 73.263 114.621,71.463 114.800,69.376 114.800 L 65.600 114.800 65.600 118.520 C 65.600 123.217,65.618 123.200,60.734 123.200 L 56.828 123.200 56.714 127.300 L 56.600 131.400 52.400 131.600 L 48.200 131.800 48.000 136.400 L 47.800 141.000 43.714 141.114 L 39.628 141.228 39.514 145.314 L 39.400 149.400 35.400 149.600 L 31.400 149.800 31.400 282.400 L 31.400 415.000 35.300 415.114 L 39.200 415.229 39.200 419.172 C 39.200 422.398,39.315 423.159,39.833 423.357 C 40.660 423.675,354.940 423.675,355.767 423.357 C 356.285 423.159,356.400 422.398,356.400 419.171 L 356.400 415.228 360.500 415.114 L 364.600 415.000 364.600 282.400 L 364.600 149.800 360.514 149.686 L 356.428 149.572 356.314 145.486 L 356.200 141.400 352.000 141.200 L 347.800 141.000 347.687 136.300 L 347.575 131.600 343.820 131.600 C 338.540 131.600,338.800 131.830,338.800 127.157 L 338.800 123.200 335.233 123.200 C 330.165 123.200,330.400 123.416,330.400 118.757 L 330.400 114.800 326.480 114.800 C 321.580 114.800,321.600 114.819,321.600 110.120 L 321.600 106.400 317.880 106.400 C 315.834 106.400,313.989 106.228,313.780 106.018 C 313.540 105.777,313.474 107.213,313.600 109.918 L 313.800 114.200 318.000 114.400 L 322.200 114.600 322.314 118.686 L 322.428 122.772 326.514 122.886 L 330.600 123.000 330.714 127.075 L 330.827 131.149 334.914 131.371 C 337.161 131.494,340.845 131.697,343.100 131.823 L 347.200 132.053 347.200 136.347 C 347.200 141.689,347.118 141.600,352.054 141.600 L 355.949 141.600 356.203 145.900 C 356.515 151.188,356.905 413.045,356.602 414.300 L 356.385 415.201 197.892 415.100 L 39.400 415.000 39.470 282.400 C 39.509 209.470,39.655 147.967,39.796 145.726 L 40.052 141.652 44.126 141.423 C 46.367 141.297,50.039 141.094,52.288 140.971 L 56.375 140.749 56.488 136.075 L 56.600 131.400 60.700 131.286 L 64.800 131.172 64.800 127.466 C 64.800 122.784,64.784 122.800,69.666 122.800 L 73.572 122.800 73.686 118.700 L 73.800 114.600 78.000 114.400 L 82.200 114.200 82.314 110.114 L 82.428 106.028 86.514 105.914 L 90.600 105.800 90.800 101.499 C 90.910 99.134,90.985 97.199,90.967 97.199 C 90.948 97.200,90.813 97.320,90.667 97.467 " stroke="none" fill="#9c9c9c" fill-rule="evenodd"></path><path id="path3" d="M189.600 11.978 L 185.400 12.200 185.286 16.300 L 185.172 20.400 180.986 20.400 L 176.800 20.400 176.800 24.320 C 176.800 26.836,176.628 28.412,176.320 28.720 C 175.974 29.066,175.968 29.200,176.296 29.200 C 176.547 29.200,176.864 29.020,177.000 28.800 C 177.137 28.579,178.937 28.400,181.024 28.400 L 184.800 28.400 184.800 24.680 C 184.800 20.007,184.807 20.000,189.466 20.000 L 193.171 20.000 193.286 16.100 L 193.400 12.200 198.000 12.200 L 202.600 12.200 202.714 16.100 L 202.829 20.000 206.591 20.000 C 208.667 20.000,210.464 20.179,210.600 20.400 C 210.738 20.623,212.599 20.800,214.810 20.800 L 218.772 20.800 218.886 24.900 L 219.000 29.000 223.000 29.021 L 227.000 29.042 223.114 28.907 L 219.228 28.772 219.114 24.686 L 219.000 20.600 214.800 20.400 L 210.600 20.200 210.487 16.162 L 210.373 12.124 204.323 11.862 C 198.079 11.592,196.723 11.602,189.600 11.978 M189.300 29.098 L 185.200 29.228 185.200 33.171 C 185.200 37.828,185.459 37.600,180.181 37.600 L 176.428 37.600 176.314 41.700 L 176.200 45.800 172.000 46.000 L 167.800 46.200 167.686 50.286 L 167.572 54.372 163.486 54.486 L 159.400 54.600 159.286 58.700 L 159.172 62.800 155.266 62.800 C 150.382 62.800,150.400 62.783,150.400 67.480 L 150.400 71.200 146.424 71.200 C 144.237 71.200,142.363 71.335,142.261 71.500 C 142.158 71.665,144.031 71.744,146.423 71.675 L 150.773 71.551 150.886 67.475 L 151.000 63.400 155.200 63.200 L 159.400 63.000 159.514 58.914 L 159.628 54.828 163.714 54.714 L 167.800 54.600 167.914 50.500 L 168.028 46.400 171.934 46.400 C 176.818 46.400,176.800 46.417,176.800 41.720 L 176.800 38.000 180.524 38.000 C 183.178 38.000,184.470 37.831,185.024 37.413 C 185.573 36.997,186.882 36.822,189.500 36.813 L 193.200 36.800 193.200 33.033 C 193.200 30.394,193.350 29.206,193.700 29.065 C 193.975 28.954,194.020 28.887,193.800 28.916 C 193.580 28.945,191.555 29.027,189.300 29.098 M202.400 29.192 C 202.730 29.409,204.658 29.591,206.686 29.594 L 210.371 29.600 210.486 33.500 L 210.600 37.400 214.800 37.600 L 219.000 37.800 219.222 42.000 L 219.443 46.200 219.522 42.180 C 219.620 37.139,219.678 37.200,214.734 37.200 L 210.828 37.200 210.714 33.100 L 210.600 29.000 206.200 28.898 C 203.189 28.828,201.989 28.920,202.400 29.192 M167.991 33.200 L 167.800 37.400 163.600 37.600 L 159.400 37.800 159.286 41.886 L 159.172 45.972 155.086 46.086 L 151.000 46.200 150.886 50.287 L 150.772 54.373 146.486 54.487 L 142.200 54.600 142.086 58.700 L 141.972 62.800 138.066 62.800 C 133.182 62.800,133.200 62.783,133.200 67.480 L 133.200 71.200 129.424 71.200 C 127.337 71.200,125.537 71.379,125.400 71.600 C 125.262 71.823,123.396 72.000,121.176 72.000 L 117.200 72.000 117.200 75.720 C 117.200 80.419,117.220 80.400,112.320 80.400 L 108.400 80.400 108.400 84.320 C 108.400 89.241,108.441 89.200,103.546 89.200 L 99.651 89.200 99.526 93.382 C 99.446 96.024,99.540 97.423,99.780 97.182 C 99.989 96.972,101.834 96.800,103.880 96.800 L 107.600 96.800 107.600 93.080 C 107.600 88.381,107.580 88.400,112.480 88.400 L 116.400 88.400 116.400 84.680 C 116.400 79.983,116.382 80.000,121.266 80.000 L 125.172 80.000 125.286 75.900 L 125.400 71.800 129.486 71.686 L 133.572 71.572 133.686 67.486 L 133.800 63.400 138.000 63.200 L 142.200 63.000 142.314 58.913 L 142.428 54.827 146.714 54.713 L 151.000 54.600 151.114 50.514 L 151.228 46.428 155.314 46.314 L 159.400 46.200 159.514 42.100 L 159.628 38.000 163.565 38.000 C 168.507 38.000,168.466 38.044,168.306 32.941 L 168.183 29.000 167.991 33.200 M227.667 33.300 C 227.630 35.665,227.735 37.600,227.900 37.601 C 228.065 37.601,228.151 36.296,228.091 34.701 C 227.893 29.453,227.736 28.932,227.667 33.300 M236.078 41.420 C 235.980 46.461,235.922 46.400,240.866 46.400 L 244.772 46.400 244.886 50.500 L 245.000 54.600 249.200 54.800 L 253.400 55.000 253.514 59.086 L 253.628 63.172 257.714 63.286 L 261.800 63.400 262.000 67.400 L 262.200 71.400 266.400 71.600 L 270.600 71.800 270.714 75.900 L 270.828 80.000 274.734 80.000 C 279.618 80.000,279.600 79.983,279.600 84.680 L 279.600 88.400 283.376 88.400 C 285.463 88.400,287.263 88.579,287.400 88.800 C 287.545 89.035,289.416 89.168,291.924 89.122 L 296.200 89.043 292.000 88.822 L 287.800 88.600 287.600 84.600 L 287.400 80.600 284.000 80.500 C 278.447 80.336,278.800 80.641,278.800 75.992 L 278.800 72.000 274.880 72.000 C 269.984 72.000,270.000 72.016,270.000 67.347 L 270.000 63.653 266.000 63.427 C 263.800 63.302,260.200 63.098,258.000 62.973 L 254.000 62.747 254.000 59.053 C 254.000 54.386,254.015 54.400,249.134 54.400 L 245.228 54.400 245.114 50.300 L 245.000 46.200 240.800 46.000 L 236.600 45.800 236.378 41.600 L 236.157 37.400 236.078 41.420 M227.678 49.820 C 227.580 54.861,227.522 54.800,232.466 54.800 L 236.372 54.800 236.486 58.900 L 236.600 63.000 240.686 63.114 L 244.772 63.228 244.886 67.314 L 245.000 71.400 249.200 71.600 L 253.400 71.800 253.600 75.800 L 253.800 79.800 257.786 79.916 C 262.532 80.053,262.386 79.901,262.394 84.700 L 262.400 88.400 265.967 88.400 C 271.035 88.400,270.800 88.184,270.800 92.843 L 270.800 96.800 274.720 96.800 C 279.620 96.800,279.600 96.781,279.600 101.480 L 279.600 105.200 283.320 105.200 C 285.366 105.200,287.213 105.373,287.424 105.584 C 287.636 105.796,289.607 106.021,291.804 106.084 L 295.800 106.200 295.916 110.186 C 296.054 114.948,295.879 114.786,300.886 114.794 L 304.772 114.800 304.886 118.900 L 305.000 123.000 309.086 123.114 L 313.172 123.228 313.286 127.314 L 313.400 131.400 317.600 131.600 L 321.800 131.800 321.913 136.487 L 322.025 141.173 326.313 141.287 L 330.600 141.400 330.714 145.475 L 330.827 149.549 334.977 149.675 C 337.259 149.744,339.042 149.665,338.939 149.500 C 338.837 149.335,337.053 149.200,334.976 149.200 L 331.200 149.200 331.200 145.480 C 331.200 140.781,331.220 140.800,326.320 140.800 L 322.400 140.800 322.400 136.480 C 322.400 131.106,322.487 131.200,317.534 131.200 L 313.628 131.200 313.514 127.100 L 313.400 123.000 309.314 122.886 L 305.228 122.772 305.114 118.686 L 305.000 114.600 300.800 114.400 L 296.600 114.200 296.400 110.000 L 296.200 105.800 291.914 105.687 L 287.628 105.573 287.514 101.487 L 287.400 97.400 283.200 97.200 L 279.000 97.000 278.886 93.100 L 278.771 89.200 275.066 89.200 C 270.407 89.200,270.400 89.193,270.400 84.520 L 270.400 80.800 266.544 80.800 C 261.701 80.800,261.630 80.727,261.613 75.727 L 261.600 72.053 257.500 71.823 C 255.245 71.697,251.561 71.494,249.314 71.371 L 245.227 71.149 245.114 67.075 L 245.000 63.000 240.914 62.886 L 236.828 62.772 236.714 58.686 L 236.600 54.600 232.400 54.400 L 228.200 54.200 227.978 50.000 L 227.757 45.800 227.678 49.820 M133.600 80.200 C 133.222 80.655,132.197 80.800,129.351 80.800 L 125.600 80.800 125.600 84.520 C 125.600 89.219,125.620 89.200,120.720 89.200 L 116.800 89.200 116.800 92.920 C 116.800 97.617,116.818 97.600,111.934 97.600 L 108.028 97.600 107.914 101.700 L 107.800 105.800 103.600 106.000 L 99.400 106.200 99.286 110.300 L 99.172 114.400 94.986 114.400 L 90.800 114.400 90.800 118.586 L 90.800 122.773 86.599 122.908 L 82.398 123.043 86.699 123.021 L 91.000 123.000 91.114 118.900 L 91.228 114.800 95.134 114.800 C 100.018 114.800,100.000 114.817,100.000 110.120 L 100.000 106.400 103.751 106.400 C 106.597 106.400,107.622 106.255,108.000 105.800 C 108.378 105.345,109.403 105.200,112.249 105.200 L 116.000 105.200 116.000 101.443 C 116.000 96.998,115.761 97.200,121.019 97.200 L 124.772 97.200 124.886 93.100 L 125.000 89.000 129.200 88.800 L 133.400 88.600 133.600 84.400 L 133.800 80.200 138.000 79.978 L 142.200 79.757 138.149 79.678 C 134.966 79.617,133.991 79.729,133.600 80.200 M296.261 97.300 C 296.363 97.465,298.230 97.600,300.410 97.600 L 304.372 97.600 304.486 101.700 L 304.600 105.800 308.800 106.000 L 313.000 106.200 313.200 110.400 L 313.400 114.600 317.500 114.714 L 321.600 114.828 321.600 118.381 C 321.600 123.451,321.359 123.200,326.229 123.200 L 330.372 123.200 330.486 127.300 L 330.600 131.400 334.800 131.600 L 339.000 131.800 339.113 136.486 L 339.225 141.172 343.313 141.286 L 347.400 141.400 347.600 145.400 L 347.800 149.400 351.900 149.514 L 356.000 149.628 356.000 282.214 L 356.000 414.801 197.900 414.701 L 39.800 414.600 39.800 282.200 L 39.800 149.800 43.886 149.686 L 47.972 149.572 48.086 145.486 L 48.200 141.400 52.487 141.287 L 56.775 141.173 56.887 136.487 L 57.000 131.800 61.200 131.600 L 65.400 131.400 65.514 127.314 L 65.628 123.228 69.714 123.114 L 73.800 123.000 73.914 118.913 L 74.028 114.827 78.314 114.713 L 82.600 114.600 82.714 110.500 L 82.828 106.400 86.381 106.400 C 90.126 106.400,91.200 106.194,91.200 105.477 C 91.200 105.185,91.041 105.199,90.720 105.520 C 90.412 105.828,88.839 106.000,86.334 106.000 L 82.428 106.000 82.314 110.100 L 82.200 114.200 78.000 114.400 L 73.800 114.600 73.686 118.686 L 73.572 122.772 69.486 122.886 L 65.400 123.000 65.286 127.100 L 65.172 131.200 61.419 131.200 C 56.087 131.200,56.400 130.885,56.400 136.243 L 56.400 140.800 52.424 140.800 C 50.204 140.800,48.338 140.977,48.200 141.200 C 48.062 141.423,46.196 141.600,43.976 141.600 L 40.000 141.600 40.000 145.520 C 40.000 147.676,39.820 149.620,39.599 149.841 C 39.333 150.107,39.233 194.635,39.299 282.621 L 39.400 415.000 197.800 415.000 L 356.200 415.000 356.301 282.421 C 356.367 194.301,356.267 149.707,356.001 149.441 C 355.780 149.220,355.600 147.378,355.600 145.347 L 355.600 141.653 351.600 141.427 C 349.400 141.302,345.800 141.098,343.600 140.973 L 339.600 140.747 339.600 136.453 C 339.600 131.109,339.684 131.200,334.734 131.200 L 330.828 131.200 330.714 127.100 L 330.600 123.000 326.400 122.800 L 322.200 122.600 322.000 118.600 L 321.800 114.600 317.700 114.486 L 313.600 114.372 313.600 110.466 C 313.600 105.559,313.641 105.600,308.734 105.600 L 304.828 105.600 304.714 101.500 L 304.600 97.400 300.337 97.200 C 297.992 97.090,296.158 97.135,296.261 97.300 M82.082 127.286 L 82.000 131.172 77.900 131.286 L 73.800 131.400 73.687 136.100 L 73.575 140.800 69.820 140.800 C 64.540 140.800,64.800 140.570,64.800 145.243 L 64.800 149.200 61.080 149.200 C 56.383 149.200,56.400 149.182,56.400 154.066 L 56.400 157.972 52.300 158.086 L 48.200 158.200 48.091 277.400 C 48.031 342.960,48.079 397.005,48.198 397.500 C 48.405 398.358,48.599 398.400,52.393 398.400 L 56.371 398.400 56.486 402.300 L 56.600 406.200 198.000 406.200 L 339.400 406.200 339.514 402.314 L 339.629 398.429 343.514 398.314 L 347.400 398.200 347.400 278.200 L 347.400 158.200 343.514 158.086 L 339.629 157.971 339.498 154.086 L 339.367 150.200 339.284 154.300 L 339.200 158.400 343.200 158.400 L 347.200 158.400 347.200 278.000 L 347.200 397.600 343.480 397.600 C 338.805 397.600,338.800 397.605,338.800 402.280 L 338.800 406.000 197.814 406.000 L 56.828 406.000 56.714 401.900 L 56.600 397.800 52.499 397.686 L 48.399 397.572 48.499 278.086 L 48.600 158.600 52.600 158.400 L 56.600 158.200 56.800 154.000 L 57.000 149.800 61.086 149.686 L 65.172 149.572 65.286 145.486 L 65.400 141.400 69.600 141.200 L 73.800 141.000 73.913 136.300 L 74.025 131.600 78.025 131.600 C 82.714 131.600,82.483 131.851,82.299 126.968 L 82.165 123.400 82.082 127.286 " stroke="none" fill="#7c7c7c" fill-rule="evenodd"></path><path id="path4" d="M195.913 11.495 C 197.076 11.576,198.876 11.576,199.913 11.493 C 200.951 11.411,200.000 11.345,197.800 11.346 C 195.600 11.347,194.751 11.414,195.913 11.495 M210.546 16.200 C 210.547 18.400,210.614 19.249,210.695 18.087 C 210.776 16.924,210.776 15.124,210.693 14.087 C 210.611 13.049,210.545 14.000,210.546 16.200 M170.313 29.095 C 171.476 29.176,173.276 29.176,174.313 29.093 C 175.351 29.011,174.400 28.945,172.200 28.946 C 170.000 28.947,169.151 29.014,170.313 29.095 M195.900 29.095 C 197.055 29.176,198.945 29.176,200.100 29.095 C 201.255 29.014,200.310 28.948,198.000 28.948 C 195.690 28.948,194.745 29.014,195.900 29.095 M202.727 33.300 L 202.853 37.200 206.627 37.200 L 210.400 37.200 210.400 33.427 L 210.400 29.653 206.500 29.527 L 202.600 29.400 202.727 33.300 M187.513 37.095 C 188.676 37.176,190.476 37.176,191.513 37.093 C 192.551 37.011,191.600 36.945,189.400 36.946 C 187.200 36.947,186.351 37.014,187.513 37.095 M230.313 37.495 C 231.476 37.576,233.276 37.576,234.313 37.493 C 235.351 37.411,234.400 37.345,232.200 37.346 C 230.000 37.347,229.151 37.414,230.313 37.495 M218.946 41.800 C 218.947 44.000,219.014 44.849,219.095 43.687 C 219.176 42.524,219.176 40.724,219.093 39.687 C 219.011 38.649,218.945 39.600,218.946 41.800 M221.500 46.295 C 222.655 46.376,224.545 46.376,225.700 46.295 C 226.855 46.214,225.910 46.148,223.600 46.148 C 221.290 46.148,220.345 46.214,221.500 46.295 M168.146 50.200 C 168.147 52.400,168.214 53.249,168.295 52.087 C 168.376 50.924,168.376 49.124,168.293 48.087 C 168.211 47.049,168.145 48.000,168.146 50.200 M270.146 67.400 C 270.147 69.600,270.214 70.449,270.295 69.287 C 270.376 68.124,270.376 66.324,270.293 65.287 C 270.211 64.249,270.145 65.200,270.146 67.400 M142.171 72.132 C 142.059 72.424,142.021 74.269,142.087 76.232 L 142.207 79.800 142.403 75.699 C 142.598 71.632,142.564 71.107,142.171 72.132 M116.946 75.800 C 116.947 78.000,117.014 78.849,117.095 77.687 C 117.176 76.524,117.176 74.724,117.093 73.687 C 117.011 72.649,116.945 73.600,116.946 75.800 M264.313 88.695 C 265.476 88.776,267.276 88.776,268.313 88.693 C 269.351 88.611,268.400 88.545,266.200 88.546 C 264.000 88.547,263.151 88.614,264.313 88.695 M101.913 89.095 C 103.076 89.176,104.876 89.176,105.913 89.093 C 106.951 89.011,106.000 88.945,103.800 88.946 C 101.600 88.947,100.751 89.014,101.913 89.095 M296.146 93.000 C 296.147 95.200,296.214 96.049,296.295 94.887 C 296.376 93.724,296.376 91.924,296.293 90.887 C 296.211 89.849,296.145 90.800,296.146 93.000 M95.200 97.178 L 91.000 97.400 90.977 101.301 L 90.954 105.202 91.092 101.401 L 91.229 97.600 95.191 97.600 C 97.401 97.600,99.262 97.423,99.400 97.200 C 99.536 96.980,99.592 96.835,99.524 96.878 C 99.456 96.921,97.510 97.056,95.200 97.178 M273.113 97.095 C 274.276 97.176,276.076 97.176,277.113 97.093 C 278.151 97.011,277.200 96.945,275.000 96.946 C 272.800 96.947,271.951 97.014,273.113 97.095 M116.082 101.300 L 116.000 105.200 112.224 105.200 C 110.147 105.200,108.363 105.335,108.261 105.500 C 108.158 105.665,109.868 105.743,112.060 105.673 C 116.709 105.525,116.480 105.779,116.299 100.968 L 116.165 97.400 116.082 101.300 M281.513 105.495 C 282.676 105.576,284.476 105.576,285.513 105.493 C 286.551 105.411,285.600 105.345,283.400 105.346 C 281.200 105.347,280.351 105.414,281.513 105.495 M289.913 106.295 C 291.076 106.376,292.876 106.376,293.913 106.293 C 294.951 106.211,294.000 106.145,291.800 106.146 C 289.600 106.147,288.751 106.214,289.913 106.295 M321.997 118.518 L 322.195 122.600 322.313 118.836 C 322.378 116.766,322.290 114.929,322.116 114.754 C 321.942 114.579,321.889 116.273,321.997 118.518 M304.546 118.600 C 304.547 120.800,304.614 121.649,304.695 120.487 C 304.776 119.324,304.776 117.524,304.693 116.487 C 304.611 115.449,304.545 116.400,304.546 118.600 M64.946 127.400 C 64.947 129.600,65.014 130.449,65.095 129.287 C 65.176 128.124,65.176 126.324,65.093 125.287 C 65.011 124.249,64.945 125.200,64.946 127.400 M339.524 136.274 L 339.648 140.748 343.524 140.874 L 347.400 141.000 347.276 136.526 L 347.152 132.052 343.276 131.926 L 339.400 131.800 339.524 136.274 M330.546 145.400 C 330.547 147.600,330.614 148.449,330.695 147.287 C 330.776 146.124,330.776 144.324,330.693 143.287 C 330.611 142.249,330.545 143.200,330.546 145.400 M355.746 145.400 C 355.747 147.600,355.814 148.449,355.895 147.287 C 355.976 146.124,355.976 144.324,355.893 143.287 C 355.811 142.249,355.745 143.200,355.746 145.400 M356.598 282.400 C 356.598 355.110,356.644 384.855,356.700 348.500 C 356.756 312.145,356.756 252.655,356.700 216.300 C 356.644 179.945,356.598 209.690,356.598 282.400 M52.600 158.400 L 48.600 158.645 52.476 158.723 C 54.717 158.767,56.457 158.631,56.600 158.400 C 56.736 158.180,56.792 158.035,56.724 158.077 C 56.656 158.120,54.800 158.265,52.600 158.400 M341.513 158.695 C 342.676 158.776,344.476 158.776,345.513 158.693 C 346.551 158.611,345.600 158.545,343.400 158.546 C 341.200 158.547,340.351 158.614,341.513 158.695 M56.946 402.200 C 56.947 404.400,57.014 405.249,57.095 404.087 C 57.176 402.924,57.176 401.124,57.093 400.087 C 57.011 399.049,56.945 400.000,56.946 402.200 " stroke="none" fill="#848484" fill-rule="evenodd"></path></g></svg>