<?xml version="1.0" standalone="no"?>
<!DOCTYPE svg PUBLIC "-//W3C//DTD SVG 20010904//EN"
 "http://www.w3.org/TR/2001/REC-SVG-20010904/DTD/svg10.dtd">
<svg version="1.0" xmlns="http://www.w3.org/2000/svg"
 width="350.000000pt" height="420.000000pt" viewBox="0 0 350.000000 420.000000"
 preserveAspectRatio="xMidYMid meet">

<g transform="translate(0.000000,420.000000) scale(0.100000,-0.100000)"
fill="#000000" stroke="none">
<path d="M1600 3900 l0 -300 -40 0 -40 0 0 -40 0 -40 -80 0 -80 0 0 -40 0 -40
-80 0 -80 0 0 -40 0 -40 -80 0 -80 0 0 -40 0 -40 -40 0 -40 0 0 -40 0 -40 -80
0 -80 0 0 -40 0 -40 -80 0 -80 0 0 -40 0 -40 -80 0 -80 0 0 -40 0 -40 -40 0
-40 0 0 -40 0 -40 -40 0 -40 0 0 -765 0 -765 40 0 40 0 0 -40 0 -40 40 0 40 0
0 -40 0 -40 80 0 80 0 0 -40 0 -40 80 0 80 0 0 -40 0 -40 80 0 80 0 0 -40 0
-40 40 0 40 0 0 -40 0 -40 80 0 80 0 0 -40 0 -40 80 0 80 0 0 -40 0 -40 80 0
80 0 0 -40 0 -40 40 0 40 0 0 -315 0 -315 40 0 40 0 0 315 0 315 40 0 40 0 0
40 0 40 80 0 80 0 0 40 0 40 40 0 40 0 0 40 0 40 80 0 80 0 0 40 0 40 80 0 80
0 0 40 0 40 40 0 40 0 0 40 0 40 80 0 80 0 0 40 0 40 80 0 80 0 0 40 0 40 40
0 40 0 0 40 0 40 40 0 40 0 0 320 0 320 40 0 40 0 0 40 0 40 270 0 270 0 0 40
0 40 -270 0 -270 0 0 40 0 40 -40 0 -40 0 0 325 0 325 -40 0 -40 0 0 40 0 40
-40 0 -40 0 0 40 0 40 -80 0 -80 0 0 40 0 40 -80 0 -80 0 0 40 0 40 -40 0 -40
0 0 40 0 40 -80 0 -80 0 0 40 0 40 -80 0 -80 0 0 40 0 40 -40 0 -40 0 0 40 0
40 -80 0 -80 0 0 40 0 40 -40 0 -40 0 0 300 0 300 -40 0 -40 0 0 -300z m160
-500 l0 -40 80 0 80 0 0 -40 0 -40 80 0 80 0 0 -40 0 -40 40 0 40 0 0 -40 0
-40 80 0 80 0 0 -40 0 -40 80 0 80 0 0 -40 0 -40 40 0 40 0 0 -40 0 -40 80 0
80 0 0 -45 0 -45 40 0 40 0 0 -680 0 -680 -40 0 -40 0 0 -40 0 -40 -80 0 -80
0 0 -40 0 -40 -40 0 -40 0 0 -40 0 -40 -80 0 -80 0 0 -40 0 -40 -80 0 -80 0 0
-40 0 -40 -80 0 -80 0 0 -40 0 -40 -40 0 -40 0 0 -40 0 -40 -80 0 -80 0 0 -40
0 -40 -120 0 -120 0 0 40 0 40 -80 0 -80 0 0 40 0 40 -80 0 -80 0 0 40 0 40
-80 0 -80 0 0 40 0 40 -80 0 -80 0 0 40 0 40 -40 0 -40 0 0 40 0 40 -80 0 -80
0 0 40 0 40 -80 0 -80 0 0 40 0 40 -40 0 -40 0 0 680 0 680 40 0 40 0 0 45 0
45 80 0 80 0 0 40 0 40 80 0 80 0 0 40 0 40 80 0 80 0 0 40 0 40 40 0 40 0 0
40 0 40 80 0 80 0 0 40 0 40 80 0 80 0 0 40 0 40 80 0 80 0 0 40 0 40 120 0
120 0 0 -40z"/>
</g>
</svg>
