<?xml version="1.0" standalone="no"?>
<!DOCTYPE svg PUBLIC "-//W3C//DTD SVG 20010904//EN"
 "http://www.w3.org/TR/2001/REC-SVG-20010904/DTD/svg10.dtd">
<svg version="1.0" xmlns="http://www.w3.org/2000/svg"
 width="263.000000pt" height="295.000000pt" viewBox="0 0 263.000000 295.000000"
 preserveAspectRatio="xMidYMid meet">

<g transform="translate(0.000000,295.000000) scale(0.100000,-0.100000)"
fill="#000000" stroke="none">
<path d="M970 2840 l0 -40 -80 0 -80 0 0 -40 0 -40 -80 0 -80 0 0 -40 0 -40
-40 0 -40 0 0 -40 0 -40 -40 0 -40 0 0 -40 0 -40 -40 0 -40 0 0 -40 0 -40 -40
0 -40 0 0 -40 0 -40 -40 0 -40 0 0 -85 0 -85 -40 0 -40 0 0 -80 0 -80 -40 0
-40 0 0 -960 0 -960 80 0 80 0 0 40 0 40 80 0 80 0 0 40 0 40 120 0 120 0 0
40 0 40 160 0 160 0 0 40 0 40 360 0 360 0 0 -40 0 -40 200 0 200 0 0 -40 0
-40 80 0 80 0 0 -40 0 -40 80 0 80 0 0 -40 0 -40 80 0 80 0 0 960 0 960 -40 0
-40 0 0 80 0 80 -40 0 -40 0 0 85 0 85 -40 0 -40 0 0 40 0 40 -40 0 -40 0 0
80 0 80 -80 0 -80 0 0 40 0 40 -40 0 -40 0 0 40 0 40 -80 0 -80 0 0 40 0 40
-80 0 -80 0 0 40 0 40 -360 0 -360 0 0 -40z m640 -80 l0 -40 80 0 80 0 0 -40
0 -40 80 0 80 0 0 -40 0 -40 80 0 80 0 0 -40 0 -40 40 0 40 0 0 -40 0 -40 40
0 40 0 0 -80 0 -80 40 0 40 0 0 -85 0 -85 40 0 40 0 0 -80 0 -80 40 0 40 0 0
-840 0 -840 -80 0 -80 0 0 40 0 40 -120 0 -120 0 0 40 0 40 -120 0 -120 0 0
40 0 40 -520 0 -520 0 0 -40 0 -40 -120 0 -120 0 0 -40 0 -40 -120 0 -120 0 0
-40 0 -40 -80 0 -80 0 0 840 0 840 40 0 40 0 0 80 0 80 40 0 40 0 0 85 0 85
40 0 40 0 0 80 0 80 40 0 40 0 0 40 0 40 40 0 40 0 0 40 0 40 80 0 80 0 0 40
0 40 80 0 80 0 0 40 0 40 80 0 80 0 0 40 0 40 280 0 280 0 0 -40z"/>
<path d="M890 1630 l0 -280 80 0 80 0 0 240 0 240 120 0 120 0 0 -240 0 -240
40 0 40 0 0 200 0 200 40 0 40 0 0 40 0 40 80 0 80 0 0 -240 0 -240 80 0 80 0
0 200 0 200 -40 0 -40 0 0 80 0 80 -160 0 -160 0 0 -40 0 -40 -40 0 -40 0 0
40 0 40 -200 0 -200 0 0 -280z"/>
</g>
</svg>
