<?xml version="1.0" standalone="no"?>
<!DOCTYPE svg PUBLIC "-//W3C//DTD SVG 20010904//EN"
 "http://www.w3.org/TR/2001/REC-SVG-20010904/DTD/svg10.dtd">
<svg version="1.0" xmlns="http://www.w3.org/2000/svg"
 width="257.000000pt" height="314.000000pt" viewBox="0 0 257.000000 314.000000"
 preserveAspectRatio="xMidYMid meet">

<g transform="translate(0.000000,314.000000) scale(0.100000,-0.100000)"
fill="#000000" stroke="none">
<path d="M120 2980 l0 -80 40 0 40 0 0 -40 0 -40 40 0 40 0 0 -40 0 -40 40 0
40 0 0 -80 0 -80 40 0 40 0 0 -40 0 -40 40 0 40 0 0 -40 0 -40 40 0 40 0 0
-40 0 -40 40 0 40 0 0 -85 0 -85 40 0 40 0 0 -40 0 -40 40 0 40 0 0 -40 0 -40
40 0 40 0 0 -80 0 -80 40 0 40 0 0 -40 0 -40 40 0 40 0 0 -40 0 -40 40 0 40 0
0 -120 0 -120 -40 0 -40 0 0 -40 0 -40 -40 0 -40 0 0 -40 0 -40 -40 0 -40 0 0
-80 0 -80 -40 0 -40 0 0 -40 0 -40 -40 0 -40 0 0 -40 0 -40 -40 0 -40 0 0 -80
0 -80 -40 0 -40 0 0 -40 0 -40 -40 0 -40 0 0 -40 0 -40 -40 0 -40 0 0 -40 0
-40 -40 0 -40 0 0 -80 0 -80 -40 0 -40 0 0 -40 0 -40 -40 0 -40 0 0 -40 0 -40
-40 0 -40 0 0 -80 0 -80 1160 0 1160 0 0 80 0 80 -40 0 -40 0 0 40 0 40 -40 0
-40 0 0 40 0 40 -40 0 -40 0 0 80 0 80 -40 0 -40 0 0 40 0 40 -40 0 -40 0 0
40 0 40 -40 0 -40 0 0 80 0 80 -40 0 -40 0 0 40 0 40 -40 0 -40 0 0 40 0 40
-40 0 -40 0 0 40 0 40 -40 0 -40 0 0 80 0 80 -40 0 -40 0 0 40 0 40 -40 0 -40
0 0 40 0 40 -40 0 -40 0 0 120 0 120 40 0 40 0 0 40 0 40 40 0 40 0 0 40 0 40
40 0 40 0 0 80 0 80 40 0 40 0 0 40 0 40 40 0 40 0 0 40 0 40 40 0 40 0 0 40
0 40 40 0 40 0 0 85 0 85 40 0 40 0 0 40 0 40 40 0 40 0 0 40 0 40 40 0 40 0
0 80 0 80 40 0 40 0 0 40 0 40 40 0 40 0 0 40 0 40 40 0 40 0 0 80 0 80 -1160
0 -1160 0 0 -80z m2160 -40 l0 -40 -40 0 -40 0 0 -40 0 -40 -40 0 -40 0 0 -40
0 -40 -40 0 -40 0 0 -80 0 -80 -40 0 -40 0 0 -40 0 -40 -40 0 -40 0 0 -40 0
-40 -40 0 -40 0 0 -85 0 -85 -40 0 -40 0 0 -40 0 -40 -40 0 -40 0 0 -40 0 -40
-40 0 -40 0 0 -40 0 -40 -40 0 -40 0 0 -80 0 -80 -40 0 -40 0 0 -40 0 -40 -40
0 -40 0 0 -40 0 -40 -40 0 -40 0 0 40 0 40 -40 0 -40 0 0 40 0 40 -40 0 -40 0
0 80 0 80 -40 0 -40 0 0 40 0 40 -40 0 -40 0 0 40 0 40 -40 0 -40 0 0 85 0 85
-40 0 -40 0 0 40 0 40 -40 0 -40 0 0 40 0 40 -40 0 -40 0 0 40 0 40 -40 0 -40
0 0 80 0 80 -40 0 -40 0 0 40 0 40 -40 0 -40 0 0 40 0 40 -40 0 -40 0 0 40 0
40 1000 0 1000 0 0 -40z m-960 -1530 l0 -40 40 0 40 0 0 -40 0 -40 40 0 40 0
0 -80 0 -80 40 0 40 0 0 -40 0 -40 40 0 40 0 0 -40 0 -40 40 0 40 0 0 -40 0
-40 40 0 40 0 0 -80 0 -80 40 0 40 0 0 -40 0 -40 40 0 40 0 0 -40 0 -40 40 0
40 0 0 -80 0 -80 40 0 40 0 0 -40 0 -40 40 0 40 0 0 -40 0 -40 40 0 40 0 0
-40 0 -40 -1000 0 -1000 0 0 40 0 40 40 0 40 0 0 40 0 40 40 0 40 0 0 40 0 40
40 0 40 0 0 80 0 80 40 0 40 0 0 40 0 40 40 0 40 0 0 40 0 40 40 0 40 0 0 40
0 40 40 0 40 0 0 80 0 80 40 0 40 0 0 40 0 40 40 0 40 0 0 40 0 40 40 0 40 0
0 80 0 80 40 0 40 0 0 40 0 40 40 0 40 0 0 40 0 40 40 0 40 0 0 -40z"/>
</g>
</svg>
