<?xml version="1.0" standalone="no"?>
<!DOCTYPE svg PUBLIC "-//W3C//DTD SVG 20010904//EN"
 "http://www.w3.org/TR/2001/REC-SVG-20010904/DTD/svg10.dtd">
<svg version="1.0" xmlns="http://www.w3.org/2000/svg"
 width="281.000000pt" height="424.000000pt" viewBox="0 0 281.000000 424.000000"
 preserveAspectRatio="xMidYMid meet">

<g transform="translate(0.000000,424.000000) scale(0.100000,-0.100000)"
fill="#000000" stroke="none">
<path d="M1360 3935 l0 -305 -40 0 -40 0 0 -40 0 -40 -80 0 -80 0 0 -40 0 -40
-40 0 -40 0 0 -40 0 -40 -40 0 -40 0 0 -40 0 -40 -40 0 -40 0 0 -40 0 -40 -40
0 -40 0 0 -40 0 -40 -40 0 -40 0 0 -40 0 -40 -40 0 -40 0 0 -80 0 -80 -40 0
-40 0 0 -45 0 -45 -40 0 -40 0 0 -80 0 -80 -40 0 -40 0 0 -80 0 -80 -40 0 -40
0 0 -120 0 -120 -40 0 -40 0 0 -120 0 -120 -40 0 -40 0 0 -720 0 -720 40 0 40
0 0 40 0 40 40 0 40 0 0 40 0 40 40 0 40 0 0 40 0 40 40 0 40 0 -2 -405 -3
-406 40 3 40 3 3 443 2 442 80 0 80 0 0 40 0 40 240 0 240 0 0 40 0 40 200 0
200 0 0 -40 0 -40 240 0 240 0 0 -40 0 -40 80 0 80 0 -2 -445 -3 -446 40 3 40
3 3 402 2 403 40 0 c40 0 40 0 40 -40 l0 -40 40 0 40 0 0 -40 0 -40 40 0 40 0
0 -40 0 -40 40 0 40 0 0 720 0 720 -40 0 -40 0 0 120 0 120 -40 0 -40 0 0 120
0 120 -40 0 -40 0 0 80 0 80 -40 0 -40 0 0 80 0 80 -40 0 -40 0 0 45 0 45 -40
0 -40 0 0 80 0 80 -40 0 -40 0 0 40 0 40 -40 0 -40 0 0 40 0 40 -40 0 -40 0 0
40 0 40 -40 0 -40 0 0 40 0 40 -40 0 -40 0 0 40 0 40 -40 0 -40 0 0 40 0 40
-80 0 -80 0 0 40 0 40 -40 0 -40 0 0 305 0 305 -40 0 -40 0 0 -305z m160 -505
l0 -40 40 0 40 0 0 -40 0 -40 80 0 80 0 0 -40 0 -40 40 0 40 0 0 -40 0 -40 40
0 40 0 0 -40 0 -40 40 0 40 0 0 -80 0 -80 40 0 40 0 0 -45 0 -45 40 0 40 0 0
-80 0 -80 40 0 40 0 0 -80 0 -80 40 0 40 0 0 -80 0 -80 40 0 40 0 0 -120 0
-120 40 0 40 0 0 -240 0 -240 40 0 40 0 0 -360 0 -360 -80 0 -80 0 0 40 0 40
-80 0 -80 0 0 40 0 40 -120 0 -120 0 0 40 0 40 -600 0 -600 0 0 -40 0 -40
-120 0 -120 0 0 -40 0 -40 -80 0 -80 0 0 -40 0 -40 -80 0 -80 0 0 360 0 360
40 0 40 0 0 240 0 240 40 0 40 0 0 120 0 120 40 0 40 0 0 80 0 80 40 0 40 0 0
80 0 80 40 0 40 0 0 80 0 80 40 0 40 0 0 45 0 45 40 0 40 0 0 80 0 80 40 0 40
0 0 40 0 40 40 0 40 0 0 40 0 40 40 0 40 0 0 40 0 40 80 0 80 0 0 40 0 40 40
0 40 0 0 40 0 40 120 0 120 0 0 -40z"/>
</g>
</svg>
