<svg id="svg" xmlns="http://www.w3.org/2000/svg" xmlns:xlink="http://www.w3.org/1999/xlink" width="400" height="586.8945868945868" viewBox="0, 0, 400,586.8945868945868"><g id="svgg"><path id="path0" d="M192.593 22.073 L 192.593 44.146 188.319 44.853 C 185.969 45.241,182.379 45.565,180.342 45.572 C 177.402 45.581,176.638 46.054,176.638 47.863 C 176.638 49.983,175.878 50.142,165.812 50.142 C 155.745 50.142,154.986 50.302,154.986 52.422 C 154.986 54.442,154.226 54.701,148.291 54.701 C 138.426 54.701,134.473 55.720,134.473 58.262 C 134.473 60.066,133.587 60.399,128.775 60.399 C 123.457 60.399,123.077 60.589,123.077 63.248 C 123.077 65.865,122.659 66.097,117.949 66.097 C 113.238 66.097,112.821 66.329,112.821 68.946 C 112.821 71.605,112.441 71.795,107.123 71.795 C 102.272 71.795,101.425 72.119,101.425 73.974 C 101.425 75.623,100.331 76.338,96.934 76.912 C 93.486 77.494,92.361 78.245,92.090 80.146 C 91.842 81.888,90.810 82.728,88.604 82.982 C 86.390 83.236,85.470 83.989,85.470 85.546 C 85.470 86.990,84.684 87.749,83.191 87.749 C 81.671 87.749,80.912 88.509,80.912 90.028 C 80.912 91.700,80.152 92.308,78.063 92.308 C 75.783 92.308,75.214 92.877,75.214 95.157 C 75.214 97.436,74.644 98.006,72.365 98.006 C 70.085 98.006,69.516 98.575,69.516 100.855 C 69.516 102.944,68.908 103.704,67.236 103.704 C 65.717 103.704,64.957 104.463,64.957 105.983 C 64.957 107.654,64.198 108.262,62.108 108.262 C 59.829 108.262,59.259 108.832,59.259 111.111 C 59.259 113.390,58.689 113.960,56.410 113.960 C 54.004 113.960,53.561 114.492,53.561 117.379 C 53.561 120.038,53.055 120.798,51.282 120.798 C 49.383 120.798,49.003 121.557,49.003 125.356 C 49.003 129.459,48.718 129.915,46.154 129.915 C 43.748 129.915,43.305 130.446,43.305 133.333 C 43.305 135.940,42.787 136.752,41.126 136.752 C 39.472 136.752,38.761 137.850,38.177 141.311 C 37.527 145.156,36.977 145.869,34.658 145.869 C 32.119 145.869,31.909 146.304,31.909 151.567 C 31.909 156.505,31.605 157.265,29.630 157.265 C 27.654 157.265,27.350 158.025,27.350 162.963 C 27.350 167.775,27.018 168.661,25.214 168.661 C 22.671 168.661,21.652 172.614,21.652 182.479 C 21.652 188.860,21.519 189.174,18.803 189.174 L 15.954 189.174 15.954 202.146 C 15.954 214.171,15.788 215.162,13.669 215.716 C 11.400 216.310,11.386 217.058,11.675 323.257 L 11.966 430.199 62.394 430.199 L 112.822 430.199 112.821 465.242 L 112.821 500.285 117.949 500.285 L 123.077 500.285 123.077 465.527 L 123.077 430.769 125.641 430.747 C 127.051 430.735,166.795 430.607,213.960 430.463 L 299.715 430.199 299.715 465.242 L 299.715 500.285 304.827 500.285 L 309.939 500.285 310.240 465.413 L 310.541 430.541 350.712 430.547 L 390.883 430.553 390.883 317.840 L 390.883 205.128 388.034 205.128 C 385.195 205.128,385.185 205.090,385.185 194.302 C 385.185 183.514,385.175 183.476,382.336 183.476 C 379.569 183.476,379.487 183.248,379.487 175.499 C 379.487 168.281,379.270 167.521,377.208 167.521 C 375.163 167.521,374.929 166.762,374.929 160.114 C 374.929 152.972,374.827 152.707,372.080 152.707 C 369.674 152.707,369.231 152.175,369.231 149.288 C 369.231 146.401,368.788 145.869,366.382 145.869 C 363.765 145.869,363.533 145.451,363.533 140.741 C 363.533 136.372,363.195 135.613,361.254 135.613 C 359.312 135.613,358.974 134.853,358.974 130.484 C 358.974 125.774,358.742 125.356,356.125 125.356 C 353.846 125.356,353.276 124.786,353.276 122.507 C 353.276 120.228,352.707 119.658,350.427 119.658 C 348.148 119.658,347.578 119.088,347.578 116.809 C 347.578 114.530,347.009 113.960,344.729 113.960 C 342.450 113.960,341.880 113.390,341.880 111.111 C 341.880 109.022,341.273 108.262,339.601 108.262 C 338.082 108.262,337.322 107.502,337.322 105.983 C 337.322 104.491,336.562 103.704,335.122 103.704 C 333.708 103.704,332.792 102.787,332.558 101.140 C 332.297 99.304,331.304 98.473,329.060 98.215 C 326.598 97.932,325.926 97.259,325.926 95.081 C 325.926 93.067,325.302 92.308,323.647 92.308 C 322.127 92.308,321.368 91.548,321.368 90.028 C 321.368 88.357,320.608 87.749,318.519 87.749 C 316.239 87.749,315.670 87.179,315.670 84.900 C 315.670 82.621,315.100 82.051,312.821 82.051 C 310.790 82.051,309.972 81.435,309.972 79.905 C 309.972 77.718,307.099 76.398,302.279 76.369 C 300.480 76.358,299.715 75.673,299.715 74.074 C 299.715 72.133,298.955 71.795,294.587 71.795 C 289.877 71.795,289.459 71.563,289.459 68.946 C 289.459 66.287,289.079 66.097,283.761 66.097 C 278.443 66.097,278.063 65.907,278.063 63.248 C 278.063 60.631,277.645 60.399,272.934 60.399 C 268.680 60.399,267.806 60.035,267.806 58.262 C 267.806 55.907,263.897 54.701,256.268 54.701 C 253.290 54.701,251.852 54.193,251.852 53.141 C 251.852 50.955,245.783 50.170,228.775 50.155 L 214.245 50.142 214.245 47.293 C 214.245 44.677,213.827 44.444,209.117 44.444 L 203.989 44.444 203.989 22.222 L 203.989 0.000 198.291 0.000 L 192.593 0.000 192.593 22.073 M192.593 57.550 C 192.593 59.829,192.023 60.399,189.744 60.399 C 187.085 60.399,186.895 60.779,186.895 66.097 C 186.895 71.035,186.591 71.795,184.615 71.795 C 182.674 71.795,182.336 72.555,182.336 76.923 C 182.336 81.633,182.104 82.051,179.487 82.051 C 176.870 82.051,176.638 82.469,176.638 87.179 C 176.638 91.890,176.406 92.308,173.789 92.308 C 171.130 92.308,170.940 92.688,170.940 98.006 C 170.940 102.944,170.636 103.704,168.661 103.704 C 166.719 103.704,166.382 104.463,166.382 108.832 C 166.382 113.542,166.150 113.960,163.533 113.960 C 160.923 113.960,160.684 114.383,160.684 119.009 C 160.684 123.377,160.338 124.107,158.120 124.422 C 155.886 124.739,155.511 125.557,155.211 130.769 C 154.979 134.798,154.374 136.752,153.359 136.752 C 151.724 136.752,150.427 141.604,150.427 147.721 C 150.427 151.064,150.055 151.567,147.578 151.567 C 145.173 151.567,144.729 152.099,144.729 154.986 C 144.729 157.873,144.286 158.405,141.880 158.405 C 139.263 158.405,139.031 158.822,139.031 163.533 C 139.031 167.234,138.575 168.661,137.392 168.661 C 136.322 168.661,135.485 170.444,134.983 173.789 C 134.319 178.220,133.844 178.917,131.495 178.917 C 128.991 178.917,128.775 179.370,128.775 184.615 C 128.775 189.934,128.585 190.313,125.926 190.313 C 123.309 190.313,123.077 190.731,123.077 195.442 C 123.077 200.152,122.845 200.570,120.228 200.570 C 117.569 200.570,117.379 200.950,117.379 206.268 C 117.379 210.359,116.934 211.966,115.802 211.966 C 113.892 211.966,112.857 215.445,112.836 221.937 C 112.822 226.340,112.561 226.781,109.972 226.781 C 107.355 226.781,107.123 227.198,107.123 231.909 C 107.123 236.619,106.890 237.037,104.274 237.037 C 101.657 237.037,101.425 237.455,101.425 242.165 C 101.425 246.534,101.087 247.293,99.145 247.293 C 97.170 247.293,96.866 248.053,96.866 252.991 C 96.866 258.310,96.676 258.689,94.017 258.689 C 91.400 258.689,91.168 259.107,91.168 263.818 C 91.168 268.528,90.936 268.946,88.319 268.946 C 85.660 268.946,85.470 269.326,85.470 274.644 C 85.470 279.582,85.166 280.342,83.191 280.342 C 81.519 280.342,80.912 281.102,80.912 283.191 C 80.912 285.470,80.342 286.040,78.063 286.040 C 75.316 286.040,75.214 286.306,75.214 293.447 C 75.214 300.589,75.111 300.855,72.365 300.855 C 69.706 300.855,69.516 301.235,69.516 306.553 C 69.516 311.491,69.212 312.251,67.236 312.251 C 65.295 312.251,64.957 313.010,64.957 317.379 C 64.957 322.089,64.725 322.507,62.108 322.507 C 59.449 322.507,59.259 322.887,59.259 328.205 C 59.259 333.523,59.069 333.903,56.410 333.903 C 53.793 333.903,53.561 334.321,53.561 339.031 C 53.561 343.400,53.224 344.160,51.282 344.160 C 49.346 344.160,49.003 344.919,49.003 349.208 C 49.003 353.577,48.657 354.307,46.439 354.622 C 44.251 354.932,43.824 355.779,43.527 360.399 C 43.214 365.286,42.909 365.812,40.393 365.812 C 37.851 365.812,37.607 366.260,37.607 370.940 C 37.607 375.651,37.375 376.068,34.758 376.068 C 32.064 376.068,31.909 376.410,31.909 382.336 C 31.909 387.844,31.633 388.604,29.630 388.604 C 27.688 388.604,27.350 389.364,27.350 393.732 C 27.350 398.443,27.118 398.860,24.501 398.860 L 21.652 398.860 21.668 307.977 C 21.684 213.060,21.725 211.966,25.204 211.966 C 27.163 211.966,27.350 210.971,27.350 200.570 C 27.350 189.934,27.502 189.174,29.630 189.174 C 31.692 189.174,31.909 188.414,31.909 181.197 C 31.909 173.447,31.990 173.219,34.758 173.219 C 37.417 173.219,37.607 172.840,37.607 167.521 C 37.607 162.203,37.797 161.823,40.456 161.823 C 43.073 161.823,43.305 161.406,43.305 156.695 C 43.305 151.985,43.537 151.567,46.154 151.567 C 48.771 151.567,49.003 151.149,49.003 146.439 C 49.003 142.070,49.341 141.311,51.282 141.311 C 53.224 141.311,53.561 140.551,53.561 136.182 C 53.561 131.472,53.793 131.054,56.410 131.054 C 58.816 131.054,59.259 130.522,59.259 127.635 C 59.259 124.748,59.702 124.217,62.108 124.217 C 64.198 124.217,64.957 123.609,64.957 121.937 C 64.957 120.418,65.717 119.658,67.236 119.658 C 68.908 119.658,69.516 118.898,69.516 116.809 C 69.516 114.530,70.085 113.960,72.365 113.960 C 74.644 113.960,75.214 113.390,75.214 111.111 C 75.214 108.832,75.783 108.262,78.063 108.262 C 80.152 108.262,80.912 107.654,80.912 105.983 C 80.912 104.463,81.671 103.704,83.191 103.704 C 84.862 103.704,85.470 102.944,85.470 100.855 C 85.470 98.575,86.040 98.006,88.319 98.006 C 90.598 98.006,91.168 97.436,91.168 95.157 C 91.168 92.915,91.747 92.308,93.884 92.308 C 95.642 92.308,96.811 91.503,97.196 90.028 C 97.670 88.218,98.751 87.749,102.457 87.749 C 106.674 87.749,107.123 87.475,107.123 84.900 C 107.123 82.283,107.540 82.051,112.251 82.051 C 116.961 82.051,117.379 81.819,117.379 79.202 C 117.379 76.923,117.949 76.353,120.228 76.353 C 121.880 76.353,123.077 75.698,123.077 74.793 C 123.077 73.178,128.609 71.830,135.328 71.807 C 138.515 71.797,139.031 71.398,139.031 68.946 C 139.031 66.178,139.259 66.097,147.009 66.097 C 154.758 66.097,154.986 66.015,154.986 63.248 L 154.986 60.399 168.661 60.399 C 181.412 60.399,182.336 60.250,182.336 58.199 C 182.336 56.036,184.245 55.206,190.028 54.856 C 192.045 54.734,192.593 55.309,192.593 57.550 M214.245 58.120 C 214.245 60.290,215.005 60.399,230.199 60.399 L 246.154 60.399 246.154 63.248 C 246.154 65.955,246.480 66.097,252.707 66.109 C 263.250 66.130,267.806 67.202,267.806 69.665 C 267.806 71.430,268.686 71.795,272.934 71.795 C 277.185 71.795,278.063 72.160,278.063 73.927 C 278.063 75.626,279.222 76.213,283.761 76.816 C 288.339 77.423,289.459 77.998,289.459 79.742 C 289.459 81.440,290.574 82.079,294.587 82.681 C 298.581 83.280,299.715 83.925,299.715 85.599 C 299.715 87.133,300.532 87.749,302.564 87.749 C 304.653 87.749,305.413 88.357,305.413 90.028 C 305.413 91.548,306.173 92.308,307.692 92.308 C 309.364 92.308,309.972 93.067,309.972 95.157 C 309.972 97.436,310.541 98.006,312.821 98.006 C 315.064 98.006,315.670 98.584,315.670 100.725 C 315.670 103.075,316.367 103.550,320.798 104.214 C 324.848 104.821,325.926 105.447,325.926 107.192 C 325.926 108.789,326.716 109.402,328.775 109.402 C 331.392 109.402,331.624 109.820,331.624 114.530 C 331.624 119.240,331.856 119.658,334.473 119.658 C 336.562 119.658,337.322 120.266,337.322 121.937 C 337.322 123.457,338.082 124.217,339.601 124.217 C 341.273 124.217,341.880 124.976,341.880 127.066 C 341.880 129.345,342.450 129.915,344.729 129.915 C 347.135 129.915,347.578 130.446,347.578 133.333 C 347.578 136.199,348.029 136.752,350.362 136.752 C 352.822 136.752,353.186 137.315,353.496 141.595 C 353.787 145.622,354.279 146.500,356.410 146.803 C 358.629 147.118,358.974 147.848,358.974 152.216 C 358.974 156.458,359.329 157.265,361.191 157.265 C 363.027 157.265,363.468 158.195,363.755 162.678 C 364.049 167.263,364.487 168.146,366.616 168.449 C 368.882 168.771,369.163 169.559,369.465 176.426 C 369.770 183.341,370.038 184.079,372.365 184.410 C 374.805 184.756,374.929 185.265,374.929 194.951 C 374.929 204.368,375.099 205.128,377.208 205.128 C 379.469 205.128,379.487 205.888,379.487 301.425 C 379.487 384.439,379.261 397.721,377.848 397.721 C 376.778 397.721,375.941 395.938,375.439 392.593 C 374.846 388.638,374.187 387.464,372.559 387.464 C 370.887 387.464,370.292 386.281,369.693 381.766 C 369.101 377.306,368.489 376.068,366.875 376.068 C 365.304 376.068,364.629 374.846,364.043 370.940 C 363.444 366.946,362.798 365.812,361.124 365.812 C 359.304 365.812,358.974 364.938,358.974 360.114 C 358.974 355.293,358.644 354.416,356.828 354.416 C 354.641 354.416,353.321 351.544,353.292 346.724 C 353.281 344.982,352.591 344.160,351.140 344.160 C 348.842 344.160,347.578 340.266,347.578 333.191 C 347.578 329.848,347.206 329.345,344.729 329.345 C 342.112 329.345,341.880 328.927,341.880 324.217 C 341.880 319.848,341.543 319.088,339.601 319.088 C 337.626 319.088,337.322 318.329,337.322 313.390 C 337.322 308.072,337.132 307.692,334.473 307.692 C 331.856 307.692,331.624 307.274,331.624 302.564 C 331.624 297.854,331.392 297.436,328.775 297.436 C 326.116 297.436,325.926 297.056,325.926 291.738 C 325.926 286.800,325.622 286.040,323.647 286.040 C 321.975 286.040,321.368 285.280,321.368 283.191 C 321.368 281.165,320.750 280.342,319.231 280.342 C 316.934 280.342,315.670 276.449,315.670 269.373 C 315.670 266.030,315.297 265.527,312.821 265.527 C 310.161 265.527,309.972 265.147,309.972 259.829 C 309.972 254.891,309.668 254.131,307.692 254.131 C 305.751 254.131,305.413 253.371,305.413 249.003 C 305.413 244.292,305.181 243.875,302.564 243.875 C 299.910 243.875,299.715 243.489,299.715 238.256 C 299.715 233.297,299.414 232.594,297.151 232.273 C 294.963 231.962,294.536 231.115,294.240 226.496 C 293.952 222.012,293.512 221.083,291.675 221.083 C 289.808 221.083,289.459 220.275,289.459 215.954 C 289.459 211.244,289.227 210.826,286.610 210.826 C 283.951 210.826,283.761 210.446,283.761 205.128 C 283.761 199.810,283.571 199.430,280.912 199.430 C 278.295 199.430,278.063 199.012,278.063 194.302 C 278.063 189.592,277.831 189.174,275.214 189.174 C 272.555 189.174,272.365 188.794,272.365 183.476 C 272.365 178.538,272.061 177.778,270.085 177.778 C 268.144 177.778,267.806 177.018,267.806 172.650 C 267.806 167.939,267.574 167.521,264.957 167.521 C 262.340 167.521,262.108 167.104,262.108 162.393 C 262.108 157.683,261.876 157.265,259.259 157.265 C 256.600 157.265,256.410 156.885,256.410 151.567 C 256.410 146.629,256.106 145.869,254.131 145.869 C 252.190 145.869,251.852 145.109,251.852 140.741 C 251.852 136.030,251.620 135.613,249.003 135.613 C 246.344 135.613,246.154 135.233,246.154 129.915 C 246.154 124.596,245.964 124.217,243.305 124.217 C 240.688 124.217,240.456 123.799,240.456 119.088 C 240.456 114.720,240.118 113.960,238.177 113.960 C 236.235 113.960,235.897 113.200,235.897 108.832 C 235.897 104.122,235.665 103.704,233.048 103.704 C 230.389 103.704,230.199 103.324,230.199 98.006 C 230.199 92.688,230.009 92.308,227.350 92.308 C 224.734 92.308,224.501 91.890,224.501 87.179 C 224.501 82.811,224.164 82.051,222.222 82.051 C 220.281 82.051,219.943 81.292,219.943 76.923 C 219.943 72.213,219.711 71.795,217.094 71.795 C 214.435 71.795,214.245 71.415,214.245 66.097 C 214.245 61.159,213.941 60.399,211.966 60.399 C 210.446 60.399,209.687 59.639,209.687 58.120 C 209.687 56.600,210.446 55.840,211.966 55.840 C 213.485 55.840,214.245 56.600,214.245 58.120 M203.989 69.053 C 203.989 71.050,204.728 72.202,206.268 72.604 C 208.110 73.086,208.547 74.159,208.547 78.196 C 208.547 82.764,208.790 83.191,211.396 83.191 C 214.013 83.191,214.245 83.609,214.245 88.319 C 214.245 93.029,214.477 93.447,217.094 93.447 C 219.753 93.447,219.943 93.827,219.943 99.145 C 219.943 104.084,220.247 104.843,222.222 104.843 C 224.164 104.843,224.501 105.603,224.501 109.972 C 224.501 114.682,224.734 115.100,227.350 115.100 C 229.967 115.100,230.199 115.518,230.199 120.228 C 230.199 124.938,230.432 125.356,233.048 125.356 C 235.708 125.356,235.897 125.736,235.897 131.054 C 235.897 135.992,236.201 136.752,238.177 136.752 C 240.222 136.752,240.456 137.512,240.456 144.160 C 240.456 151.301,240.558 151.567,243.305 151.567 C 245.495 151.567,246.157 152.160,246.169 154.131 C 246.199 158.951,247.519 161.823,249.706 161.823 C 251.521 161.823,251.852 162.701,251.852 167.521 C 251.852 172.460,252.156 173.219,254.131 173.219 C 256.073 173.219,256.410 173.979,256.410 178.348 C 256.410 183.058,256.642 183.476,259.259 183.476 C 261.918 183.476,262.108 183.856,262.108 189.174 C 262.108 194.492,262.298 194.872,264.957 194.872 C 267.574 194.872,267.806 195.290,267.806 200.000 C 267.806 204.368,268.144 205.128,270.085 205.128 C 272.027 205.128,272.365 205.888,272.365 210.256 C 272.365 214.967,272.597 215.385,275.214 215.385 C 277.873 215.385,278.063 215.764,278.063 221.083 C 278.063 226.401,278.253 226.781,280.912 226.781 C 283.529 226.781,283.761 227.198,283.761 231.909 C 283.761 236.619,283.993 237.037,286.610 237.037 C 289.227 237.037,289.459 237.455,289.459 242.165 C 289.459 246.534,289.796 247.293,291.738 247.293 C 293.713 247.293,294.017 248.053,294.017 252.991 C 294.017 258.310,294.207 258.689,296.866 258.689 C 299.483 258.689,299.715 259.107,299.715 263.818 C 299.715 268.528,299.947 268.946,302.564 268.946 C 305.223 268.946,305.413 269.326,305.413 274.644 C 305.413 279.582,305.717 280.342,307.692 280.342 C 309.634 280.342,309.972 281.102,309.972 285.470 C 309.972 290.180,310.204 290.598,312.821 290.598 C 315.437 290.598,315.670 291.016,315.670 295.726 C 315.670 300.437,315.902 300.855,318.519 300.855 C 321.178 300.855,321.368 301.235,321.368 306.553 C 321.368 311.491,321.671 312.251,323.647 312.251 C 325.588 312.251,325.926 313.010,325.926 317.379 C 325.926 322.089,326.158 322.507,328.775 322.507 C 331.434 322.507,331.624 322.887,331.624 328.205 C 331.624 333.523,331.814 333.903,334.473 333.903 C 337.098 333.903,337.322 334.314,337.322 339.138 C 337.322 343.368,337.748 344.484,339.541 344.953 C 341.211 345.390,341.846 346.705,342.105 350.260 C 342.388 354.130,342.904 355.050,344.955 355.342 C 347.067 355.643,347.513 356.535,347.804 361.040 C 348.094 365.544,348.541 366.438,350.650 366.738 C 352.703 367.030,353.215 367.951,353.499 371.866 C 353.787 375.820,354.286 376.701,356.410 377.002 C 358.638 377.319,358.974 378.043,358.974 382.522 C 358.974 386.719,359.398 387.789,361.254 388.274 C 363.095 388.755,363.533 389.828,363.533 393.865 C 363.533 398.402,363.788 398.860,366.316 398.860 C 368.776 398.860,369.140 399.423,369.450 403.704 C 369.741 407.730,370.233 408.608,372.365 408.911 C 374.583 409.226,374.929 409.956,374.929 414.324 L 374.929 419.373 363.818 419.487 C 355.610 419.570,128.634 419.499,35.043 419.383 C 27.600 419.374,27.350 419.281,27.350 416.524 C 27.350 414.435,27.958 413.675,29.630 413.675 C 31.571 413.675,31.909 412.915,31.909 408.547 C 31.909 403.837,32.141 403.419,34.758 403.419 C 37.417 403.419,37.607 403.039,37.607 397.721 C 37.607 392.403,37.797 392.023,40.456 392.023 C 42.932 392.023,43.305 391.519,43.305 388.177 C 43.305 381.101,44.569 377.208,46.866 377.208 C 48.639 377.208,49.003 376.334,49.003 372.080 C 49.003 367.829,49.368 366.952,51.135 366.952 C 52.834 366.952,53.421 365.792,54.023 361.254 C 54.640 356.605,55.192 355.556,57.019 355.556 C 58.914 355.556,59.259 354.766,59.259 350.427 C 59.259 345.717,59.491 345.299,62.108 345.299 C 64.725 345.299,64.957 344.881,64.957 340.171 C 64.957 335.802,65.295 335.043,67.236 335.043 C 69.212 335.043,69.516 334.283,69.516 329.345 C 69.516 324.099,69.731 323.647,72.235 323.647 C 74.585 323.647,75.060 322.949,75.724 318.519 C 76.310 314.613,76.985 313.390,78.555 313.390 C 80.170 313.390,80.782 312.153,81.374 307.692 C 81.892 303.791,82.656 301.994,83.800 301.994 C 85.020 301.994,85.470 300.611,85.470 296.866 C 85.470 292.156,85.702 291.738,88.319 291.738 C 90.978 291.738,91.168 291.358,91.168 286.040 C 91.168 280.722,91.358 280.342,94.017 280.342 C 96.634 280.342,96.866 279.924,96.866 275.214 C 96.866 270.893,97.215 270.085,99.083 270.085 C 100.919 270.085,101.359 269.156,101.647 264.672 C 101.943 260.053,102.370 259.206,104.558 258.895 C 106.822 258.574,107.123 257.871,107.123 252.912 C 107.123 247.679,107.318 247.293,109.972 247.293 C 112.536 247.293,112.821 246.838,112.821 242.735 C 112.821 238.979,113.211 238.177,115.037 238.177 C 116.873 238.177,117.314 237.247,117.601 232.764 C 117.895 228.185,118.335 227.295,120.453 226.994 C 122.566 226.693,123.012 225.802,123.302 221.296 C 123.593 216.792,124.039 215.899,126.149 215.598 C 128.202 215.306,128.713 214.386,128.998 210.470 C 129.285 206.517,129.785 205.636,131.909 205.334 C 134.127 205.019,134.473 204.289,134.473 199.921 C 134.473 195.632,134.816 194.872,136.752 194.872 C 138.727 194.872,139.031 194.112,139.031 189.174 C 139.031 183.856,139.221 183.476,141.880 183.476 C 144.497 183.476,144.729 183.058,144.729 178.348 C 144.729 173.637,144.961 173.219,147.578 173.219 C 150.237 173.219,150.427 172.840,150.427 167.521 C 150.427 162.583,150.731 161.823,152.707 161.823 C 154.648 161.823,154.986 161.064,154.986 156.695 C 154.986 151.985,155.218 151.567,157.835 151.567 C 160.452 151.567,160.684 151.149,160.684 146.439 C 160.684 141.728,160.916 141.311,163.533 141.311 C 166.192 141.311,166.382 140.931,166.382 135.613 C 166.382 130.674,166.686 129.915,168.661 129.915 C 170.603 129.915,170.940 129.155,170.940 124.786 C 170.940 120.076,171.172 119.658,173.789 119.658 C 176.448 119.658,176.638 119.278,176.638 113.960 C 176.638 108.642,176.828 108.262,179.487 108.262 C 182.104 108.262,182.336 107.844,182.336 103.134 C 182.336 98.765,182.674 98.006,184.615 98.006 C 186.557 98.006,186.895 97.246,186.895 92.877 C 186.895 88.167,187.127 87.749,189.744 87.749 C 192.403 87.749,192.593 87.369,192.593 82.051 C 192.593 76.733,192.783 76.353,195.442 76.353 C 198.058 76.353,198.291 75.935,198.291 71.225 C 198.291 66.515,198.523 66.097,201.140 66.097 C 203.446 66.097,203.989 66.660,203.989 69.053 M105.128 323.311 C 101.809 323.951,101.561 328.205,104.843 328.205 C 106.920 328.205,107.123 328.965,107.123 336.752 C 107.123 345.109,107.059 345.299,104.274 345.299 C 101.446 345.299,101.425 345.375,101.425 355.556 C 101.425 365.052,101.256 365.812,99.145 365.812 C 97.204 365.812,96.866 366.572,96.866 370.940 L 96.866 376.068 102.421 376.068 L 107.976 376.068 107.401 365.985 L 106.826 355.902 111.248 355.171 C 113.680 354.770,118.618 354.435,122.222 354.428 C 127.282 354.419,128.775 354.026,128.775 352.707 C 128.775 351.668,129.835 350.997,131.477 350.997 C 133.859 350.997,134.269 350.322,134.935 345.299 C 135.453 341.397,136.218 339.601,137.361 339.601 C 138.383 339.601,139.031 338.495,139.031 336.752 C 139.031 334.663,138.424 333.903,136.752 333.903 C 134.821 333.903,134.473 333.143,134.473 328.924 C 134.473 324.056,134.378 323.929,130.199 323.239 C 125.548 322.470,109.252 322.517,105.128 323.311 M171.700 323.267 C 171.282 323.685,170.940 325.223,170.940 326.686 C 170.940 328.290,170.262 329.345,169.231 329.345 C 168.281 329.345,167.521 330.358,167.521 331.624 C 167.521 332.877,168.223 333.903,169.082 333.903 C 171.025 333.903,172.108 340.051,171.268 346.315 C 170.670 350.771,170.785 350.997,173.639 350.997 C 175.545 350.997,176.638 351.620,176.638 352.707 C 176.638 354.063,174.992 354.416,168.661 354.416 C 161.443 354.416,160.684 354.199,160.684 352.137 C 160.684 350.465,159.924 349.858,157.835 349.858 C 155.556 349.858,154.986 350.427,154.986 352.707 C 154.986 354.796,154.378 355.556,152.707 355.556 C 150.731 355.556,150.427 356.315,150.427 361.254 C 150.427 366.192,150.731 366.952,152.707 366.952 C 154.479 366.952,154.986 366.192,154.986 363.533 C 154.986 359.835,160.806 358.935,172.365 360.845 C 177.689 361.725,178.908 366.952,173.789 366.952 C 171.225 366.952,170.940 367.407,170.940 371.510 L 170.940 376.068 176.638 376.068 L 182.336 376.068 182.336 360.684 L 182.336 345.299 179.487 345.299 C 177.081 345.299,176.638 344.767,176.638 341.880 C 176.638 338.993,177.081 338.462,179.487 338.462 C 181.260 338.462,182.336 337.816,182.336 336.752 C 182.336 335.689,181.260 335.043,179.487 335.043 C 176.794 335.043,176.638 334.701,176.638 328.775 C 176.638 322.679,174.581 320.385,171.700 323.267 M206.553 323.311 C 203.289 323.940,202.975 328.205,206.192 328.205 C 207.749 328.205,208.501 329.125,208.756 331.339 C 209.014 333.583,209.845 334.576,211.681 334.837 C 213.091 335.037,214.245 335.935,214.245 336.831 C 214.245 337.810,215.383 338.462,217.094 338.462 C 219.865 338.462,219.943 338.682,219.943 346.545 C 219.943 353.611,220.224 354.703,222.173 355.212 C 224.058 355.705,224.454 356.966,224.737 363.368 C 225.040 370.234,225.310 370.974,227.635 371.304 C 229.283 371.538,230.199 372.455,230.199 373.868 C 230.199 375.455,230.993 376.068,233.048 376.068 C 235.795 376.068,235.897 375.802,235.897 368.661 C 235.897 361.519,235.795 361.254,233.048 361.254 C 230.432 361.254,230.199 360.836,230.199 356.125 C 230.199 351.415,229.967 350.997,227.350 350.997 C 224.657 350.997,224.501 350.655,224.501 344.729 C 224.501 339.221,224.225 338.462,222.222 338.462 C 220.182 338.462,219.943 337.702,219.943 331.203 L 219.943 323.945 215.670 323.239 C 211.209 322.501,210.739 322.505,206.553 323.311 M238.462 323.311 C 235.180 323.944,234.968 328.176,238.177 329.015 C 239.962 329.481,240.456 330.569,240.456 334.036 C 240.456 337.997,240.755 338.462,243.305 338.462 C 245.922 338.462,246.154 338.044,246.154 333.333 C 246.154 328.623,246.386 328.205,249.003 328.205 C 253.916 328.205,252.736 324.091,247.578 323.239 C 243.118 322.501,242.648 322.505,238.462 323.311 M265.242 323.323 C 261.014 323.964,260.766 328.205,264.957 328.205 C 267.743 328.205,267.806 328.395,267.806 336.752 C 267.806 345.109,267.743 345.299,264.957 345.299 L 262.108 345.299 262.108 357.835 L 262.108 370.370 259.259 370.370 C 256.980 370.370,256.410 370.940,256.410 373.219 L 256.410 376.068 270.085 376.068 C 283.001 376.068,283.761 375.942,283.761 373.789 C 283.761 372.118,284.520 371.510,286.610 371.510 C 288.699 371.510,289.459 370.902,289.459 369.231 C 289.459 367.711,290.218 366.952,291.738 366.952 C 293.409 366.952,294.017 366.192,294.017 364.103 C 294.017 361.823,294.587 361.254,296.866 361.254 L 299.715 361.254 299.715 344.729 L 299.715 328.205 296.866 328.205 C 294.840 328.205,294.017 327.588,294.017 326.068 C 294.017 322.843,278.305 321.344,265.242 323.323 M124.501 328.937 L 128.775 329.643 128.775 337.471 C 128.775 345.061,128.688 345.299,125.926 345.299 C 123.837 345.299,123.077 345.907,123.077 347.578 C 123.077 349.640,122.317 349.858,115.100 349.858 C 107.882 349.858,107.123 349.640,107.123 347.578 C 107.123 345.907,107.882 345.299,109.972 345.299 C 112.736 345.299,112.821 345.066,112.821 337.401 C 112.821 330.117,113.020 329.465,115.385 329.009 C 119.571 328.203,120.041 328.199,124.501 328.937 M289.459 331.054 C 289.459 333.143,290.066 333.903,291.738 333.903 C 293.857 333.903,294.017 334.663,294.017 344.729 C 294.017 354.796,293.857 355.556,291.738 355.556 C 289.796 355.556,289.459 356.315,289.459 360.684 C 289.459 365.394,289.227 365.812,286.610 365.812 C 284.520 365.812,283.761 366.420,283.761 368.091 C 283.761 370.153,283.001 370.370,275.783 370.370 L 267.806 370.370 267.806 360.577 C 267.806 351.742,268.029 350.725,270.085 350.188 C 272.147 349.649,272.365 348.633,272.365 339.544 L 272.365 329.496 275.499 329.021 C 285.480 327.509,289.459 328.089,289.459 331.054 M160.684 341.880 C 160.684 343.552,161.443 344.160,163.533 344.160 C 165.622 344.160,166.382 343.552,166.382 341.880 C 166.382 340.209,165.622 339.601,163.533 339.601 C 161.443 339.601,160.684 340.209,160.684 341.880 M235.897 347.578 C 235.897 354.796,236.115 355.556,238.177 355.556 C 240.239 355.556,240.456 354.796,240.456 347.578 C 240.456 340.361,240.239 339.601,238.177 339.601 C 236.115 339.601,235.897 340.361,235.897 347.578 M204.701 348.860 C 204.309 350.819,203.989 355.434,203.989 359.117 C 203.989 365.499,203.855 365.812,201.140 365.812 C 198.523 365.812,198.291 366.230,198.291 370.940 L 198.291 376.068 203.419 376.068 C 208.129 376.068,208.547 375.836,208.547 373.219 C 208.547 371.130,207.939 370.370,206.268 370.370 C 204.748 370.370,203.989 369.611,203.989 368.091 C 203.989 366.572,204.748 365.812,206.268 365.812 C 208.378 365.812,208.547 365.052,208.547 355.556 C 208.547 344.886,206.284 340.946,204.701 348.860 M144.729 371.510 L 144.729 376.068 149.858 376.068 C 154.568 376.068,154.986 375.836,154.986 373.219 C 154.986 371.130,154.378 370.370,152.707 370.370 C 151.440 370.370,150.427 369.611,150.427 368.661 C 150.427 367.597,149.351 366.952,147.578 366.952 C 145.014 366.952,144.729 367.407,144.729 371.510 M278.274 513.675 C 278.560 515.178,279.985 515.755,284.056 516.017 L 289.459 516.364 289.459 540.126 L 289.459 563.889 283.699 564.681 C 279.199 565.300,278.019 565.884,278.300 567.352 C 279.093 571.484,321.368 570.452,321.368 566.300 C 321.368 564.862,322.156 564.103,323.647 564.103 C 325.757 564.103,325.926 563.343,325.926 553.846 L 325.926 543.590 320.798 543.590 C 316.087 543.590,315.670 543.358,315.670 540.741 C 315.670 538.503,316.249 537.892,318.372 537.892 C 320.754 537.892,321.163 537.217,321.830 532.194 C 322.347 528.292,323.112 526.496,324.256 526.496 C 325.174 526.496,325.926 525.470,325.926 524.217 C 325.926 522.697,325.166 521.937,323.647 521.937 C 321.874 521.937,321.368 521.178,321.368 518.519 C 321.368 515.632,320.924 515.100,318.519 515.100 C 316.746 515.100,315.670 514.454,315.670 513.390 C 315.670 511.940,312.811 511.681,296.783 511.681 C 279.410 511.681,277.926 511.841,278.274 513.675 M112.821 519.088 C 112.821 521.368,112.251 521.937,109.972 521.937 C 107.228 521.937,107.123 522.209,107.123 529.265 C 107.123 535.997,106.914 536.623,104.558 536.958 C 102.370 537.269,101.943 538.116,101.647 542.735 C 101.359 547.219,100.919 548.148,99.083 548.148 C 97.098 548.148,96.866 548.983,96.866 556.125 C 96.866 563.875,96.785 564.103,94.017 564.103 C 91.738 564.103,91.168 564.672,91.168 566.952 C 91.168 569.231,90.598 569.801,88.319 569.801 C 86.040 569.801,85.470 570.370,85.470 572.650 C 85.470 575.417,85.698 575.499,93.447 575.499 C 101.197 575.499,101.425 575.417,101.425 572.650 C 101.425 570.560,100.817 569.801,99.145 569.801 C 97.474 569.801,96.866 569.041,96.866 566.952 C 96.866 564.862,97.474 564.103,99.145 564.103 C 100.665 564.103,101.425 563.343,101.425 561.823 C 101.425 559.704,102.184 559.544,112.251 559.544 C 122.317 559.544,123.077 559.704,123.077 561.823 C 123.077 563.495,123.837 564.103,125.926 564.103 C 128.205 564.103,128.775 564.672,128.775 566.952 C 128.775 569.231,128.205 569.801,125.926 569.801 C 123.647 569.801,123.077 570.370,123.077 572.650 C 123.077 575.726,129.743 576.538,140.456 574.767 C 146.486 573.770,146.391 570.358,140.306 569.385 C 135.392 568.599,134.515 567.000,134.488 558.769 C 134.475 554.702,134.098 553.951,131.909 553.641 C 129.721 553.330,129.294 552.483,128.997 547.863 C 128.684 542.976,128.379 542.450,125.863 542.450 C 123.173 542.450,123.077 542.175,123.077 534.473 C 123.077 526.724,122.996 526.496,120.228 526.496 C 117.611 526.496,117.379 526.078,117.379 521.368 C 117.379 516.999,117.041 516.239,115.100 516.239 C 113.428 516.239,112.821 516.999,112.821 519.088 M309.972 518.519 C 309.972 520.190,310.731 520.798,312.821 520.798 C 315.583 520.798,315.670 521.036,315.670 528.626 L 315.670 536.454 311.396 537.160 C 309.046 537.549,304.174 537.872,300.570 537.879 L 294.017 537.892 294.017 527.066 L 294.017 516.239 301.994 516.239 C 309.212 516.239,309.972 516.456,309.972 518.519 M117.394 536.467 C 117.416 544.067,118.403 547.009,120.931 547.009 C 125.707 547.009,123.536 552.429,118.413 553.294 C 110.718 554.594,101.425 552.981,101.425 550.345 C 101.425 548.761,102.220 548.148,104.274 548.148 C 106.933 548.148,107.123 547.768,107.123 542.450 C 107.123 537.132,107.312 536.752,109.972 536.752 C 112.251 536.752,112.821 536.182,112.821 533.903 C 112.821 531.814,113.428 531.054,115.100 531.054 C 117.057 531.054,117.381 531.819,117.394 536.467 M315.670 548.718 C 315.670 553.428,315.902 553.846,318.519 553.846 C 320.608 553.846,321.368 554.454,321.368 556.125 C 321.368 557.797,320.608 558.405,318.519 558.405 C 316.281 558.405,315.670 558.984,315.670 561.104 C 315.670 564.200,311.982 565.208,300.570 565.230 L 294.017 565.242 294.017 554.416 L 294.017 543.590 304.843 543.590 L 315.670 543.590 315.670 548.718 " stroke="none" fill="#000000" fill-rule="evenodd"></path></g></svg>