<svg id="svg" xmlns="http://www.w3.org/2000/svg" xmlns:xlink="http://www.w3.org/1999/xlink" width="400" height="490.2439024390244" viewBox="0, 0, 400,490.2439024390244"><g id="svgg"><path id="path0" d="M193.902 26.829 L 193.902 53.659 187.805 53.659 C 182.114 53.659,181.707 53.862,181.707 56.707 C 181.707 59.734,181.626 59.756,170.732 59.756 C 159.837 59.756,159.756 59.779,159.756 62.805 C 159.756 65.650,159.350 65.854,153.659 65.854 C 147.967 65.854,147.561 66.057,147.561 68.902 C 147.561 71.703,147.114 71.951,142.073 71.951 C 137.398 71.951,136.585 72.313,136.585 74.390 C 136.585 76.468,135.772 76.829,131.098 76.829 C 126.057 76.829,125.610 77.078,125.610 79.878 C 125.610 82.317,125.000 82.927,122.561 82.927 C 120.122 82.927,119.512 83.537,119.512 85.976 C 119.512 88.415,118.902 89.024,116.463 89.024 C 114.258 89.024,113.415 89.679,113.415 91.393 C 113.415 93.308,112.422 93.834,108.232 94.137 L 103.049 94.512 102.677 100.305 C 102.341 105.535,102.016 106.098,99.323 106.098 C 97.154 106.098,96.341 106.763,96.341 108.537 C 96.341 110.325,95.528 110.976,93.293 110.976 C 90.854 110.976,90.244 111.585,90.244 114.024 C 90.244 116.260,89.593 117.073,87.805 117.073 C 86.016 117.073,85.366 117.886,85.366 120.122 C 85.366 122.561,84.756 123.171,82.317 123.171 C 80.081 123.171,79.268 123.821,79.268 125.610 C 79.268 127.398,78.455 128.049,76.220 128.049 C 73.645 128.049,73.171 128.618,73.171 131.707 C 73.171 134.553,72.629 135.366,70.732 135.366 C 68.654 135.366,68.293 136.179,68.293 140.854 C 68.293 145.894,68.044 146.341,65.244 146.341 C 62.444 146.341,62.195 146.789,62.195 151.829 C 62.195 156.870,61.947 157.317,59.146 157.317 C 56.346 157.317,56.098 157.764,56.098 162.805 C 56.098 167.480,55.736 168.293,53.659 168.293 C 51.545 168.293,51.220 169.106,51.220 174.390 C 51.220 180.081,51.016 180.488,48.171 180.488 C 45.370 180.488,45.122 180.935,45.122 185.976 C 45.122 191.016,44.874 191.463,42.073 191.463 C 39.111 191.463,39.024 191.707,39.024 200.000 C 39.024 208.293,38.937 208.537,35.976 208.537 C 33.014 208.537,32.927 208.780,32.927 217.073 C 32.927 224.797,32.695 225.610,30.488 225.610 C 28.281 225.610,28.049 226.423,28.049 234.146 C 28.049 242.439,27.962 242.683,25.000 242.683 L 21.951 242.683 21.951 257.317 L 21.951 271.951 18.902 271.951 L 15.854 271.951 15.854 294.512 C 15.854 316.260,15.766 317.073,13.415 317.073 C 11.061 317.073,10.976 317.886,10.976 340.244 C 10.976 362.602,11.061 363.415,13.415 363.415 C 15.203 363.415,15.854 362.602,15.854 360.366 C 15.854 357.520,16.260 357.317,21.951 357.317 C 27.236 357.317,28.049 356.992,28.049 354.878 C 28.049 353.252,28.862 352.439,30.488 352.439 C 32.083 352.439,32.927 351.626,32.927 350.088 C 32.927 348.152,34.113 347.588,39.634 346.898 C 44.965 346.232,46.341 345.611,46.341 343.869 C 46.341 342.263,47.644 341.458,51.220 340.854 C 53.944 340.393,56.098 339.340,56.098 338.467 C 56.098 336.854,62.260 335.403,69.207 335.379 C 72.618 335.368,73.171 334.941,73.171 332.317 C 73.171 329.435,73.537 329.268,79.878 329.268 C 85.634 329.268,86.585 328.942,86.585 326.972 C 86.585 324.734,89.629 323.223,94.207 323.187 C 96.189 323.172,96.341 325.603,96.341 357.317 L 96.341 391.463 101.829 391.463 L 107.317 391.463 107.317 354.268 L 107.317 317.073 116.463 317.073 C 123.411 317.073,125.610 316.670,125.610 315.396 C 125.610 313.170,131.039 312.195,143.445 312.195 C 153.526 312.195,153.659 312.156,153.659 309.146 L 153.659 306.098 201.067 306.098 C 252.321 306.098,256.098 306.359,256.098 309.909 C 256.098 311.984,257.168 312.195,267.683 312.195 C 278.455 312.195,279.268 312.366,279.268 314.634 C 279.268 316.841,280.081 317.073,287.805 317.073 L 296.341 317.073 296.341 354.268 L 296.341 391.463 302.439 391.463 L 308.537 391.463 308.537 357.165 L 308.537 322.866 312.348 323.628 C 314.444 324.047,316.913 324.390,317.835 324.390 C 318.758 324.390,319.512 325.488,319.512 326.829 C 319.512 328.907,320.325 329.268,325.000 329.268 C 330.041 329.268,330.488 329.517,330.488 332.317 C 330.488 335.279,330.732 335.366,339.024 335.366 C 346.552 335.366,347.561 335.636,347.561 337.648 C 347.561 339.465,348.802 340.094,353.659 340.739 C 358.490 341.379,359.756 342.017,359.756 343.806 C 359.756 345.548,361.012 346.253,365.244 346.887 C 369.578 347.537,370.732 348.208,370.732 350.075 C 370.732 351.784,371.577 352.439,373.780 352.439 C 376.016 352.439,376.829 353.089,376.829 354.878 C 376.829 356.897,377.642 357.317,381.555 357.317 C 384.154 357.317,387.995 357.660,390.091 358.079 L 393.902 358.841 393.902 332.470 C 393.902 307.526,393.779 306.098,391.623 306.098 C 388.596 306.098,387.835 301.160,387.818 281.402 C 387.806 266.671,387.677 265.854,385.366 265.854 C 383.068 265.854,382.927 265.041,382.927 251.829 L 382.927 237.805 379.878 237.805 C 376.916 237.805,376.829 237.561,376.829 229.268 C 376.829 220.976,376.742 220.732,373.780 220.732 C 370.819 220.732,370.732 220.488,370.732 212.195 C 370.732 203.902,370.645 203.659,367.683 203.659 C 364.726 203.659,364.634 203.405,364.634 195.264 C 364.634 187.895,364.336 186.792,362.195 186.232 C 360.266 185.727,359.756 184.569,359.756 180.687 C 359.756 176.526,359.339 175.720,357.012 175.390 C 355.048 175.111,354.159 174.048,353.882 171.646 C 353.619 169.360,352.791 168.293,351.281 168.293 C 349.027 168.293,347.608 165.140,347.578 160.061 C 347.566 158.136,346.833 157.317,345.122 157.317 C 343.044 157.317,342.683 156.504,342.683 151.829 C 342.683 146.789,342.435 146.341,339.634 146.341 C 336.789 146.341,336.585 145.935,336.585 140.244 C 336.585 134.553,336.382 134.146,333.537 134.146 C 331.098 134.146,330.488 133.537,330.488 131.098 C 330.488 128.862,329.837 128.049,328.049 128.049 C 326.423 128.049,325.610 127.236,325.610 125.610 C 325.610 123.821,324.797 123.171,322.561 123.171 C 319.715 123.171,319.512 122.764,319.512 117.073 C 319.512 111.382,319.309 110.976,316.463 110.976 C 314.228 110.976,313.415 110.325,313.415 108.537 C 313.415 106.911,312.602 106.098,310.976 106.098 C 309.187 106.098,308.537 105.285,308.537 103.049 C 308.537 100.610,307.927 100.000,305.488 100.000 C 303.049 100.000,302.439 99.390,302.439 96.951 C 302.439 94.512,301.829 93.902,299.390 93.902 C 297.154 93.902,296.341 93.252,296.341 91.463 C 296.341 89.386,295.528 89.024,290.854 89.024 C 285.813 89.024,285.366 88.776,285.366 85.976 C 285.366 83.537,284.756 82.927,282.317 82.927 C 279.878 82.927,279.268 82.317,279.268 79.878 C 279.268 77.149,278.771 76.829,274.532 76.829 C 270.822 76.829,269.659 76.301,269.159 74.390 C 268.640 72.405,267.495 71.951,263.004 71.951 C 258.211 71.951,257.436 71.591,257.097 69.207 C 256.764 66.866,255.858 66.409,250.915 66.092 C 245.685 65.756,245.122 65.430,245.122 62.738 C 245.122 59.784,245.012 59.756,233.537 59.756 C 221.992 59.756,221.951 59.745,221.951 56.707 C 221.951 53.746,221.707 53.659,213.415 53.659 L 204.878 53.659 204.878 26.829 L 204.878 0.000 199.390 0.000 L 193.902 0.000 193.902 26.829 M187.805 71.341 C 187.805 76.382,187.556 76.829,184.756 76.829 C 181.911 76.829,181.707 77.236,181.707 82.927 C 181.707 88.211,181.382 89.024,179.268 89.024 C 177.642 89.024,176.829 89.837,176.829 91.463 C 176.829 93.252,176.016 93.902,173.780 93.902 C 170.935 93.902,170.732 94.309,170.732 100.000 C 170.732 105.691,170.528 106.098,167.683 106.098 C 165.510 106.098,164.634 106.757,164.634 108.394 C 164.634 109.666,163.545 110.976,162.195 111.329 C 160.203 111.850,159.756 112.992,159.756 117.569 C 159.756 122.731,159.517 123.171,156.707 123.171 C 153.907 123.171,153.659 123.618,153.659 128.659 C 153.659 133.699,153.410 134.146,150.610 134.146 C 148.171 134.146,147.561 134.756,147.561 137.195 C 147.561 139.431,146.911 140.244,145.122 140.244 C 143.044 140.244,142.683 141.057,142.683 145.732 C 142.683 150.772,142.435 151.220,139.634 151.220 C 137.195 151.220,136.585 151.829,136.585 154.268 C 136.585 156.707,135.976 157.317,133.537 157.317 C 130.736 157.317,130.488 157.764,130.488 162.805 C 130.488 167.480,130.126 168.293,128.049 168.293 C 126.260 168.293,125.610 169.106,125.610 171.341 C 125.610 173.780,125.000 174.390,122.561 174.390 C 119.761 174.390,119.512 174.837,119.512 179.878 C 119.512 184.919,119.264 185.366,116.463 185.366 C 113.618 185.366,113.415 185.772,113.415 191.463 C 113.415 197.154,113.211 197.561,110.366 197.561 C 107.927 197.561,107.317 198.171,107.317 200.610 C 107.317 202.846,106.667 203.659,104.878 203.659 C 102.800 203.659,102.439 204.472,102.439 209.146 C 102.439 214.187,102.191 214.634,99.390 214.634 C 96.951 214.634,96.341 215.244,96.341 217.683 C 96.341 220.122,95.732 220.732,93.293 220.732 C 90.492 220.732,90.244 221.179,90.244 226.220 C 90.244 230.894,89.883 231.707,87.805 231.707 C 85.908 231.707,85.366 232.520,85.366 235.366 C 85.366 238.204,84.822 239.024,82.941 239.024 C 81.056 239.024,80.343 240.109,79.737 243.902 C 79.081 248.003,78.496 248.780,76.064 248.780 C 73.448 248.780,73.171 249.306,73.171 254.268 C 73.171 258.943,72.809 259.756,70.732 259.756 C 68.943 259.756,68.293 260.569,68.293 262.805 C 68.293 265.244,67.683 265.854,65.244 265.854 C 62.398 265.854,62.195 266.260,62.195 271.951 C 62.195 277.642,61.992 278.049,59.146 278.049 C 56.707 278.049,56.098 278.659,56.098 281.098 C 56.098 283.333,55.447 284.146,53.659 284.146 C 51.581 284.146,51.220 284.959,51.220 289.634 C 51.220 294.675,50.971 295.122,48.171 295.122 C 45.370 295.122,45.122 295.569,45.122 300.610 C 45.122 305.650,44.874 306.098,42.073 306.098 C 39.634 306.098,39.024 306.707,39.024 309.146 C 39.024 311.585,38.415 312.195,35.976 312.195 C 33.175 312.195,32.927 312.642,32.927 317.683 C 32.927 322.358,32.565 323.171,30.488 323.171 C 28.699 323.171,28.049 323.984,28.049 326.220 C 28.049 328.659,27.439 329.268,25.000 329.268 C 22.154 329.268,21.951 328.862,21.951 323.171 C 21.951 317.480,22.154 317.073,25.000 317.073 L 28.049 317.073 28.049 295.122 C 28.049 273.984,28.139 273.171,30.488 273.171 C 32.797 273.171,32.927 272.358,32.927 257.927 L 32.927 242.683 35.976 242.683 C 38.937 242.683,39.024 242.439,39.024 234.146 C 39.024 225.854,39.111 225.610,42.073 225.610 C 45.035 225.610,45.122 225.366,45.122 217.073 C 45.122 208.780,45.209 208.537,48.171 208.537 C 50.971 208.537,51.220 208.089,51.220 203.049 C 51.220 198.374,51.581 197.561,53.659 197.561 C 55.847 197.561,56.098 196.748,56.098 189.634 C 56.098 182.037,56.222 181.707,59.083 181.707 C 61.824 181.707,62.098 181.184,62.436 175.305 C 62.757 169.727,63.158 168.852,65.549 168.513 C 67.923 168.176,68.293 167.395,68.293 162.720 C 68.293 158.130,68.660 157.317,70.732 157.317 C 72.520 157.317,73.171 156.504,73.171 154.268 C 73.171 151.829,73.780 151.220,76.220 151.220 C 79.020 151.220,79.268 150.772,79.268 145.732 C 79.268 140.691,79.517 140.244,82.317 140.244 C 84.756 140.244,85.366 139.634,85.366 137.195 C 85.366 134.959,86.016 134.146,87.805 134.146 C 89.593 134.146,90.244 133.333,90.244 131.098 C 90.244 128.659,90.854 128.049,93.293 128.049 C 96.093 128.049,96.341 127.602,96.341 122.561 C 96.341 117.520,96.590 117.073,99.390 117.073 C 101.829 117.073,102.439 116.463,102.439 114.024 C 102.439 111.789,103.089 110.976,104.878 110.976 C 106.504 110.976,107.317 110.163,107.317 108.537 C 107.317 106.748,108.130 106.098,110.366 106.098 C 112.805 106.098,113.415 105.488,113.415 103.049 C 113.415 100.203,113.821 100.000,119.512 100.000 C 125.203 100.000,125.610 99.797,125.610 96.951 C 125.610 94.715,126.260 93.902,128.049 93.902 C 129.675 93.902,130.488 93.089,130.488 91.463 C 130.488 89.675,131.301 89.024,133.537 89.024 C 135.976 89.024,136.585 88.415,136.585 85.976 C 136.585 83.175,137.033 82.927,142.073 82.927 C 147.114 82.927,147.561 82.678,147.561 79.878 C 147.561 76.996,147.927 76.829,154.268 76.829 C 159.166 76.829,160.976 76.374,160.976 75.142 C 160.976 72.914,164.799 71.988,174.085 71.968 C 181.398 71.952,181.707 71.827,181.707 68.902 C 181.707 66.463,182.317 65.854,184.756 65.854 C 187.556 65.854,187.805 66.301,187.805 71.341 M221.951 68.902 C 221.951 71.941,221.992 71.951,233.537 71.951 C 244.309 71.951,245.122 72.122,245.122 74.390 C 245.122 76.468,245.935 76.829,250.610 76.829 C 255.650 76.829,256.098 77.078,256.098 79.878 C 256.098 82.724,256.504 82.927,262.195 82.927 C 267.886 82.927,268.293 83.130,268.293 85.976 C 268.293 88.211,268.943 89.024,270.732 89.024 C 272.358 89.024,273.171 89.837,273.171 91.463 C 273.171 93.577,273.984 93.902,279.268 93.902 C 284.959 93.902,285.366 94.106,285.366 96.951 C 285.366 99.390,285.976 100.000,288.415 100.000 C 290.854 100.000,291.463 100.610,291.463 103.049 C 291.463 105.285,292.114 106.098,293.902 106.098 C 295.528 106.098,296.341 106.911,296.341 108.537 C 296.341 110.325,297.154 110.976,299.390 110.976 C 301.829 110.976,302.439 111.585,302.439 114.024 C 302.439 116.463,303.049 117.073,305.488 117.073 C 307.927 117.073,308.537 117.683,308.537 120.122 C 308.537 122.358,309.187 123.171,310.976 123.171 C 313.053 123.171,313.415 123.984,313.415 128.659 C 313.415 133.699,313.663 134.146,316.463 134.146 C 318.902 134.146,319.512 134.756,319.512 137.195 C 319.512 139.634,320.122 140.244,322.561 140.244 C 325.000 140.244,325.610 140.854,325.610 143.293 C 325.610 145.528,326.260 146.341,328.049 146.341 C 330.126 146.341,330.488 147.154,330.488 151.829 C 330.488 156.870,330.736 157.317,333.537 157.317 C 336.337 157.317,336.585 157.764,336.585 162.805 C 336.585 167.846,336.834 168.293,339.634 168.293 C 342.480 168.293,342.683 168.699,342.683 174.390 C 342.683 179.675,343.008 180.488,345.122 180.488 C 347.200 180.488,347.561 181.301,347.561 185.976 C 347.561 191.016,347.809 191.463,350.610 191.463 C 353.571 191.463,353.659 191.707,353.659 200.000 C 353.659 208.293,353.746 208.537,356.707 208.537 C 359.669 208.537,359.756 208.780,359.756 217.073 C 359.756 224.797,359.988 225.610,362.195 225.610 C 364.402 225.610,364.634 226.423,364.634 234.146 C 364.634 242.439,364.721 242.683,367.683 242.683 C 370.721 242.683,370.732 242.724,370.732 254.268 C 370.732 265.813,370.742 265.854,373.780 265.854 L 376.829 265.854 376.829 279.116 C 376.829 295.740,377.607 300.000,380.640 300.000 C 382.771 300.000,382.927 301.206,382.927 317.683 L 382.927 335.366 379.878 335.366 C 377.033 335.366,376.829 334.959,376.829 329.268 C 376.829 323.577,376.626 323.171,373.780 323.171 C 371.341 323.171,370.732 322.561,370.732 320.122 C 370.732 317.683,370.122 317.073,367.683 317.073 C 364.883 317.073,364.634 316.626,364.634 311.585 C 364.634 306.911,364.273 306.098,362.195 306.098 C 360.407 306.098,359.756 305.285,359.756 303.049 C 359.756 300.876,359.096 300.000,357.459 300.000 C 355.119 300.000,353.706 296.927,353.675 291.768 C 353.662 289.659,352.954 289.024,350.610 289.024 C 347.866 289.024,347.561 288.537,347.561 284.146 C 347.561 280.081,347.154 279.268,345.122 279.268 C 343.225 279.268,342.683 278.455,342.683 275.610 C 342.683 272.520,342.209 271.951,339.634 271.951 C 336.789 271.951,336.585 271.545,336.585 265.854 C 336.585 260.163,336.382 259.756,333.537 259.756 C 331.301 259.756,330.488 259.106,330.488 257.317 C 330.488 255.691,329.675 254.878,328.049 254.878 C 325.935 254.878,325.610 254.065,325.610 248.780 C 325.610 243.089,325.407 242.683,322.561 242.683 C 320.325 242.683,319.512 242.033,319.512 240.244 C 319.512 238.455,318.699 237.805,316.463 237.805 C 313.618 237.805,313.415 237.398,313.415 231.707 C 313.415 226.423,313.089 225.610,310.976 225.610 C 308.898 225.610,308.537 224.797,308.537 220.122 C 308.537 215.081,308.288 214.634,305.488 214.634 C 303.049 214.634,302.439 214.024,302.439 211.585 C 302.439 209.146,301.829 208.537,299.390 208.537 C 296.590 208.537,296.341 208.089,296.341 203.049 C 296.341 198.374,295.980 197.561,293.902 197.561 C 292.114 197.561,291.463 196.748,291.463 194.512 C 291.463 192.309,290.808 191.463,289.099 191.463 C 287.232 191.463,286.562 190.310,285.912 185.976 C 285.201 181.234,284.693 180.488,282.179 180.488 C 279.549 180.488,279.268 179.966,279.268 175.085 C 279.268 170.410,278.898 169.629,276.524 169.292 C 274.761 169.042,273.641 167.922,273.391 166.159 C 273.140 164.395,272.160 163.415,270.647 163.415 C 268.635 163.415,268.293 162.528,268.293 157.317 C 268.293 151.626,268.089 151.220,265.244 151.220 C 263.008 151.220,262.195 150.569,262.195 148.780 C 262.195 146.992,261.382 146.341,259.146 146.341 C 256.301 146.341,256.098 145.935,256.098 140.244 C 256.098 134.959,255.772 134.146,253.659 134.146 C 251.870 134.146,251.220 133.333,251.220 131.098 C 251.220 128.659,250.610 128.049,248.171 128.049 C 245.370 128.049,245.122 127.602,245.122 122.561 C 245.122 117.520,244.874 117.073,242.073 117.073 C 239.273 117.073,239.024 116.626,239.024 111.585 C 239.024 106.911,238.663 106.098,236.585 106.098 C 234.797 106.098,234.146 105.285,234.146 103.049 C 234.146 100.610,233.537 100.000,231.098 100.000 C 228.297 100.000,228.049 99.553,228.049 94.512 C 228.049 89.472,227.800 89.024,225.000 89.024 C 222.561 89.024,221.951 88.415,221.951 85.976 C 221.951 83.740,221.301 82.927,219.512 82.927 C 217.435 82.927,217.073 82.114,217.073 77.439 C 217.073 72.398,216.825 71.951,214.024 71.951 C 211.585 71.951,210.976 71.341,210.976 68.902 C 210.976 66.102,211.423 65.854,216.463 65.854 C 221.504 65.854,221.951 66.102,221.951 68.902 M204.878 79.878 C 204.878 82.317,205.488 82.927,207.927 82.927 C 210.727 82.927,210.976 83.374,210.976 88.415 C 210.976 93.455,211.224 93.902,214.024 93.902 C 216.463 93.902,217.073 94.512,217.073 96.951 C 217.073 99.187,217.724 100.000,219.512 100.000 C 221.590 100.000,221.951 100.813,221.951 105.488 C 221.951 110.489,222.215 110.976,224.919 110.976 C 227.250 110.976,227.970 111.695,228.273 114.329 C 228.549 116.730,229.438 117.794,231.402 118.073 C 233.716 118.401,234.146 119.213,234.146 123.256 C 234.146 127.236,234.560 128.049,236.585 128.049 C 238.699 128.049,239.024 128.862,239.024 134.146 C 239.024 139.837,239.228 140.244,242.073 140.244 C 244.512 140.244,245.122 140.854,245.122 143.293 C 245.122 145.732,245.732 146.341,248.171 146.341 C 250.971 146.341,251.220 146.789,251.220 151.829 C 251.220 156.504,251.581 157.317,253.659 157.317 C 255.556 157.317,256.098 158.130,256.098 160.976 C 256.098 164.065,256.572 164.634,259.146 164.634 C 261.890 164.634,262.195 165.122,262.195 169.512 C 262.195 173.902,262.500 174.390,265.244 174.390 C 268.044 174.390,268.293 174.837,268.293 179.878 C 268.293 184.553,268.654 185.366,270.732 185.366 C 272.520 185.366,273.171 186.179,273.171 188.415 C 273.171 190.854,273.780 191.463,276.220 191.463 C 279.065 191.463,279.268 191.870,279.268 197.561 C 279.268 203.252,279.472 203.659,282.317 203.659 C 284.553 203.659,285.366 204.309,285.366 206.098 C 285.366 207.886,286.179 208.537,288.415 208.537 C 291.260 208.537,291.463 208.943,291.463 214.634 C 291.463 219.796,291.816 220.732,293.764 220.732 C 295.556 220.732,296.247 221.946,296.887 226.220 C 297.537 230.554,298.208 231.707,300.075 231.707 C 301.784 231.707,302.439 232.552,302.439 234.756 C 302.439 237.195,303.049 237.805,305.488 237.805 C 308.288 237.805,308.537 238.252,308.537 243.293 C 308.537 247.967,308.898 248.780,310.976 248.780 C 312.764 248.780,313.415 249.593,313.415 251.829 C 313.415 254.268,314.024 254.878,316.463 254.878 C 319.264 254.878,319.512 255.325,319.512 260.366 C 319.512 265.407,319.761 265.854,322.561 265.854 C 325.029 265.854,325.610 266.456,325.610 269.017 C 325.610 271.154,326.401 272.386,328.049 272.817 C 329.960 273.317,330.488 274.481,330.488 278.191 C 330.488 282.361,330.833 282.927,333.379 282.927 C 335.929 282.927,336.367 283.649,337.080 289.024 C 337.740 293.999,338.330 295.122,340.286 295.122 C 341.870 295.122,342.683 295.949,342.683 297.561 C 342.683 299.187,343.496 300.000,345.122 300.000 C 347.236 300.000,347.561 300.813,347.561 306.098 C 347.561 311.789,347.764 312.195,350.610 312.195 C 352.846 312.195,353.659 312.846,353.659 314.634 C 353.659 316.423,354.472 317.073,356.707 317.073 C 359.553 317.073,359.756 317.480,359.756 323.171 C 359.756 328.455,360.081 329.268,362.195 329.268 C 363.984 329.268,364.634 330.081,364.634 332.317 C 364.634 334.553,363.984 335.366,362.195 335.366 C 360.407 335.366,359.756 334.553,359.756 332.317 C 359.756 329.472,359.350 329.268,353.659 329.268 C 347.967 329.268,347.561 329.065,347.561 326.220 C 347.561 323.419,347.114 323.171,342.073 323.171 C 337.033 323.171,336.585 322.922,336.585 320.122 C 336.585 317.160,336.341 317.073,328.049 317.073 C 320.325 317.073,319.512 316.841,319.512 314.634 C 319.512 312.427,318.699 312.195,310.976 312.195 C 302.683 312.195,302.439 312.108,302.439 309.146 C 302.439 306.108,302.398 306.098,290.854 306.098 C 279.309 306.098,279.268 306.087,279.268 303.049 C 279.268 300.011,279.228 300.000,267.683 300.000 C 258.666 300.000,256.098 299.628,256.098 298.323 C 256.098 295.476,250.019 295.122,201.067 295.122 C 154.735 295.122,153.659 295.176,153.659 297.521 C 153.659 299.744,152.653 299.945,139.939 300.265 C 126.760 300.596,126.204 300.718,125.830 303.354 C 125.457 305.978,124.938 306.098,113.940 306.098 C 102.485 306.098,102.439 306.110,102.439 309.146 C 102.439 312.108,102.195 312.195,93.902 312.195 C 86.179 312.195,85.366 312.427,85.366 314.634 C 85.366 316.841,84.553 317.073,76.829 317.073 C 68.537 317.073,68.293 317.160,68.293 320.122 C 68.293 322.967,67.886 323.171,62.195 323.171 C 56.504 323.171,56.098 323.374,56.098 326.220 C 56.098 329.020,55.650 329.268,50.610 329.268 C 45.569 329.268,45.122 329.517,45.122 332.317 C 45.122 334.756,44.512 335.366,42.073 335.366 C 39.228 335.366,39.024 334.959,39.024 329.268 C 39.024 323.577,39.228 323.171,42.073 323.171 C 44.512 323.171,45.122 322.561,45.122 320.122 C 45.122 317.683,45.732 317.073,48.171 317.073 C 50.971 317.073,51.220 316.626,51.220 311.585 C 51.220 307.035,51.610 306.098,53.503 306.098 C 55.223 306.098,55.978 304.896,56.566 301.220 C 57.173 297.426,57.885 296.341,59.771 296.341 C 61.652 296.341,62.195 295.521,62.195 292.683 C 62.195 289.593,62.669 289.024,65.244 289.024 C 67.999 289.024,68.293 288.544,68.293 284.032 C 68.293 280.066,68.794 278.909,70.732 278.402 C 72.310 277.989,73.171 276.739,73.171 274.858 C 73.171 272.570,73.820 271.951,76.220 271.951 C 79.065 271.951,79.268 271.545,79.268 265.854 C 79.268 260.163,79.472 259.756,82.317 259.756 C 84.553 259.756,85.366 259.106,85.366 257.317 C 85.366 255.691,86.179 254.878,87.805 254.878 C 89.919 254.878,90.244 254.065,90.244 248.780 C 90.244 243.089,90.447 242.683,93.293 242.683 C 96.037 242.683,96.341 242.195,96.341 237.805 C 96.341 233.415,96.646 232.927,99.390 232.927 C 101.965 232.927,102.439 232.358,102.439 229.268 C 102.439 226.423,102.981 225.610,104.878 225.610 C 106.956 225.610,107.317 224.797,107.317 220.122 C 107.317 215.081,107.565 214.634,110.366 214.634 C 112.805 214.634,113.415 214.024,113.415 211.585 C 113.415 209.146,114.024 208.537,116.463 208.537 C 119.264 208.537,119.512 208.089,119.512 203.049 C 119.512 198.008,119.761 197.561,122.561 197.561 C 125.000 197.561,125.610 196.951,125.610 194.512 C 125.610 192.276,126.260 191.463,128.049 191.463 C 130.126 191.463,130.488 190.650,130.488 185.976 C 130.488 180.935,130.736 180.488,133.537 180.488 C 136.337 180.488,136.585 180.041,136.585 175.000 C 136.585 169.959,136.834 169.512,139.634 169.512 C 142.073 169.512,142.683 168.902,142.683 166.463 C 142.683 164.228,143.333 163.415,145.122 163.415 C 147.236 163.415,147.561 162.602,147.561 157.317 C 147.561 151.626,147.764 151.220,150.610 151.220 C 152.846 151.220,153.659 150.569,153.659 148.780 C 153.659 146.992,154.472 146.341,156.707 146.341 C 159.553 146.341,159.756 145.935,159.756 140.244 C 159.756 134.959,160.081 134.146,162.195 134.146 C 163.984 134.146,164.634 133.333,164.634 131.098 C 164.634 128.659,165.244 128.049,167.683 128.049 C 170.483 128.049,170.732 127.602,170.732 122.561 C 170.732 117.520,170.980 117.073,173.780 117.073 C 176.581 117.073,176.829 116.626,176.829 111.585 C 176.829 106.911,177.191 106.098,179.268 106.098 C 181.057 106.098,181.707 105.285,181.707 103.049 C 181.707 100.610,182.317 100.000,184.756 100.000 C 187.556 100.000,187.805 99.553,187.805 94.512 C 187.805 89.472,188.053 89.024,190.854 89.024 C 193.293 89.024,193.902 88.415,193.902 85.976 C 193.902 83.740,194.553 82.927,196.341 82.927 C 198.130 82.927,198.780 82.114,198.780 79.878 C 198.780 77.439,199.390 76.829,201.829 76.829 C 204.268 76.829,204.878 77.439,204.878 79.878 M140.549 209.397 C 136.997 210.081,136.732 214.634,140.244 214.634 C 142.451 214.634,142.683 215.447,142.683 223.171 C 142.683 231.463,142.596 231.707,139.634 231.707 C 136.596 231.707,136.585 231.748,136.585 243.293 C 136.585 254.837,136.575 254.878,133.537 254.878 C 130.736 254.878,130.488 255.325,130.488 260.366 L 130.488 265.854 139.024 265.854 C 146.748 265.854,147.561 265.621,147.561 263.415 C 147.561 261.789,146.748 260.976,145.122 260.976 C 142.900 260.976,142.683 260.163,142.683 251.829 L 142.683 242.683 153.659 242.683 C 163.821 242.683,164.634 242.502,164.634 240.244 C 164.634 238.455,165.447 237.805,167.683 237.805 C 170.122 237.805,170.732 237.195,170.732 234.756 C 170.732 232.317,171.341 231.707,173.780 231.707 C 176.720 231.707,176.829 231.423,176.829 223.780 C 176.829 216.138,176.720 215.854,173.780 215.854 C 171.206 215.854,170.732 215.285,170.732 212.195 L 170.732 208.537 157.012 208.703 C 149.466 208.794,142.058 209.107,140.549 209.397 M198.780 211.585 C 198.780 213.821,198.130 214.634,196.341 214.634 C 194.553 214.634,193.902 215.447,193.902 217.683 C 193.902 220.122,193.293 220.732,190.854 220.732 C 188.008 220.732,187.805 221.138,187.805 226.829 C 187.805 232.050,187.465 232.927,185.441 232.927 C 180.526 232.927,180.158 255.181,185.061 255.878 C 187.375 256.206,187.805 257.018,187.805 261.060 L 187.805 265.854 199.390 265.854 C 210.935 265.854,210.976 265.843,210.976 262.805 C 210.976 260.366,211.585 259.756,214.024 259.756 C 216.260 259.756,217.073 259.106,217.073 257.317 C 217.073 255.740,217.886 254.878,219.374 254.878 C 221.165 254.878,221.856 253.664,222.497 249.390 C 223.147 245.056,223.817 243.902,225.684 243.902 C 227.893 243.902,228.049 242.935,228.049 229.268 L 228.049 214.634 225.000 214.634 C 222.561 214.634,221.951 214.024,221.951 211.585 C 221.951 208.547,221.911 208.537,210.366 208.537 C 198.821 208.537,198.780 208.547,198.780 211.585 M248.476 209.410 C 243.951 210.096,243.686 214.634,248.171 214.634 C 251.152 214.634,251.220 214.837,251.220 223.780 C 251.220 231.911,250.965 232.927,248.933 232.927 C 246.212 232.927,245.122 237.157,245.122 247.713 C 245.122 254.543,244.979 254.878,242.073 254.878 C 239.273 254.878,239.024 255.325,239.024 260.366 L 239.024 265.854 245.122 265.854 L 251.220 265.854 251.220 254.268 L 251.220 242.683 256.707 242.683 C 261.748 242.683,262.195 242.931,262.195 245.732 C 262.195 248.171,262.805 248.780,265.244 248.780 C 268.206 248.780,268.293 249.024,268.293 257.317 L 268.293 265.854 273.780 265.854 C 278.821 265.854,279.268 265.605,279.268 262.805 C 279.268 260.366,278.659 259.756,276.220 259.756 C 273.193 259.756,273.171 259.675,273.171 248.780 C 273.171 237.886,273.193 237.805,276.220 237.805 C 278.659 237.805,279.268 237.195,279.268 234.756 C 279.268 232.317,279.878 231.707,282.317 231.707 C 285.279 231.707,285.366 231.463,285.366 223.171 C 285.366 214.878,285.279 214.634,282.317 214.634 C 279.878 214.634,279.268 214.024,279.268 211.585 L 279.268 208.537 265.549 208.719 C 258.003 208.820,250.320 209.131,248.476 209.410 M164.634 223.780 C 164.634 232.114,164.417 232.927,162.195 232.927 C 160.569 232.927,159.756 233.740,159.756 235.366 C 159.756 237.480,158.943 237.805,153.659 237.805 L 147.561 237.805 147.561 226.220 L 147.561 214.634 156.098 214.634 L 164.634 214.634 164.634 223.780 M217.073 217.683 C 217.073 219.919,217.724 220.732,219.512 220.732 C 221.734 220.732,221.951 221.545,221.951 229.878 C 221.951 236.852,221.551 239.024,220.264 239.024 C 218.497 239.024,217.118 242.600,217.090 247.256 C 217.077 249.365,216.368 250.000,214.024 250.000 C 211.280 250.000,210.976 250.488,210.976 254.878 L 210.976 259.756 202.439 259.756 C 194.715 259.756,193.902 259.524,193.902 257.317 C 193.902 255.528,193.089 254.878,190.854 254.878 C 188.008 254.878,187.805 254.472,187.805 248.780 C 187.805 243.089,188.008 242.683,190.854 242.683 C 193.815 242.683,193.902 242.439,193.902 234.146 C 193.902 226.423,194.135 225.610,196.341 225.610 C 197.967 225.610,198.780 224.797,198.780 223.171 C 198.780 221.382,199.593 220.732,201.829 220.732 C 204.268 220.732,204.878 220.122,204.878 217.683 C 204.878 214.837,205.285 214.634,210.976 214.634 C 216.667 214.634,217.073 214.837,217.073 217.683 M273.171 226.220 L 273.171 237.805 264.634 237.805 L 256.098 237.805 256.098 226.220 L 256.098 214.634 264.634 214.634 L 273.171 214.634 273.171 226.220 M96.341 412.195 C 96.341 413.984,95.528 414.634,93.293 414.634 C 90.404 414.634,90.244 414.992,90.244 421.456 L 90.244 428.278 96.341 427.439 L 102.439 426.600 102.439 435.251 C 102.439 443.089,102.668 443.902,104.878 443.902 C 106.504 443.902,107.317 444.715,107.317 446.341 C 107.317 448.600,106.504 448.780,96.341 448.780 C 86.179 448.780,85.366 448.600,85.366 446.341 C 85.366 444.715,86.179 443.902,87.805 443.902 C 89.919 443.902,90.244 443.089,90.244 437.805 C 90.244 432.520,89.919 431.707,87.805 431.707 C 85.691 431.707,85.366 432.520,85.366 437.805 C 85.366 443.496,85.163 443.902,82.317 443.902 C 79.355 443.902,79.268 444.146,79.268 452.439 C 79.268 460.732,79.181 460.976,76.220 460.976 C 73.780 460.976,73.171 461.585,73.171 464.024 C 73.171 466.260,72.520 467.073,70.732 467.073 C 69.106 467.073,68.293 467.886,68.293 469.512 C 68.293 471.719,69.106 471.951,76.829 471.951 C 84.553 471.951,85.366 471.719,85.366 469.512 C 85.366 467.724,84.553 467.073,82.317 467.073 C 79.878 467.073,79.268 466.463,79.268 464.024 C 79.268 461.585,79.878 460.976,82.317 460.976 C 84.756 460.976,85.366 460.366,85.366 457.927 C 85.366 454.901,85.447 454.878,96.341 454.878 C 107.236 454.878,107.317 454.901,107.317 457.927 C 107.317 460.366,107.927 460.976,110.366 460.976 C 112.805 460.976,113.415 461.585,113.415 464.024 C 113.415 466.463,112.805 467.073,110.366 467.073 C 108.130 467.073,107.317 467.724,107.317 469.512 C 107.317 471.780,108.130 471.951,118.902 471.951 C 129.675 471.951,130.488 471.780,130.488 469.512 C 130.488 467.493,129.675 467.073,125.762 467.073 C 120.473 467.073,119.512 465.080,119.512 454.116 C 119.512 449.238,119.251 448.780,116.463 448.780 C 113.524 448.780,113.415 448.496,113.415 440.854 C 113.415 433.211,113.305 432.927,110.366 432.927 C 107.520 432.927,107.317 432.520,107.317 426.829 C 107.317 421.545,106.992 420.732,104.878 420.732 C 102.800 420.732,102.439 419.919,102.439 415.244 C 102.439 410.203,102.191 409.756,99.390 409.756 C 97.154 409.756,96.341 410.407,96.341 412.195 M279.268 417.683 C 279.268 420.528,279.675 420.732,285.366 420.732 L 291.463 420.732 291.463 446.341 L 291.463 471.951 285.366 471.951 C 279.675 471.951,279.268 472.154,279.268 475.000 L 279.268 478.049 302.439 478.049 L 325.610 478.049 325.610 475.000 C 325.610 472.764,326.260 471.951,328.049 471.951 C 330.256 471.951,330.488 471.138,330.488 463.415 C 330.488 455.691,330.256 454.878,328.049 454.878 C 326.260 454.878,325.610 454.065,325.610 451.829 C 325.610 449.390,325.000 448.780,322.561 448.780 C 320.325 448.780,319.512 448.130,319.512 446.341 C 319.512 444.553,320.325 443.902,322.561 443.902 C 325.000 443.902,325.610 443.293,325.610 440.854 C 325.610 438.618,326.260 437.805,328.049 437.805 C 329.837 437.805,330.488 436.992,330.488 434.756 C 330.488 432.973,329.787 431.707,328.801 431.707 C 327.034 431.707,325.655 428.131,325.626 423.476 C 325.614 421.366,324.905 420.732,322.561 420.732 C 320.122 420.732,319.512 420.122,319.512 417.683 L 319.512 414.634 299.390 414.634 L 279.268 414.634 279.268 417.683 M313.415 423.780 C 313.415 426.220,314.024 426.829,316.463 426.829 C 319.425 426.829,319.512 427.073,319.512 435.366 L 319.512 443.902 307.927 443.902 L 296.341 443.902 296.341 432.317 L 296.341 420.732 304.878 420.732 C 313.171 420.732,313.415 420.819,313.415 423.780 M315.544 449.511 C 319.053 450.213,319.222 450.548,319.816 457.942 C 320.950 472.076,321.057 471.951,307.785 471.951 L 296.341 471.951 296.341 460.366 L 296.341 448.780 304.116 448.780 C 308.392 448.780,313.534 449.109,315.544 449.511 " stroke="none" fill="#000000" fill-rule="evenodd"></path></g></svg>