<svg id="svg" xmlns="http://www.w3.org/2000/svg" xmlns:xlink="http://www.w3.org/1999/xlink" width="400" height="378.9473684210526" viewBox="0, 0, 400,378.9473684210526"><g id="svgg"><path id="path0" d="M197.571 22.672 L 197.571 45.344 100.810 45.344 L 4.049 45.344 4.049 157.490 L 4.049 269.636 38.462 269.636 L 72.874 269.636 72.874 294.332 L 72.874 319.028 76.518 319.028 L 80.162 319.028 80.162 294.332 L 80.162 269.636 138.866 269.636 L 197.571 269.636 197.571 294.332 L 197.571 319.028 201.619 319.028 L 205.668 319.028 205.668 294.332 L 205.668 269.636 262.348 269.636 L 319.028 269.636 319.028 294.332 L 319.028 319.028 323.077 319.028 L 327.126 319.028 327.126 294.332 L 327.126 269.636 361.134 269.636 L 395.142 269.636 395.142 157.490 L 395.142 45.344 300.405 45.344 L 205.668 45.344 205.668 22.672 L 205.668 0.000 201.619 0.000 L 197.571 0.000 197.571 22.672 M387.854 86.640 L 387.854 120.648 200.000 120.648 L 12.146 120.648 12.146 86.640 L 12.146 52.632 200.000 52.632 L 387.854 52.632 387.854 86.640 M387.854 195.142 L 387.854 261.538 200.000 261.538 L 12.146 261.538 12.146 195.142 L 12.146 128.745 200.000 128.745 L 387.854 128.745 387.854 195.142 M152.227 176.113 C 152.227 177.733,151.822 178.138,150.202 178.138 C 148.236 178.138,148.178 178.300,148.178 183.806 C 148.178 189.312,148.236 189.474,150.202 189.474 C 151.822 189.474,152.227 189.879,152.227 191.498 C 152.227 193.137,152.627 193.522,154.327 193.522 C 155.746 193.522,156.564 194.047,156.850 195.142 C 157.182 196.410,157.955 196.761,160.418 196.761 C 163.233 196.761,163.563 196.974,163.563 198.785 C 163.563 200.405,163.968 200.810,165.587 200.810 C 167.446 200.810,167.611 201.107,167.611 204.453 L 167.611 208.097 159.919 208.097 L 152.227 208.097 152.227 204.397 C 152.227 201.023,152.066 200.720,150.405 200.956 C 147.442 201.377,147.207 208.097,150.156 208.097 C 151.825 208.097,152.227 208.490,152.227 210.121 C 152.227 212.139,152.254 212.146,159.919 212.146 C 167.584 212.146,167.611 212.139,167.611 210.121 C 167.611 208.502,168.016 208.097,169.636 208.097 C 171.602 208.097,171.660 207.935,171.660 202.429 C 171.660 196.923,171.602 196.761,169.636 196.761 C 168.151 196.761,167.611 196.329,167.611 195.142 C 167.611 193.954,167.072 193.522,165.587 193.522 C 163.968 193.522,163.563 193.117,163.563 191.498 C 163.563 189.639,163.266 189.474,159.919 189.474 C 156.572 189.474,156.275 189.309,156.275 187.449 C 156.275 185.830,155.870 185.425,154.251 185.425 C 152.767 185.425,152.227 184.993,152.227 183.806 C 152.227 182.618,152.767 182.186,154.251 182.186 C 155.870 182.186,156.275 181.781,156.275 180.162 C 156.275 178.303,156.572 178.138,159.919 178.138 C 163.266 178.138,163.563 178.303,163.563 180.162 C 163.563 181.801,163.963 182.186,165.663 182.186 C 167.082 182.186,167.900 182.711,168.186 183.806 C 169.351 188.258,171.660 185.529,171.660 179.701 C 171.660 173.786,168.505 171.049,167.757 176.316 C 167.365 179.080,163.563 178.896,163.563 176.113 C 163.563 174.147,163.401 174.089,157.895 174.089 C 152.389 174.089,152.227 174.147,152.227 176.113 M175.439 174.629 C 173.475 176.593,175.020 178.138,178.947 178.138 L 182.996 178.138 182.996 193.117 L 182.996 208.097 178.947 208.097 C 175.169 208.097,174.899 208.232,174.899 210.121 L 174.899 212.146 190.283 212.146 L 205.668 212.146 205.668 208.502 C 205.668 205.155,205.503 204.858,203.644 204.858 C 202.159 204.858,201.619 205.290,201.619 206.478 C 201.619 207.984,201.080 208.097,193.927 208.097 L 186.235 208.097 186.235 200.810 L 186.235 193.522 193.927 193.522 C 201.592 193.522,201.619 193.515,201.619 191.498 C 201.619 189.481,201.592 189.474,193.927 189.474 L 186.235 189.474 186.235 183.806 L 186.235 178.138 193.927 178.138 C 201.592 178.138,201.619 178.145,201.619 180.162 C 201.619 181.781,202.024 182.186,203.644 182.186 C 205.533 182.186,205.668 181.916,205.668 178.138 L 205.668 174.089 190.823 174.089 C 182.659 174.089,175.735 174.332,175.439 174.629 M223.279 174.647 C 222.500 174.851,221.862 175.720,221.862 176.578 C 221.862 177.771,221.292 178.138,219.433 178.138 C 217.382 178.138,217.004 178.453,217.004 180.162 C 217.004 181.781,216.599 182.186,214.980 182.186 L 212.955 182.186 212.955 193.522 L 212.955 204.858 214.980 204.858 C 216.464 204.858,217.004 205.290,217.004 206.478 C 217.004 207.665,217.544 208.097,219.028 208.097 C 220.648 208.097,221.053 208.502,221.053 210.121 C 221.053 211.981,221.350 212.146,224.696 212.146 C 228.043 212.146,228.340 212.311,228.340 214.170 C 228.340 215.789,228.745 216.194,230.364 216.194 C 231.984 216.194,232.389 216.599,232.389 218.219 C 232.389 220.078,232.686 220.243,236.032 220.243 C 239.136 220.243,239.676 220.483,239.676 221.862 C 239.676 223.242,240.216 223.482,243.320 223.482 C 246.424 223.482,246.964 223.242,246.964 221.862 C 246.964 220.483,246.424 220.243,243.320 220.243 C 239.973 220.243,239.676 220.078,239.676 218.219 C 239.676 216.599,239.271 216.194,237.652 216.194 C 236.032 216.194,235.628 215.789,235.628 214.170 C 235.628 212.551,236.032 212.146,237.652 212.146 C 239.271 212.146,239.676 211.741,239.676 210.121 C 239.676 208.502,240.081 208.097,241.700 208.097 C 243.185 208.097,243.725 207.665,243.725 206.478 C 243.725 205.398,244.265 204.858,245.344 204.858 C 246.886 204.858,246.964 204.318,246.964 193.522 C 246.964 182.726,246.886 182.186,245.344 182.186 C 244.157 182.186,243.725 181.646,243.725 180.162 C 243.725 178.543,243.320 178.138,241.700 178.138 C 240.081 178.138,239.676 177.733,239.676 176.113 C 239.676 174.121,228.959 173.163,223.279 174.647 M235.628 180.162 C 235.628 181.781,236.032 182.186,237.652 182.186 C 239.136 182.186,239.676 182.618,239.676 183.806 C 239.676 184.993,240.216 185.425,241.700 185.425 C 243.718 185.425,243.725 185.452,243.725 193.117 C 243.725 200.783,243.718 200.810,241.700 200.810 C 239.991 200.810,239.676 201.188,239.676 203.239 C 239.676 205.290,239.361 205.668,237.652 205.668 C 236.392 205.668,235.628 206.127,235.628 206.883 C 235.628 207.847,234.458 208.097,229.960 208.097 C 224.831 208.097,224.291 207.943,224.291 206.478 C 224.291 205.398,223.752 204.858,222.672 204.858 C 221.484 204.858,221.053 204.318,221.053 202.834 C 221.053 201.397,220.614 200.810,219.539 200.810 C 217.790 200.810,217.027 197.572,217.013 190.081 C 217.004 185.652,217.103 185.425,219.028 185.425 C 220.513 185.425,221.053 184.993,221.053 183.806 C 221.053 182.726,221.592 182.186,222.672 182.186 C 223.860 182.186,224.291 181.646,224.291 180.162 C 224.291 178.195,224.453 178.138,229.960 178.138 C 235.466 178.138,235.628 178.195,235.628 180.162 M68.826 337.652 C 68.826 341.430,68.961 341.700,70.850 341.700 C 72.817 341.700,72.874 341.862,72.874 347.368 C 72.874 352.497,73.029 353.036,74.494 353.036 C 75.682 353.036,76.113 353.576,76.113 355.061 C 76.113 357.027,75.951 357.085,70.445 357.085 C 64.939 357.085,64.777 357.027,64.777 355.061 C 64.777 353.576,64.345 353.036,63.158 353.036 C 61.778 353.036,61.538 353.576,61.538 356.680 L 61.538 360.324 68.826 360.324 L 76.113 360.324 76.113 362.753 C 76.113 364.804,76.428 365.182,78.138 365.182 C 79.622 365.182,80.162 365.614,80.162 366.802 C 80.162 367.989,79.622 368.421,78.138 368.421 C 76.653 368.421,76.113 368.853,76.113 370.040 C 76.113 371.506,76.653 371.660,81.781 371.660 C 86.910 371.660,87.449 371.506,87.449 370.040 C 87.449 368.961,86.910 368.421,85.830 368.421 C 84.642 368.421,84.211 367.881,84.211 366.397 C 84.211 364.777,83.806 364.372,82.186 364.372 C 80.177 364.372,80.162 364.318,80.162 357.085 C 80.162 349.852,80.147 349.798,78.138 349.798 C 76.158 349.798,76.113 349.663,76.113 343.725 C 76.113 338.192,75.969 337.652,74.494 337.652 C 73.306 337.652,72.874 337.112,72.874 335.628 C 72.874 334.008,72.470 333.603,70.850 333.603 C 68.961 333.603,68.826 333.873,68.826 337.652 M186.235 335.523 C 186.235 337.216,186.714 337.507,190.283 337.980 L 194.332 338.517 194.332 353.425 L 194.332 368.332 190.493 368.579 C 187.601 368.765,186.588 369.175,186.385 370.243 C 186.137 371.552,187.289 371.660,201.560 371.660 C 216.464 371.660,217.004 371.603,217.004 370.040 C 217.004 368.853,217.544 368.421,219.028 368.421 C 220.995 368.421,221.053 368.259,221.053 362.753 C 221.053 357.247,220.995 357.085,219.028 357.085 C 217.409 357.085,217.004 356.680,217.004 355.061 C 217.004 353.441,216.599 353.036,214.980 353.036 C 213.360 353.036,212.955 352.632,212.955 351.012 C 212.955 349.393,213.360 348.988,214.980 348.988 C 216.599 348.988,217.004 348.583,217.004 346.964 C 217.004 345.344,217.409 344.939,219.028 344.939 C 221.582 344.939,221.756 342.723,219.231 342.364 C 217.926 342.179,217.336 341.473,217.153 339.879 C 216.951 338.130,216.474 337.652,214.926 337.652 C 213.364 337.652,212.955 337.232,212.955 335.628 L 212.955 333.603 199.595 333.603 L 186.235 333.603 186.235 335.523 M318.016 334.161 C 317.237 334.365,316.599 335.234,316.599 336.092 C 316.599 337.285,316.029 337.652,314.170 337.652 C 312.137 337.652,311.741 337.973,311.741 339.620 C 311.741 341.044,311.238 341.659,309.919 341.847 C 308.143 342.099,308.091 342.388,307.872 353.239 L 307.647 364.372 309.694 364.372 C 311.338 364.372,311.741 364.771,311.741 366.397 C 311.741 368.016,312.146 368.421,313.765 368.421 C 315.250 368.421,315.789 368.853,315.789 370.040 C 315.789 371.566,316.329 371.660,325.101 371.660 C 333.873 371.660,334.413 371.566,334.413 370.040 C 334.413 368.853,334.953 368.421,336.437 368.421 C 338.057 368.421,338.462 368.016,338.462 366.397 C 338.462 364.777,338.057 364.372,336.437 364.372 C 334.818 364.372,334.413 364.777,334.413 366.397 C 334.413 368.414,334.386 368.421,326.721 368.421 C 319.055 368.421,319.028 368.414,319.028 366.397 C 319.028 364.912,318.596 364.372,317.409 364.372 C 316.221 364.372,315.789 363.833,315.789 362.348 C 315.789 360.729,315.385 360.324,313.765 360.324 C 311.799 360.324,311.741 360.162,311.741 354.656 C 311.741 349.150,311.799 348.988,313.765 348.988 C 315.625 348.988,315.789 348.691,315.789 345.344 C 315.789 342.240,316.029 341.700,317.409 341.700 C 318.596 341.700,319.028 341.161,319.028 339.676 C 319.028 337.697,319.163 337.652,325.101 337.652 C 331.039 337.652,331.174 337.697,331.174 339.676 C 331.174 340.854,331.640 341.700,332.287 341.700 C 332.900 341.700,334.539 341.928,335.931 342.206 C 338.333 342.687,338.462 342.584,338.462 340.182 C 338.462 337.723,338.359 337.652,334.818 337.652 C 331.471 337.652,331.174 337.487,331.174 335.628 C 331.174 333.617,323.411 332.752,318.016 334.161 M209.570 339.879 C 209.737 341.049,210.388 341.700,211.392 341.700 C 212.705 341.700,212.955 342.284,212.955 345.344 L 212.955 348.988 205.263 348.988 L 197.571 348.988 197.571 343.284 L 197.571 337.581 203.441 337.819 C 208.828 338.037,209.333 338.207,209.570 339.879 M64.777 346.964 C 64.777 348.583,65.182 348.988,66.802 348.988 C 68.421 348.988,68.826 348.583,68.826 346.964 C 68.826 345.344,68.421 344.939,66.802 344.939 C 65.182 344.939,64.777 345.344,64.777 346.964 M210.346 353.527 C 213.207 354.099,213.675 355.787,213.116 363.515 L 212.761 368.421 205.166 368.421 L 197.571 368.421 197.571 360.729 L 197.571 353.036 202.733 353.036 C 205.572 353.036,208.998 353.257,210.346 353.527 M57.490 366.397 C 57.490 368.016,57.085 368.421,55.466 368.421 C 53.981 368.421,53.441 368.853,53.441 370.040 C 53.441 371.506,53.981 371.660,59.109 371.660 C 64.759 371.660,67.201 370.053,63.158 368.996 C 62.064 368.710,61.538 367.892,61.538 366.473 C 61.538 364.772,61.153 364.372,59.514 364.372 C 57.895 364.372,57.490 364.777,57.490 366.397 " stroke="none" fill="#000000" fill-rule="evenodd"></path></g></svg>