<svg id="svg" xmlns="http://www.w3.org/2000/svg" xmlns:xlink="http://www.w3.org/1999/xlink" width="400" height="378.9473684210526" viewBox="0, 0, 400,378.9473684210526"><g id="svgg"><path id="path0" d="M194.332 23.077 L 194.332 46.154 99.595 46.154 L 4.858 46.154 4.858 158.300 L 4.858 270.445 38.866 270.445 L 72.874 270.445 72.874 295.142 L 72.874 319.838 76.923 319.838 L 80.972 319.838 80.972 295.142 L 80.972 270.445 172.065 270.445 L 263.158 270.445 263.158 295.142 L 263.158 319.838 266.802 319.838 L 270.445 319.838 270.445 295.142 L 270.445 270.445 306.478 270.445 L 342.510 270.445 342.510 295.142 L 342.510 319.838 346.559 319.838 L 350.607 319.838 350.607 295.142 L 350.607 270.445 373.279 270.445 L 395.951 270.445 395.951 158.300 L 395.951 46.154 299.190 46.154 L 202.429 46.154 202.429 23.077 L 202.429 0.000 198.381 0.000 L 194.332 0.000 194.332 23.077 M387.854 87.449 L 387.854 121.457 200.000 121.457 L 12.146 121.457 12.146 87.449 L 12.146 53.441 200.000 53.441 L 387.854 53.441 387.854 87.449 M387.854 156.275 L 387.854 182.996 295.142 182.996 L 202.429 182.996 202.429 222.672 L 202.429 262.348 107.287 262.348 L 12.146 262.348 12.146 195.951 L 12.146 129.555 200.000 129.555 L 387.854 129.555 387.854 156.275 M384.615 226.316 L 384.615 262.348 297.166 262.348 L 209.717 262.348 209.717 226.316 L 209.717 190.283 297.166 190.283 L 384.615 190.283 384.615 226.316 M27.530 207.287 C 27.530 208.475,26.991 208.907,25.506 208.907 C 23.527 208.907,23.482 209.042,23.482 214.980 C 23.482 220.918,23.527 221.053,25.506 221.053 C 26.967 221.053,27.530 221.488,27.530 222.618 C 27.530 223.724,28.184 224.259,29.757 224.440 C 31.351 224.624,32.057 225.214,32.243 226.518 C 32.461 228.055,33.000 228.340,35.684 228.340 C 38.539 228.340,38.866 228.548,38.866 230.364 C 38.866 231.984,39.271 232.389,40.891 232.389 C 42.750 232.389,42.915 232.686,42.915 236.032 L 42.915 239.676 35.223 239.676 L 27.530 239.676 27.530 236.437 C 27.530 233.522,27.328 233.198,25.506 233.198 C 23.313 233.198,22.863 235.570,23.988 241.194 L 24.494 243.725 33.704 243.725 L 42.915 243.725 42.915 241.700 C 42.915 240.216,43.347 239.676,44.534 239.676 C 46.000 239.676,46.154 239.136,46.154 234.008 C 46.154 228.880,46.000 228.340,44.534 228.340 C 43.347 228.340,42.915 227.800,42.915 226.316 C 42.915 224.696,42.510 224.291,40.891 224.291 C 39.406 224.291,38.866 223.860,38.866 222.672 C 38.866 221.293,38.327 221.053,35.223 221.053 C 31.876 221.053,31.579 220.888,31.579 219.028 C 31.579 217.409,31.174 217.004,29.555 217.004 C 27.935 217.004,27.530 216.599,27.530 214.980 C 27.530 213.360,27.935 212.955,29.555 212.955 C 31.174 212.955,31.579 212.551,31.579 210.931 C 31.579 209.072,31.876 208.907,35.223 208.907 C 38.570 208.907,38.866 209.072,38.866 210.931 C 38.866 212.551,39.271 212.955,40.891 212.955 C 42.510 212.955,42.915 213.360,42.915 214.980 C 42.915 216.464,43.347 217.004,44.534 217.004 C 46.000 217.004,46.154 216.464,46.154 211.336 C 46.154 205.619,44.255 203.060,43.150 207.287 C 42.876 208.335,42.045 208.907,40.796 208.907 C 39.406 208.907,38.866 208.454,38.866 207.287 C 38.866 205.822,38.327 205.668,33.198 205.668 C 28.070 205.668,27.530 205.822,27.530 207.287 M50.202 207.287 C 50.202 208.667,50.742 208.907,53.846 208.907 L 57.490 208.907 57.490 224.291 L 57.490 239.676 53.846 239.676 C 50.499 239.676,50.202 239.841,50.202 241.700 L 50.202 243.725 59.919 243.725 L 69.636 243.725 69.636 241.700 C 69.636 239.811,69.366 239.676,65.587 239.676 L 61.538 239.676 61.538 234.008 L 61.538 228.340 69.231 228.340 C 76.896 228.340,76.923 228.333,76.923 226.316 C 76.923 224.696,77.328 224.291,78.947 224.291 C 80.965 224.291,80.972 224.265,80.972 216.599 C 80.972 208.934,80.965 208.907,78.947 208.907 C 77.463 208.907,76.923 208.475,76.923 207.287 C 76.923 205.733,76.383 205.668,63.563 205.668 C 50.742 205.668,50.202 205.733,50.202 207.287 M103.644 207.692 C 103.644 209.312,103.239 209.717,101.619 209.717 C 99.760 209.717,99.595 210.013,99.595 213.360 L 99.595 217.004 103.239 217.004 L 106.883 217.004 106.883 220.648 C 106.883 223.995,107.048 224.291,108.907 224.291 C 110.526 224.291,110.931 224.696,110.931 226.316 L 110.931 228.340 101.619 228.340 L 92.308 228.340 92.308 230.364 L 92.308 232.389 101.695 232.389 C 110.402 232.389,111.114 232.506,111.506 234.008 C 111.741 234.904,112.611 235.628,113.455 235.628 C 114.542 235.628,114.980 236.209,114.980 237.652 C 114.980 239.271,114.575 239.676,112.955 239.676 C 111.336 239.676,110.931 240.081,110.931 241.700 L 110.931 243.725 126.316 243.725 L 141.700 243.725 141.700 241.700 C 141.700 240.081,141.296 239.676,139.676 239.676 C 137.659 239.676,137.652 239.649,137.652 231.984 C 137.652 224.318,137.659 224.291,139.676 224.291 C 141.296 224.291,141.700 224.696,141.700 226.316 C 141.700 227.800,142.132 228.340,143.320 228.340 C 144.507 228.340,144.939 228.880,144.939 230.364 C 144.939 231.984,145.344 232.389,146.964 232.389 C 148.823 232.389,148.988 232.686,148.988 236.032 C 148.988 239.379,149.153 239.676,151.012 239.676 C 152.632 239.676,153.036 240.081,153.036 241.700 L 153.036 243.725 173.684 243.725 L 194.332 243.725 194.332 239.676 C 194.332 236.167,194.116 235.628,192.713 235.628 C 191.525 235.628,191.093 236.167,191.093 237.652 C 191.093 239.669,191.066 239.676,183.401 239.676 L 175.709 239.676 175.709 231.984 L 175.709 224.291 183.401 224.291 C 190.553 224.291,191.093 224.178,191.093 222.672 C 191.093 221.166,190.553 221.053,183.401 221.053 L 175.709 221.053 175.709 214.980 L 175.709 208.907 183.401 208.907 C 191.066 208.907,191.093 208.914,191.093 210.931 C 191.093 212.416,191.525 212.955,192.713 212.955 C 194.092 212.955,194.332 212.416,194.332 209.312 L 194.332 205.668 179.352 205.668 C 164.912 205.668,164.372 205.726,164.372 207.287 C 164.372 208.667,164.912 208.907,168.016 208.907 L 171.660 208.907 171.660 224.291 L 171.660 239.676 163.968 239.676 C 156.302 239.676,156.275 239.669,156.275 237.652 C 156.275 236.167,155.843 235.628,154.656 235.628 C 153.276 235.628,153.036 235.088,153.036 231.984 C 153.036 228.637,152.871 228.340,151.012 228.340 C 149.153 228.340,148.988 228.043,148.988 224.696 L 148.988 221.053 152.632 221.053 L 156.275 221.053 156.275 214.980 C 156.275 209.447,156.131 208.907,154.656 208.907 C 153.576 208.907,153.036 208.367,153.036 207.287 C 153.036 205.733,152.497 205.668,139.676 205.668 C 126.856 205.668,126.316 205.733,126.316 207.287 C 126.316 208.667,126.856 208.907,129.960 208.907 L 133.603 208.907 133.603 224.291 L 133.603 239.676 126.316 239.676 L 119.028 239.676 119.028 236.032 C 119.028 232.686,118.863 232.389,117.004 232.389 C 115.038 232.389,114.980 232.227,114.980 226.721 C 114.980 221.215,114.922 221.053,112.955 221.053 C 111.066 221.053,110.931 220.783,110.931 217.004 C 110.931 213.225,110.796 212.955,108.907 212.955 C 107.048 212.955,106.883 212.659,106.883 209.312 C 106.883 206.208,106.643 205.668,105.263 205.668 C 104.076 205.668,103.644 206.208,103.644 207.692 M73.023 211.134 C 73.207 212.728,73.797 213.434,75.101 213.619 C 78.023 214.034,77.831 221.053,74.899 221.053 C 73.414 221.053,72.874 221.484,72.874 222.672 C 72.874 224.137,72.335 224.291,67.206 224.291 L 61.538 224.291 61.538 216.599 L 61.538 208.907 67.153 208.907 C 72.675 208.907,72.771 208.943,73.023 211.134 M148.988 210.931 C 148.988 212.551,149.393 212.955,151.012 212.955 C 152.632 212.955,153.036 213.360,153.036 214.980 C 153.036 216.599,152.632 217.004,151.012 217.004 C 149.393 217.004,148.988 217.409,148.988 219.028 C 148.988 220.995,148.826 221.053,143.320 221.053 L 137.652 221.053 137.652 214.980 L 137.652 208.907 143.320 208.907 C 148.826 208.907,148.988 208.965,148.988 210.931 M96.086 221.592 C 94.857 222.822,95.666 224.291,97.571 224.291 C 99.055 224.291,99.595 223.860,99.595 222.672 C 99.595 221.092,97.294 220.384,96.086 221.592 M84.211 241.700 C 84.211 243.667,84.372 243.725,89.879 243.725 C 95.385 243.725,95.547 243.667,95.547 241.700 C 95.547 239.734,95.385 239.676,89.879 239.676 C 84.372 239.676,84.211 239.734,84.211 241.700 M69.636 338.462 C 69.636 341.970,69.852 342.510,71.255 342.510 C 72.720 342.510,72.874 343.050,72.874 348.178 C 72.874 353.684,72.932 353.846,74.899 353.846 C 76.518 353.846,76.923 354.251,76.923 355.870 C 76.923 357.837,76.761 357.895,71.255 357.895 C 65.749 357.895,65.587 357.837,65.587 355.870 C 65.587 354.251,65.182 353.846,63.563 353.846 C 61.703 353.846,61.538 354.143,61.538 357.490 L 61.538 361.134 69.124 361.134 L 76.710 361.134 77.167 364.542 C 77.419 366.417,77.421 368.968,77.172 370.211 L 76.721 372.470 82.490 372.470 C 87.719 372.470,88.259 372.318,88.259 370.850 C 88.259 369.663,87.719 369.231,86.235 369.231 C 84.615 369.231,84.211 368.826,84.211 367.206 C 84.211 365.722,83.779 365.182,82.591 365.182 C 81.126 365.182,80.972 364.642,80.972 359.514 C 80.972 354.008,80.914 353.846,78.947 353.846 C 76.930 353.846,76.923 353.819,76.923 346.154 C 76.923 338.489,76.916 338.462,74.899 338.462 C 73.279 338.462,72.874 338.057,72.874 336.437 C 72.874 334.953,72.443 334.413,71.255 334.413 C 69.852 334.413,69.636 334.953,69.636 338.462 M243.725 336.437 C 243.725 337.922,243.293 338.462,242.105 338.462 C 240.640 338.462,240.486 339.001,240.486 344.130 C 240.486 349.258,240.640 349.798,242.105 349.798 C 243.293 349.798,243.725 350.337,243.725 351.822 C 243.725 353.441,244.130 353.846,245.749 353.846 C 247.368 353.846,247.773 354.251,247.773 355.870 C 247.773 357.730,248.070 357.895,251.417 357.895 C 254.521 357.895,255.061 358.135,255.061 359.514 C 255.061 360.702,255.601 361.134,257.085 361.134 C 258.974 361.134,259.109 361.404,259.109 365.182 L 259.109 369.231 251.417 369.231 L 243.725 369.231 243.725 365.182 C 243.725 361.673,243.509 361.134,242.105 361.134 C 240.702 361.134,240.486 361.673,240.486 365.182 C 240.486 368.691,240.702 369.231,242.105 369.231 C 243.185 369.231,243.725 369.771,243.725 370.850 C 243.725 372.356,244.265 372.470,251.417 372.470 C 258.570 372.470,259.109 372.356,259.109 370.850 C 259.109 369.663,259.649 369.231,261.134 369.231 C 263.100 369.231,263.158 369.069,263.158 363.563 C 263.158 358.057,263.100 357.895,261.134 357.895 C 259.514 357.895,259.109 357.490,259.109 355.870 C 259.109 354.251,258.704 353.846,257.085 353.846 C 255.466 353.846,255.061 353.441,255.061 351.822 C 255.061 349.963,254.764 349.798,251.417 349.798 C 248.070 349.798,247.773 349.633,247.773 347.773 C 247.773 346.154,247.368 345.749,245.749 345.749 C 244.265 345.749,243.725 345.317,243.725 344.130 C 243.725 342.942,244.265 342.510,245.749 342.510 C 247.368 342.510,247.773 342.105,247.773 340.486 C 247.773 338.626,248.070 338.462,251.417 338.462 C 254.764 338.462,255.061 338.626,255.061 340.486 C 255.061 342.105,255.466 342.510,257.085 342.510 C 258.570 342.510,259.109 342.942,259.109 344.130 C 259.109 345.317,259.649 345.749,261.134 345.749 C 263.085 345.749,263.158 345.560,263.158 340.486 C 263.158 335.762,262.992 335.223,261.538 335.223 C 260.459 335.223,259.919 335.762,259.919 336.842 C 259.919 338.102,259.379 338.462,257.490 338.462 C 255.439 338.462,255.061 338.147,255.061 336.437 C 255.061 334.471,254.899 334.413,249.393 334.413 C 243.887 334.413,243.725 334.471,243.725 336.437 M277.733 336.437 C 277.733 337.922,277.301 338.462,276.113 338.462 C 274.926 338.462,274.494 339.001,274.494 340.486 C 274.494 341.970,274.926 342.510,276.113 342.510 C 277.667 342.510,277.733 343.050,277.733 355.870 C 277.733 368.691,277.667 369.231,276.113 369.231 C 275.034 369.231,274.494 369.771,274.494 370.850 C 274.494 372.315,275.034 372.470,280.162 372.470 C 285.290 372.470,285.830 372.315,285.830 370.850 C 285.830 369.663,285.290 369.231,283.806 369.231 L 281.781 369.231 281.781 351.822 L 281.781 334.413 279.757 334.413 C 278.138 334.413,277.733 334.818,277.733 336.437 M323.887 336.437 C 323.887 338.057,323.482 338.462,321.862 338.462 C 319.896 338.462,319.838 338.623,319.838 344.130 C 319.838 349.636,319.896 349.798,321.862 349.798 C 323.466 349.798,323.887 350.206,323.887 351.766 C 323.887 353.190,324.390 353.805,325.709 353.992 C 326.879 354.159,327.623 354.902,327.789 356.073 C 328.013 357.649,328.531 357.895,331.635 357.895 C 334.683 357.895,335.223 358.138,335.223 359.514 C 335.223 360.702,335.762 361.134,337.247 361.134 C 339.136 361.134,339.271 361.404,339.271 365.182 L 339.271 369.231 331.579 369.231 L 323.887 369.231 323.887 365.587 C 323.887 362.240,323.722 361.943,321.862 361.943 C 319.736 361.943,319.059 365.837,320.348 370.648 C 321.067 373.329,339.271 373.524,339.271 370.850 C 339.271 369.771,339.811 369.231,340.891 369.231 C 342.356 369.231,342.510 368.691,342.510 363.563 C 342.510 358.435,342.356 357.895,340.891 357.895 C 339.703 357.895,339.271 357.355,339.271 355.870 C 339.271 354.251,338.866 353.846,337.247 353.846 C 335.628 353.846,335.223 353.441,335.223 351.822 C 335.223 349.933,334.953 349.798,331.174 349.798 C 327.395 349.798,327.126 349.663,327.126 347.773 C 327.126 346.289,326.694 345.749,325.506 345.749 C 324.426 345.749,323.887 345.209,323.887 344.130 C 323.887 343.050,324.426 342.510,325.506 342.510 C 326.694 342.510,327.126 341.970,327.126 340.486 C 327.126 338.596,327.395 338.462,331.174 338.462 C 334.953 338.462,335.223 338.596,335.223 340.486 C 335.223 342.105,335.628 342.510,337.247 342.510 C 338.731 342.510,339.271 342.942,339.271 344.130 C 339.271 345.209,339.811 345.749,340.891 345.749 C 342.344 345.749,342.510 345.209,342.510 340.486 C 342.510 335.762,342.344 335.223,340.891 335.223 C 339.811 335.223,339.271 335.762,339.271 336.842 C 339.271 338.030,338.731 338.462,337.247 338.462 C 335.628 338.462,335.223 338.057,335.223 336.437 C 335.223 334.471,335.061 334.413,329.555 334.413 C 324.049 334.413,323.887 334.471,323.887 336.437 M353.846 336.437 C 353.846 337.922,353.414 338.462,352.227 338.462 C 351.039 338.462,350.607 339.001,350.607 340.486 C 350.607 341.970,351.039 342.510,352.227 342.510 C 353.414 342.510,353.846 341.970,353.846 340.486 C 353.846 338.596,354.116 338.462,357.895 338.462 C 361.673 338.462,361.943 338.596,361.943 340.486 C 361.943 341.970,362.375 342.510,363.563 342.510 C 364.936 342.510,365.182 343.050,365.182 346.059 C 365.182 348.928,364.871 349.690,363.563 350.032 C 362.240 350.378,361.943 351.137,361.943 354.175 C 361.943 357.603,361.784 357.895,359.919 357.895 C 358.435 357.895,357.895 358.327,357.895 359.514 C 357.895 360.702,358.435 361.134,359.919 361.134 C 361.404 361.134,361.943 360.702,361.943 359.514 C 361.943 358.435,362.483 357.895,363.563 357.895 C 364.966 357.895,365.182 357.355,365.182 353.846 C 365.182 350.067,365.317 349.798,367.206 349.798 C 369.173 349.798,369.231 349.636,369.231 344.130 C 369.231 338.623,369.173 338.462,367.206 338.462 C 365.587 338.462,365.182 338.057,365.182 336.437 C 365.182 334.471,365.020 334.413,359.514 334.413 C 354.008 334.413,353.846 334.471,353.846 336.437 M65.587 346.559 C 65.587 349.474,65.789 349.798,67.611 349.798 C 69.433 349.798,69.636 349.474,69.636 346.559 C 69.636 343.644,69.433 343.320,67.611 343.320 C 65.789 343.320,65.587 343.644,65.587 346.559 M354.656 363.563 C 354.656 364.642,355.196 365.182,356.275 365.182 C 357.355 365.182,357.895 364.642,357.895 363.563 C 357.895 362.483,357.355 361.943,356.275 361.943 C 355.196 361.943,354.656 362.483,354.656 363.563 M57.490 367.611 C 57.490 369.501,57.130 370.040,55.870 370.040 C 54.971 370.040,54.251 370.580,54.251 371.255 C 54.251 372.219,55.421 372.470,59.919 372.470 C 65.047 372.470,65.587 372.315,65.587 370.850 C 65.587 369.663,65.047 369.231,63.563 369.231 C 61.943 369.231,61.538 368.826,61.538 367.206 C 61.538 365.587,61.134 365.182,59.514 365.182 C 57.805 365.182,57.490 365.560,57.490 367.611 M348.785 369.811 C 347.549 369.998,346.559 370.664,346.559 371.309 C 346.559 372.261,348.592 372.470,357.895 372.470 C 368.691 372.470,369.231 372.393,369.231 370.850 C 369.231 369.246,356.712 368.610,348.785 369.811 " stroke="none" fill="#000000" fill-rule="evenodd"></path></g></svg>