<?xml version="1.0" standalone="no"?>
<!DOCTYPE svg PUBLIC "-//W3C//DTD SVG 20010904//EN"
 "http://www.w3.org/TR/2001/REC-SVG-20010904/DTD/svg10.dtd">
<svg version="1.0" xmlns="http://www.w3.org/2000/svg"
 width="301.000000pt" height="301.000000pt" viewBox="0 0 301.000000 301.000000"
 preserveAspectRatio="xMidYMid meet">

<g transform="translate(0.000000,301.000000) scale(0.100000,-0.100000)"
fill="#000000" stroke="none">
<path d="M1490 2910 l0 -60 -30 0 -30 0 0 -60 0 -60 -30 0 -30 0 0 -60 0 -60
-30 0 -30 0 0 -60 0 -60 -30 0 -30 0 0 -60 0 -60 -30 0 -30 0 0 -60 0 -60 -30
0 -30 0 0 -60 0 -60 -30 0 -30 0 0 -60 0 -60 -30 0 -30 0 0 -60 0 -60 -30 0
-30 0 0 -60 0 -60 -30 0 -30 0 0 -60 0 -60 -30 0 -30 0 0 -60 0 -60 -30 0 -30
0 0 -60 0 -60 -30 0 -30 0 0 -60 0 -60 -30 0 -30 0 0 -60 0 -60 -30 0 -30 0 0
-60 0 -60 -30 0 -30 0 0 -60 0 -60 -30 0 -30 0 0 -60 0 -60 -30 0 -30 0 0 -60
0 -60 -30 0 -30 0 0 -60 0 -60 -30 0 -30 0 0 -60 0 -60 -30 0 -30 0 0 -60 0
-60 -30 0 -30 0 0 -60 0 -60 -30 0 -30 0 0 -65 0 -65 1410 0 1410 0 0 65 0 65
-30 0 -30 0 0 60 0 60 -30 0 -30 0 0 60 0 60 -30 0 -30 0 0 60 0 60 -30 0 -30
0 0 60 0 60 -30 0 -30 0 0 60 0 60 -30 0 -30 0 0 60 0 60 -30 0 -30 0 0 60 0
60 -30 0 -30 0 0 60 0 60 -30 0 -30 0 0 60 0 60 -30 0 -30 0 0 60 0 60 -30 0
-30 0 0 60 0 60 -30 0 -30 0 0 60 0 60 -30 0 -30 0 0 60 0 60 -30 0 -30 0 0
60 0 60 -30 0 -30 0 0 60 0 60 -30 0 -30 0 0 60 0 60 -30 0 -30 0 0 60 0 60
-30 0 -30 0 0 60 0 60 -30 0 -30 0 0 60 0 60 -30 0 -30 0 0 60 0 60 -30 0 -30
0 0 60 0 60 -30 0 -30 0 0 60 0 60 -30 0 -30 0 0 60 0 60 -30 0 -30 0 0 -60z
m60 -210 c0 -27 3 -30 30 -30 l30 0 0 -60 0 -60 30 0 30 0 0 -60 0 -60 30 0
30 0 0 -60 0 -60 30 0 30 0 0 -60 0 -60 30 0 30 0 0 -60 0 -60 30 0 30 0 0
-60 0 -60 30 0 30 0 0 -60 0 -60 30 0 30 0 0 -60 0 -60 30 0 30 0 0 -60 0 -60
30 0 30 0 0 -60 0 -60 30 0 30 0 0 -60 0 -60 30 0 30 0 0 -60 0 -60 30 0 30 0
0 -60 0 -60 30 0 30 0 0 -60 0 -60 30 0 30 0 0 -60 0 -60 30 0 30 0 0 -60 0
-60 30 0 30 0 0 -60 0 -60 30 0 30 0 0 -60 0 -60 30 0 30 0 0 -60 0 -60 30 0
30 0 0 -60 0 -60 30 0 30 0 0 -60 0 -60 -1290 0 -1290 0 0 60 0 60 30 0 30 0
0 60 0 60 30 0 30 0 0 60 0 60 30 0 30 0 0 60 0 60 30 0 30 0 0 60 0 60 30 0
30 0 0 60 0 60 30 0 30 0 0 60 0 60 30 0 30 0 0 60 0 60 30 0 30 0 0 60 0 60
30 0 30 0 0 60 0 60 30 0 30 0 0 60 0 60 30 0 30 0 0 60 0 60 30 0 30 0 0 60
0 60 30 0 30 0 0 60 0 60 30 0 30 0 0 60 0 60 30 0 30 0 0 60 0 60 30 0 30 0
0 60 0 60 30 0 30 0 0 60 0 60 30 0 30 0 0 60 0 60 30 0 30 0 0 60 0 60 30 0
30 0 0 60 0 60 30 0 c27 0 30 3 30 30 0 27 3 30 30 30 27 0 30 -3 30 -30z"/>
</g>
</svg>
