<?xml version="1.0" standalone="no"?>
<!DOCTYPE svg PUBLIC "-//W3C//DTD SVG 20010904//EN"
 "http://www.w3.org/TR/2001/REC-SVG-20010904/DTD/svg10.dtd">
<svg version="1.0" xmlns="http://www.w3.org/2000/svg"
 width="509.000000pt" height="311.000000pt" viewBox="0 0 509.000000 311.000000"
 preserveAspectRatio="xMidYMid meet">
<metadata>
Created by potrace 1.16, written by Peter Selinger 2001-2019
</metadata>
<g transform="translate(0.000000,311.000000) scale(0.100000,-0.100000)"
fill="#000000" stroke="none">
<path d="M2370 3060 l0 -50 -100 0 -100 0 0 -50 0 -50 -45 0 c-50 0 -65 -16
-65 -69 l0 -31 -100 0 -100 0 0 -50 0 -50 -81 0 c-99 0 -119 -9 -119 -55 0
-36 -3 -38 -65 -47 -16 -3 -21 -12 -23 -51 l-3 -47 -100 0 -99 0 0 -44 c0 -49
-8 -56 -71 -56 l-39 0 0 -50 0 -49 -97 -3 -98 -3 -3 -47 -3 -48 -100 0 -99 0
0 -50 c0 -50 0 -50 -33 -50 -43 0 -57 -15 -57 -62 l0 -38 -100 0 -100 0 0 -50
0 -50 -45 0 c-50 0 -65 -16 -65 -69 l0 -31 -100 0 -100 0 0 -50 0 -49 -97 -3
-98 -3 -3 -43 c-3 -35 -8 -45 -28 -52 -20 -8 -24 -16 -24 -50 0 -34 4 -42 24
-50 20 -7 25 -17 28 -52 l3 -43 98 -3 97 -3 0 -49 0 -50 100 0 100 0 0 -38 c0
-49 14 -62 67 -62 l43 0 0 -50 0 -50 100 0 100 0 0 -38 c0 -47 14 -62 57 -62
33 0 33 0 33 -50 l0 -50 99 0 100 0 3 -47 3 -48 98 -3 97 -3 0 -49 0 -50 39 0
c63 0 71 -7 71 -56 l0 -44 100 0 100 0 0 -50 0 -50 100 0 100 0 0 -38 c0 -47
14 -62 57 -62 33 0 33 0 33 -50 l0 -50 100 0 100 0 0 -38 c0 -49 14 -62 67
-62 l43 0 0 -50 0 -50 100 0 100 0 0 -50 0 -50 144 0 145 0 3 48 3 47 98 3 97
3 0 49 0 50 39 0 c63 0 71 7 71 56 l0 44 99 0 100 0 3 47 c2 39 7 48 23 51 62
9 64 11 67 55 l3 42 98 3 97 3 0 49 0 50 100 0 100 0 0 34 c0 45 22 66 71 66
l39 0 0 50 0 50 100 0 100 0 0 50 0 50 99 0 100 0 3 47 c2 39 7 48 23 51 62 9
64 11 67 55 l3 42 98 3 97 3 0 49 0 50 74 0 c72 0 74 0 79 27 6 34 2 40 -18
23 -9 -7 -19 -10 -23 -6 -4 4 4 16 18 27 25 18 25 18 39 -1 17 -25 31 -26 31
-1 0 23 19 31 71 31 l39 0 0 50 0 50 100 0 100 0 0 38 c0 49 14 62 67 62 l43
0 0 50 0 50 -43 0 c-53 0 -67 13 -67 62 l0 38 -100 0 -100 0 0 50 0 50 -77 0
c-113 0 -123 5 -123 50 0 41 -13 50 -77 50 -33 0 -33 0 -33 50 l0 49 -97 3
-98 3 -3 42 c-3 44 -5 46 -67 55 -16 3 -21 12 -23 51 l-3 47 -100 0 -99 0 0
50 0 50 -100 0 -100 0 0 50 0 50 -45 0 c-50 0 -65 16 -65 69 l0 31 -100 0
-100 0 0 50 0 49 -97 3 -98 3 -3 42 c-3 44 -5 46 -67 55 -16 3 -21 12 -23 51
l-3 47 -100 0 -99 0 0 44 c0 49 -8 56 -71 56 l-39 0 0 50 0 49 -97 3 -98 3 -3
48 -3 47 -145 0 -144 0 0 -50z m292 -197 l3 -48 98 -3 97 -3 0 -49 0 -50 39 0
c63 0 71 -7 71 -56 l0 -44 100 0 100 0 0 -50 0 -50 100 0 100 0 0 -38 c0 -47
14 -62 57 -62 33 0 33 0 33 -50 l0 -50 100 0 100 0 0 -38 c0 -49 14 -62 67
-62 l43 0 0 -50 0 -50 100 0 100 0 0 -50 0 -50 99 0 100 0 3 -47 c2 -39 7 -48
23 -51 62 -9 64 -11 67 -55 l3 -42 98 -3 97 -3 0 -49 0 -50 39 0 c63 0 71 -7
71 -56 l0 -44 101 0 100 0 -3 -47 -3 -48 -97 -3 -98 -3 0 -43 c0 -49 -9 -56
-71 -56 l-39 0 0 -50 0 -49 -97 -3 -98 -3 -3 -42 c-3 -44 -5 -46 -67 -55 -16
-3 -21 -12 -23 -51 l-3 -47 -100 0 -99 0 0 -50 0 -50 -100 0 -100 0 0 -50 0
-50 -45 0 c-50 0 -65 -16 -65 -69 l0 -31 -100 0 -100 0 0 -50 c0 -50 0 -50
-33 -50 -43 0 -57 -15 -57 -62 l0 -38 -100 0 -100 0 0 -50 0 -50 -100 0 -100
0 0 -44 c0 -49 -8 -56 -71 -56 l-39 0 0 -50 0 -49 -97 -3 -98 -3 -3 -47 -3
-48 -145 0 -144 0 0 50 0 50 -100 0 -100 0 0 50 0 50 -45 0 c-50 0 -65 16 -65
69 l0 31 -100 0 -100 0 0 50 c0 50 0 50 -33 50 -43 0 -57 15 -57 62 l0 38
-100 0 -100 0 0 50 0 50 -100 0 -100 0 0 44 c0 49 -8 56 -71 56 l-39 0 0 50 0
49 -97 3 -98 3 -3 42 c-3 44 -5 46 -67 55 -16 3 -21 12 -23 51 l-3 47 -100 0
-99 0 0 50 0 50 -100 0 -100 0 0 50 0 50 -45 0 c-48 0 -65 16 -65 64 0 25 -7
29 -65 38 -17 3 -20 11 -20 48 0 37 3 45 20 48 60 9 65 12 65 41 0 41 24 61
71 61 l39 0 0 44 c0 25 5 48 10 51 6 3 10 1 10 -5 0 -7 6 -8 19 0 11 5 51 10
90 10 l71 0 0 50 0 50 99 0 100 0 3 47 c2 39 7 48 23 51 62 9 64 11 67 55 l3
42 98 3 97 3 0 49 0 50 39 0 c63 0 71 7 71 56 l0 44 100 0 100 0 0 50 0 50
100 0 100 0 0 38 c0 47 14 62 57 62 33 0 33 0 33 50 l0 50 100 0 100 0 0 34
c0 45 22 66 71 66 l39 0 0 50 0 50 100 0 100 0 0 50 0 50 144 0 145 0 3 -47z"/>
</g>
</svg>
