<?xml version="1.0" standalone="no"?>
<!DOCTYPE svg PUBLIC "-//W3C//DTD SVG 20010904//EN"
 "http://www.w3.org/TR/2001/REC-SVG-20010904/DTD/svg10.dtd">
<svg version="1.0" xmlns="http://www.w3.org/2000/svg"
 width="283.000000pt" height="424.000000pt" viewBox="0 0 283.000000 424.000000"
 preserveAspectRatio="xMidYMid meet">

<g transform="translate(0.000000,424.000000) scale(0.100000,-0.100000)"
fill="#000000" stroke="none">
<path d="M1380 3930 l0 -310 -40 0 -40 0 0 -40 0 -40 -80 0 -80 0 0 -40 0 -40
-40 0 -40 0 0 -40 0 -40 -40 0 -40 0 0 -40 0 -40 -40 0 -40 0 0 -40 0 -40 -40
0 -40 0 0 -40 0 -40 -40 0 -40 0 0 -40 0 -40 -40 0 -40 0 0 -80 0 -80 -40 0
-40 0 0 -45 0 -45 -40 0 -40 0 0 -80 0 -80 -40 0 -40 0 0 -80 0 -80 -40 0 -40
0 0 -120 0 -120 -40 0 -40 0 0 -120 0 -120 -40 0 -40 0 0 -720 0 -720 40 0 40
0 0 40 0 40 40 0 40 0 0 40 0 40 40 0 40 0 0 40 0 40 40 0 40 0 0 -394 c0
-367 -1 -395 -18 -399 -9 -3 -1 -5 18 -6 19 0 45 2 58 5 l22 6 0 434 0 434 80
0 80 0 0 40 0 40 240 0 240 0 0 40 0 40 200 0 200 0 0 -40 0 -40 240 0 240 0
0 -40 0 -40 80 0 80 0 0 -434 c0 -405 -1 -435 -17 -439 -10 -3 -2 -5 17 -6 19
0 45 2 58 5 l22 6 0 394 0 394 40 0 40 0 0 -40 0 -40 40 0 40 0 0 -40 0 -40
40 0 40 0 0 -40 0 -40 40 0 40 0 0 720 0 720 -40 0 -40 0 0 120 0 120 -40 0
-40 0 0 120 0 120 -40 0 -40 0 0 80 0 80 -40 0 -40 0 0 80 0 80 -40 0 -40 0 0
45 0 45 -40 0 -40 0 0 80 0 80 -40 0 -40 0 0 40 0 40 -40 0 -40 0 0 40 0 40
-40 0 -40 0 0 40 0 40 -40 0 -40 0 0 40 0 40 -40 0 -40 0 0 40 0 40 -40 0 -40
0 0 40 0 40 -80 0 -80 0 0 40 0 40 -40 0 -40 0 0 310 0 310 -40 0 -40 0 0
-310z m80 -630 l0 -80 40 0 40 0 0 -80 0 -80 40 0 40 0 0 -125 0 -125 40 0 40
0 0 -80 0 -80 40 0 40 0 0 -120 0 -120 40 0 40 0 0 -80 0 -80 40 0 40 0 0 -80
0 -80 40 0 40 0 0 -120 0 -120 40 0 40 0 0 -80 0 -80 40 0 40 0 0 -120 0 -120
40 0 40 0 0 -80 0 -80 40 0 40 0 0 -80 0 -80 40 0 40 0 0 -80 0 -80 -80 0 -80
0 0 40 0 40 -120 0 -120 0 0 40 0 40 -600 0 -600 0 0 -40 0 -40 -120 0 -120 0
0 -40 0 -40 -80 0 -80 0 0 40 0 40 40 0 40 0 0 120 0 120 40 0 40 0 0 80 0 80
40 0 40 0 0 120 0 120 40 0 40 0 0 80 0 80 40 0 40 0 0 80 0 80 40 0 40 0 0
120 0 120 40 0 40 0 0 80 0 80 40 0 40 0 0 120 0 120 40 0 40 0 0 80 0 80 40
0 40 0 0 85 0 85 40 0 40 0 0 120 0 120 40 0 40 0 0 80 0 80 40 0 40 0 0 -80z
m-240 -80 l0 -80 -40 0 -40 0 0 -80 0 -80 -40 0 -40 0 0 -85 0 -85 -40 0 -40
0 0 -120 0 -120 -40 0 -40 0 0 -80 0 -80 -40 0 -40 0 0 -80 0 -80 -40 0 -40 0
0 -120 0 -120 -40 0 -40 0 0 -80 0 -80 -40 0 -40 0 0 -120 0 -120 -40 0 -40 0
0 -80 0 -80 -40 0 -40 0 0 -80 0 -80 -40 0 -40 0 0 -80 0 -80 -40 0 -40 0 0
240 0 240 40 0 40 0 0 240 0 240 40 0 40 0 0 120 0 120 40 0 40 0 0 80 0 80
40 0 40 0 0 80 0 80 40 0 40 0 0 80 0 80 40 0 40 0 0 45 0 45 40 0 40 0 0 80
0 80 40 0 40 0 0 40 0 40 40 0 40 0 0 40 0 40 40 0 40 0 0 40 0 40 80 0 80 0
0 -80z m560 40 l0 -40 40 0 40 0 0 -40 0 -40 40 0 40 0 0 -40 0 -40 40 0 40 0
0 -80 0 -80 40 0 40 0 0 -45 0 -45 40 0 40 0 0 -80 0 -80 40 0 40 0 0 -80 0
-80 40 0 40 0 0 -80 0 -80 40 0 40 0 0 -120 0 -120 40 0 40 0 0 -240 0 -240
40 0 40 0 0 -240 0 -240 -40 0 -40 0 0 80 0 80 -40 0 -40 0 0 80 0 80 -40 0
-40 0 0 80 0 80 -40 0 -40 0 0 120 0 120 -40 0 -40 0 0 80 0 80 -40 0 -40 0 0
120 0 120 -40 0 -40 0 0 80 0 80 -40 0 -40 0 0 80 0 80 -40 0 -40 0 0 120 0
120 -40 0 -40 0 0 85 0 85 -40 0 -40 0 0 120 0 120 -40 0 -40 0 0 40 0 40 80
0 80 0 0 -40z"/>
</g>
</svg>
