<?xml version="1.0" standalone="no"?>
<!DOCTYPE svg PUBLIC "-//W3C//DTD SVG 20010904//EN"
 "http://www.w3.org/TR/2001/REC-SVG-20010904/DTD/svg10.dtd">
<svg version="1.0" xmlns="http://www.w3.org/2000/svg"
 width="417.000000pt" height="401.000000pt" viewBox="0 0 417.000000 401.000000"
 preserveAspectRatio="xMidYMid meet">

<g transform="translate(0.000000,401.000000) scale(0.100000,-0.100000)"
fill="#000000" stroke="none">
<path d="M1860 3890 l0 -40 -40 0 -40 0 0 -40 0 -40 -40 0 -40 0 0 -40 0 -40
-40 0 -40 0 0 -40 0 -40 -40 0 -40 0 0 -40 0 -40 -40 0 -40 0 0 -40 0 -40 -40
0 -40 0 0 -40 0 -40 -80 0 -80 0 0 -40 0 -40 -40 0 -40 0 0 -40 0 -40 -40 0
-40 0 0 -40 0 -40 -40 0 -40 0 0 -40 0 -40 -40 0 -40 0 0 -40 0 -40 -40 0 -40
0 0 -40 0 -40 -40 0 -40 0 0 -40 0 -40 -40 0 -40 0 0 -45 0 -45 -80 0 -80 0 0
-1280 0 -1280 1480 0 1480 0 0 1280 0 1280 -80 0 -80 0 0 45 0 45 -40 0 -40 0
0 40 0 40 -40 0 -40 0 0 40 0 40 -40 0 -40 0 0 40 0 40 -40 0 -40 0 0 40 0 40
-40 0 -40 0 0 40 0 40 -40 0 -40 0 0 40 0 40 -40 0 -40 0 0 40 0 40 -40 0 -40
0 0 40 0 40 -80 0 -80 0 0 40 0 40 -40 0 -40 0 0 40 0 40 -40 0 -40 0 0 40 0
40 -40 0 -40 0 0 40 0 40 -40 0 -40 0 0 40 0 40 -40 0 -40 0 0 40 0 40 -120 0
-120 0 0 -40z m240 -160 l0 -40 40 0 40 0 0 -40 0 -40 40 0 40 0 0 -40 0 -40
40 0 40 0 0 -40 0 -40 40 0 40 0 0 -40 0 -40 40 0 40 0 0 -40 0 -40 40 0 40 0
0 -40 0 -40 40 0 40 0 0 -40 0 -40 40 0 40 0 0 -40 0 -40 80 0 80 0 0 -40 0
-40 40 0 40 0 0 -40 0 -40 40 0 40 0 0 -40 0 -40 40 0 40 0 0 -45 0 -45 40 0
40 0 0 -40 0 -40 40 0 40 0 0 -40 0 -40 40 0 40 0 0 -1080 0 -1080 -80 0 -80
0 0 40 0 40 -40 0 -40 0 0 40 0 40 -40 0 -40 0 0 40 0 40 -40 0 -40 0 0 40 0
40 -80 0 -80 0 0 40 0 40 -40 0 -40 0 0 40 0 40 -40 0 -40 0 0 40 0 40 -40 0
-40 0 0 40 0 40 -40 0 -40 0 0 40 0 40 -80 0 -80 0 0 40 0 40 -40 0 -40 0 0
40 0 40 -40 0 -40 0 0 40 0 40 -40 0 -40 0 0 40 0 40 -40 0 -40 0 0 40 0 40
-80 0 -80 0 0 40 0 40 -40 0 -40 0 0 40 0 40 -40 0 -40 0 0 40 0 40 -40 0 -40
0 0 40 0 40 -40 0 -40 0 0 40 0 40 -80 0 -80 0 0 40 0 40 -40 0 -40 0 0 40 0
40 -40 0 -40 0 0 40 0 40 -40 0 -40 0 0 40 0 40 -40 0 -40 0 0 40 0 40 -80 0
-80 0 0 40 0 40 -40 0 -40 0 0 40 0 40 -40 0 -40 0 0 40 0 40 -40 0 -40 0 0
40 0 40 40 0 40 0 0 40 0 40 40 0 40 0 0 45 0 45 40 0 40 0 0 40 0 40 40 0 40
0 0 40 0 40 40 0 40 0 0 40 0 40 80 0 80 0 0 40 0 40 40 0 40 0 0 40 0 40 40
0 40 0 0 40 0 40 40 0 40 0 0 40 0 40 40 0 40 0 0 40 0 40 40 0 40 0 0 40 0
40 40 0 40 0 0 40 0 40 40 0 40 0 0 40 0 40 80 0 80 0 0 40 0 40 80 0 80 0 0
-40z m-1360 -1370 l0 -40 40 0 40 0 0 -40 0 -40 40 0 40 0 0 -40 0 -40 40 0
40 0 0 -40 0 -40 80 0 80 0 0 -40 0 -40 40 0 40 0 0 -40 0 -40 40 0 40 0 0
-40 0 -40 40 0 40 0 0 -40 0 -40 40 0 40 0 0 -40 0 -40 80 0 80 0 0 -40 0 -40
40 0 40 0 0 -40 0 -40 40 0 40 0 0 -40 0 -40 40 0 40 0 0 -40 0 -40 40 0 40 0
0 -40 0 -40 80 0 80 0 0 -40 0 -40 40 0 40 0 0 -40 0 -40 40 0 40 0 0 -40 0
-40 40 0 40 0 0 -40 0 -40 40 0 40 0 0 -40 0 -40 80 0 80 0 0 -40 0 -40 40 0
40 0 0 -40 0 -40 40 0 40 0 0 -40 0 -40 40 0 40 0 0 -40 0 -40 40 0 40 0 0
-40 0 -40 80 0 80 0 0 -40 0 -40 40 0 40 0 0 -40 0 -40 40 0 40 0 0 -40 0 -40
-1280 0 -1280 0 0 40 0 40 -40 0 -40 0 0 1040 0 1040 80 0 80 0 0 -40z"/>
</g>
</svg>
