<?xml version="1.0"?>
<svg xmlns:rdf="http://www.w3.org/1999/02/22-rdf-syntax-ns#" xmlns="http://www.w3.org/2000/svg" xmlns:cc="http://web.resource.org/cc/" xmlns:dc="http://purl.org/dc/elements/1.1/" xmlns:svg="http://www.w3.org/2000/svg" id="Layer_1" xml:space="preserve" viewBox="-37.5 -41.578 461 374.502" version="1.0">
<polygon id="polygon3" points="392 214.42 409.5 33.422 345.5 116.92 330.5 327.92" fill="#c5c6c7"/>
<polygon id="polygon5" points="-3 245.42 -22 56.422 345.5 116.92 330.5 327.92" fill="#d8d9da"/>
<title id="title7">Battery b.aoi</title>
<polygon id="polygon9" points="-3 245.42 -6.5 244.42 -10.5 243.42 -11 237.92 -11.5 232.42 -8 229.92 -5 227.42" fill="#d8d9da"/>
<line id="line11" y2="-26.078" x2="92" y1="2.922" x1="34.5" fill="#0080c3"/>
<polygon id="polygon13" points="330.5 327.92 335.5 328.92 340 329.92 340.5 323.92 341 317.42 336.5 312.92 332 307.92" fill="#c5c6c7"/>
<polygon id="polygon19" points="332 307.92 393.5 196.92 397 200.92 401 204.92 341 317.42" fill="#cecfd0"/>
<polygon id="polygon21" points="330.5 327.92 329 330.42 327.5 332.92 328 326.92 328.5 320.42 330 314.42 332 307.92" fill="#c5c6c7"/>
<polygon id="polygon23" points="332 307.92 -5 227.42 -7 232.42 -9 237.92 328.5 320.42" fill="#e2e3e4"/>
<line id="line25" y2="102.42" x2="354.5" y1="39.922" x1="-37.5" fill="#0080c3"/>
<line id="line27" y2="122.92" x2="353" y1="102.42" x1="354.5" fill="#0080c3"/>
<polygon id="polygon29" points="118.5 14.922 34.5 2.922 33.5 -13.578 118 -2.578" fill="#0080c3"/>
<polygon id="polygon31" points="392.5 53.422 288.5 38.922 289.5 20.422 394.5 34.422" fill="#0080c3"/>
<polygon id="polygon33" points="394.5 34.422 392.5 53.422 354.5 102.42 353 122.92 420 31.922 423.5 -2.578" fill="#0077b6"/>
<polygon id="polygon35" points="354.5 102.42 -37.5 39.922 34.5 2.922 392.5 53.422" fill="#2792cf"/>
<polygon id="polygon37" points="353 122.92 -35.5 57.922 -37.5 39.922 354.5 102.42" fill="#0080c3"/>
<g id="g39">
	<polygon id="polygon41" points="41.183 19.459 48.854 17.69 57.114 17.69 65.374 18.28 71.864 19.459 75.404 21.82 75.994 24.179 73.044 26.54 67.144 28.9 59.473 30.08 50.624 30.669 42.364 30.08 35.874 28.31 32.334 26.54 32.334 23.589 35.284 21.23" fill="#0080c3"/>
	<g id="g43">
		<g id="g45">
			<polygon id="polygon47" points="340.1 60.426 333.61 58.066 325.35 56.296 316.5 55.707 307.06 55.707 299.98 57.476 295.26 60.426 294.08 63.376 296.44 66.327 302.34 69.277 310.6 71.046 320.63 71.636 330.07 71.046 337.15 69.277 341.87 66.917 342.46 63.376" fill="#0080c3"/>
		</g>
	</g>
	<polygon id="polygon49" points="41.183 17.403 48.854 15.634 57.114 15.634 65.374 16.224 71.864 17.403 75.404 19.764 75.994 22.123 73.044 24.483 67.144 26.844 59.473 28.023 50.624 28.613 42.364 28.023 35.874 26.254 32.334 24.483 32.334 21.533 35.284 19.174" fill="#2792cf"/>
	<g id="g51">
		<g id="g53">
			<polygon id="polygon55" points="340.1 57.875 333.61 55.515 325.35 53.746 316.5 53.156 307.06 53.156 299.98 54.925 295.26 57.875 294.08 60.826 296.44 63.776 302.34 66.726 310.6 68.496 320.63 69.085 330.07 68.496 337.15 66.726 341.87 64.366 342.46 60.826" fill="#2792cf"/>
		</g>
	</g>
	<polygon id="polygon57" points="299 41.422 297.76 60.684 299.76 63.184 304.76 65.684 311.76 67.184 320.26 67.684 328.26 67.184 334.26 65.684 338.26 63.684 338.76 60.684 340 41.422" fill="#d8d9da"/>
	<polygon id="polygon59" points="71.5 4.422 34.5 6.422 35.677 24.187 38.677 25.687 44.177 27.187 51.177 27.687 58.677 27.187 65.177 26.187 70.177 24.187 72.677 22.187" fill="#d8d9da"/>
	<polygon id="polygon61" points="42 0.422 48.5 -1.078 55.5 -1.078 62.5 -0.578 68 0.422 71 2.422 71.5 4.422 69 6.422 64 8.422 57.5 9.422 50 9.922 43 9.422 37.5 7.922 34.5 6.422 34.5 3.922 37 1.922" fill="#eceded"/>
	<g id="g63">
		<g id="g65">
			<polygon id="polygon67" points="338 38.922 332.5 36.922 325.5 35.422 318 34.922 310 34.922 304 36.422 300 38.922 299 41.422 301 43.922 306 46.422 313 47.922 321.5 48.422 329.5 47.922 335.5 46.422 339.5 44.422 340 41.422" fill="#eceded"/>
		</g>
	</g>
</g>
<polygon id="polygon69" points="288.5 38.922 250 74.422 250.5 54.422 289.5 20.422" fill="#0077b6"/>
<polygon id="polygon71" points="250 74.422 68 45.922 67 26.922 250.5 54.422" fill="#0080c3"/>
<polygon id="polygon73" points="91.5 -41.578 33.5 -13.578 118 -2.578 67 26.922 250.5 54.422 289.5 20.422 394.5 34.422 423.5 -2.578" fill="#2792cf"/>
<polygon id="polygon75" points="341 317.42 401 204.92 400.5 210.42 400 215.92 340 329.92" fill="#c5c6c7"/>
<polygon id="polygon77" points="328.5 320.42 -9 237.92 -8.5 243.92 -8 249.42 327.5 332.92" fill="#d8d9da"/>
<metadata><rdf:RDF><cc:Work><dc:format>image/svg+xml</dc:format><dc:type rdf:resource="http://purl.org/dc/dcmitype/StillImage"/><cc:license rdf:resource="http://creativecommons.org/licenses/publicdomain/"/><dc:publisher><cc:Agent rdf:about="http://openclipart.org/"><dc:title>Openclipart</dc:title></cc:Agent></dc:publisher><dc:title>Car battery</dc:title><dc:date>2010-06-14T22:12:26</dc:date><dc:description>battery, car battery, clip art, clipart, current, electrical, part, power, source, start, vehicle, </dc:description><dc:source>http://openclipart.org/detail/66793/car-battery-by-gramzon</dc:source><dc:creator><cc:Agent><dc:title>gramzon</dc:title></cc:Agent></dc:creator><dc:subject><rdf:Bag><rdf:li>battery</rdf:li><rdf:li>car battery</rdf:li><rdf:li>clip art</rdf:li><rdf:li>clipart</rdf:li><rdf:li>current</rdf:li><rdf:li>electrical</rdf:li><rdf:li>part</rdf:li><rdf:li>power</rdf:li><rdf:li>source</rdf:li><rdf:li>start</rdf:li><rdf:li>vehicle</rdf:li></rdf:Bag></dc:subject></cc:Work><cc:License rdf:about="http://creativecommons.org/licenses/publicdomain/"><cc:permits rdf:resource="http://creativecommons.org/ns#Reproduction"/><cc:permits rdf:resource="http://creativecommons.org/ns#Distribution"/><cc:permits rdf:resource="http://creativecommons.org/ns#DerivativeWorks"/></cc:License></rdf:RDF></metadata></svg>
