<?xml version="1.0" standalone="yes"?>
<svg xmlns="http://www.w3.org/2000/svg" width="494" height="468">
<path style="fill:#010202; stroke:none;" d="M0 0L0 468L494 468L494 0L0 0z"/>
<path style="fill:#ffffff; stroke:none;" d="M5 4L5 463L489 463L489 4L5 4z"/>
<path style="fill:#f7b466; stroke:none;" d="M85.6667 146.333L86.3333 146.667L85.6667 146.333z"/>
<path style="fill:#83340f; stroke:none;" d="M87 146L87 147L92 147L87 146z"/>
<path style="fill:#010202; stroke:none;" d="M92 146.424C74.4548 148.727 58.9897 151.308 45 163.3C9.03694 194.128 8.45773 266.533 44 297.816C62.5235 314.119 88.3513 317.656 112 314.714C196.48 304.203 199.248 164.547 117 148.2C109.121 146.634 99.9931 145.375 92 146.424z"/>
<path style="fill:#83340f; stroke:none;" d="M102 146L102 147L107 147L102 146z"/>
<path style="fill:#61aeeb; stroke:none;" d="M107 146L108 147L107 146z"/>
<path style="fill:#f7b466; stroke:none;" d="M108 146L109 147L108 146M78 147L79 148L78 147z"/>
<path style="fill:#83340f; stroke:none;" d="M79.6667 147.333L80.3333 147.667L79.6667 147.333M113.667 147.333L114.333 147.667L113.667 147.333z"/>
<path style="fill:#f7b466; stroke:none;" d="M115 147L116 148L115 147M73 148L74 149L73 148z"/>
<path style="fill:#83340f; stroke:none;" d="M74.6667 148.333L75.3333 148.667L74.6667 148.333M118 148L119 149L118 148z"/>
<path style="fill:#61aeeb; stroke:none;" d="M119 148L120 149L119 148M70 149L71 150L70 149z"/>
<path style="fill:#83340f; stroke:none;" d="M71 149L72 150L71 149z"/>
<path style="fill:#61aeeb; stroke:none;" d="M123 149L124 150L123 149z"/>
<path style="fill:#83340f; stroke:none;" d="M192 149L192 177L193 177L192 149z"/>
<path style="fill:#010202; stroke:none;" d="M193 149L193 177L240 177L240 313L272 313L272 177L321 177L321 149L193 149z"/>
<path style="fill:#61aeeb; stroke:none;" d="M321 149L321 177L322 177L321 149z"/>
<path style="fill:#f7b466; stroke:none;" d="M342 149L342 313L343 313L343 198C343 184.223 347.306 161.645 342 149z"/>
<path style="fill:#010202; stroke:none;" d="M343 149L343 313L467 313L467 285L376 285L376 241L458 241L458 213L376 213L376 177L464 177L464 149L343 149z"/>
<path style="fill:#61aeeb; stroke:none;" d="M464 149L464 177L465 177L464 149z"/>
<path style="fill:#83340f; stroke:none;" d="M67 150L68 151L67 150z"/>
<path style="fill:#61aeeb; stroke:none;" d="M126 150L127 151L126 150z"/>
<path style="fill:#83340f; stroke:none;" d="M64 151L65 152L64 151z"/>
<path style="fill:#61aeeb; stroke:none;" d="M129 151L130 152L129 151z"/>
<path style="fill:#f7b466; stroke:none;" d="M61 152L62 153L61 152z"/>
<path style="fill:#83340f; stroke:none;" d="M62 152L63 153L62 152z"/>
<path style="fill:#61aeeb; stroke:none;" d="M131 152L132 153L131 152z"/>
<path style="fill:#f7b466; stroke:none;" d="M59 153L60 154L59 153z"/>
<path style="fill:#61aeeb; stroke:none;" d="M134 153L135 154L134 153z"/>
<path style="fill:#f7b466; stroke:none;" d="M57 154L58 155L57 154z"/>
<path style="fill:#61aeeb; stroke:none;" d="M136 154L137 155L136 154z"/>
<path style="fill:#f7b466; stroke:none;" d="M55 155L56 156L55 155z"/>
<path style="fill:#83340f; stroke:none;" d="M56 155L57 156L56 155M54 156L55 157L54 156z"/>
<path style="fill:#61aeeb; stroke:none;" d="M139 156L140 157L139 156z"/>
<path style="fill:#f7b466; stroke:none;" d="M52 157L53 158L52 157z"/>
<path style="fill:#61aeeb; stroke:none;" d="M141 157L142 158L141 157z"/>
<path style="fill:#83340f; stroke:none;" d="M51 158L52 159L51 158z"/>
<path style="fill:#f7b466; stroke:none;" d="M49 159L50 160L49 159z"/>
<path style="fill:#61aeeb; stroke:none;" d="M144 159L145 160L144 159z"/>
<path style="fill:#83340f; stroke:none;" d="M48 160L49 161L48 160M47 161L48 162L47 161z"/>
<path style="fill:#61aeeb; stroke:none;" d="M147 161L148 162L147 161z"/>
<path style="fill:#f7b466; stroke:none;" d="M45 162L46 163L45 162z"/>
<path style="fill:#61aeeb; stroke:none;" d="M148 162L149 163L148 162z"/>
<path style="fill:#f7b466; stroke:none;" d="M44 163L45 164L44 163z"/>
<path style="fill:#61aeeb; stroke:none;" d="M149 163L150 164L149 163z"/>
<path style="fill:#f7b466; stroke:none;" d="M43 164L44 165L43 164M42 165L43 166L42 165M41 166L42 167L41 166M40 167L41 168L40 167M39 168L40 169L39 168M38 169L39 170L38 169M37 170L38 171L37 170M36 171L37 172L36 171z"/>
<path style="fill:#83340f; stroke:none;" d="M36 172L37 173L36 172z"/>
<path style="fill:#61aeeb; stroke:none;" d="M158 172L159 173L158 172z"/>
<path style="fill:#83340f; stroke:none;" d="M35 173L36 174L35 173z"/>
<path style="fill:#61aeeb; stroke:none;" d="M159 173L160 174L159 173z"/>
<path style="fill:#f7b466; stroke:none;" d="M34 174L35 175L34 174z"/>
<path style="fill:#83340f; stroke:none;" d="M88.6667 174.333L89.3333 174.667L88.6667 174.333z"/>
<path style="fill:#61aeeb; stroke:none;" d="M90 174L91 175L90 174z"/>
<path style="fill:#f7b466; stroke:none;" d="M91 174L92 175L91 174z"/>
<path style="fill:#ffffff; stroke:none;" d="M92 174.428C33.6559 182.786 40.1318 295.312 102 287.714C161.003 280.467 155.137 165.383 92 174.428z"/>
<path style="fill:#f7b466; stroke:none;" d="M103.667 174.333L104.333 174.667L103.667 174.333z"/>
<path style="fill:#83340f; stroke:none;" d="M105.667 174.333L106.333 174.667L105.667 174.333z"/>
<path style="fill:#61aeeb; stroke:none;" d="M160 174L161 175L160 174z"/>
<path style="fill:#f7b466; stroke:none;" d="M33 175L34 176L33 175z"/>
<path style="fill:#61aeeb; stroke:none;" d="M84.6667 175.333L85.3333 175.667L84.6667 175.333z"/>
<path style="fill:#f7b466; stroke:none;" d="M109 175L110 176L109 175z"/>
<path style="fill:#83340f; stroke:none;" d="M110 175L111 176L110 175M33 176L34 177L33 176z"/>
<path style="fill:#61aeeb; stroke:none;" d="M81 176L82 177L81 176z"/>
<path style="fill:#83340f; stroke:none;" d="M113 176L114 177L113 176z"/>
<path style="fill:#61aeeb; stroke:none;" d="M161 176L162 177L161 176z"/>
<path style="fill:#83340f; stroke:none;" d="M32 177L33 178L32 177z"/>
<path style="fill:#61aeeb; stroke:none;" d="M79 177L80 178L79 177z"/>
<path style="fill:#f7b466; stroke:none;" d="M115 177L116 178L115 177z"/>
<path style="fill:#83340f; stroke:none;" d="M116 177L117 178L116 177z"/>
<path style="fill:#61aeeb; stroke:none;" d="M162 177L163 178L162 177z"/>
<path style="fill:#f7b466; stroke:none;" d="M239 177L239 313L240 313L240 218C240 206.318 243.507 187.742 239 177z"/>
<path style="fill:#61aeeb; stroke:none;" d="M272 177L272 313L273 313L273 218C273 206.318 276.507 187.742 272 177z"/>
<path style="fill:#f7b466; stroke:none;" d="M31 178L32 179L31 178z"/>
<path style="fill:#83340f; stroke:none;" d="M76 178L77 179L76 178M118 178L119 179L118 178M31 179L32 180L31 179z"/>
<path style="fill:#61aeeb; stroke:none;" d="M75 179L76 180L75 179z"/>
<path style="fill:#f7b466; stroke:none;" d="M119 179L120 180L119 179z"/>
<path style="fill:#83340f; stroke:none;" d="M120 179L121 180L120 179z"/>
<path style="fill:#61aeeb; stroke:none;" d="M163 179L164 180L163 179z"/>
<path style="fill:#83340f; stroke:none;" d="M30 180L31 181L30 180z"/>
<path style="fill:#61aeeb; stroke:none;" d="M73 180L74 181L73 180z"/>
<path style="fill:#f7b466; stroke:none;" d="M121 180L122 181L121 180z"/>
<path style="fill:#61aeeb; stroke:none;" d="M164 180L165 181L164 180z"/>
<path style="fill:#f7b466; stroke:none;" d="M29 181L30 182L29 181z"/>
<path style="fill:#83340f; stroke:none;" d="M123 181L124 182L123 181M29 182L30 183L29 182z"/>
<path style="fill:#61aeeb; stroke:none;" d="M70 182L71 183L70 182z"/>
<path style="fill:#83340f; stroke:none;" d="M124 182L125 183L124 182z"/>
<path style="fill:#61aeeb; stroke:none;" d="M165 182L166 183L165 182z"/>
<path style="fill:#f7b466; stroke:none;" d="M28 183L29 184L28 183z"/>
<path style="fill:#61aeeb; stroke:none;" d="M69 183L70 184L69 183z"/>
<path style="fill:#f7b466; stroke:none;" d="M125 183L126 184L125 183z"/>
<path style="fill:#61aeeb; stroke:none;" d="M166.333 183.667L166.667 184.333L166.333 183.667z"/>
<path style="fill:#83340f; stroke:none;" d="M28 184L29 185L28 184z"/>
<path style="fill:#61aeeb; stroke:none;" d="M68 184L69 185L68 184z"/>
<path style="fill:#f7b466; stroke:none;" d="M126 184L127 185L126 184M27 185L28 186L27 185z"/>
<path style="fill:#61aeeb; stroke:none;" d="M67 185L68 186L67 185z"/>
<path style="fill:#f7b466; stroke:none;" d="M127 185L128 186L127 185z"/>
<path style="fill:#61aeeb; stroke:none;" d="M167.333 185.667L167.667 186.333L167.333 185.667z"/>
<path style="fill:#83340f; stroke:none;" d="M27 186L28 187L27 186z"/>
<path style="fill:#f7b466; stroke:none;" d="M128 186L129 187L128 186M26 187L27 188L26 187z"/>
<path style="fill:#61aeeb; stroke:none;" d="M65 187L66 188L65 187z"/>
<path style="fill:#f7b466; stroke:none;" d="M129 187L130 188L129 187z"/>
<path style="fill:#61aeeb; stroke:none;" d="M168.333 187.667L168.667 188.333L168.333 187.667z"/>
<path style="fill:#83340f; stroke:none;" d="M26 188L27 189L26 188z"/>
<path style="fill:#61aeeb; stroke:none;" d="M64 188L65 189L64 188z"/>
<path style="fill:#f7b466; stroke:none;" d="M130 188L131 189L130 188M25 189L26 190L25 189z"/>
<path style="fill:#61aeeb; stroke:none;" d="M63 189L64 190L63 189z"/>
<path style="fill:#f7b466; stroke:none;" d="M131 189L132 190L131 189z"/>
<path style="fill:#83340f; stroke:none;" d="M25 190L26 191L25 190z"/>
<path style="fill:#61aeeb; stroke:none;" d="M62 190L63 191L62 190z"/>
<path style="fill:#83340f; stroke:none;" d="M132 190L133 191L132 190z"/>
<path style="fill:#61aeeb; stroke:none;" d="M169 190L170 191L169 190z"/>
<path style="fill:#f7b466; stroke:none;" d="M24 191L25 192L24 191z"/>
<path style="fill:#83340f; stroke:none;" d="M133 191L134 192L133 191M24.3333 192.667L24.6667 193.333L24.3333 192.667z"/>
<path style="fill:#61aeeb; stroke:none;" d="M61 192L62 193L61 192z"/>
<path style="fill:#f7b466; stroke:none;" d="M133 192L134 193L133 192z"/>
<path style="fill:#61aeeb; stroke:none;" d="M170.333 192.667L170.667 193.333L170.333 192.667M60 193L61 194L60 193z"/>
<path style="fill:#83340f; stroke:none;" d="M134 193L135 194L134 193z"/>
<path style="fill:#f7b466; stroke:none;" d="M23 194L24 195L23 194M134 194L135 195L134 194z"/>
<path style="fill:#83340f; stroke:none;" d="M23 195L24 196L23 195z"/>
<path style="fill:#61aeeb; stroke:none;" d="M59 195L60 196L59 195z"/>
<path style="fill:#f7b466; stroke:none;" d="M135 195L136 196L135 195z"/>
<path style="fill:#61aeeb; stroke:none;" d="M171.333 195.667L171.667 196.333L171.333 195.667z"/>
<path style="fill:#f7b466; stroke:none;" d="M22.3333 196.667L22.6667 197.333L22.3333 196.667z"/>
<path style="fill:#83340f; stroke:none;" d="M136 196L137 197L136 196z"/>
<path style="fill:#61aeeb; stroke:none;" d="M58 197L59 198L58 197z"/>
<path style="fill:#f7b466; stroke:none;" d="M136.333 197.667L136.667 198.333L136.333 197.667z"/>
<path style="fill:#83340f; stroke:none;" d="M22.3333 198.667L22.6667 199.333L22.3333 198.667z"/>
<path style="fill:#61aeeb; stroke:none;" d="M172.333 198.667L172.667 199.333L172.333 198.667M57 199L58 200L57 199z"/>
<path style="fill:#83340f; stroke:none;" d="M137 199L138 200L137 199z"/>
<path style="fill:#f7b466; stroke:none;" d="M21 200L22 201L21 200M137 200L138 201L137 200z"/>
<path style="fill:#83340f; stroke:none;" d="M21.3333 201.667L21.6667 202.333L21.3333 201.667z"/>
<path style="fill:#61aeeb; stroke:none;" d="M56.3333 201.667L56.6667 202.333L56.3333 201.667z"/>
<path style="fill:#83340f; stroke:none;" d="M138 201L139 202L138 201z"/>
<path style="fill:#61aeeb; stroke:none;" d="M173 201L173 204L174 204L173 201z"/>
<path style="fill:#f7b466; stroke:none;" d="M138.333 202.667L138.667 203.333L138.333 202.667M20 203L20 206L21 206L20 203z"/>
<path style="fill:#61aeeb; stroke:none;" d="M55.3333 204.667L55.6667 205.333L55.3333 204.667z"/>
<path style="fill:#83340f; stroke:none;" d="M139 204L140 205L139 204z"/>
<path style="fill:#f7b466; stroke:none;" d="M139.333 205.667L139.667 206.333L139.333 205.667z"/>
<path style="fill:#61aeeb; stroke:none;" d="M174 205L174 208L175 208L174 205z"/>
<path style="fill:#83340f; stroke:none;" d="M20.3333 206.667L20.6667 207.333L20.3333 206.667z"/>
<path style="fill:#61aeeb; stroke:none;" d="M54 207L54 210L55 210L54 207z"/>
<path style="fill:#83340f; stroke:none;" d="M140.333 207.667L140.667 208.333L140.333 207.667z"/>
<path style="fill:#f7b466; stroke:none;" d="M19 208L19 211L20 211L19 208M140 209L140 212L141 212L140 209z"/>
<path style="fill:#61aeeb; stroke:none;" d="M175 210L175 214L176 214L175 210z"/>
<path style="fill:#83340f; stroke:none;" d="M19 211L19 215L20 215L19 211z"/>
<path style="fill:#61aeeb; stroke:none;" d="M53 212L53 216L54 216L53 212z"/>
<path style="fill:#83340f; stroke:none;" d="M141.333 212.667L141.667 213.333L141.333 212.667z"/>
<path style="fill:#61aeeb; stroke:none;" d="M458 213L458 241L459 241L458 213z"/>
<path style="fill:#f7b466; stroke:none;" d="M141 214L141 218L142 218L141 214M18 215L18 220L19 220L18 215z"/>
<path style="fill:#61aeeb; stroke:none;" d="M176 217L176 227L177 227L176 217M52 218L52 228L53 228L52 218z"/>
<path style="fill:#83340f; stroke:none;" d="M142 218L142 224L143 224L142 218M18 220L18 244L19 244L18 220z"/>
<path style="fill:#f7b466; stroke:none;" d="M142 224L142 237L143 237L142 224z"/>
<path style="fill:#61aeeb; stroke:none;" d="M52 234L52 243L53 243L52 234M176 236L176 245L177 245L176 236z"/>
<path style="fill:#83340f; stroke:none;" d="M142 237L142 243L143 243L142 237z"/>
<path style="fill:#f7b466; stroke:none;" d="M141 243L141 247L142 247L141 243M18 244L18 248L19 248L18 244z"/>
<path style="fill:#61aeeb; stroke:none;" d="M53 246L53 250L54 250L53 246z"/>
<path style="fill:#83340f; stroke:none;" d="M141.333 247.667L141.667 248.333L141.333 247.667M19 248L19 252L20 252L19 248z"/>
<path style="fill:#61aeeb; stroke:none;" d="M175 248L175 252L176 252L175 248z"/>
<path style="fill:#f7b466; stroke:none;" d="M140 249L140 252L141 252L140 249z"/>
<path style="fill:#61aeeb; stroke:none;" d="M54 251L54 254L55 254L54 251z"/>
<path style="fill:#f7b466; stroke:none;" d="M19.3333 252.667L19.6667 253.333L19.3333 252.667z"/>
<path style="fill:#83340f; stroke:none;" d="M140.333 252.667L140.667 253.333L140.333 252.667M20 254L20 257L21 257L20 254z"/>
<path style="fill:#f7b466; stroke:none;" d="M139.333 254.667L139.667 255.333L139.333 254.667z"/>
<path style="fill:#61aeeb; stroke:none;" d="M174 254L174 257L175 257L174 254M55.3333 255.667L55.6667 256.333L55.3333 255.667z"/>
<path style="fill:#83340f; stroke:none;" d="M139 256L140 257L139 256z"/>
<path style="fill:#f7b466; stroke:none;" d="M20.3333 257.667L20.6667 258.333L20.3333 257.667M138.333 257.667L138.667 258.333L138.333 257.667z"/>
<path style="fill:#61aeeb; stroke:none;" d="M56.3333 258.667L56.6667 259.333L56.3333 258.667z"/>
<path style="fill:#83340f; stroke:none;" d="M21.3333 259.667L21.6667 260.333L21.3333 259.667M138 259L139 260L138 259z"/>
<path style="fill:#61aeeb; stroke:none;" d="M173.333 259.667L173.667 260.333L173.333 259.667z"/>
<path style="fill:#f7b466; stroke:none;" d="M137 260L138 261L137 260M21.3333 261.667L21.6667 262.333L21.3333 261.667z"/>
<path style="fill:#61aeeb; stroke:none;" d="M57 261L58 262L57 261z"/>
<path style="fill:#83340f; stroke:none;" d="M137 261L138 262L137 261z"/>
<path style="fill:#f7b466; stroke:none;" d="M136.333 262.667L136.667 263.333L136.333 262.667z"/>
<path style="fill:#83340f; stroke:none;" d="M22 263L23 264L22 263z"/>
<path style="fill:#61aeeb; stroke:none;" d="M58 263L59 264L58 263M172.333 263.667L172.667 264.333L172.333 263.667z"/>
<path style="fill:#f7b466; stroke:none;" d="M22.3333 264.667L22.6667 265.333L22.3333 264.667z"/>
<path style="fill:#83340f; stroke:none;" d="M136 264L137 265L136 264z"/>
<path style="fill:#61aeeb; stroke:none;" d="M59 265L60 266L59 265z"/>
<path style="fill:#f7b466; stroke:none;" d="M135 265L136 266L135 265z"/>
<path style="fill:#83340f; stroke:none;" d="M23 266L24 267L23 266z"/>
<path style="fill:#f7b466; stroke:none;" d="M134 266L135 267L134 266z"/>
<path style="fill:#61aeeb; stroke:none;" d="M171.333 266.667L171.667 267.333L171.333 266.667z"/>
<path style="fill:#f7b466; stroke:none;" d="M23.3333 267.667L23.6667 268.333L23.3333 267.667z"/>
<path style="fill:#61aeeb; stroke:none;" d="M60 267L61 268L60 267z"/>
<path style="fill:#83340f; stroke:none;" d="M134 267L135 268L134 267z"/>
<path style="fill:#61aeeb; stroke:none;" d="M61 268L62 269L61 268z"/>
<path style="fill:#f7b466; stroke:none;" d="M133 268L134 269L133 268z"/>
<path style="fill:#83340f; stroke:none;" d="M24 269L25 270L24 269M133 269L134 270L133 269z"/>
<path style="fill:#61aeeb; stroke:none;" d="M170 269L171 270L170 269z"/>
<path style="fill:#f7b466; stroke:none;" d="M24 270L25 271L24 270z"/>
<path style="fill:#61aeeb; stroke:none;" d="M62 270L63 271L62 270z"/>
<path style="fill:#83340f; stroke:none;" d="M132 270L133 271L132 270M25 271L26 272L25 271z"/>
<path style="fill:#61aeeb; stroke:none;" d="M63 271L64 272L63 271z"/>
<path style="fill:#f7b466; stroke:none;" d="M131 271L132 272L131 271z"/>
<path style="fill:#61aeeb; stroke:none;" d="M169.333 271.667L169.667 272.333L169.333 271.667z"/>
<path style="fill:#f7b466; stroke:none;" d="M25.3333 272.667L25.6667 273.333L25.3333 272.667M130 272L131 273L130 272z"/>
<path style="fill:#83340f; stroke:none;" d="M130 273L131 274L130 273z"/>
<path style="fill:#61aeeb; stroke:none;" d="M168.333 273.667L168.667 274.333L168.333 273.667z"/>
<path style="fill:#83340f; stroke:none;" d="M26 274L27 275L26 274M129 274L130 275L129 274z"/>
<path style="fill:#f7b466; stroke:none;" d="M26 275L27 276L26 275z"/>
<path style="fill:#83340f; stroke:none;" d="M128 275L129 276L128 275M27 276L28 277L27 276M127 276L128 277L127 276z"/>
<path style="fill:#61aeeb; stroke:none;" d="M167 276L168 277L167 276z"/>
<path style="fill:#f7b466; stroke:none;" d="M27 277L28 278L27 277z"/>
<path style="fill:#83340f; stroke:none;" d="M126 277L127 278L126 277M28 278L29 279L28 278z"/>
<path style="fill:#f7b466; stroke:none;" d="M124 278L125 279L124 278z"/>
<path style="fill:#61aeeb; stroke:none;" d="M166 278L167 279L166 278z"/>
<path style="fill:#83340f; stroke:none;" d="M29 279L30 280L29 279z"/>
<path style="fill:#61aeeb; stroke:none;" d="M71 279L72 280L71 279z"/>
<path style="fill:#f7b466; stroke:none;" d="M123 279L124 280L123 279z"/>
<path style="fill:#61aeeb; stroke:none;" d="M165.333 279.667L165.667 280.333L165.333 279.667z"/>
<path style="fill:#f7b466; stroke:none;" d="M29 280L30 281L29 280z"/>
<path style="fill:#61aeeb; stroke:none;" d="M72 280L73 281L72 280z"/>
<path style="fill:#83340f; stroke:none;" d="M122 280L123 281L122 280M30 281L31 282L30 281z"/>
<path style="fill:#61aeeb; stroke:none;" d="M74 281L75 282L74 281z"/>
<path style="fill:#f7b466; stroke:none;" d="M120 281L121 282L120 281z"/>
<path style="fill:#83340f; stroke:none;" d="M121 281L122 282L121 281z"/>
<path style="fill:#61aeeb; stroke:none;" d="M164 281L165 282L164 281z"/>
<path style="fill:#f7b466; stroke:none;" d="M30 282L31 283L30 282z"/>
<path style="fill:#61aeeb; stroke:none;" d="M75 282L76 283L75 282z"/>
<path style="fill:#83340f; stroke:none;" d="M119 282L120 283L119 282M31 283L32 284L31 283z"/>
<path style="fill:#61aeeb; stroke:none;" d="M77 283L78 284L77 283z"/>
<path style="fill:#83340f; stroke:none;" d="M117 283L118 284L117 283z"/>
<path style="fill:#61aeeb; stroke:none;" d="M163 283L164 284L163 283z"/>
<path style="fill:#83340f; stroke:none;" d="M32 284L33 285L32 284z"/>
<path style="fill:#61aeeb; stroke:none;" d="M79 284L80 285L79 284z"/>
<path style="fill:#83340f; stroke:none;" d="M115 284L116 285L115 284z"/>
<path style="fill:#61aeeb; stroke:none;" d="M162 284L163 285L162 284z"/>
<path style="fill:#f7b466; stroke:none;" d="M32 285L33 286L32 285z"/>
<path style="fill:#61aeeb; stroke:none;" d="M82 285L83 286L82 285z"/>
<path style="fill:#f7b466; stroke:none;" d="M112 285L113 286L112 285z"/>
<path style="fill:#83340f; stroke:none;" d="M113 285L114 286L113 285z"/>
<path style="fill:#61aeeb; stroke:none;" d="M467 285L467 313L468 313L467 285z"/>
<path style="fill:#f7b466; stroke:none;" d="M33 286L34 287L33 286z"/>
<path style="fill:#61aeeb; stroke:none;" d="M85 286L86 287L85 286z"/>
<path style="fill:#f7b466; stroke:none;" d="M109 286L110 287L109 286z"/>
<path style="fill:#83340f; stroke:none;" d="M110 286L111 287L110 286z"/>
<path style="fill:#61aeeb; stroke:none;" d="M161 286L162 287L161 286z"/>
<path style="fill:#83340f; stroke:none;" d="M34 287L35 288L34 287M89 287L90 288L89 287z"/>
<path style="fill:#61aeeb; stroke:none;" d="M90 287L91 288L90 287z"/>
<path style="fill:#f7b466; stroke:none;" d="M91 287L92 288L91 287M103.667 287.333L104.333 287.667L103.667 287.333z"/>
<path style="fill:#83340f; stroke:none;" d="M105.667 287.333L106.333 287.667L105.667 287.333z"/>
<path style="fill:#61aeeb; stroke:none;" d="M160 287L161 288L160 287z"/>
<path style="fill:#83340f; stroke:none;" d="M35 288L36 289L35 288z"/>
<path style="fill:#61aeeb; stroke:none;" d="M159 288L160 289L159 288z"/>
<path style="fill:#f7b466; stroke:none;" d="M35 289L36 290L35 289M36 290L37 291L36 290M37 291L38 292L37 291z"/>
<path style="fill:#61aeeb; stroke:none;" d="M157 291L158 292L157 291z"/>
<path style="fill:#f7b466; stroke:none;" d="M38 292L39 293L38 292z"/>
<path style="fill:#61aeeb; stroke:none;" d="M156 292L157 293L156 292z"/>
<path style="fill:#83340f; stroke:none;" d="M39 293L40 294L39 293z"/>
<path style="fill:#61aeeb; stroke:none;" d="M155 293L156 294L155 293z"/>
<path style="fill:#83340f; stroke:none;" d="M40 294L41 295L40 294z"/>
<path style="fill:#61aeeb; stroke:none;" d="M154 294L155 295L154 294z"/>
<path style="fill:#83340f; stroke:none;" d="M41 295L42 296L41 295z"/>
<path style="fill:#61aeeb; stroke:none;" d="M153 295L154 296L153 295z"/>
<path style="fill:#f7b466; stroke:none;" d="M42 296L43 297L42 296z"/>
<path style="fill:#61aeeb; stroke:none;" d="M152 296L153 297L152 296z"/>
<path style="fill:#f7b466; stroke:none;" d="M43 297L44 298L43 297z"/>
<path style="fill:#61aeeb; stroke:none;" d="M151 297L152 298L151 297z"/>
<path style="fill:#f7b466; stroke:none;" d="M44 298L45 299L44 298M45 299L46 300L45 299z"/>
<path style="fill:#83340f; stroke:none;" d="M47 300L48 301L47 300z"/>
<path style="fill:#61aeeb; stroke:none;" d="M147 300L148 301L147 300z"/>
<path style="fill:#f7b466; stroke:none;" d="M48 301L49 302L48 301z"/>
<path style="fill:#61aeeb; stroke:none;" d="M146 301L147 302L146 301z"/>
<path style="fill:#f7b466; stroke:none;" d="M49 302L50 303L49 302z"/>
<path style="fill:#83340f; stroke:none;" d="M50 302L51 303L50 302z"/>
<path style="fill:#61aeeb; stroke:none;" d="M144 302L145 303L144 302z"/>
<path style="fill:#83340f; stroke:none;" d="M51 303L52 304L51 303z"/>
<path style="fill:#61aeeb; stroke:none;" d="M143 303L144 304L143 303z"/>
<path style="fill:#f7b466; stroke:none;" d="M52 304L53 305L52 304z"/>
<path style="fill:#83340f; stroke:none;" d="M53 304L54 305L53 304z"/>
<path style="fill:#61aeeb; stroke:none;" d="M141 304L142 305L141 304z"/>
<path style="fill:#f7b466; stroke:none;" d="M54 305L55 306L54 305z"/>
<path style="fill:#61aeeb; stroke:none;" d="M140 305L141 306L140 305z"/>
<path style="fill:#83340f; stroke:none;" d="M56 306L57 307L56 306z"/>
<path style="fill:#61aeeb; stroke:none;" d="M138 306L139 307L138 306z"/>
<path style="fill:#83340f; stroke:none;" d="M58 307L59 308L58 307z"/>
<path style="fill:#61aeeb; stroke:none;" d="M136 307L137 308L136 307z"/>
<path style="fill:#83340f; stroke:none;" d="M60 308L61 309L60 308z"/>
<path style="fill:#61aeeb; stroke:none;" d="M134 308L135 309L134 308z"/>
<path style="fill:#f7b466; stroke:none;" d="M62 309L63 310L62 309z"/>
<path style="fill:#61aeeb; stroke:none;" d="M132 309L133 310L132 309z"/>
<path style="fill:#83340f; stroke:none;" d="M65 310L66 311L65 310z"/>
<path style="fill:#61aeeb; stroke:none;" d="M129 310L130 311L129 310z"/>
<path style="fill:#f7b466; stroke:none;" d="M67 311L68 312L67 311z"/>
<path style="fill:#83340f; stroke:none;" d="M68 311L69 312L68 311z"/>
<path style="fill:#61aeeb; stroke:none;" d="M126 311L127 312L126 311z"/>
<path style="fill:#f7b466; stroke:none;" d="M70 312L71 313L70 312z"/>
<path style="fill:#83340f; stroke:none;" d="M71 312L72 313L71 312z"/>
<path style="fill:#61aeeb; stroke:none;" d="M123 312L124 313L123 312z"/>
<path style="fill:#f7b466; stroke:none;" d="M74 313L75 314L74 313z"/>
<path style="fill:#83340f; stroke:none;" d="M75 313L76 314L75 313z"/>
<path style="fill:#61aeeb; stroke:none;" d="M119.667 313.333L120.333 313.667L119.667 313.333z"/>
<path style="fill:#f7b466; stroke:none;" d="M79 314L80 315L79 314z"/>
<path style="fill:#83340f; stroke:none;" d="M80.6667 314.333L81.3333 314.667L80.6667 314.333M113.667 314.333L114.333 314.667L113.667 314.333z"/>
<path style="fill:#61aeeb; stroke:none;" d="M115 314L116 315L115 314z"/>
<path style="fill:#f7b466; stroke:none;" d="M85.6667 315.333L86.3333 315.667L85.6667 315.333z"/>
<path style="fill:#83340f; stroke:none;" d="M87 315L87 316L92 316L87 315M103 315L103 316L108 316L103 315z"/>
<path style="fill:#61aeeb; stroke:none;" d="M108 315L109 316L108 315z"/>
<path style="fill:#f7b466; stroke:none;" d="M109 315L110 316L109 315z"/>
</svg>
