<?xml version="1.0" standalone="yes"?>
<svg xmlns="http://www.w3.org/2000/svg" width="494" height="468">
<path style="fill:#010101; stroke:none;" d="M0 0L0 468L494 468L494 0L0 0z"/>
<path style="fill:#ffffff; stroke:none;" d="M5 4L5 463L489 463L489 4L5 4z"/>
<path style="fill:#010101; stroke:none;" d="M112 85L112 407L252 407C280.464 407 312.252 408.599 338 394.334C377.28 372.572 395.218 315.801 372.827 276C361.681 256.187 343.081 244.871 322 238C335.415 230.17 346.324 222.458 354.771 209C380.63 167.798 361.203 115.611 319 95.2585C296.281 84.3023 270.346 87.0268 246 85.9606C201.459 84.01 156.635 85 112 85z"/>
<path style="fill:#ffffff; stroke:none;" d="M177 140L177 214L242 214C255.675 214 270.168 215.047 283 209.247C304.223 199.654 311.805 166.558 292.91 150.518C281.013 140.419 264.633 141 250 141C225.617 141 201.39 140 177 140M177 269L177 352L254 352C268.667 352 284.966 352.987 298 344.87C322.431 329.657 320.736 290.158 295 277.248C278.723 269.084 258.784 270.001 241 270C219.731 269.999 198.345 269 177 269z"/>
</svg>
