<?xml version="1.0" standalone="yes"?>
<svg xmlns="http://www.w3.org/2000/svg" width="494" height="468">
<path style="fill:#010102; stroke:none;" d="M0 0L0 468L494 468L494 0L0 0z"/>
<path style="fill:#ffffff; stroke:none;" d="M5 4L5 463L489 463L489 4L5 4z"/>
<path style="fill:#88370b; stroke:none;" d="M92 119L92 310L93 310L93 176L93 137L92 119z"/>
<path style="fill:#010102; stroke:none;" d="M93 119L93 310L131 310L131 119L93 119z"/>
<path style="fill:#fbb86a; stroke:none;" d="M256 119L256 310L257 310L257 176L257 137L256 119z"/>
<path style="fill:#010102; stroke:none;" d="M257 119L257 310C284.366 310 311.706 309.683 339 309.015C354.726 308.629 371.129 310.514 386 304.127C413.718 292.223 425.74 253.301 408.895 228C401.788 217.325 391.518 213.986 381 208C415.816 193.409 414.214 143.913 383 126.44C371.2 119.834 358.86 121.054 346 119.83C316.709 117.043 286.442 119 257 119z"/>
<path style="fill:#88370b; stroke:none;" d="M343 119L343 120L353 120L343 119z"/>
<path style="fill:#7fc8f4; stroke:none;" d="M353 119L353 120L357 120L353 119z"/>
<path style="fill:#88370b; stroke:none;" d="M362.667 120.333L363.333 120.667L362.667 120.333z"/>
<path style="fill:#7fc8f4; stroke:none;" d="M364.667 120.333L365.333 120.667L364.667 120.333z"/>
<path style="fill:#88370b; stroke:none;" d="M369 121L370 122L369 121z"/>
<path style="fill:#7fc8f4; stroke:none;" d="M370 121L371 122L370 121M373.667 122.333L374.333 122.667L373.667 122.333z"/>
<path style="fill:#88370b; stroke:none;" d="M376 123L377 124L376 123z"/>
<path style="fill:#7fc8f4; stroke:none;" d="M379 124L380 125L379 124M381 125L382 126L381 125M383 126L384 127L383 126z"/>
<path style="fill:#88370b; stroke:none;" d="M384 127L385 128L384 127z"/>
<path style="fill:#7fc8f4; stroke:none;" d="M385 127L386 128L385 127M386 128L387 129L386 128M388 129L389 130L388 129M389 130L390 131L389 130M390 131L391 132L390 131z"/>
<path style="fill:#88370b; stroke:none;" d="M391 132L392 133L391 132M392 133L393 134L392 133M393 134L394 135L393 134M394 135L395 136L394 135z"/>
<path style="fill:#7fc8f4; stroke:none;" d="M395 136L396 137L395 136M396 137L397 138L396 137M397 138L398 139L397 138z"/>
<path style="fill:#88370b; stroke:none;" d="M398 140L399 141L398 140z"/>
<path style="fill:#7fc8f4; stroke:none;" d="M399 141L400 142L399 141M400 142L401 143L400 142M401 144L402 145L401 144M402 146L403 147L402 146M403 148L404 149L403 148M404 150L405 151L404 150M295 151L295 195L296 195C296 182.52 299.81 162.463 295 151z"/>
<path style="fill:#ffffff; stroke:none;" d="M296 151L296 195C314.296 195 341.122 199.724 358 191.597C370.617 185.522 373.867 164.542 361.907 155.853C356.823 152.16 350.912 152.354 345 151.576C329.052 149.476 312.083 151 296 151z"/>
<path style="fill:#fbb86a; stroke:none;" d="M344 151L345 152L344 151z"/>
<path style="fill:#7fc8f4; stroke:none;" d="M345 151L345 152L348 152L345 151z"/>
<path style="fill:#fbb86a; stroke:none;" d="M348 151L349 152L348 151z"/>
<path style="fill:#88370b; stroke:none;" d="M349 151L349 152L352 152L349 151M404 151L405 152L404 151z"/>
<path style="fill:#fbb86a; stroke:none;" d="M354 152L355 153L354 152z"/>
<path style="fill:#88370b; stroke:none;" d="M355 152L356 153L355 152z"/>
<path style="fill:#fbb86a; stroke:none;" d="M357 153L358 154L357 153z"/>
<path style="fill:#88370b; stroke:none;" d="M358 153L359 154L358 153z"/>
<path style="fill:#7fc8f4; stroke:none;" d="M405 153L406 154L405 153z"/>
<path style="fill:#88370b; stroke:none;" d="M360 154L361 155L360 154M405 154L406 155L405 154z"/>
<path style="fill:#fbb86a; stroke:none;" d="M361 155L362 156L361 155z"/>
<path style="fill:#88370b; stroke:none;" d="M363 156L364 157L363 156z"/>
<path style="fill:#7fc8f4; stroke:none;" d="M406.333 156.667L406.667 157.333L406.333 156.667z"/>
<path style="fill:#88370b; stroke:none;" d="M364 157L365 158L364 157M365 158L366 159L365 158M406 158L407 159L406 158z"/>
<path style="fill:#fbb86a; stroke:none;" d="M365 159L366 160L365 159M366 160L367 161L366 160z"/>
<path style="fill:#88370b; stroke:none;" d="M367 161L368 162L367 161z"/>
<path style="fill:#fbb86a; stroke:none;" d="M367 162L368 163L367 162z"/>
<path style="fill:#7fc8f4; stroke:none;" d="M407 162L407 173L408 173L407 162z"/>
<path style="fill:#88370b; stroke:none;" d="M368 163L369 164L368 163z"/>
<path style="fill:#fbb86a; stroke:none;" d="M368.333 164.667L368.667 165.333L368.333 164.667z"/>
<path style="fill:#88370b; stroke:none;" d="M369.333 166.667L369.667 167.333L369.333 166.667z"/>
<path style="fill:#fbb86a; stroke:none;" d="M369 168L369 177L370 177L369 168z"/>
<path style="fill:#88370b; stroke:none;" d="M406 175L407 176L406 175z"/>
<path style="fill:#7fc8f4; stroke:none;" d="M406.333 176.667L406.667 177.333L406.333 176.667z"/>
<path style="fill:#88370b; stroke:none;" d="M369.333 177.667L369.667 178.333L369.333 177.667z"/>
<path style="fill:#fbb86a; stroke:none;" d="M368.333 179.667L368.667 180.333L368.333 179.667z"/>
<path style="fill:#88370b; stroke:none;" d="M405 179L406 180L405 179z"/>
<path style="fill:#7fc8f4; stroke:none;" d="M405.333 180.667L405.667 181.333L405.333 180.667z"/>
<path style="fill:#88370b; stroke:none;" d="M368 181L369 182L368 181z"/>
<path style="fill:#fbb86a; stroke:none;" d="M367 182L368 183L367 182z"/>
<path style="fill:#88370b; stroke:none;" d="M367 183L368 184L367 183z"/>
<path style="fill:#7fc8f4; stroke:none;" d="M404 183L405 184L404 183z"/>
<path style="fill:#fbb86a; stroke:none;" d="M366 184L367 185L366 184z"/>
<path style="fill:#88370b; stroke:none;" d="M366 185L367 186L366 185z"/>
<path style="fill:#7fc8f4; stroke:none;" d="M403.333 185.667L403.667 186.333L403.333 185.667z"/>
<path style="fill:#88370b; stroke:none;" d="M365 186L366 187L365 186M364 187L365 188L364 187M402 187L403 188L402 187M363 188L364 189L363 188z"/>
<path style="fill:#7fc8f4; stroke:none;" d="M402 188L403 189L402 188z"/>
<path style="fill:#fbb86a; stroke:none;" d="M361 189L362 190L361 189z"/>
<path style="fill:#7fc8f4; stroke:none;" d="M401 189L402 190L401 189z"/>
<path style="fill:#88370b; stroke:none;" d="M360 190L361 191L360 190z"/>
<path style="fill:#fbb86a; stroke:none;" d="M358 191L359 192L358 191z"/>
<path style="fill:#7fc8f4; stroke:none;" d="M400 191L401 192L400 191z"/>
<path style="fill:#88370b; stroke:none;" d="M356 192L357 193L356 192M399 192L400 193L399 192z"/>
<path style="fill:#fbb86a; stroke:none;" d="M352 193L353 194L352 193z"/>
<path style="fill:#88370b; stroke:none;" d="M353 193L354 194L353 193z"/>
<path style="fill:#fbb86a; stroke:none;" d="M343 194L344 195L343 194z"/>
<path style="fill:#7fc8f4; stroke:none;" d="M344.667 194.333L345.333 194.667L344.667 194.333z"/>
<path style="fill:#fbb86a; stroke:none;" d="M346 194L347 195L346 194z"/>
<path style="fill:#88370b; stroke:none;" d="M347 194L347 195L350 195L347 194z"/>
<path style="fill:#7fc8f4; stroke:none;" d="M398 194L399 195L398 194M397 195L398 196L397 195z"/>
<path style="fill:#88370b; stroke:none;" d="M396 196L397 197L396 196M390 202L391 203L390 202z"/>
<path style="fill:#7fc8f4; stroke:none;" d="M389 203L390 204L389 203M388 204L389 205L388 204M386 205L387 206L386 205z"/>
<path style="fill:#88370b; stroke:none;" d="M384 206L385 207L384 206M382 207L383 208L382 207z"/>
<path style="fill:#7fc8f4; stroke:none;" d="M383 207L384 208L383 207M381 208L382 209L381 208M383 209L384 210L383 209z"/>
<path style="fill:#88370b; stroke:none;" d="M385 210L386 211L385 210z"/>
<path style="fill:#7fc8f4; stroke:none;" d="M386 210L387 211L386 210M388 211L389 212L388 211z"/>
<path style="fill:#88370b; stroke:none;" d="M390 212L391 213L390 212M392 213L393 214L392 213z"/>
<path style="fill:#7fc8f4; stroke:none;" d="M394 214L395 215L394 214M396 215L397 216L396 215M397 216L398 217L397 216M400 218L401 219L400 218M401 219L402 220L401 219M402 220L403 221L402 220M403 221L404 222L403 221z"/>
<path style="fill:#88370b; stroke:none;" d="M163 222L163 259L164 259C164 248.351 167.111 231.798 163 222z"/>
<path style="fill:#010102; stroke:none;" d="M164 222L164 259L235 259L235 222L164 222z"/>
<path style="fill:#7fc8f4; stroke:none;" d="M235 222L235 259L236 259C236 248.351 239.111 231.798 235 222M404 222L405 223L404 222M405 223L406 224L405 223M406 224L407 225L406 224M295 227L295 278L296 278C296 263.689 300.508 240.127 295 227z"/>
<path style="fill:#ffffff; stroke:none;" d="M296 227L296 278C313.379 278 331.769 279.694 349 277.424C355.422 276.579 361.365 276.665 366.985 272.891C380.431 263.863 379.373 239.402 364.999 231.825C346.349 221.994 316.466 227 296 227z"/>
<path style="fill:#7fc8f4; stroke:none;" d="M342 227L342 228L345 228L342 227z"/>
<path style="fill:#fbb86a; stroke:none;" d="M345 227L346 228L345 227z"/>
<path style="fill:#88370b; stroke:none;" d="M346 227L346 228L350 228L346 227z"/>
<path style="fill:#7fc8f4; stroke:none;" d="M408 227L409 228L408 227M354.667 228.333L355.333 228.667L354.667 228.333z"/>
<path style="fill:#88370b; stroke:none;" d="M356 228L357 229L356 228z"/>
<path style="fill:#7fc8f4; stroke:none;" d="M409 228L410 229L409 228z"/>
<path style="fill:#fbb86a; stroke:none;" d="M359 229L360 230L359 229z"/>
<path style="fill:#88370b; stroke:none;" d="M360 229L361 230L360 229z"/>
<path style="fill:#fbb86a; stroke:none;" d="M362 230L363 231L362 230z"/>
<path style="fill:#88370b; stroke:none;" d="M363 230L364 231L363 230z"/>
<path style="fill:#7fc8f4; stroke:none;" d="M410 230L411 231L410 230z"/>
<path style="fill:#fbb86a; stroke:none;" d="M364 231L365 232L364 231z"/>
<path style="fill:#88370b; stroke:none;" d="M365 231L366 232L365 231z"/>
<path style="fill:#fbb86a; stroke:none;" d="M366 232L367 233L366 232z"/>
<path style="fill:#88370b; stroke:none;" d="M411 232L412 233L411 232M368 233L369 234L368 233z"/>
<path style="fill:#7fc8f4; stroke:none;" d="M412.333 233.667L412.667 234.333L412.333 233.667z"/>
<path style="fill:#88370b; stroke:none;" d="M369 234L370 235L369 234M370 235L371 236L370 235M371 236L372 237L371 236z"/>
<path style="fill:#7fc8f4; stroke:none;" d="M413 236L414 237L413 236z"/>
<path style="fill:#88370b; stroke:none;" d="M372 237L373 238L372 237z"/>
<path style="fill:#fbb86a; stroke:none;" d="M372 238L373 239L372 238z"/>
<path style="fill:#7fc8f4; stroke:none;" d="M414.333 238.667L414.667 239.333L414.333 238.667z"/>
<path style="fill:#fbb86a; stroke:none;" d="M373 239L374 240L373 239z"/>
<path style="fill:#88370b; stroke:none;" d="M374 240L375 241L374 240z"/>
<path style="fill:#fbb86a; stroke:none;" d="M374 241L375 242L374 241z"/>
<path style="fill:#7fc8f4; stroke:none;" d="M415.333 241.667L415.667 242.333L415.333 241.667z"/>
<path style="fill:#88370b; stroke:none;" d="M375.333 242.667L375.667 243.333L375.333 242.667M415 243L416 244L415 243z"/>
<path style="fill:#fbb86a; stroke:none;" d="M375 244L376 245L375 244z"/>
<path style="fill:#88370b; stroke:none;" d="M376.333 245.667L376.667 246.333L376.333 245.667z"/>
<path style="fill:#7fc8f4; stroke:none;" d="M416 246L416 250L417 250L416 246z"/>
<path style="fill:#fbb86a; stroke:none;" d="M376 247L376 259L377 259L376 247z"/>
<path style="fill:#88370b; stroke:none;" d="M416 250L416 253L417 253L416 250M416.333 257.667L416.667 258.333L416.333 257.667M376.333 259.667L376.667 260.333L376.333 259.667z"/>
<path style="fill:#7fc8f4; stroke:none;" d="M416 259L416 263L417 263L416 259z"/>
<path style="fill:#fbb86a; stroke:none;" d="M375.333 261.667L375.667 262.333L375.333 261.667z"/>
<path style="fill:#88370b; stroke:none;" d="M375 263L376 264L375 263z"/>
<path style="fill:#fbb86a; stroke:none;" d="M374 264L375 265L374 264z"/>
<path style="fill:#88370b; stroke:none;" d="M374 265L375 266L374 265M415 265L416 266L415 265z"/>
<path style="fill:#fbb86a; stroke:none;" d="M373 266L374 267L373 266z"/>
<path style="fill:#7fc8f4; stroke:none;" d="M415.333 266.667L415.667 267.333L415.333 266.667z"/>
<path style="fill:#fbb86a; stroke:none;" d="M372 267L373 268L372 267z"/>
<path style="fill:#88370b; stroke:none;" d="M372 268L373 269L372 268M371 269L372 270L371 269M370 270L371 271L370 270z"/>
<path style="fill:#7fc8f4; stroke:none;" d="M414.333 270.667L414.667 271.333L414.333 270.667z"/>
<path style="fill:#88370b; stroke:none;" d="M369 271L370 272L369 271z"/>
<path style="fill:#fbb86a; stroke:none;" d="M367 272L368 273L367 272z"/>
<path style="fill:#88370b; stroke:none;" d="M368 272L369 273L368 272M366 273L367 274L366 273z"/>
<path style="fill:#7fc8f4; stroke:none;" d="M413.333 273.667L413.667 274.333L413.333 273.667z"/>
<path style="fill:#fbb86a; stroke:none;" d="M364 274L365 275L364 274z"/>
<path style="fill:#88370b; stroke:none;" d="M362 275L363 276L362 275M412 275L413 276L412 275z"/>
<path style="fill:#fbb86a; stroke:none;" d="M358 276L359 277L358 276z"/>
<path style="fill:#88370b; stroke:none;" d="M359 276L360 277L359 276z"/>
<path style="fill:#7fc8f4; stroke:none;" d="M412 276L413 277L412 276z"/>
<path style="fill:#fbb86a; stroke:none;" d="M348 277L349 278L348 277z"/>
<path style="fill:#7fc8f4; stroke:none;" d="M349.667 277.333L350.333 277.667L349.667 277.333z"/>
<path style="fill:#fbb86a; stroke:none;" d="M351 277L352 278L351 277z"/>
<path style="fill:#88370b; stroke:none;" d="M352 277L352 278L356 278L352 277z"/>
<path style="fill:#7fc8f4; stroke:none;" d="M411 278L412 279L411 278M410 280L411 281L410 280M409 282L410 283L409 282M408 284L409 285L408 284z"/>
<path style="fill:#88370b; stroke:none;" d="M407 285L408 286L407 285z"/>
<path style="fill:#7fc8f4; stroke:none;" d="M406 287L407 288L406 287M405 288L406 289L405 288M403 291L404 292L403 291M402 292L403 293L402 292M401 293L402 294L401 293M400 294L401 295L400 294M399 295L400 296L399 295M398 296L399 297L398 296M397 297L398 298L397 297z"/>
<path style="fill:#88370b; stroke:none;" d="M395 298L396 299L395 298z"/>
<path style="fill:#7fc8f4; stroke:none;" d="M394 299L395 300L394 299M393 300L394 301L393 300M391 301L392 302L391 301M389 302L390 303L389 302M387 303L388 304L387 303M385 304L386 305L385 304z"/>
<path style="fill:#88370b; stroke:none;" d="M382 305L383 306L382 305z"/>
<path style="fill:#7fc8f4; stroke:none;" d="M379 306L380 307L379 306z"/>
<path style="fill:#88370b; stroke:none;" d="M374 307L375 308L374 307z"/>
<path style="fill:#7fc8f4; stroke:none;" d="M375.667 307.333L376.333 307.667L375.667 307.333z"/>
<path style="fill:#88370b; stroke:none;" d="M367 308L367 309L370 309L367 308z"/>
<path style="fill:#7fc8f4; stroke:none;" d="M370.667 308.333L371.333 308.667L370.667 308.333z"/>
<path style="fill:#88370b; stroke:none;" d="M333 309L333 310L353 310L333 309z"/>
<path style="fill:#7fc8f4; stroke:none;" d="M353 309L353 310L359 310L353 309z"/>
</svg>
