<?xml version="1.0" standalone="yes"?>
<svg xmlns="http://www.w3.org/2000/svg" width="494" height="468">
<path style="fill:#010102; stroke:none;" d="M0 0L0 468L494 468L494 0L0 0z"/>
<path style="fill:#ffffff; stroke:none;" d="M5 4L5 463L489 463L489 4L5 4z"/>
<path style="fill:#eda756; stroke:none;" d="M292 130L292 321L293 321L293 187L293 148L292 130z"/>
<path style="fill:#010102; stroke:none;" d="M293 130L293 321C320.366 321 347.706 320.683 375 320.015C390.726 319.629 407.129 321.514 422 315.127C449.718 303.223 461.74 264.301 444.895 239C437.788 228.325 427.518 224.986 417 219C451.816 204.409 450.214 154.913 419 137.44C407.2 130.834 394.86 132.054 382 130.83C352.709 128.043 322.442 130 293 130z"/>
<path style="fill:#76311c; stroke:none;" d="M379 130L379 131L389 131L379 130z"/>
<path style="fill:#86d0f9; stroke:none;" d="M389 130L389 131L393 131L389 130z"/>
<path style="fill:#eda756; stroke:none;" d="M41 131L41 321L42 321L42 187L42 149L41 131z"/>
<path style="fill:#010102; stroke:none;" d="M42 131L42 321L176 321L176 289L80 289L80 131L42 131z"/>
<path style="fill:#86d0f9; stroke:none;" d="M80 131L80 289L81 289L81 178C81 164.747 85.1066 143.17 80 131z"/>
<path style="fill:#76311c; stroke:none;" d="M398.667 131.333L399.333 131.667L398.667 131.333z"/>
<path style="fill:#86d0f9; stroke:none;" d="M400.667 131.333L401.333 131.667L400.667 131.333z"/>
<path style="fill:#76311c; stroke:none;" d="M405 132L406 133L405 132z"/>
<path style="fill:#86d0f9; stroke:none;" d="M406 132L407 133L406 132M409.667 133.333L410.333 133.667L409.667 133.333z"/>
<path style="fill:#76311c; stroke:none;" d="M412 134L413 135L412 134z"/>
<path style="fill:#86d0f9; stroke:none;" d="M415 135L416 136L415 135M417 136L418 137L417 136M419 137L420 138L419 137z"/>
<path style="fill:#76311c; stroke:none;" d="M420 138L421 139L420 138z"/>
<path style="fill:#86d0f9; stroke:none;" d="M421 138L422 139L421 138M422 139L423 140L422 139M424 140L425 141L424 140M425 141L426 142L425 141M426 142L427 143L426 142z"/>
<path style="fill:#76311c; stroke:none;" d="M427 143L428 144L427 143M428 144L429 145L428 144M429 145L430 146L429 145M430 146L431 147L430 146z"/>
<path style="fill:#86d0f9; stroke:none;" d="M431 147L432 148L431 147M432 148L433 149L432 148M433 149L434 150L433 149z"/>
<path style="fill:#76311c; stroke:none;" d="M434 151L435 152L434 151z"/>
<path style="fill:#86d0f9; stroke:none;" d="M435 152L436 153L435 152M436 153L437 154L436 153M437 155L438 156L437 155M438 157L439 158L438 157M439 159L440 160L439 159M440 161L441 162L440 161M331 162L331 206L332 206C332 193.52 335.81 173.463 331 162z"/>
<path style="fill:#ffffff; stroke:none;" d="M332 162L332 206C350.523 206 378.072 210.872 394.999 202.164C407.482 195.743 409.849 175.263 397.957 166.853C392.801 163.207 386.956 163.36 381 162.576C365.052 160.476 348.083 162 332 162z"/>
<path style="fill:#eda756; stroke:none;" d="M380 162L381 163L380 162z"/>
<path style="fill:#86d0f9; stroke:none;" d="M381 162L381 163L384 163L381 162z"/>
<path style="fill:#eda756; stroke:none;" d="M384 162L385 163L384 162z"/>
<path style="fill:#76311c; stroke:none;" d="M385 162L385 163L388 163L385 162M440 162L441 163L440 162z"/>
<path style="fill:#eda756; stroke:none;" d="M390 163L391 164L390 163z"/>
<path style="fill:#76311c; stroke:none;" d="M391 163L392 164L391 163z"/>
<path style="fill:#eda756; stroke:none;" d="M393 164L394 165L393 164z"/>
<path style="fill:#76311c; stroke:none;" d="M394 164L395 165L394 164z"/>
<path style="fill:#86d0f9; stroke:none;" d="M441 164L442 165L441 164z"/>
<path style="fill:#76311c; stroke:none;" d="M396 165L397 166L396 165M441 165L442 166L441 165z"/>
<path style="fill:#eda756; stroke:none;" d="M397 166L398 167L397 166z"/>
<path style="fill:#76311c; stroke:none;" d="M399 167L400 168L399 167z"/>
<path style="fill:#86d0f9; stroke:none;" d="M442.333 167.667L442.667 168.333L442.333 167.667z"/>
<path style="fill:#76311c; stroke:none;" d="M400 168L401 169L400 168M401 169L402 170L401 169M442 169L443 170L442 169z"/>
<path style="fill:#eda756; stroke:none;" d="M402 171L403 172L402 171z"/>
<path style="fill:#76311c; stroke:none;" d="M403 172L404 173L403 172z"/>
<path style="fill:#eda756; stroke:none;" d="M403 173L404 174L403 173z"/>
<path style="fill:#86d0f9; stroke:none;" d="M443 173L443 184L444 184L443 173z"/>
<path style="fill:#76311c; stroke:none;" d="M404 174L405 175L404 174z"/>
<path style="fill:#eda756; stroke:none;" d="M404 175L405 176L404 175z"/>
<path style="fill:#76311c; stroke:none;" d="M405.333 177.667L405.667 178.333L405.333 177.667z"/>
<path style="fill:#eda756; stroke:none;" d="M405.333 179.667L405.667 180.333L405.333 179.667M405.333 186.667L405.667 187.333L405.333 186.667z"/>
<path style="fill:#76311c; stroke:none;" d="M442 186L443 187L442 186z"/>
<path style="fill:#86d0f9; stroke:none;" d="M442.333 187.667L442.667 188.333L442.333 187.667z"/>
<path style="fill:#76311c; stroke:none;" d="M405.333 188.667L405.667 189.333L405.333 188.667M441 190L442 191L441 190z"/>
<path style="fill:#eda756; stroke:none;" d="M404 191L405 192L404 191z"/>
<path style="fill:#86d0f9; stroke:none;" d="M441.333 191.667L441.667 192.333L441.333 191.667z"/>
<path style="fill:#76311c; stroke:none;" d="M404 192L405 193L404 192M403 194L404 195L403 194z"/>
<path style="fill:#86d0f9; stroke:none;" d="M440 194L441 195L440 194z"/>
<path style="fill:#eda756; stroke:none;" d="M402 195L403 196L402 195z"/>
<path style="fill:#76311c; stroke:none;" d="M402 196L403 197L402 196z"/>
<path style="fill:#86d0f9; stroke:none;" d="M439.333 196.667L439.667 197.333L439.333 196.667z"/>
<path style="fill:#76311c; stroke:none;" d="M401 197L402 198L401 197M400 198L401 199L400 198M438 198L439 199L438 198M399 199L400 200L399 199z"/>
<path style="fill:#86d0f9; stroke:none;" d="M438 199L439 200L438 199M437 200L438 201L437 200z"/>
<path style="fill:#76311c; stroke:none;" d="M396 201L397 202L396 201z"/>
<path style="fill:#eda756; stroke:none;" d="M394 202L395 203L394 202z"/>
<path style="fill:#86d0f9; stroke:none;" d="M436 202L437 203L436 202z"/>
<path style="fill:#76311c; stroke:none;" d="M392 203L393 204L392 203M435 203L436 204L435 203z"/>
<path style="fill:#eda756; stroke:none;" d="M388 204L389 205L388 204z"/>
<path style="fill:#76311c; stroke:none;" d="M389 204L390 205L389 204z"/>
<path style="fill:#eda756; stroke:none;" d="M379 205L380 206L379 205z"/>
<path style="fill:#86d0f9; stroke:none;" d="M380.667 205.333L381.333 205.667L380.667 205.333z"/>
<path style="fill:#eda756; stroke:none;" d="M382 205L383 206L382 205z"/>
<path style="fill:#76311c; stroke:none;" d="M383 205L383 206L386 206L383 205z"/>
<path style="fill:#86d0f9; stroke:none;" d="M434 205L435 206L434 205M433 206L434 207L433 206z"/>
<path style="fill:#76311c; stroke:none;" d="M432 207L433 208L432 207M426 213L427 214L426 213z"/>
<path style="fill:#86d0f9; stroke:none;" d="M425 214L426 215L425 214M424 215L425 216L424 215M422 216L423 217L422 216z"/>
<path style="fill:#76311c; stroke:none;" d="M420 217L421 218L420 217M418 218L419 219L418 218z"/>
<path style="fill:#86d0f9; stroke:none;" d="M419 218L420 219L419 218M417 219L418 220L417 219M419 220L420 221L419 220z"/>
<path style="fill:#76311c; stroke:none;" d="M421 221L422 222L421 221z"/>
<path style="fill:#86d0f9; stroke:none;" d="M422 221L423 222L422 221M424 222L425 223L424 222z"/>
<path style="fill:#76311c; stroke:none;" d="M426 223L427 224L426 223M428 224L429 225L428 224z"/>
<path style="fill:#86d0f9; stroke:none;" d="M430 225L431 226L430 225M432 226L433 227L432 226M433 227L434 228L433 227M436 229L437 230L436 229M437 230L438 231L437 230M438 231L439 232L438 231M439 232L440 233L439 232z"/>
<path style="fill:#76311c; stroke:none;" d="M199 233L199 270L200 270C200 259.351 203.111 242.798 199 233z"/>
<path style="fill:#010102; stroke:none;" d="M200 233L200 270L271 270L271 233L200 233z"/>
<path style="fill:#86d0f9; stroke:none;" d="M271 233L271 270L272 270C272 259.351 275.111 242.798 271 233M440 233L441 234L440 233M441 234L442 235L441 234M442 235L443 236L442 235M331 238L331 289L332 289C332 274.689 336.508 251.127 331 238z"/>
<path style="fill:#ffffff; stroke:none;" d="M332 238L332 289C349.379 289 367.769 290.694 385 288.424C391.758 287.534 398.2 287.603 403.985 283.362C417.073 273.766 415.232 250.303 401 242.825C382.32 233.01 352.488 238 332 238z"/>
<path style="fill:#86d0f9; stroke:none;" d="M378 238L378 239L381 239L378 238z"/>
<path style="fill:#eda756; stroke:none;" d="M381 238L382 239L381 238z"/>
<path style="fill:#76311c; stroke:none;" d="M382 238L382 239L386 239L382 238z"/>
<path style="fill:#86d0f9; stroke:none;" d="M444 238L445 239L444 238M390 239L391 240L390 239z"/>
<path style="fill:#eda756; stroke:none;" d="M391 239L392 240L391 239z"/>
<path style="fill:#76311c; stroke:none;" d="M392 239L393 240L392 239z"/>
<path style="fill:#86d0f9; stroke:none;" d="M445 239L446 240L445 239z"/>
<path style="fill:#eda756; stroke:none;" d="M395 240L396 241L395 240z"/>
<path style="fill:#76311c; stroke:none;" d="M396 240L397 241L396 240z"/>
<path style="fill:#eda756; stroke:none;" d="M398 241L399 242L398 241z"/>
<path style="fill:#76311c; stroke:none;" d="M399 241L400 242L399 241z"/>
<path style="fill:#86d0f9; stroke:none;" d="M446 241L447 242L446 241z"/>
<path style="fill:#eda756; stroke:none;" d="M400 242L401 243L400 242z"/>
<path style="fill:#76311c; stroke:none;" d="M401 242L402 243L401 242z"/>
<path style="fill:#eda756; stroke:none;" d="M402 243L403 244L402 243z"/>
<path style="fill:#76311c; stroke:none;" d="M447 243L448 244L447 243M404 244L405 245L404 244z"/>
<path style="fill:#86d0f9; stroke:none;" d="M448.333 244.667L448.667 245.333L448.333 244.667z"/>
<path style="fill:#76311c; stroke:none;" d="M405 245L406 246L405 245M406 246L407 247L406 246M407 247L408 248L407 247z"/>
<path style="fill:#86d0f9; stroke:none;" d="M449 247L450 248L449 247z"/>
<path style="fill:#76311c; stroke:none;" d="M408 248L409 249L408 248z"/>
<path style="fill:#86d0f9; stroke:none;" d="M450.333 249.667L450.667 250.333L450.333 249.667z"/>
<path style="fill:#eda756; stroke:none;" d="M409 250L410 251L409 250z"/>
<path style="fill:#76311c; stroke:none;" d="M410 251L411 252L410 251z"/>
<path style="fill:#eda756; stroke:none;" d="M410 252L411 253L410 252z"/>
<path style="fill:#86d0f9; stroke:none;" d="M451.333 252.667L451.667 253.333L451.333 252.667z"/>
<path style="fill:#76311c; stroke:none;" d="M411.333 253.667L411.667 254.333L411.333 253.667M451 254L452 255L451 254z"/>
<path style="fill:#eda756; stroke:none;" d="M411 255L412 256L411 255z"/>
<path style="fill:#76311c; stroke:none;" d="M412.333 256.667L412.667 257.333L412.333 256.667z"/>
<path style="fill:#86d0f9; stroke:none;" d="M452 257L452 261L453 261L452 257z"/>
<path style="fill:#eda756; stroke:none;" d="M412 258L412 261L413 261L412 258z"/>
<path style="fill:#76311c; stroke:none;" d="M452 261L452 264L453 264L452 261z"/>
<path style="fill:#eda756; stroke:none;" d="M412 267L412 270L413 270L412 267z"/>
<path style="fill:#76311c; stroke:none;" d="M452.333 268.667L452.667 269.333L452.333 268.667M412.333 270.667L412.667 271.333L412.333 270.667z"/>
<path style="fill:#86d0f9; stroke:none;" d="M452 270L452 274L453 274L452 270z"/>
<path style="fill:#eda756; stroke:none;" d="M411 273L412 274L411 273z"/>
<path style="fill:#76311c; stroke:none;" d="M411 274L412 275L411 274z"/>
<path style="fill:#eda756; stroke:none;" d="M410 275L411 276L410 275z"/>
<path style="fill:#76311c; stroke:none;" d="M410 276L411 277L410 276M451 276L452 277L451 276z"/>
<path style="fill:#eda756; stroke:none;" d="M409 277L410 278L409 277z"/>
<path style="fill:#86d0f9; stroke:none;" d="M451.333 277.667L451.667 278.333L451.333 277.667z"/>
<path style="fill:#76311c; stroke:none;" d="M408 279L409 280L408 279M407 280L408 281L407 280M406 281L407 282L406 281z"/>
<path style="fill:#86d0f9; stroke:none;" d="M450.333 281.667L450.667 282.333L450.333 281.667z"/>
<path style="fill:#76311c; stroke:none;" d="M405 282L406 283L405 282M404 283L405 284L404 283M402 284L403 285L402 284z"/>
<path style="fill:#86d0f9; stroke:none;" d="M449.333 284.667L449.667 285.333L449.333 284.667z"/>
<path style="fill:#eda756; stroke:none;" d="M400 285L401 286L400 285z"/>
<path style="fill:#76311c; stroke:none;" d="M398 286L399 287L398 286M448 286L449 287L448 286z"/>
<path style="fill:#eda756; stroke:none;" d="M394 287L395 288L394 287z"/>
<path style="fill:#76311c; stroke:none;" d="M395 287L396 288L395 287z"/>
<path style="fill:#86d0f9; stroke:none;" d="M448 287L449 288L448 287z"/>
<path style="fill:#eda756; stroke:none;" d="M384 288L385 289L384 288z"/>
<path style="fill:#86d0f9; stroke:none;" d="M385.667 288.333L386.333 288.667L385.667 288.333z"/>
<path style="fill:#eda756; stroke:none;" d="M387 288L388 289L387 288z"/>
<path style="fill:#76311c; stroke:none;" d="M388 288L388 289L392 289L388 288z"/>
<path style="fill:#86d0f9; stroke:none;" d="M447 289L448 290L447 289M446 291L447 292L446 291M445 293L446 294L445 293M444 295L445 296L444 295z"/>
<path style="fill:#76311c; stroke:none;" d="M443 296L444 297L443 296z"/>
<path style="fill:#86d0f9; stroke:none;" d="M442 298L443 299L442 298M441 299L442 300L441 299M439 302L440 303L439 302M438 303L439 304L438 303M437 304L438 305L437 304M436 305L437 306L436 305M435 306L436 307L435 306M434 307L435 308L434 307M433 308L434 309L433 308z"/>
<path style="fill:#76311c; stroke:none;" d="M431 309L432 310L431 309z"/>
<path style="fill:#86d0f9; stroke:none;" d="M430 310L431 311L430 310M429 311L430 312L429 311M427 312L428 313L427 312M425 313L426 314L425 313M423 314L424 315L423 314M421 315L422 316L421 315z"/>
<path style="fill:#76311c; stroke:none;" d="M418 316L419 317L418 316z"/>
<path style="fill:#86d0f9; stroke:none;" d="M415 317L416 318L415 317z"/>
<path style="fill:#76311c; stroke:none;" d="M410 318L411 319L410 318z"/>
<path style="fill:#86d0f9; stroke:none;" d="M411.667 318.333L412.333 318.667L411.667 318.333z"/>
<path style="fill:#76311c; stroke:none;" d="M403 319L403 320L406 320L403 319z"/>
<path style="fill:#86d0f9; stroke:none;" d="M406.667 319.333L407.333 319.667L406.667 319.333z"/>
<path style="fill:#76311c; stroke:none;" d="M369 320L369 321L389 321L369 320z"/>
<path style="fill:#86d0f9; stroke:none;" d="M389 320L389 321L395 321L389 320z"/>
</svg>
