<?xml version="1.0" standalone="yes"?>
<svg xmlns="http://www.w3.org/2000/svg" width="494" height="468">
<path style="fill:#010203; stroke:none;" d="M0 0L0 468L494 468L494 0L0 0z"/>
<path style="fill:#ffffff; stroke:none;" d="M5 4L5 463L489 463L489 4L5 4z"/>
<path style="fill:#f4c880; stroke:none;" d="M254.667 161.333L255.333 161.667L254.667 161.333z"/>
<path style="fill:#67aee1; stroke:none;" d="M256 161L257 162L256 161z"/>
<path style="fill:#792a13; stroke:none;" d="M257 161L257 162L262 162L257 161z"/>
<path style="fill:#010203; stroke:none;" d="M238 253L212 256C212.761 292.678 246.987 304.578 278 302.086C296.502 300.599 314.964 293.17 321.251 274C331.923 241.454 305.026 223.014 277 217C267.09 214.874 247.002 212.456 243.354 201.086C240.195 191.24 253.379 185.709 261 185.093C276.116 183.872 288.662 189.039 292 205L319 204C318.908 170.729 287.636 158.968 259 161.831C241.356 163.595 223.783 170.344 218.21 189C208.209 222.476 241.115 235.739 267 241.884C276.404 244.117 293.133 246.637 295.602 258.001C298.482 271.258 281.572 278.87 271 278.996C253.562 279.204 241.983 270.207 238 253z"/>
<path style="fill:#792a13; stroke:none;" d="M272 161L272 162L276 162L272 161z"/>
<path style="fill:#67aee1; stroke:none;" d="M276 161L277 162L276 161z"/>
<path style="fill:#f4c880; stroke:none;" d="M277.667 161.333L278.333 161.667L277.667 161.333M249 162L250 163L249 162z"/>
<path style="fill:#792a13; stroke:none;" d="M250.667 162.333L251.333 162.667L250.667 162.333M282 162L283 163L282 162z"/>
<path style="fill:#67aee1; stroke:none;" d="M283 162L284 163L283 162z"/>
<path style="fill:#f4c880; stroke:none;" d="M284 162L285 163L284 162M36 163L36 301L37 301L37 205C37 193.056 40.6074 173.98 36 163z"/>
<path style="fill:#010203; stroke:none;" d="M37 163L37 301L134 301L134 278L64 278L64 163L37 163z"/>
<path style="fill:#67aee1; stroke:none;" d="M64 163L64 278L65 278L65 198L64 163z"/>
<path style="fill:#f4c880; stroke:none;" d="M245 163L246 164L245 163z"/>
<path style="fill:#792a13; stroke:none;" d="M246 163L247 164L246 163M287 163L288 164L287 163z"/>
<path style="fill:#f4c880; stroke:none;" d="M288 163L289 164L288 163z"/>
<path style="fill:#792a13; stroke:none;" d="M347 163L347 301L348 301L348 205C348 193.056 351.607 173.98 347 163z"/>
<path style="fill:#010203; stroke:none;" d="M348 163L348 301C368.713 301 389.353 300.943 410 300.039C421.171 299.55 432.746 301.091 443 295.482C471.541 279.871 466.739 238.126 437 228C459.197 212.89 463.435 178.967 435 166.88C428.2 163.989 421.154 164.511 414 163.83C392.223 161.758 369.89 163 348 163z"/>
<path style="fill:#792a13; stroke:none;" d="M411 163L411 164L419 164L411 163z"/>
<path style="fill:#f4c880; stroke:none;" d="M419 163L419 164L423 164L419 163M242 164L243 165L242 164z"/>
<path style="fill:#792a13; stroke:none;" d="M243 164L244 165L243 164M290 164L291 165L290 164z"/>
<path style="fill:#67aee1; stroke:none;" d="M291 164L292 165L291 164z"/>
<path style="fill:#792a13; stroke:none;" d="M425.667 164.333L426.333 164.667L425.667 164.333z"/>
<path style="fill:#67aee1; stroke:none;" d="M427 164L428 165L427 164z"/>
<path style="fill:#f4c880; stroke:none;" d="M428 164L429 165L428 164M239 165L240 166L239 165z"/>
<path style="fill:#792a13; stroke:none;" d="M240 165L241 166L240 165z"/>
<path style="fill:#67aee1; stroke:none;" d="M293 165L294 166L293 165M431 165L432 166L431 165z"/>
<path style="fill:#f4c880; stroke:none;" d="M237 166L238 167L237 166z"/>
<path style="fill:#792a13; stroke:none;" d="M238 166L239 167L238 166z"/>
<path style="fill:#67aee1; stroke:none;" d="M296 166L297 167L296 166M434 166L435 167L434 166z"/>
<path style="fill:#f4c880; stroke:none;" d="M235 167L236 168L235 167z"/>
<path style="fill:#792a13; stroke:none;" d="M236 167L237 168L236 167z"/>
<path style="fill:#67aee1; stroke:none;" d="M298 167L299 168L298 167M436 167L437 168L436 167z"/>
<path style="fill:#f4c880; stroke:none;" d="M233 168L234 169L233 168z"/>
<path style="fill:#792a13; stroke:none;" d="M234 168L235 169L234 168z"/>
<path style="fill:#67aee1; stroke:none;" d="M438 168L439 169L438 168z"/>
<path style="fill:#792a13; stroke:none;" d="M232 169L233 170L232 169z"/>
<path style="fill:#67aee1; stroke:none;" d="M301 169L302 170L301 169M440 169L441 170L440 169z"/>
<path style="fill:#f4c880; stroke:none;" d="M230 170L231 171L230 170z"/>
<path style="fill:#792a13; stroke:none;" d="M231 170L232 171L231 170z"/>
<path style="fill:#67aee1; stroke:none;" d="M441 170L442 171L441 170z"/>
<path style="fill:#f4c880; stroke:none;" d="M229 171L230 172L229 171z"/>
<path style="fill:#67aee1; stroke:none;" d="M304 171L305 172L304 171z"/>
<path style="fill:#792a13; stroke:none;" d="M228 172L229 173L228 172z"/>
<path style="fill:#67aee1; stroke:none;" d="M305 172L306 173L305 172M444 172L445 173L444 172z"/>
<path style="fill:#792a13; stroke:none;" d="M227 173L228 174L227 173z"/>
<path style="fill:#67aee1; stroke:none;" d="M306 173L307 174L306 173M445 173L446 174L445 173z"/>
<path style="fill:#792a13; stroke:none;" d="M226 174L227 175L226 174z"/>
<path style="fill:#67aee1; stroke:none;" d="M307 174L308 175L307 174M446 174L447 175L446 174z"/>
<path style="fill:#792a13; stroke:none;" d="M225 175L226 176L225 175z"/>
<path style="fill:#67aee1; stroke:none;" d="M308 175L309 176L308 175M447 175L448 176L447 175z"/>
<path style="fill:#f4c880; stroke:none;" d="M224 176L225 177L224 176z"/>
<path style="fill:#67aee1; stroke:none;" d="M309 176L310 177L309 176z"/>
<path style="fill:#f4c880; stroke:none;" d="M223 177L224 178L223 177z"/>
<path style="fill:#67aee1; stroke:none;" d="M310 177L311 178L310 177z"/>
<path style="fill:#f4c880; stroke:none;" d="M222 178L223 179L222 178z"/>
<path style="fill:#67aee1; stroke:none;" d="M449 178L450 179L449 178z"/>
<path style="fill:#792a13; stroke:none;" d="M222 179L223 180L222 179z"/>
<path style="fill:#67aee1; stroke:none;" d="M450 179L451 180L450 179z"/>
<path style="fill:#f4c880; stroke:none;" d="M221 180L222 181L221 180z"/>
<path style="fill:#67aee1; stroke:none;" d="M312 180L313 181L312 180z"/>
<path style="fill:#792a13; stroke:none;" d="M221 181L222 182L221 181z"/>
<path style="fill:#67aee1; stroke:none;" d="M313.333 181.667L313.667 182.333L313.333 181.667M451 181L452 182L451 181z"/>
<path style="fill:#792a13; stroke:none;" d="M220 182L221 183L220 182z"/>
<path style="fill:#f4c880; stroke:none;" d="M219 183L220 184L219 183z"/>
<path style="fill:#67aee1; stroke:none;" d="M314 183L315 184L314 183M452 183L453 184L452 183z"/>
<path style="fill:#792a13; stroke:none;" d="M219.333 184.667L219.667 185.333L219.333 184.667M257.667 185.333L258.333 185.667L257.667 185.333z"/>
<path style="fill:#67aee1; stroke:none;" d="M259 185L260 186L259 185z"/>
<path style="fill:#f4c880; stroke:none;" d="M260.667 185.333L261.333 185.667L260.667 185.333M270 185L270 186L273 186L270 185z"/>
<path style="fill:#67aee1; stroke:none;" d="M273 185L274 186L273 185z"/>
<path style="fill:#792a13; stroke:none;" d="M274 185L275 186L274 185z"/>
<path style="fill:#67aee1; stroke:none;" d="M315 185L316 186L315 185M453 185L454 186L453 185z"/>
<path style="fill:#f4c880; stroke:none;" d="M218 186L219 187L218 186z"/>
<path style="fill:#67aee1; stroke:none;" d="M254 186L255 187L254 186M277 186L278 187L277 186z"/>
<path style="fill:#792a13; stroke:none;" d="M278 186L279 187L278 186z"/>
<path style="fill:#ffffff; stroke:none;" d="M375 186L375 218C388.017 218 408.109 221.337 419.996 215.312C428.582 210.96 431.433 197.255 423.786 190.558C413.655 181.685 387.681 186 375 186z"/>
<path style="fill:#f4c880; stroke:none;" d="M406 186L406 187L415 187L406 186z"/>
<path style="fill:#792a13; stroke:none;" d="M415.667 186.333L416.333 186.667L415.667 186.333M218 187L219 188L218 187z"/>
<path style="fill:#67aee1; stroke:none;" d="M251 187L252 188L251 187z"/>
<path style="fill:#f4c880; stroke:none;" d="M279 187L280 188L279 187z"/>
<path style="fill:#792a13; stroke:none;" d="M280 187L281 188L280 187z"/>
<path style="fill:#67aee1; stroke:none;" d="M316.333 187.667L316.667 188.333L316.333 187.667z"/>
<path style="fill:#f4c880; stroke:none;" d="M418 187L419 188L418 187z"/>
<path style="fill:#792a13; stroke:none;" d="M419 187L420 188L419 187z"/>
<path style="fill:#67aee1; stroke:none;" d="M454.333 187.667L454.667 188.333L454.333 187.667z"/>
<path style="fill:#f4c880; stroke:none;" d="M217.333 188.667L217.667 189.333L217.333 188.667z"/>
<path style="fill:#67aee1; stroke:none;" d="M249 188L250 189L249 188z"/>
<path style="fill:#f4c880; stroke:none;" d="M281 188L282 189L281 188z"/>
<path style="fill:#792a13; stroke:none;" d="M282 188L283 189L282 188z"/>
<path style="fill:#f4c880; stroke:none;" d="M421 188L422 189L421 188z"/>
<path style="fill:#67aee1; stroke:none;" d="M247 189L248 190L247 189z"/>
<path style="fill:#f4c880; stroke:none;" d="M283 189L284 190L283 189M422 189L423 190L422 189z"/>
<path style="fill:#792a13; stroke:none;" d="M423 189L424 190L423 189M217.333 190.667L217.667 191.333L217.333 190.667z"/>
<path style="fill:#67aee1; stroke:none;" d="M246 190L247 191L246 190z"/>
<path style="fill:#f4c880; stroke:none;" d="M284 190L285 191L284 190z"/>
<path style="fill:#67aee1; stroke:none;" d="M317.333 190.667L317.667 191.333L317.333 190.667z"/>
<path style="fill:#792a13; stroke:none;" d="M424 190L425 191L424 190z"/>
<path style="fill:#67aee1; stroke:none;" d="M245 191L246 192L245 191z"/>
<path style="fill:#f4c880; stroke:none;" d="M285 191L286 192L285 191z"/>
<path style="fill:#792a13; stroke:none;" d="M425 191L426 192L425 191z"/>
<path style="fill:#67aee1; stroke:none;" d="M455 191L455 197L456 197L455 191z"/>
<path style="fill:#f4c880; stroke:none;" d="M216.333 192.667L216.667 193.333L216.333 192.667z"/>
<path style="fill:#67aee1; stroke:none;" d="M244 192L245 193L244 192z"/>
<path style="fill:#f4c880; stroke:none;" d="M286 192L287 193L286 192z"/>
<path style="fill:#792a13; stroke:none;" d="M426 192L427 193L426 192z"/>
<path style="fill:#f4c880; stroke:none;" d="M287 193L288 194L287 193z"/>
<path style="fill:#67aee1; stroke:none;" d="M318 193L318 196L319 196L318 193z"/>
<path style="fill:#f4c880; stroke:none;" d="M426 193L427 194L426 193z"/>
<path style="fill:#792a13; stroke:none;" d="M216 194L216 205L217 205L216 194z"/>
<path style="fill:#67aee1; stroke:none;" d="M243.333 194.667L243.667 195.333L243.333 194.667z"/>
<path style="fill:#792a13; stroke:none;" d="M288 194L289 195L288 194M427 194L428 195L427 194z"/>
<path style="fill:#f4c880; stroke:none;" d="M288 195L289 196L288 195M427 195L428 196L427 195z"/>
<path style="fill:#792a13; stroke:none;" d="M289 196L290 197L289 196M428 196L428 199L429 199L428 196z"/>
<path style="fill:#f4c880; stroke:none;" d="M289 197L290 198L289 197z"/>
<path style="fill:#67aee1; stroke:none;" d="M242 198L243 199L242 198z"/>
<path style="fill:#792a13; stroke:none;" d="M290.333 198.667L290.667 199.333L290.333 198.667z"/>
<path style="fill:#67aee1; stroke:none;" d="M319 199L319 204L320 204L319 199z"/>
<path style="fill:#f4c880; stroke:none;" d="M428 199L428 205L429 205L428 199z"/>
<path style="fill:#67aee1; stroke:none;" d="M455 199L455 205L456 205L455 199z"/>
<path style="fill:#f4c880; stroke:none;" d="M290.333 200.667L290.667 201.333L290.333 200.667z"/>
<path style="fill:#67aee1; stroke:none;" d="M243.333 201.667L243.667 202.333L243.333 201.667z"/>
<path style="fill:#792a13; stroke:none;" d="M291.333 202.667L291.667 203.333L291.333 202.667z"/>
<path style="fill:#67aee1; stroke:none;" d="M244 204L245 205L244 204z"/>
<path style="fill:#f4c880; stroke:none;" d="M291 204L292 205L291 204z"/>
<path style="fill:#792a13; stroke:none;" d="M295 204L295 205L305 205L295 204z"/>
<path style="fill:#67aee1; stroke:none;" d="M305 204L306 205L305 204z"/>
<path style="fill:#f4c880; stroke:none;" d="M306 204L306 205L316 205L306 204M216 205L216 208L217 208L216 205z"/>
<path style="fill:#67aee1; stroke:none;" d="M245 205L246 206L245 205z"/>
<path style="fill:#792a13; stroke:none;" d="M428.333 205.667L428.667 206.333L428.333 205.667z"/>
<path style="fill:#67aee1; stroke:none;" d="M246 206L247 207L246 206M454.333 206.667L454.667 207.333L454.333 206.667z"/>
<path style="fill:#f4c880; stroke:none;" d="M427 207L428 208L427 207z"/>
<path style="fill:#792a13; stroke:none;" d="M217.333 208.667L217.667 209.333L217.333 208.667z"/>
<path style="fill:#67aee1; stroke:none;" d="M249 208L250 209L249 208z"/>
<path style="fill:#792a13; stroke:none;" d="M427 208L428 209L427 208z"/>
<path style="fill:#67aee1; stroke:none;" d="M251 209L252 210L251 209z"/>
<path style="fill:#f4c880; stroke:none;" d="M426 209L427 210L426 209z"/>
<path style="fill:#67aee1; stroke:none;" d="M453.333 209.667L453.667 210.333L453.333 209.667z"/>
<path style="fill:#f4c880; stroke:none;" d="M217 210L218 211L217 210z"/>
<path style="fill:#792a13; stroke:none;" d="M253 210L254 211L253 210z"/>
<path style="fill:#f4c880; stroke:none;" d="M254 210L255 211L254 210z"/>
<path style="fill:#792a13; stroke:none;" d="M426 210L427 211L426 210M218.333 211.667L218.667 212.333L218.333 211.667z"/>
<path style="fill:#67aee1; stroke:none;" d="M256 211L257 212L256 211z"/>
<path style="fill:#f4c880; stroke:none;" d="M425 211L426 212L425 211z"/>
<path style="fill:#67aee1; stroke:none;" d="M259 212L260 213L259 212z"/>
<path style="fill:#f4c880; stroke:none;" d="M260 212L261 213L260 212M424 212L425 213L424 212z"/>
<path style="fill:#67aee1; stroke:none;" d="M452 212L453 213L452 212z"/>
<path style="fill:#f4c880; stroke:none;" d="M218 213L219 214L218 213z"/>
<path style="fill:#792a13; stroke:none;" d="M262 213L263 214L262 213z"/>
<path style="fill:#67aee1; stroke:none;" d="M263 213L264 214L263 213z"/>
<path style="fill:#f4c880; stroke:none;" d="M423 213L424 214L423 213z"/>
<path style="fill:#792a13; stroke:none;" d="M219 214L220 215L219 214M266 214L267 215L266 214z"/>
<path style="fill:#67aee1; stroke:none;" d="M267 214L268 215L267 214z"/>
<path style="fill:#f4c880; stroke:none;" d="M421 214L422 215L421 214z"/>
<path style="fill:#792a13; stroke:none;" d="M422 214L423 215L422 214z"/>
<path style="fill:#67aee1; stroke:none;" d="M451 214L452 215L451 214z"/>
<path style="fill:#f4c880; stroke:none;" d="M219 215L220 216L219 215z"/>
<path style="fill:#792a13; stroke:none;" d="M270 215L271 216L270 215z"/>
<path style="fill:#67aee1; stroke:none;" d="M271 215L272 216L271 215z"/>
<path style="fill:#f4c880; stroke:none;" d="M420 215L421 216L420 215z"/>
<path style="fill:#67aee1; stroke:none;" d="M450 215L451 216L450 215z"/>
<path style="fill:#792a13; stroke:none;" d="M220 216L221 217L220 216M274 216L275 217L274 216z"/>
<path style="fill:#67aee1; stroke:none;" d="M275 216L276 217L275 216z"/>
<path style="fill:#f4c880; stroke:none;" d="M276 216L277 217L276 216M417 216L418 217L417 216z"/>
<path style="fill:#792a13; stroke:none;" d="M418 216L419 217L418 216z"/>
<path style="fill:#f4c880; stroke:none;" d="M220 217L221 218L220 217z"/>
<path style="fill:#67aee1; stroke:none;" d="M279 217L280 218L279 217z"/>
<path style="fill:#f4c880; stroke:none;" d="M280 217L281 218L280 217M406 217L406 218L414 218L406 217z"/>
<path style="fill:#792a13; stroke:none;" d="M414.667 217.333L415.333 217.667L414.667 217.333z"/>
<path style="fill:#67aee1; stroke:none;" d="M449 217L450 218L449 217z"/>
<path style="fill:#792a13; stroke:none;" d="M221 218L222 219L221 218z"/>
<path style="fill:#67aee1; stroke:none;" d="M283 218L284 219L283 218M448 218L449 219L448 218z"/>
<path style="fill:#792a13; stroke:none;" d="M222 219L223 220L222 219z"/>
<path style="fill:#67aee1; stroke:none;" d="M286.667 219.333L287.333 219.667L286.667 219.333M447 219L448 220L447 219z"/>
<path style="fill:#f4c880; stroke:none;" d="M222 220L223 221L222 220z"/>
<path style="fill:#792a13; stroke:none;" d="M289 220L290 221L289 220z"/>
<path style="fill:#67aee1; stroke:none;" d="M290 220L291 221L290 220M446 220L447 221L446 220z"/>
<path style="fill:#f4c880; stroke:none;" d="M223 221L224 222L223 221z"/>
<path style="fill:#67aee1; stroke:none;" d="M293 221L294 222L293 221z"/>
<path style="fill:#792a13; stroke:none;" d="M224 222L225 223L224 222z"/>
<path style="fill:#67aee1; stroke:none;" d="M295 222L296 223L295 222z"/>
<path style="fill:#f4c880; stroke:none;" d="M296 222L297 223L296 222z"/>
<path style="fill:#67aee1; stroke:none;" d="M444 222L445 223L444 222z"/>
<path style="fill:#792a13; stroke:none;" d="M225 223L226 224L225 223z"/>
<path style="fill:#67aee1; stroke:none;" d="M298 223L299 224L298 223M443 223L444 224L443 223z"/>
<path style="fill:#792a13; stroke:none;" d="M226 224L227 225L226 224z"/>
<path style="fill:#67aee1; stroke:none;" d="M300 224L301 225L300 224M442 224L443 225L442 224z"/>
<path style="fill:#792a13; stroke:none;" d="M227 225L228 226L227 225z"/>
<path style="fill:#67aee1; stroke:none;" d="M302 225L303 226L302 225M440 225L441 226L440 225z"/>
<path style="fill:#792a13; stroke:none;" d="M228 226L229 227L228 226z"/>
<path style="fill:#67aee1; stroke:none;" d="M304 226L305 227L304 226z"/>
<path style="fill:#792a13; stroke:none;" d="M229 227L230 228L229 227z"/>
<path style="fill:#67aee1; stroke:none;" d="M306 227L307 228L306 227M437 227L438 228L437 227z"/>
<path style="fill:#f4c880; stroke:none;" d="M230 228L231 229L230 228z"/>
<path style="fill:#67aee1; stroke:none;" d="M307 228L308 229L307 228M438 228L439 229L438 228z"/>
<path style="fill:#f4c880; stroke:none;" d="M231 229L232 230L231 229z"/>
<path style="fill:#67aee1; stroke:none;" d="M441 229L442 230L441 229z"/>
<path style="fill:#792a13; stroke:none;" d="M233 230L234 231L233 230z"/>
<path style="fill:#67aee1; stroke:none;" d="M310 230L311 231L310 230M443 230L444 231L443 230z"/>
<path style="fill:#f4c880; stroke:none;" d="M234 231L235 232L234 231z"/>
<path style="fill:#792a13; stroke:none;" d="M235 231L236 232L235 231z"/>
<path style="fill:#67aee1; stroke:none;" d="M311 231L312 232L311 231M445 231L446 232L445 231z"/>
<path style="fill:#f4c880; stroke:none;" d="M236 232L237 233L236 232z"/>
<path style="fill:#792a13; stroke:none;" d="M237 232L238 233L237 232z"/>
<path style="fill:#67aee1; stroke:none;" d="M312 232L313 233L312 232M447 232L448 233L447 232z"/>
<path style="fill:#f4c880; stroke:none;" d="M238 233L239 234L238 233z"/>
<path style="fill:#792a13; stroke:none;" d="M239 233L240 234L239 233z"/>
<path style="fill:#67aee1; stroke:none;" d="M313 233L314 234L313 233M448 233L449 234L448 233z"/>
<path style="fill:#f4c880; stroke:none;" d="M240 234L241 235L240 234z"/>
<path style="fill:#792a13; stroke:none;" d="M241 234L242 235L241 234z"/>
<path style="fill:#67aee1; stroke:none;" d="M314 234L315 235L314 234z"/>
<path style="fill:#f4c880; stroke:none;" d="M243 235L244 236L243 235z"/>
<path style="fill:#67aee1; stroke:none;" d="M315 235L316 236L315 235M451 235L452 236L451 235z"/>
<path style="fill:#f4c880; stroke:none;" d="M245 236L246 237L245 236z"/>
<path style="fill:#792a13; stroke:none;" d="M246 236L247 237L246 236z"/>
<path style="fill:#67aee1; stroke:none;" d="M452 236L453 237L452 236z"/>
<path style="fill:#f4c880; stroke:none;" d="M248 237L249 238L248 237z"/>
<path style="fill:#792a13; stroke:none;" d="M249 237L250 238L249 237z"/>
<path style="fill:#67aee1; stroke:none;" d="M453 237L454 238L453 237z"/>
<path style="fill:#f4c880; stroke:none;" d="M150 238L150 264L151 264L150 238z"/>
<path style="fill:#010203; stroke:none;" d="M151 238L151 264L202 264L202 238L151 238z"/>
<path style="fill:#67aee1; stroke:none;" d="M202 238L202 264L203 264L202 238z"/>
<path style="fill:#f4c880; stroke:none;" d="M251.667 238.333L252.333 238.667L251.667 238.333z"/>
<path style="fill:#792a13; stroke:none;" d="M253 238L254 239L253 238z"/>
<path style="fill:#67aee1; stroke:none;" d="M317 238L318 239L317 238M454 238L455 239L454 238z"/>
<path style="fill:#f4c880; stroke:none;" d="M255 239L256 240L255 239z"/>
<path style="fill:#792a13; stroke:none;" d="M256 239L257 240L256 239z"/>
<path style="fill:#67aee1; stroke:none;" d="M318.333 239.667L318.667 240.333L318.333 239.667M455 239L456 240L455 239z"/>
<path style="fill:#f4c880; stroke:none;" d="M259 240L260 241L259 240z"/>
<path style="fill:#792a13; stroke:none;" d="M260 240L261 241L260 240z"/>
<path style="fill:#f4c880; stroke:none;" d="M263 241L264 242L263 241z"/>
<path style="fill:#792a13; stroke:none;" d="M264.667 241.333L265.333 241.667L264.667 241.333z"/>
<path style="fill:#67aee1; stroke:none;" d="M319 241L320 242L319 241z"/>
<path style="fill:#ffffff; stroke:none;" d="M375 241L375 278C389.327 278 414.605 282.382 426.906 273.867C436.395 267.297 434.914 250.023 424.985 244.674C411.798 237.569 389.594 241 375 241z"/>
<path style="fill:#f4c880; stroke:none;" d="M405 241L405 242L413 242L405 241z"/>
<path style="fill:#792a13; stroke:none;" d="M413 241L413 242L417 242L413 241z"/>
<path style="fill:#67aee1; stroke:none;" d="M456 241L457 242L456 241z"/>
<path style="fill:#f4c880; stroke:none;" d="M267 242L268 243L267 242z"/>
<path style="fill:#67aee1; stroke:none;" d="M268 242L269 243L268 242z"/>
<path style="fill:#792a13; stroke:none;" d="M269 242L270 243L269 242z"/>
<path style="fill:#f4c880; stroke:none;" d="M419 242L420 243L419 242z"/>
<path style="fill:#67aee1; stroke:none;" d="M420 242L421 243L420 242z"/>
<path style="fill:#792a13; stroke:none;" d="M421 242L422 243L421 242z"/>
<path style="fill:#67aee1; stroke:none;" d="M457 242L458 243L457 242z"/>
<path style="fill:#f4c880; stroke:none;" d="M271 243L272 244L271 243z"/>
<path style="fill:#792a13; stroke:none;" d="M272.667 243.333L273.333 243.667L272.667 243.333z"/>
<path style="fill:#67aee1; stroke:none;" d="M320.333 243.667L320.667 244.333L320.333 243.667z"/>
<path style="fill:#f4c880; stroke:none;" d="M422 243L423 244L422 243z"/>
<path style="fill:#792a13; stroke:none;" d="M423 243L424 244L423 243z"/>
<path style="fill:#f4c880; stroke:none;" d="M275 244L276 245L275 244z"/>
<path style="fill:#792a13; stroke:none;" d="M276 244L277 245L276 244M425 244L426 245L425 244z"/>
<path style="fill:#67aee1; stroke:none;" d="M458 244L459 245L458 244z"/>
<path style="fill:#f4c880; stroke:none;" d="M279 245L280 246L279 245z"/>
<path style="fill:#792a13; stroke:none;" d="M280 245L281 246L280 245z"/>
<path style="fill:#f4c880; stroke:none;" d="M426 245L427 246L426 245z"/>
<path style="fill:#792a13; stroke:none;" d="M427 245L428 246L427 245z"/>
<path style="fill:#f4c880; stroke:none;" d="M282 246L283 247L282 246z"/>
<path style="fill:#792a13; stroke:none;" d="M283 246L284 247L283 246z"/>
<path style="fill:#67aee1; stroke:none;" d="M321.333 246.667L321.667 247.333L321.333 246.667z"/>
<path style="fill:#792a13; stroke:none;" d="M428 246L429 247L428 246z"/>
<path style="fill:#67aee1; stroke:none;" d="M459 246L460 247L459 246z"/>
<path style="fill:#f4c880; stroke:none;" d="M285 247L286 248L285 247z"/>
<path style="fill:#792a13; stroke:none;" d="M429 247L430 248L429 247z"/>
<path style="fill:#f4c880; stroke:none;" d="M287 248L288 249L287 248z"/>
<path style="fill:#792a13; stroke:none;" d="M288 248L289 249L288 248M430 248L431 249L430 248z"/>
<path style="fill:#67aee1; stroke:none;" d="M460.333 248.667L460.667 249.333L460.333 248.667z"/>
<path style="fill:#f4c880; stroke:none;" d="M289 249L290 250L289 249z"/>
<path style="fill:#67aee1; stroke:none;" d="M322 249L322 252L323 252L322 249z"/>
<path style="fill:#f4c880; stroke:none;" d="M430 249L431 250L430 249M290 250L291 251L290 250M431 250L432 251L431 250z"/>
<path style="fill:#792a13; stroke:none;" d="M292 251L293 252L292 251M432 251L433 252L432 251z"/>
<path style="fill:#67aee1; stroke:none;" d="M461.333 251.667L461.667 252.333L461.333 251.667z"/>
<path style="fill:#792a13; stroke:none;" d="M293 252L294 253L293 252z"/>
<path style="fill:#f4c880; stroke:none;" d="M432.333 252.667L432.667 253.333L432.333 252.667M230 253L230 254L233 254L230 253z"/>
<path style="fill:#67aee1; stroke:none;" d="M233 253L234 254L233 253z"/>
<path style="fill:#792a13; stroke:none;" d="M234 253L234 254L237 254L234 253z"/>
<path style="fill:#67aee1; stroke:none;" d="M238 253L238 256L239 256L238 253z"/>
<path style="fill:#f4c880; stroke:none;" d="M293 253L294 254L293 253M221 254L221 255L224 255L221 254z"/>
<path style="fill:#67aee1; stroke:none;" d="M224 254L225 255L224 254z"/>
<path style="fill:#792a13; stroke:none;" d="M225 254L225 255L228 255L225 254M294 254L295 255L294 254z"/>
<path style="fill:#67aee1; stroke:none;" d="M323 254L323 267L324 267L323 254z"/>
<path style="fill:#792a13; stroke:none;" d="M433.333 254.667L433.667 255.333L433.333 254.667z"/>
<path style="fill:#f4c880; stroke:none;" d="M212 255L212 256L216 256L212 255z"/>
<path style="fill:#792a13; stroke:none;" d="M216 255L216 256L219 256L216 255z"/>
<path style="fill:#f4c880; stroke:none;" d="M294 255L295 256L294 255z"/>
<path style="fill:#67aee1; stroke:none;" d="M462 255L462 267L463 267L462 255z"/>
<path style="fill:#792a13; stroke:none;" d="M211 256L211 259L212 259L211 256M295.333 256.667L295.667 257.333L295.333 256.667z"/>
<path style="fill:#f4c880; stroke:none;" d="M433 256L433 264L434 264L433 256z"/>
<path style="fill:#67aee1; stroke:none;" d="M239.333 257.667L239.667 258.333L239.333 257.667z"/>
<path style="fill:#f4c880; stroke:none;" d="M295 258L295 263L296 263L295 258M211 259L211 262L212 262L211 259z"/>
<path style="fill:#67aee1; stroke:none;" d="M240.333 260.667L240.667 261.333L240.333 260.667z"/>
<path style="fill:#792a13; stroke:none;" d="M212.333 262.667L212.667 263.333L212.333 262.667z"/>
<path style="fill:#67aee1; stroke:none;" d="M241 263L242 264L241 263z"/>
<path style="fill:#792a13; stroke:none;" d="M295.333 263.667L295.667 264.333L295.333 263.667z"/>
<path style="fill:#f4c880; stroke:none;" d="M212.333 264.667L212.667 265.333L212.333 264.667z"/>
<path style="fill:#792a13; stroke:none;" d="M433.333 264.667L433.667 265.333L433.333 264.667z"/>
<path style="fill:#67aee1; stroke:none;" d="M242 265L243 266L242 265z"/>
<path style="fill:#f4c880; stroke:none;" d="M294 265L295 266L294 265z"/>
<path style="fill:#792a13; stroke:none;" d="M213.333 266.667L213.667 267.333L213.333 266.667M294 266L295 267L294 266z"/>
<path style="fill:#f4c880; stroke:none;" d="M432 266L433 267L432 266z"/>
<path style="fill:#67aee1; stroke:none;" d="M243 267L244 268L243 267z"/>
<path style="fill:#f4c880; stroke:none;" d="M293 267L294 268L293 267z"/>
<path style="fill:#792a13; stroke:none;" d="M432.333 267.667L432.667 268.333L432.333 267.667z"/>
<path style="fill:#f4c880; stroke:none;" d="M213 268L214 269L213 268z"/>
<path style="fill:#67aee1; stroke:none;" d="M244 268L245 269L244 268z"/>
<path style="fill:#792a13; stroke:none;" d="M293 268L294 269L293 268M214.333 269.667L214.667 270.333L214.333 269.667z"/>
<path style="fill:#f4c880; stroke:none;" d="M292 269L293 270L292 269z"/>
<path style="fill:#67aee1; stroke:none;" d="M322 269L322 272L323 272L322 269z"/>
<path style="fill:#792a13; stroke:none;" d="M431 269L432 270L431 269z"/>
<path style="fill:#67aee1; stroke:none;" d="M461 269L461 272L462 272L461 269z"/>
<path style="fill:#f4c880; stroke:none;" d="M291 270L292 271L291 270M430 270L431 271L430 270M214 271L215 272L214 271M290 271L291 272L290 271z"/>
<path style="fill:#792a13; stroke:none;" d="M430 271L431 272L430 271M215.333 272.667L215.667 273.333L215.333 272.667z"/>
<path style="fill:#f4c880; stroke:none;" d="M289 272L290 273L289 272z"/>
<path style="fill:#792a13; stroke:none;" d="M429 272L430 273L429 272z"/>
<path style="fill:#67aee1; stroke:none;" d="M249 273L250 274L249 273z"/>
<path style="fill:#f4c880; stroke:none;" d="M288 273L289 274L288 273z"/>
<path style="fill:#67aee1; stroke:none;" d="M321.333 273.667L321.667 274.333L321.333 273.667z"/>
<path style="fill:#f4c880; stroke:none;" d="M427 273L428 274L427 273z"/>
<path style="fill:#67aee1; stroke:none;" d="M460.333 273.667L460.667 274.333L460.333 273.667z"/>
<path style="fill:#f4c880; stroke:none;" d="M215 274L216 275L215 274z"/>
<path style="fill:#67aee1; stroke:none;" d="M250 274L251 275L250 274z"/>
<path style="fill:#792a13; stroke:none;" d="M287 274L288 275L287 274z"/>
<path style="fill:#f4c880; stroke:none;" d="M426 274L427 275L426 274z"/>
<path style="fill:#792a13; stroke:none;" d="M216 275L217 276L216 275z"/>
<path style="fill:#67aee1; stroke:none;" d="M252 275L253 276L252 275z"/>
<path style="fill:#f4c880; stroke:none;" d="M285 275L286 276L285 275M424 275L425 276L424 275z"/>
<path style="fill:#792a13; stroke:none;" d="M425 275L426 276L425 275z"/>
<path style="fill:#f4c880; stroke:none;" d="M216 276L217 277L216 276z"/>
<path style="fill:#67aee1; stroke:none;" d="M254 276L255 277L254 276z"/>
<path style="fill:#f4c880; stroke:none;" d="M283 276L284 277L283 276z"/>
<path style="fill:#67aee1; stroke:none;" d="M320 276L321 277L320 276z"/>
<path style="fill:#f4c880; stroke:none;" d="M421 276L422 277L421 276z"/>
<path style="fill:#67aee1; stroke:none;" d="M422 276L423 277L422 276M459 276L460 277L459 276z"/>
<path style="fill:#792a13; stroke:none;" d="M217 277L218 278L217 277M256 277L257 278L256 277z"/>
<path style="fill:#67aee1; stroke:none;" d="M257 277L258 278L257 277z"/>
<path style="fill:#f4c880; stroke:none;" d="M279 277L280 278L279 277z"/>
<path style="fill:#67aee1; stroke:none;" d="M280 277L281 278L280 277z"/>
<path style="fill:#792a13; stroke:none;" d="M281 277L282 278L281 277z"/>
<path style="fill:#f4c880; stroke:none;" d="M410 277L410 278L417 278L410 277z"/>
<path style="fill:#67aee1; stroke:none;" d="M417 277L418 278L417 277z"/>
<path style="fill:#792a13; stroke:none;" d="M418.667 277.333L419.333 277.667L418.667 277.333z"/>
<path style="fill:#67aee1; stroke:none;" d="M134 278L134 301L135 301L134 278z"/>
<path style="fill:#f4c880; stroke:none;" d="M217 278L218 279L217 278z"/>
<path style="fill:#792a13; stroke:none;" d="M260 278L261 279L260 278z"/>
<path style="fill:#67aee1; stroke:none;" d="M261 278L262 279L261 278z"/>
<path style="fill:#f4c880; stroke:none;" d="M262 278L262 279L265 279L262 278M272 278L272 279L276 279L272 278z"/>
<path style="fill:#792a13; stroke:none;" d="M276.667 278.333L277.333 278.667L276.667 278.333z"/>
<path style="fill:#67aee1; stroke:none;" d="M319 278L320 279L319 278M458.333 278.667L458.667 279.333L458.333 278.667z"/>
<path style="fill:#792a13; stroke:none;" d="M218 279L219 280L218 279M219 280L220 281L219 280z"/>
<path style="fill:#67aee1; stroke:none;" d="M318 280L319 281L318 280M457 280L458 281L457 280z"/>
<path style="fill:#f4c880; stroke:none;" d="M219 281L220 282L219 281z"/>
<path style="fill:#792a13; stroke:none;" d="M220 282L221 283L220 282z"/>
<path style="fill:#67aee1; stroke:none;" d="M317 282L318 283L317 282M456 282L457 283L456 282z"/>
<path style="fill:#792a13; stroke:none;" d="M221 283L222 284L221 283z"/>
<path style="fill:#67aee1; stroke:none;" d="M316 283L317 284L316 283z"/>
<path style="fill:#f4c880; stroke:none;" d="M221 284L222 285L221 284z"/>
<path style="fill:#67aee1; stroke:none;" d="M455 284L456 285L455 284z"/>
<path style="fill:#f4c880; stroke:none;" d="M222 285L223 286L222 285z"/>
<path style="fill:#67aee1; stroke:none;" d="M454 285L455 286L454 285z"/>
<path style="fill:#792a13; stroke:none;" d="M223 286L224 287L223 286z"/>
<path style="fill:#67aee1; stroke:none;" d="M314 286L315 287L314 286M453 286L454 287L453 286z"/>
<path style="fill:#792a13; stroke:none;" d="M224 287L225 288L224 287z"/>
<path style="fill:#67aee1; stroke:none;" d="M313 287L314 288L313 287z"/>
<path style="fill:#792a13; stroke:none;" d="M225 288L226 289L225 288z"/>
<path style="fill:#67aee1; stroke:none;" d="M312 288L313 289L312 288z"/>
<path style="fill:#792a13; stroke:none;" d="M226 289L227 290L226 289z"/>
<path style="fill:#67aee1; stroke:none;" d="M311 289L312 290L311 289z"/>
<path style="fill:#792a13; stroke:none;" d="M227 290L228 291L227 290z"/>
<path style="fill:#67aee1; stroke:none;" d="M310 290L311 291L310 290z"/>
<path style="fill:#f4c880; stroke:none;" d="M228 291L229 292L228 291z"/>
<path style="fill:#67aee1; stroke:none;" d="M309 291L310 292L309 291z"/>
<path style="fill:#f4c880; stroke:none;" d="M229 292L230 293L229 292z"/>
<path style="fill:#67aee1; stroke:none;" d="M447 292L448 293L447 292z"/>
<path style="fill:#f4c880; stroke:none;" d="M230 293L231 294L230 293z"/>
<path style="fill:#792a13; stroke:none;" d="M231 293L232 294L231 293z"/>
<path style="fill:#67aee1; stroke:none;" d="M306 293L307 294L306 293M446 293L447 294L446 293z"/>
<path style="fill:#f4c880; stroke:none;" d="M232 294L233 295L232 294z"/>
<path style="fill:#67aee1; stroke:none;" d="M305 294L306 295L305 294M444 294L445 295L444 294z"/>
<path style="fill:#792a13; stroke:none;" d="M234 295L235 296L234 295z"/>
<path style="fill:#67aee1; stroke:none;" d="M303 295L304 296L303 295z"/>
<path style="fill:#f4c880; stroke:none;" d="M443 295L444 296L443 295M235 296L236 297L235 296z"/>
<path style="fill:#792a13; stroke:none;" d="M236 296L237 297L236 296z"/>
<path style="fill:#67aee1; stroke:none;" d="M301 296L302 297L301 296z"/>
<path style="fill:#f4c880; stroke:none;" d="M441 296L442 297L441 296M237 297L238 298L237 297z"/>
<path style="fill:#792a13; stroke:none;" d="M238 297L239 298L238 297z"/>
<path style="fill:#67aee1; stroke:none;" d="M299 297L300 298L299 297M438 297L439 298L438 297z"/>
<path style="fill:#f4c880; stroke:none;" d="M240 298L241 299L240 298z"/>
<path style="fill:#792a13; stroke:none;" d="M241 298L242 299L241 298M296 298L297 299L296 298z"/>
<path style="fill:#67aee1; stroke:none;" d="M297 298L298 299L297 298M435 298L436 299L435 298z"/>
<path style="fill:#f4c880; stroke:none;" d="M242.667 299.333L243.333 299.667L242.667 299.333z"/>
<path style="fill:#67aee1; stroke:none;" d="M294 299L295 300L294 299z"/>
<path style="fill:#792a13; stroke:none;" d="M429.667 299.333L430.333 299.667L429.667 299.333z"/>
<path style="fill:#67aee1; stroke:none;" d="M431 299L432 300L431 299z"/>
<path style="fill:#f4c880; stroke:none;" d="M432 299L433 300L432 299z"/>
<path style="fill:#67aee1; stroke:none;" d="M246 300L247 301L246 300z"/>
<path style="fill:#792a13; stroke:none;" d="M247 300L248 301L247 300z"/>
<path style="fill:#67aee1; stroke:none;" d="M290 300L291 301L290 300z"/>
<path style="fill:#f4c880; stroke:none;" d="M291 300L292 301L291 300z"/>
<path style="fill:#792a13; stroke:none;" d="M405 300L405 301L421 301L405 300z"/>
<path style="fill:#f4c880; stroke:none;" d="M421 300L421 301L427 301L421 300M249.667 301.333L250.333 301.667L249.667 301.333z"/>
<path style="fill:#792a13; stroke:none;" d="M251.667 301.333L252.333 301.667L251.667 301.333M284.667 301.333L285.333 301.667L284.667 301.333z"/>
<path style="fill:#67aee1; stroke:none;" d="M286 301L287 302L286 301z"/>
<path style="fill:#f4c880; stroke:none;" d="M287 301L288 302L287 301M255 302L255 303L258 303L255 302z"/>
<path style="fill:#792a13; stroke:none;" d="M258 302L258 303L263 303L258 302M274 302L274 303L279 303L274 302z"/>
<path style="fill:#67aee1; stroke:none;" d="M279 302L280 303L279 302z"/>
<path style="fill:#f4c880; stroke:none;" d="M280.667 302.333L281.333 302.667L280.667 302.333z"/>
</svg>
