<?xml version="1.0" standalone="yes"?>
<svg xmlns="http://www.w3.org/2000/svg" width="494" height="468">
<path style="fill:#010101; stroke:none;" d="M0 0L0 468L494 468L494 0L0 0z"/>
<path style="fill:#ffffff; stroke:none;" d="M5 4L5 463L489 463L489 4L5 4z"/>
<path style="fill:#010101; stroke:none;" d="M237 93.4252C210.711 97.0036 185.279 104.067 165 122.174C104.996 175.75 98.172 293.832 156.17 351.83C188.972 384.632 237.327 393.735 282 387.718C315.766 383.169 346.995 366.585 367.522 339C406.57 286.526 406.18 195.436 367.241 143C338.004 103.629 284.672 86.9359 237 93.4252z"/>
<path style="fill:#ffffff; stroke:none;" d="M246 142.424C193.35 149.422 178 197.577 178 244C178 269.079 183.046 296.596 200.326 315.91C219.072 336.864 246.1 342.751 273 338.83C310.609 333.348 331.3 295.661 334.086 261C337.874 213.874 329.364 151.546 272 143.004C263.558 141.747 254.491 141.296 246 142.424z"/>
</svg>
