<?xml version="1.0" standalone="yes"?>
<svg xmlns="http://www.w3.org/2000/svg" width="494" height="468">
<path style="fill:#010202; stroke:none;" d="M0 0L0 468L494 468L494 0L0 0z"/>
<path style="fill:#ffffff; stroke:none;" d="M5 4L5 463L489 463L489 4L5 4z"/>
<path style="fill:#eab56e; stroke:none;" d="M71.6667 153.333L72.3333 153.667L71.6667 153.333z"/>
<path style="fill:#66ade2; stroke:none;" d="M73 153L74 154L73 153z"/>
<path style="fill:#7f3212; stroke:none;" d="M74 153L74 154L78 154L74 153z"/>
<path style="fill:#010202; stroke:none;" d="M78 153.424C62.2967 155.491 47.8864 158.455 36.1705 170.171C10.0484 196.293 9.0335 251.857 36.0895 277.826C52.261 293.348 75.6713 296.517 97 293.711C167.252 284.468 168.175 168.357 100 154.808C93.0598 153.429 85.0274 152.499 78 153.424z"/>
<path style="fill:#7f3212; stroke:none;" d="M88 153L88 154L92 154L88 153z"/>
<path style="fill:#66ade2; stroke:none;" d="M92 153L93 154L92 153z"/>
<path style="fill:#eab56e; stroke:none;" d="M93 153L94 154L93 153M273.667 153.333L274.333 153.667L273.667 153.333z"/>
<path style="fill:#7f3212; stroke:none;" d="M275 153L275 154L280 154L275 153z"/>
<path style="fill:#010202; stroke:none;" d="M256 245L230 248C230.761 284.678 264.987 296.578 296 294.086C314.502 292.599 332.964 285.17 339.251 266C349.923 233.454 323.026 215.014 295 209C285.09 206.874 265.002 204.456 261.354 193.086C258.195 183.24 271.379 177.709 279 177.093C294.116 175.872 306.662 181.039 310 197L337 196C336.908 162.729 305.636 150.968 277 153.831C259.356 155.595 241.783 162.344 236.21 181C226.209 214.476 259.115 227.739 285 233.884C294.404 236.117 311.133 238.637 313.602 250.001C316.482 263.258 299.572 270.87 289 270.996C271.562 271.204 259.983 262.207 256 245z"/>
<path style="fill:#7f3212; stroke:none;" d="M290 153L290 154L294 154L290 153z"/>
<path style="fill:#66ade2; stroke:none;" d="M294 153L295 154L294 153z"/>
<path style="fill:#eab56e; stroke:none;" d="M295 153L296 154L295 153M65.6667 154.333L66.3333 154.667L65.6667 154.333z"/>
<path style="fill:#7f3212; stroke:none;" d="M67.6667 154.333L68.3333 154.667L67.6667 154.333M98 154L99 155L98 154z"/>
<path style="fill:#66ade2; stroke:none;" d="M99 154L100 155L99 154z"/>
<path style="fill:#eab56e; stroke:none;" d="M267 154L268 155L267 154z"/>
<path style="fill:#7f3212; stroke:none;" d="M268.667 154.333L269.333 154.667L268.667 154.333M300 154L301 155L300 154z"/>
<path style="fill:#66ade2; stroke:none;" d="M301 154L302 155L301 154z"/>
<path style="fill:#eab56e; stroke:none;" d="M61 155L62 156L61 155z"/>
<path style="fill:#7f3212; stroke:none;" d="M62 155L63 156L62 155z"/>
<path style="fill:#66ade2; stroke:none;" d="M103 155L104 156L103 155z"/>
<path style="fill:#eab56e; stroke:none;" d="M263 155L264 156L263 155z"/>
<path style="fill:#7f3212; stroke:none;" d="M264 155L265 156L264 155M305 155L306 156L305 155M365 155L365 293L366 293L366 197C366 185.056 369.607 165.98 365 155z"/>
<path style="fill:#010202; stroke:none;" d="M366 155L366 293C386.713 293 407.353 292.943 428 292.039C439.171 291.55 450.746 293.091 461 287.482C489.541 271.871 484.739 230.126 455 220C477.197 204.891 481.435 170.967 453 158.88C446.2 155.989 439.154 156.511 432 155.83C410.223 153.758 387.89 155 366 155z"/>
<path style="fill:#7f3212; stroke:none;" d="M429 155L429 156L437 156L429 155z"/>
<path style="fill:#eab56e; stroke:none;" d="M437.667 155.333L438.333 155.667L437.667 155.333M58 156L59 157L58 156z"/>
<path style="fill:#7f3212; stroke:none;" d="M59 156L60 157L59 156M106 156L107 157L106 156z"/>
<path style="fill:#66ade2; stroke:none;" d="M107 156L108 157L107 156z"/>
<path style="fill:#eab56e; stroke:none;" d="M260 156L261 157L260 156z"/>
<path style="fill:#7f3212; stroke:none;" d="M261 156L262 157L261 156M308 156L309 157L308 156z"/>
<path style="fill:#66ade2; stroke:none;" d="M309 156L310 157L309 156z"/>
<path style="fill:#7f3212; stroke:none;" d="M443.667 156.333L444.333 156.667L443.667 156.333z"/>
<path style="fill:#66ade2; stroke:none;" d="M445 156L446 157L445 156z"/>
<path style="fill:#eab56e; stroke:none;" d="M55 157L56 158L55 157z"/>
<path style="fill:#7f3212; stroke:none;" d="M56 157L57 158L56 157M109 157L110 158L109 157z"/>
<path style="fill:#eab56e; stroke:none;" d="M257 157L258 158L257 157z"/>
<path style="fill:#7f3212; stroke:none;" d="M258 157L259 158L258 157z"/>
<path style="fill:#66ade2; stroke:none;" d="M311 157L312 158L311 157M449 157L450 158L449 157z"/>
<path style="fill:#7f3212; stroke:none;" d="M53 158L54 159L53 158z"/>
<path style="fill:#66ade2; stroke:none;" d="M112 158L113 159L112 158z"/>
<path style="fill:#eab56e; stroke:none;" d="M255 158L256 159L255 158z"/>
<path style="fill:#7f3212; stroke:none;" d="M256 158L257 159L256 158z"/>
<path style="fill:#66ade2; stroke:none;" d="M314 158L315 159L314 158M452 158L453 159L452 158z"/>
<path style="fill:#eab56e; stroke:none;" d="M50 159L51 160L50 159z"/>
<path style="fill:#7f3212; stroke:none;" d="M51 159L52 160L51 159z"/>
<path style="fill:#66ade2; stroke:none;" d="M114 159L115 160L114 159z"/>
<path style="fill:#eab56e; stroke:none;" d="M253 159L254 160L253 159z"/>
<path style="fill:#7f3212; stroke:none;" d="M254 159L255 160L254 159z"/>
<path style="fill:#66ade2; stroke:none;" d="M316 159L317 160L316 159M454 159L455 160L454 159z"/>
<path style="fill:#7f3212; stroke:none;" d="M49 160L50 161L49 160z"/>
<path style="fill:#66ade2; stroke:none;" d="M116 160L117 161L116 160z"/>
<path style="fill:#7f3212; stroke:none;" d="M252 160L253 161L252 160z"/>
<path style="fill:#66ade2; stroke:none;" d="M456 160L457 161L456 160z"/>
<path style="fill:#7f3212; stroke:none;" d="M47 161L48 162L47 161z"/>
<path style="fill:#66ade2; stroke:none;" d="M118 161L119 162L118 161z"/>
<path style="fill:#7f3212; stroke:none;" d="M250 161L251 162L250 161z"/>
<path style="fill:#66ade2; stroke:none;" d="M319 161L320 162L319 161M458 161L459 162L458 161z"/>
<path style="fill:#eab56e; stroke:none;" d="M45 162L46 163L45 162z"/>
<path style="fill:#66ade2; stroke:none;" d="M120 162L121 163L120 162z"/>
<path style="fill:#eab56e; stroke:none;" d="M248 162L249 163L248 162z"/>
<path style="fill:#7f3212; stroke:none;" d="M249 162L250 163L249 162z"/>
<path style="fill:#66ade2; stroke:none;" d="M459 162L460 163L459 162z"/>
<path style="fill:#7f3212; stroke:none;" d="M44 163L45 164L44 163z"/>
<path style="fill:#eab56e; stroke:none;" d="M247 163L248 164L247 163z"/>
<path style="fill:#66ade2; stroke:none;" d="M322 163L323 164L322 163z"/>
<path style="fill:#eab56e; stroke:none;" d="M42 164L43 165L42 164z"/>
<path style="fill:#66ade2; stroke:none;" d="M123 164L124 165L123 164z"/>
<path style="fill:#7f3212; stroke:none;" d="M246 164L247 165L246 164z"/>
<path style="fill:#66ade2; stroke:none;" d="M323 164L324 165L323 164M462 164L463 165L462 164z"/>
<path style="fill:#7f3212; stroke:none;" d="M41 165L42 166L41 165z"/>
<path style="fill:#66ade2; stroke:none;" d="M124 165L125 166L124 165z"/>
<path style="fill:#7f3212; stroke:none;" d="M245 165L246 166L245 165z"/>
<path style="fill:#66ade2; stroke:none;" d="M324 165L325 166L324 165M463 165L464 166L463 165z"/>
<path style="fill:#7f3212; stroke:none;" d="M40 166L41 167L40 166M244 166L245 167L244 166z"/>
<path style="fill:#66ade2; stroke:none;" d="M325 166L326 167L325 166M464 166L465 167L464 166z"/>
<path style="fill:#7f3212; stroke:none;" d="M39 167L40 168L39 167z"/>
<path style="fill:#66ade2; stroke:none;" d="M127 167L128 168L127 167z"/>
<path style="fill:#7f3212; stroke:none;" d="M243 167L244 168L243 167z"/>
<path style="fill:#66ade2; stroke:none;" d="M326 167L327 168L326 167M465 167L466 168L465 167z"/>
<path style="fill:#eab56e; stroke:none;" d="M37 168L38 169L37 168z"/>
<path style="fill:#66ade2; stroke:none;" d="M128 168L129 169L128 168z"/>
<path style="fill:#eab56e; stroke:none;" d="M242 168L243 169L242 168z"/>
<path style="fill:#66ade2; stroke:none;" d="M327 168L328 169L327 168z"/>
<path style="fill:#eab56e; stroke:none;" d="M36 169L37 170L36 169z"/>
<path style="fill:#66ade2; stroke:none;" d="M129 169L130 170L129 169z"/>
<path style="fill:#eab56e; stroke:none;" d="M241 169L242 170L241 169z"/>
<path style="fill:#66ade2; stroke:none;" d="M328 169L329 170L328 169z"/>
<path style="fill:#eab56e; stroke:none;" d="M35 170L36 171L35 170z"/>
<path style="fill:#66ade2; stroke:none;" d="M130 170L131 171L130 170z"/>
<path style="fill:#eab56e; stroke:none;" d="M240 170L241 171L240 170z"/>
<path style="fill:#66ade2; stroke:none;" d="M467 170L468 171L467 170z"/>
<path style="fill:#eab56e; stroke:none;" d="M34 171L35 172L34 171z"/>
<path style="fill:#66ade2; stroke:none;" d="M131 171L132 172L131 171z"/>
<path style="fill:#7f3212; stroke:none;" d="M240 171L241 172L240 171z"/>
<path style="fill:#66ade2; stroke:none;" d="M468 171L469 172L468 171z"/>
<path style="fill:#eab56e; stroke:none;" d="M33 172L34 173L33 172z"/>
<path style="fill:#66ade2; stroke:none;" d="M132 172L133 173L132 172z"/>
<path style="fill:#eab56e; stroke:none;" d="M239 172L240 173L239 172z"/>
<path style="fill:#66ade2; stroke:none;" d="M330 172L331 173L330 172z"/>
<path style="fill:#7f3212; stroke:none;" d="M33 173L34 174L33 173z"/>
<path style="fill:#66ade2; stroke:none;" d="M133 173L134 174L133 173z"/>
<path style="fill:#7f3212; stroke:none;" d="M239 173L240 174L239 173z"/>
<path style="fill:#66ade2; stroke:none;" d="M331.333 173.667L331.667 174.333L331.333 173.667M469 173L470 174L469 173z"/>
<path style="fill:#7f3212; stroke:none;" d="M32 174L33 175L32 174z"/>
<path style="fill:#66ade2; stroke:none;" d="M134 174L135 175L134 174z"/>
<path style="fill:#7f3212; stroke:none;" d="M238 174L239 175L238 174M31 175L32 176L31 175z"/>
<path style="fill:#66ade2; stroke:none;" d="M135 175L136 176L135 175z"/>
<path style="fill:#eab56e; stroke:none;" d="M237 175L238 176L237 175z"/>
<path style="fill:#66ade2; stroke:none;" d="M332 175L333 176L332 175M470 175L471 176L470 175z"/>
<path style="fill:#eab56e; stroke:none;" d="M30 176L31 177L30 176z"/>
<path style="fill:#7f3212; stroke:none;" d="M237.333 176.667L237.667 177.333L237.333 176.667z"/>
<path style="fill:#eab56e; stroke:none;" d="M29 177L30 178L29 177z"/>
<path style="fill:#7f3212; stroke:none;" d="M75 177L76 178L75 177z"/>
<path style="fill:#66ade2; stroke:none;" d="M76 177L77 178L76 177z"/>
<path style="fill:#eab56e; stroke:none;" d="M77 177L78 178L77 177z"/>
<path style="fill:#ffffff; stroke:none;" d="M78 177.439C29.3905 185.031 36.1269 278.017 88 270.572C137.32 263.493 131.268 169.12 78 177.439z"/>
<path style="fill:#eab56e; stroke:none;" d="M89 177L90 178L89 177z"/>
<path style="fill:#66ade2; stroke:none;" d="M90 177L91 178L90 177z"/>
<path style="fill:#7f3212; stroke:none;" d="M91 177L92 178L91 177M275.667 177.333L276.333 177.667L275.667 177.333z"/>
<path style="fill:#66ade2; stroke:none;" d="M277 177L278 178L277 177z"/>
<path style="fill:#eab56e; stroke:none;" d="M278 177L279 178L278 177M290 177L291 178L290 177z"/>
<path style="fill:#66ade2; stroke:none;" d="M291 177L292 178L291 177z"/>
<path style="fill:#7f3212; stroke:none;" d="M292 177L293 178L292 177z"/>
<path style="fill:#66ade2; stroke:none;" d="M333 177L334 178L333 177M471 177L472 178L471 177z"/>
<path style="fill:#7f3212; stroke:none;" d="M29 178L30 179L29 178z"/>
<path style="fill:#66ade2; stroke:none;" d="M71.6667 178.333L72.3333 178.667L71.6667 178.333z"/>
<path style="fill:#eab56e; stroke:none;" d="M94 178L95 179L94 178z"/>
<path style="fill:#7f3212; stroke:none;" d="M95 178L96 179L95 178z"/>
<path style="fill:#66ade2; stroke:none;" d="M137 178L138 179L137 178z"/>
<path style="fill:#eab56e; stroke:none;" d="M236 178L237 179L236 178z"/>
<path style="fill:#66ade2; stroke:none;" d="M272 178L273 179L272 178z"/>
<path style="fill:#eab56e; stroke:none;" d="M295 178L296 179L295 178z"/>
<path style="fill:#7f3212; stroke:none;" d="M296 178L297 179L296 178z"/>
<path style="fill:#ffffff; stroke:none;" d="M393 178L393 210C406.368 210 425.648 213.421 437.996 207.427C447.102 203.008 449.406 187.961 440.895 181.703C429.845 173.578 406.001 178 393 178z"/>
<path style="fill:#eab56e; stroke:none;" d="M430 178L430 179L433 179L430 178z"/>
<path style="fill:#7f3212; stroke:none;" d="M433.667 178.333L434.333 178.667L433.667 178.333M28 179L29 180L28 179M68 179L69 180L68 179z"/>
<path style="fill:#eab56e; stroke:none;" d="M97 179L98 180L97 179z"/>
<path style="fill:#7f3212; stroke:none;" d="M98 179L99 180L98 179z"/>
<path style="fill:#66ade2; stroke:none;" d="M138 179L139 180L138 179z"/>
<path style="fill:#7f3212; stroke:none;" d="M236 179L237 180L236 179z"/>
<path style="fill:#66ade2; stroke:none;" d="M269 179L270 180L269 179z"/>
<path style="fill:#7f3212; stroke:none;" d="M298 179L299 180L298 179z"/>
<path style="fill:#66ade2; stroke:none;" d="M334.333 179.667L334.667 180.333L334.333 179.667z"/>
<path style="fill:#eab56e; stroke:none;" d="M436 179L437 180L436 179z"/>
<path style="fill:#7f3212; stroke:none;" d="M437 179L438 180L437 179z"/>
<path style="fill:#66ade2; stroke:none;" d="M472.333 179.667L472.667 180.333L472.333 179.667z"/>
<path style="fill:#eab56e; stroke:none;" d="M27 180L28 181L27 180z"/>
<path style="fill:#66ade2; stroke:none;" d="M66 180L67 181L66 180z"/>
<path style="fill:#7f3212; stroke:none;" d="M100 180L101 181L100 180z"/>
<path style="fill:#eab56e; stroke:none;" d="M235.333 180.667L235.667 181.333L235.333 180.667z"/>
<path style="fill:#66ade2; stroke:none;" d="M267 180L268 181L267 180z"/>
<path style="fill:#7f3212; stroke:none;" d="M300 180L301 181L300 180z"/>
<path style="fill:#eab56e; stroke:none;" d="M439 180L440 181L439 180z"/>
<path style="fill:#7f3212; stroke:none;" d="M27 181L28 182L27 181z"/>
<path style="fill:#66ade2; stroke:none;" d="M64 181L65 182L64 181z"/>
<path style="fill:#7f3212; stroke:none;" d="M102 181L103 182L102 181z"/>
<path style="fill:#66ade2; stroke:none;" d="M139 181L140 182L139 181M265 181L266 182L265 181z"/>
<path style="fill:#eab56e; stroke:none;" d="M301 181L302 182L301 181z"/>
<path style="fill:#7f3212; stroke:none;" d="M441 181L442 182L441 181M26 182L27 183L26 182M104 182L105 183L104 182z"/>
<path style="fill:#66ade2; stroke:none;" d="M140 182L141 183L140 182z"/>
<path style="fill:#7f3212; stroke:none;" d="M235.333 182.667L235.667 183.333L235.333 182.667z"/>
<path style="fill:#66ade2; stroke:none;" d="M264 182L265 183L264 182z"/>
<path style="fill:#eab56e; stroke:none;" d="M302 182L303 183L302 182z"/>
<path style="fill:#66ade2; stroke:none;" d="M335.333 182.667L335.667 183.333L335.333 182.667z"/>
<path style="fill:#7f3212; stroke:none;" d="M442 182L443 183L442 182z"/>
<path style="fill:#eab56e; stroke:none;" d="M25 183L26 184L25 183z"/>
<path style="fill:#66ade2; stroke:none;" d="M61 183L62 184L61 183z"/>
<path style="fill:#eab56e; stroke:none;" d="M105 183L106 184L105 183z"/>
<path style="fill:#66ade2; stroke:none;" d="M263 183L264 184L263 183z"/>
<path style="fill:#eab56e; stroke:none;" d="M303 183L304 184L303 183z"/>
<path style="fill:#7f3212; stroke:none;" d="M443 183L444 184L443 183z"/>
<path style="fill:#66ade2; stroke:none;" d="M473 183L473 189L474 189L473 183z"/>
<path style="fill:#7f3212; stroke:none;" d="M25 184L26 185L25 184z"/>
<path style="fill:#66ade2; stroke:none;" d="M60 184L61 185L60 184z"/>
<path style="fill:#eab56e; stroke:none;" d="M106 184L107 185L106 184z"/>
<path style="fill:#66ade2; stroke:none;" d="M141 184L142 185L141 184z"/>
<path style="fill:#eab56e; stroke:none;" d="M234.333 184.667L234.667 185.333L234.333 184.667z"/>
<path style="fill:#66ade2; stroke:none;" d="M262 184L263 185L262 184z"/>
<path style="fill:#eab56e; stroke:none;" d="M304 184L305 185L304 184z"/>
<path style="fill:#7f3212; stroke:none;" d="M444 184L445 185L444 184z"/>
<path style="fill:#eab56e; stroke:none;" d="M24 185L25 186L24 185z"/>
<path style="fill:#7f3212; stroke:none;" d="M108 185L109 186L108 185z"/>
<path style="fill:#eab56e; stroke:none;" d="M305 185L306 186L305 185z"/>
<path style="fill:#66ade2; stroke:none;" d="M336 185L336 188L337 188L336 185z"/>
<path style="fill:#eab56e; stroke:none;" d="M444 185L445 186L444 185z"/>
<path style="fill:#7f3212; stroke:none;" d="M24 186L25 187L24 186M109 186L110 187L109 186z"/>
<path style="fill:#66ade2; stroke:none;" d="M142 186L143 187L142 186z"/>
<path style="fill:#7f3212; stroke:none;" d="M234 186L234 197L235 197L234 186z"/>
<path style="fill:#66ade2; stroke:none;" d="M261.333 186.667L261.667 187.333L261.333 186.667z"/>
<path style="fill:#7f3212; stroke:none;" d="M306 186L307 187L306 186M445 186L446 187L445 186z"/>
<path style="fill:#eab56e; stroke:none;" d="M23 187L24 188L23 187z"/>
<path style="fill:#7f3212; stroke:none;" d="M110 187L111 188L110 187z"/>
<path style="fill:#eab56e; stroke:none;" d="M306 187L307 188L306 187M445 187L446 188L445 187z"/>
<path style="fill:#7f3212; stroke:none;" d="M23 188L24 189L23 188M111 188L112 189L111 188z"/>
<path style="fill:#66ade2; stroke:none;" d="M143 188L144 189L143 188z"/>
<path style="fill:#7f3212; stroke:none;" d="M307 188L308 189L307 188M446 188L446 191L447 191L446 188z"/>
<path style="fill:#eab56e; stroke:none;" d="M22 189L23 190L22 189M111 189L112 190L111 189M307 189L308 190L307 189z"/>
<path style="fill:#7f3212; stroke:none;" d="M22 190L23 191L22 190z"/>
<path style="fill:#66ade2; stroke:none;" d="M54 190L55 191L54 190z"/>
<path style="fill:#eab56e; stroke:none;" d="M112 190L113 191L112 190z"/>
<path style="fill:#66ade2; stroke:none;" d="M144.333 190.667L144.667 191.333L144.333 190.667M260 190L261 191L260 190z"/>
<path style="fill:#7f3212; stroke:none;" d="M308.333 190.667L308.667 191.333L308.333 190.667z"/>
<path style="fill:#eab56e; stroke:none;" d="M21.3333 191.667L21.6667 192.333L21.3333 191.667z"/>
<path style="fill:#66ade2; stroke:none;" d="M53 191L54 192L53 191z"/>
<path style="fill:#7f3212; stroke:none;" d="M113 191L114 192L113 191z"/>
<path style="fill:#66ade2; stroke:none;" d="M337 191L337 196L338 196L337 191z"/>
<path style="fill:#eab56e; stroke:none;" d="M446 191L446 197L447 197L446 191z"/>
<path style="fill:#66ade2; stroke:none;" d="M473 191L473 197L474 197L473 191M52 192L53 193L52 192z"/>
<path style="fill:#7f3212; stroke:none;" d="M114 192L115 193L114 192z"/>
<path style="fill:#eab56e; stroke:none;" d="M308.333 192.667L308.667 193.333L308.333 192.667z"/>
<path style="fill:#7f3212; stroke:none;" d="M21 193L22 194L21 193z"/>
<path style="fill:#eab56e; stroke:none;" d="M114 193L115 194L114 193z"/>
<path style="fill:#66ade2; stroke:none;" d="M145.333 193.667L145.667 194.333L145.333 193.667M261.333 193.667L261.667 194.333L261.333 193.667z"/>
<path style="fill:#eab56e; stroke:none;" d="M20.3333 194.667L20.6667 195.333L20.3333 194.667z"/>
<path style="fill:#66ade2; stroke:none;" d="M51 194L52 195L51 194z"/>
<path style="fill:#7f3212; stroke:none;" d="M115 194L116 195L115 194M309.333 194.667L309.667 195.333L309.333 194.667z"/>
<path style="fill:#eab56e; stroke:none;" d="M115 195L116 196L115 195z"/>
<path style="fill:#66ade2; stroke:none;" d="M146 195L146 198L147 198L146 195z"/>
<path style="fill:#7f3212; stroke:none;" d="M20 196L21 197L20 196z"/>
<path style="fill:#66ade2; stroke:none;" d="M50 196L51 197L50 196z"/>
<path style="fill:#7f3212; stroke:none;" d="M116 196L117 197L116 196z"/>
<path style="fill:#66ade2; stroke:none;" d="M262 196L263 197L262 196z"/>
<path style="fill:#eab56e; stroke:none;" d="M309 196L310 197L309 196z"/>
<path style="fill:#7f3212; stroke:none;" d="M313 196L313 197L323 197L313 196z"/>
<path style="fill:#66ade2; stroke:none;" d="M323 196L324 197L323 196z"/>
<path style="fill:#eab56e; stroke:none;" d="M324 196L324 197L329 197L324 196M19.3333 197.667L19.6667 198.333L19.3333 197.667M116 197L117 198L116 197M234 197L234 200L235 200L234 197z"/>
<path style="fill:#66ade2; stroke:none;" d="M263 197L264 198L263 197z"/>
<path style="fill:#7f3212; stroke:none;" d="M446.333 197.667L446.667 198.333L446.333 197.667z"/>
<path style="fill:#66ade2; stroke:none;" d="M49 198L50 199L49 198z"/>
<path style="fill:#7f3212; stroke:none;" d="M117 198L118 199L117 198z"/>
<path style="fill:#66ade2; stroke:none;" d="M264 198L265 199L264 198M472.333 198.667L472.667 199.333L472.333 198.667z"/>
<path style="fill:#7f3212; stroke:none;" d="M19.3333 199.667L19.6667 200.333L19.3333 199.667z"/>
<path style="fill:#eab56e; stroke:none;" d="M117 199L118 200L117 199z"/>
<path style="fill:#66ade2; stroke:none;" d="M147.333 199.667L147.667 200.333L147.333 199.667z"/>
<path style="fill:#eab56e; stroke:none;" d="M445 199L446 200L445 199z"/>
<path style="fill:#66ade2; stroke:none;" d="M48.3333 200.667L48.6667 201.333L48.3333 200.667z"/>
<path style="fill:#7f3212; stroke:none;" d="M118.333 200.667L118.667 201.333L118.333 200.667M235.333 200.667L235.667 201.333L235.333 200.667z"/>
<path style="fill:#66ade2; stroke:none;" d="M267 200L268 201L267 200z"/>
<path style="fill:#7f3212; stroke:none;" d="M445 200L446 201L445 200z"/>
<path style="fill:#eab56e; stroke:none;" d="M18.3333 201.667L18.6667 202.333L18.3333 201.667z"/>
<path style="fill:#66ade2; stroke:none;" d="M269 201L270 202L269 201z"/>
<path style="fill:#eab56e; stroke:none;" d="M444 201L445 202L444 201z"/>
<path style="fill:#66ade2; stroke:none;" d="M471.333 201.667L471.667 202.333L471.333 201.667z"/>
<path style="fill:#eab56e; stroke:none;" d="M118 202L119 203L118 202M235 202L236 203L235 202z"/>
<path style="fill:#7f3212; stroke:none;" d="M271 202L272 203L271 202M444 202L445 203L444 202M18 203L18 206L19 206L18 203z"/>
<path style="fill:#66ade2; stroke:none;" d="M47 203L47 206L48 206L47 203z"/>
<path style="fill:#7f3212; stroke:none;" d="M119.333 203.667L119.667 204.333L119.333 203.667z"/>
<path style="fill:#66ade2; stroke:none;" d="M148 203L148 206L149 206L148 203z"/>
<path style="fill:#7f3212; stroke:none;" d="M236.333 203.667L236.667 204.333L236.333 203.667z"/>
<path style="fill:#66ade2; stroke:none;" d="M274 203L275 204L274 203z"/>
<path style="fill:#eab56e; stroke:none;" d="M443 203L444 204L443 203z"/>
<path style="fill:#66ade2; stroke:none;" d="M277 204L278 205L277 204z"/>
<path style="fill:#eab56e; stroke:none;" d="M442 204L443 205L442 204z"/>
<path style="fill:#66ade2; stroke:none;" d="M470 204L471 205L470 204z"/>
<path style="fill:#eab56e; stroke:none;" d="M119.333 205.667L119.667 206.333L119.333 205.667M236 205L237 206L236 205z"/>
<path style="fill:#7f3212; stroke:none;" d="M280 205L281 206L280 205z"/>
<path style="fill:#66ade2; stroke:none;" d="M281 205L282 206L281 205z"/>
<path style="fill:#eab56e; stroke:none;" d="M441 205L442 206L441 205M17 206L17 209L18 209L17 206z"/>
<path style="fill:#7f3212; stroke:none;" d="M237 206L238 207L237 206M284 206L285 207L284 206z"/>
<path style="fill:#66ade2; stroke:none;" d="M285 206L286 207L285 206z"/>
<path style="fill:#7f3212; stroke:none;" d="M440 206L441 207L440 206z"/>
<path style="fill:#66ade2; stroke:none;" d="M469 206L470 207L469 206M46 207L46 211L47 211L46 207z"/>
<path style="fill:#7f3212; stroke:none;" d="M120 207L120 210L121 210L120 207z"/>
<path style="fill:#eab56e; stroke:none;" d="M237 207L238 208L237 207z"/>
<path style="fill:#7f3212; stroke:none;" d="M288 207L289 208L288 207z"/>
<path style="fill:#66ade2; stroke:none;" d="M289 207L290 208L289 207z"/>
<path style="fill:#eab56e; stroke:none;" d="M438 207L439 208L438 207z"/>
<path style="fill:#66ade2; stroke:none;" d="M468 207L469 208L468 207M149 208L149 213L150 213L149 208z"/>
<path style="fill:#7f3212; stroke:none;" d="M238 208L239 209L238 208M292 208L293 209L292 208z"/>
<path style="fill:#66ade2; stroke:none;" d="M293 208L294 209L293 208z"/>
<path style="fill:#eab56e; stroke:none;" d="M435 208L436 209L435 208z"/>
<path style="fill:#7f3212; stroke:none;" d="M436 208L437 209L436 208M17 209L17 213L18 213L17 209z"/>
<path style="fill:#eab56e; stroke:none;" d="M238 209L239 210L238 209z"/>
<path style="fill:#66ade2; stroke:none;" d="M297 209L298 210L297 209z"/>
<path style="fill:#eab56e; stroke:none;" d="M429 209L429 210L432 210L429 209z"/>
<path style="fill:#7f3212; stroke:none;" d="M432.667 209.333L433.333 209.667L432.667 209.333z"/>
<path style="fill:#66ade2; stroke:none;" d="M467 209L468 210L467 209z"/>
<path style="fill:#eab56e; stroke:none;" d="M120 210L120 214L121 214L120 210z"/>
<path style="fill:#7f3212; stroke:none;" d="M239 210L240 211L239 210z"/>
<path style="fill:#66ade2; stroke:none;" d="M301 210L302 211L301 210M466 210L467 211L466 210z"/>
<path style="fill:#7f3212; stroke:none;" d="M240 211L241 212L240 211z"/>
<path style="fill:#66ade2; stroke:none;" d="M304.667 211.333L305.333 211.667L304.667 211.333M465 211L466 212L465 211z"/>
<path style="fill:#eab56e; stroke:none;" d="M240 212L241 213L240 212z"/>
<path style="fill:#7f3212; stroke:none;" d="M307 212L308 213L307 212z"/>
<path style="fill:#66ade2; stroke:none;" d="M308 212L309 213L308 212M464 212L465 213L464 212z"/>
<path style="fill:#eab56e; stroke:none;" d="M16 213L16 221L17 221L16 213z"/>
<path style="fill:#66ade2; stroke:none;" d="M45 213L45 235L46 235L45 213z"/>
<path style="fill:#eab56e; stroke:none;" d="M241 213L242 214L241 213z"/>
<path style="fill:#66ade2; stroke:none;" d="M311 213L312 214L311 213z"/>
<path style="fill:#7f3212; stroke:none;" d="M121 214L121 221L122 221L121 214M242 214L243 215L242 214z"/>
<path style="fill:#66ade2; stroke:none;" d="M313 214L314 215L313 214M462 214L463 215L462 214z"/>
<path style="fill:#7f3212; stroke:none;" d="M243 215L244 216L243 215z"/>
<path style="fill:#66ade2; stroke:none;" d="M316 215L317 216L316 215M461 215L462 216L461 215z"/>
<path style="fill:#7f3212; stroke:none;" d="M244 216L245 217L244 216z"/>
<path style="fill:#66ade2; stroke:none;" d="M318 216L319 217L318 216M460 216L461 217L460 216z"/>
<path style="fill:#7f3212; stroke:none;" d="M245 217L246 218L245 217z"/>
<path style="fill:#66ade2; stroke:none;" d="M320 217L321 218L320 217M458 217L459 218L458 217M150 218L150 231L151 231L150 218z"/>
<path style="fill:#7f3212; stroke:none;" d="M246 218L247 219L246 218z"/>
<path style="fill:#66ade2; stroke:none;" d="M322 218L323 219L322 218z"/>
<path style="fill:#7f3212; stroke:none;" d="M247 219L248 220L247 219z"/>
<path style="fill:#66ade2; stroke:none;" d="M324 219L325 220L324 219M455 219L456 220L455 219z"/>
<path style="fill:#eab56e; stroke:none;" d="M248 220L249 221L248 220z"/>
<path style="fill:#66ade2; stroke:none;" d="M325 220L326 221L325 220M456 220L457 221L456 220z"/>
<path style="fill:#7f3212; stroke:none;" d="M16 221L16 228L17 228L16 221z"/>
<path style="fill:#eab56e; stroke:none;" d="M121 221L121 226L122 226L121 221M249 221L250 222L249 221z"/>
<path style="fill:#66ade2; stroke:none;" d="M459 221L460 222L459 221z"/>
<path style="fill:#7f3212; stroke:none;" d="M251 222L252 223L251 222z"/>
<path style="fill:#66ade2; stroke:none;" d="M328 222L329 223L328 222M461 222L462 223L461 222z"/>
<path style="fill:#7f3212; stroke:none;" d="M253 223L254 224L253 223z"/>
<path style="fill:#66ade2; stroke:none;" d="M329 223L330 224L329 223M463 223L464 224L463 223z"/>
<path style="fill:#eab56e; stroke:none;" d="M254 224L255 225L254 224z"/>
<path style="fill:#7f3212; stroke:none;" d="M255 224L256 225L255 224z"/>
<path style="fill:#66ade2; stroke:none;" d="M330 224L331 225L330 224M465 224L466 225L465 224z"/>
<path style="fill:#eab56e; stroke:none;" d="M256 225L257 226L256 225z"/>
<path style="fill:#7f3212; stroke:none;" d="M257 225L258 226L257 225z"/>
<path style="fill:#66ade2; stroke:none;" d="M331 225L332 226L331 225M466 225L467 226L466 225z"/>
<path style="fill:#7f3212; stroke:none;" d="M121 226L121 234L122 234L121 226M259 226L260 227L259 226z"/>
<path style="fill:#66ade2; stroke:none;" d="M332 226L333 227L332 226z"/>
<path style="fill:#eab56e; stroke:none;" d="M261 227L262 228L261 227z"/>
<path style="fill:#66ade2; stroke:none;" d="M333 227L334 228L333 227M469 227L470 228L469 227z"/>
<path style="fill:#eab56e; stroke:none;" d="M16 228L16 236L17 236L16 228z"/>
<path style="fill:#7f3212; stroke:none;" d="M264 228L265 229L264 228z"/>
<path style="fill:#66ade2; stroke:none;" d="M470 228L471 229L470 228z"/>
<path style="fill:#7f3212; stroke:none;" d="M267 229L268 230L267 229z"/>
<path style="fill:#66ade2; stroke:none;" d="M471 229L472 230L471 229z"/>
<path style="fill:#eab56e; stroke:none;" d="M168 230L168 256L169 256L168 230z"/>
<path style="fill:#010202; stroke:none;" d="M169 230L169 256L220 256L220 230L169 230z"/>
<path style="fill:#66ade2; stroke:none;" d="M220 230L220 256L221 256L220 230z"/>
<path style="fill:#eab56e; stroke:none;" d="M270 230L271 231L270 230z"/>
<path style="fill:#7f3212; stroke:none;" d="M271 230L272 231L271 230z"/>
<path style="fill:#66ade2; stroke:none;" d="M335 230L336 231L335 230M472 230L473 231L472 230z"/>
<path style="fill:#eab56e; stroke:none;" d="M273 231L274 232L273 231z"/>
<path style="fill:#7f3212; stroke:none;" d="M274 231L275 232L274 231z"/>
<path style="fill:#66ade2; stroke:none;" d="M336.333 231.667L336.667 232.333L336.333 231.667M473 231L474 232L473 231z"/>
<path style="fill:#eab56e; stroke:none;" d="M277 232L278 233L277 232z"/>
<path style="fill:#7f3212; stroke:none;" d="M278 232L279 233L278 232z"/>
<path style="fill:#eab56e; stroke:none;" d="M281 233L282 234L281 233z"/>
<path style="fill:#7f3212; stroke:none;" d="M282.667 233.333L283.333 233.667L282.667 233.333z"/>
<path style="fill:#66ade2; stroke:none;" d="M337 233L338 234L337 233z"/>
<path style="fill:#ffffff; stroke:none;" d="M393 233L393 270C407.432 270 432.577 274.686 444.906 265.891C454.235 259.236 453.046 241.862 442.985 236.442C429.67 229.268 407.638 233 393 233z"/>
<path style="fill:#eab56e; stroke:none;" d="M428 233L428 234L431 234L428 233z"/>
<path style="fill:#7f3212; stroke:none;" d="M431 233L431 234L435 234L431 233z"/>
<path style="fill:#66ade2; stroke:none;" d="M474 233L475 234L474 233z"/>
<path style="fill:#eab56e; stroke:none;" d="M120 234L120 237L121 237L120 234M285 234L286 235L285 234z"/>
<path style="fill:#66ade2; stroke:none;" d="M286 234L287 235L286 234z"/>
<path style="fill:#7f3212; stroke:none;" d="M287 234L288 235L287 234z"/>
<path style="fill:#eab56e; stroke:none;" d="M437 234L438 235L437 234z"/>
<path style="fill:#66ade2; stroke:none;" d="M438 234L439 235L438 234z"/>
<path style="fill:#7f3212; stroke:none;" d="M439 234L440 235L439 234z"/>
<path style="fill:#66ade2; stroke:none;" d="M475 234L476 235L475 234M149 235L149 240L150 240L149 235z"/>
<path style="fill:#eab56e; stroke:none;" d="M289 235L290 236L289 235z"/>
<path style="fill:#7f3212; stroke:none;" d="M290.667 235.333L291.333 235.667L290.667 235.333z"/>
<path style="fill:#66ade2; stroke:none;" d="M338.333 235.667L338.667 236.333L338.333 235.667z"/>
<path style="fill:#7f3212; stroke:none;" d="M441 235L442 236L441 235M17 236L17 240L18 240L17 236z"/>
<path style="fill:#eab56e; stroke:none;" d="M293 236L294 237L293 236z"/>
<path style="fill:#7f3212; stroke:none;" d="M294 236L295 237L294 236M443 236L444 237L443 236z"/>
<path style="fill:#66ade2; stroke:none;" d="M476 236L477 237L476 236M46 237L46 240L47 240L46 237z"/>
<path style="fill:#7f3212; stroke:none;" d="M120 237L120 240L121 240L120 237z"/>
<path style="fill:#eab56e; stroke:none;" d="M297 237L298 238L297 237z"/>
<path style="fill:#7f3212; stroke:none;" d="M298 237L299 238L298 237M445 237L446 238L445 237z"/>
<path style="fill:#eab56e; stroke:none;" d="M300 238L301 239L300 238z"/>
<path style="fill:#7f3212; stroke:none;" d="M301 238L302 239L301 238z"/>
<path style="fill:#66ade2; stroke:none;" d="M339.333 238.667L339.667 239.333L339.333 238.667z"/>
<path style="fill:#7f3212; stroke:none;" d="M446 238L447 239L446 238z"/>
<path style="fill:#66ade2; stroke:none;" d="M477 238L478 239L477 238z"/>
<path style="fill:#eab56e; stroke:none;" d="M303 239L304 240L303 239z"/>
<path style="fill:#7f3212; stroke:none;" d="M447 239L448 240L447 239z"/>
<path style="fill:#eab56e; stroke:none;" d="M17 240L17 243L18 243L17 240M119.333 240.667L119.667 241.333L119.333 240.667M305 240L306 241L305 240z"/>
<path style="fill:#7f3212; stroke:none;" d="M306 240L307 241L306 240M448 240L449 241L448 240z"/>
<path style="fill:#66ade2; stroke:none;" d="M478.333 240.667L478.667 241.333L478.333 240.667z"/>
<path style="fill:#eab56e; stroke:none;" d="M307 241L308 242L307 241z"/>
<path style="fill:#66ade2; stroke:none;" d="M340 241L340 244L341 244L340 241z"/>
<path style="fill:#eab56e; stroke:none;" d="M448 241L449 242L448 241z"/>
<path style="fill:#66ade2; stroke:none;" d="M47.3333 242.667L47.6667 243.333L47.3333 242.667z"/>
<path style="fill:#7f3212; stroke:none;" d="M119.333 242.667L119.667 243.333L119.333 242.667z"/>
<path style="fill:#66ade2; stroke:none;" d="M148 242L148 245L149 245L148 242z"/>
<path style="fill:#eab56e; stroke:none;" d="M308 242L309 243L308 242M449 242L450 243L449 242z"/>
<path style="fill:#7f3212; stroke:none;" d="M18.3333 243.667L18.6667 244.333L18.3333 243.667M310 243L311 244L310 243M450 243L451 244L450 243z"/>
<path style="fill:#66ade2; stroke:none;" d="M479.333 243.667L479.667 244.333L479.333 243.667z"/>
<path style="fill:#eab56e; stroke:none;" d="M118 244L119 245L118 244z"/>
<path style="fill:#7f3212; stroke:none;" d="M311 244L312 245L311 244z"/>
<path style="fill:#eab56e; stroke:none;" d="M450.333 244.667L450.667 245.333L450.333 244.667M18.3333 245.667L18.6667 246.333L18.3333 245.667z"/>
<path style="fill:#66ade2; stroke:none;" d="M48.3333 245.667L48.6667 246.333L48.3333 245.667z"/>
<path style="fill:#7f3212; stroke:none;" d="M118.333 245.667L118.667 246.333L118.333 245.667z"/>
<path style="fill:#eab56e; stroke:none;" d="M250.667 245.333L251.333 245.667L250.667 245.333z"/>
<path style="fill:#7f3212; stroke:none;" d="M252 245L252 246L255 246L252 245z"/>
<path style="fill:#66ade2; stroke:none;" d="M256 245L256 248L257 248L256 245z"/>
<path style="fill:#eab56e; stroke:none;" d="M311 245L312 246L311 245M241.667 246.333L242.333 246.667L241.667 246.333z"/>
<path style="fill:#7f3212; stroke:none;" d="M243 246L243 247L246 247L243 246M312 246L313 247L312 246z"/>
<path style="fill:#66ade2; stroke:none;" d="M341 246L341 259L342 259L341 246z"/>
<path style="fill:#7f3212; stroke:none;" d="M451.333 246.667L451.667 247.333L451.333 246.667M19.3333 247.667L19.6667 248.333L19.3333 247.667z"/>
<path style="fill:#eab56e; stroke:none;" d="M117 247L118 248L117 247z"/>
<path style="fill:#66ade2; stroke:none;" d="M147.333 247.667L147.667 248.333L147.333 247.667z"/>
<path style="fill:#eab56e; stroke:none;" d="M232.667 247.333L233.333 247.667L232.667 247.333z"/>
<path style="fill:#7f3212; stroke:none;" d="M234 247L234 248L237 248L234 247z"/>
<path style="fill:#eab56e; stroke:none;" d="M312 247L313 248L312 247z"/>
<path style="fill:#66ade2; stroke:none;" d="M480 247L480 259L481 259L480 247M49 248L50 249L49 248z"/>
<path style="fill:#7f3212; stroke:none;" d="M117 248L118 249L117 248M229 248L229 251L230 251L229 248M313.333 248.667L313.667 249.333L313.333 248.667z"/>
<path style="fill:#eab56e; stroke:none;" d="M451 248L451 256L452 256L451 248M19.3333 249.667L19.6667 250.333L19.3333 249.667M116.333 249.667L116.667 250.333L116.333 249.667z"/>
<path style="fill:#66ade2; stroke:none;" d="M257.333 249.667L257.667 250.333L257.333 249.667M50.3333 250.667L50.6667 251.333L50.3333 250.667z"/>
<path style="fill:#eab56e; stroke:none;" d="M313 250L313 255L314 255L313 250z"/>
<path style="fill:#7f3212; stroke:none;" d="M20.3333 251.667L20.6667 252.333L20.3333 251.667M116 251L117 252L116 251z"/>
<path style="fill:#66ade2; stroke:none;" d="M146.333 251.667L146.667 252.333L146.333 251.667z"/>
<path style="fill:#eab56e; stroke:none;" d="M229 251L229 254L230 254L229 251z"/>
<path style="fill:#66ade2; stroke:none;" d="M51 252L52 253L51 252z"/>
<path style="fill:#eab56e; stroke:none;" d="M115 252L116 253L115 252z"/>
<path style="fill:#66ade2; stroke:none;" d="M258.333 252.667L258.667 253.333L258.333 252.667z"/>
<path style="fill:#eab56e; stroke:none;" d="M20 253L21 254L20 253M114 253L115 254L114 253z"/>
<path style="fill:#7f3212; stroke:none;" d="M21.3333 254.667L21.6667 255.333L21.3333 254.667z"/>
<path style="fill:#66ade2; stroke:none;" d="M52 254L53 255L52 254z"/>
<path style="fill:#7f3212; stroke:none;" d="M114 254L115 255L114 254z"/>
<path style="fill:#66ade2; stroke:none;" d="M145.333 254.667L145.667 255.333L145.333 254.667z"/>
<path style="fill:#7f3212; stroke:none;" d="M230.333 254.667L230.667 255.333L230.333 254.667z"/>
<path style="fill:#66ade2; stroke:none;" d="M53 255L54 256L53 255z"/>
<path style="fill:#eab56e; stroke:none;" d="M113 255L114 256L113 255z"/>
<path style="fill:#66ade2; stroke:none;" d="M259 255L260 256L259 255z"/>
<path style="fill:#7f3212; stroke:none;" d="M313.333 255.667L313.667 256.333L313.333 255.667z"/>
<path style="fill:#eab56e; stroke:none;" d="M21 256L22 257L21 256M112 256L113 257L112 256z"/>
<path style="fill:#66ade2; stroke:none;" d="M144.333 256.667L144.667 257.333L144.333 256.667z"/>
<path style="fill:#eab56e; stroke:none;" d="M230.333 256.667L230.667 257.333L230.333 256.667z"/>
<path style="fill:#7f3212; stroke:none;" d="M451.333 256.667L451.667 257.333L451.333 256.667M22 257L23 258L22 257z"/>
<path style="fill:#66ade2; stroke:none;" d="M54 257L55 258L54 257z"/>
<path style="fill:#7f3212; stroke:none;" d="M112 257L113 258L112 257z"/>
<path style="fill:#66ade2; stroke:none;" d="M260 257L261 258L260 257z"/>
<path style="fill:#eab56e; stroke:none;" d="M312 257L313 258L312 257M22 258L23 259L22 258z"/>
<path style="fill:#66ade2; stroke:none;" d="M55 258L56 259L55 258z"/>
<path style="fill:#7f3212; stroke:none;" d="M111 258L112 259L111 258M231.333 258.667L231.667 259.333L231.333 258.667M312 258L313 259L312 258z"/>
<path style="fill:#eab56e; stroke:none;" d="M450 258L451 259L450 258z"/>
<path style="fill:#7f3212; stroke:none;" d="M23 259L24 260L23 259z"/>
<path style="fill:#66ade2; stroke:none;" d="M56 259L57 260L56 259z"/>
<path style="fill:#eab56e; stroke:none;" d="M110 259L111 260L110 259z"/>
<path style="fill:#66ade2; stroke:none;" d="M143 259L144 260L143 259M261 259L262 260L261 259z"/>
<path style="fill:#eab56e; stroke:none;" d="M311 259L312 260L311 259z"/>
<path style="fill:#7f3212; stroke:none;" d="M450.333 259.667L450.667 260.333L450.333 259.667z"/>
<path style="fill:#eab56e; stroke:none;" d="M23 260L24 261L23 260z"/>
<path style="fill:#66ade2; stroke:none;" d="M57 260L58 261L57 260z"/>
<path style="fill:#eab56e; stroke:none;" d="M109 260L110 261L109 260M231 260L232 261L231 260z"/>
<path style="fill:#66ade2; stroke:none;" d="M262 260L263 261L262 260z"/>
<path style="fill:#7f3212; stroke:none;" d="M311 260L312 261L311 260M24 261L25 262L24 261z"/>
<path style="fill:#66ade2; stroke:none;" d="M58 261L59 262L58 261z"/>
<path style="fill:#eab56e; stroke:none;" d="M108 261L109 262L108 261z"/>
<path style="fill:#66ade2; stroke:none;" d="M142 261L143 262L142 261z"/>
<path style="fill:#7f3212; stroke:none;" d="M232.333 261.667L232.667 262.333L232.333 261.667z"/>
<path style="fill:#eab56e; stroke:none;" d="M310 261L311 262L310 261z"/>
<path style="fill:#66ade2; stroke:none;" d="M340 261L340 264L341 264L340 261z"/>
<path style="fill:#7f3212; stroke:none;" d="M449 261L450 262L449 261z"/>
<path style="fill:#66ade2; stroke:none;" d="M479 261L479 264L480 264L479 261z"/>
<path style="fill:#eab56e; stroke:none;" d="M24 262L25 263L24 262z"/>
<path style="fill:#66ade2; stroke:none;" d="M59 262L60 263L59 262z"/>
<path style="fill:#7f3212; stroke:none;" d="M107 262L108 263L107 262z"/>
<path style="fill:#eab56e; stroke:none;" d="M309 262L310 263L309 262M448 262L449 263L448 262z"/>
<path style="fill:#7f3212; stroke:none;" d="M25 263L26 264L25 263z"/>
<path style="fill:#66ade2; stroke:none;" d="M60 263L61 264L60 263z"/>
<path style="fill:#7f3212; stroke:none;" d="M106 263L107 264L106 263z"/>
<path style="fill:#66ade2; stroke:none;" d="M141 263L142 264L141 263z"/>
<path style="fill:#eab56e; stroke:none;" d="M232 263L233 264L232 263M308 263L309 264L308 263z"/>
<path style="fill:#7f3212; stroke:none;" d="M448 263L449 264L448 263z"/>
<path style="fill:#eab56e; stroke:none;" d="M25 264L26 265L25 264M104 264L105 265L104 264z"/>
<path style="fill:#7f3212; stroke:none;" d="M233.333 264.667L233.667 265.333L233.333 264.667z"/>
<path style="fill:#eab56e; stroke:none;" d="M307 264L308 265L307 264z"/>
<path style="fill:#7f3212; stroke:none;" d="M447 264L448 265L447 264M26 265L27 266L26 265z"/>
<path style="fill:#66ade2; stroke:none;" d="M63 265L64 266L63 265z"/>
<path style="fill:#7f3212; stroke:none;" d="M103 265L104 266L103 265z"/>
<path style="fill:#66ade2; stroke:none;" d="M140 265L141 266L140 265M267 265L268 266L267 265z"/>
<path style="fill:#eab56e; stroke:none;" d="M306 265L307 266L306 265z"/>
<path style="fill:#66ade2; stroke:none;" d="M339.333 265.667L339.667 266.333L339.333 265.667z"/>
<path style="fill:#eab56e; stroke:none;" d="M445 265L446 266L445 265z"/>
<path style="fill:#66ade2; stroke:none;" d="M478.333 265.667L478.667 266.333L478.333 265.667z"/>
<path style="fill:#eab56e; stroke:none;" d="M26 266L27 267L26 266z"/>
<path style="fill:#66ade2; stroke:none;" d="M65 266L66 267L65 266z"/>
<path style="fill:#eab56e; stroke:none;" d="M101 266L102 267L101 266z"/>
<path style="fill:#66ade2; stroke:none;" d="M139 266L140 267L139 266z"/>
<path style="fill:#eab56e; stroke:none;" d="M233 266L234 267L233 266z"/>
<path style="fill:#66ade2; stroke:none;" d="M268 266L269 267L268 266z"/>
<path style="fill:#7f3212; stroke:none;" d="M305 266L306 267L305 266z"/>
<path style="fill:#eab56e; stroke:none;" d="M444 266L445 267L444 266M27 267L28 268L27 267z"/>
<path style="fill:#66ade2; stroke:none;" d="M67 267L68 268L67 267z"/>
<path style="fill:#eab56e; stroke:none;" d="M99 267L100 268L99 267z"/>
<path style="fill:#7f3212; stroke:none;" d="M100 267L101 268L100 267M234 267L235 268L234 267z"/>
<path style="fill:#66ade2; stroke:none;" d="M270 267L271 268L270 267z"/>
<path style="fill:#eab56e; stroke:none;" d="M303 267L304 268L303 267M442 267L443 268L442 267z"/>
<path style="fill:#7f3212; stroke:none;" d="M443 267L444 268L443 267M28 268L29 269L28 268z"/>
<path style="fill:#66ade2; stroke:none;" d="M69 268L70 269L69 268z"/>
<path style="fill:#eab56e; stroke:none;" d="M97 268L98 269L97 268z"/>
<path style="fill:#66ade2; stroke:none;" d="M138 268L139 269L138 268z"/>
<path style="fill:#eab56e; stroke:none;" d="M234 268L235 269L234 268z"/>
<path style="fill:#66ade2; stroke:none;" d="M272 268L273 269L272 268z"/>
<path style="fill:#eab56e; stroke:none;" d="M301 268L302 269L301 268z"/>
<path style="fill:#66ade2; stroke:none;" d="M338 268L339 269L338 268M440 268L441 269L440 268M477 268L478 269L477 268z"/>
<path style="fill:#eab56e; stroke:none;" d="M28 269L29 270L28 269z"/>
<path style="fill:#66ade2; stroke:none;" d="M72 269L73 270L72 269z"/>
<path style="fill:#eab56e; stroke:none;" d="M94 269L95 270L94 269z"/>
<path style="fill:#7f3212; stroke:none;" d="M95 269L96 270L95 269z"/>
<path style="fill:#66ade2; stroke:none;" d="M137 269L138 270L137 269z"/>
<path style="fill:#7f3212; stroke:none;" d="M235 269L236 270L235 269M274 269L275 270L274 269z"/>
<path style="fill:#66ade2; stroke:none;" d="M275 269L276 270L275 269z"/>
<path style="fill:#eab56e; stroke:none;" d="M298 269L299 270L298 269z"/>
<path style="fill:#7f3212; stroke:none;" d="M299 269L300 270L299 269z"/>
<path style="fill:#eab56e; stroke:none;" d="M433.667 269.333L434.333 269.667L433.667 269.333z"/>
<path style="fill:#66ade2; stroke:none;" d="M435 269L436 270L435 269z"/>
<path style="fill:#7f3212; stroke:none;" d="M436.667 269.333L437.333 269.667L436.667 269.333z"/>
<path style="fill:#eab56e; stroke:none;" d="M29 270L30 271L29 270z"/>
<path style="fill:#7f3212; stroke:none;" d="M75.6667 270.333L76.3333 270.667L75.6667 270.333z"/>
<path style="fill:#eab56e; stroke:none;" d="M77 270L78 271L77 270M88.6667 270.333L89.3333 270.667L88.6667 270.333z"/>
<path style="fill:#7f3212; stroke:none;" d="M90.6667 270.333L91.3333 270.667L90.6667 270.333z"/>
<path style="fill:#eab56e; stroke:none;" d="M235 270L236 271L235 270z"/>
<path style="fill:#7f3212; stroke:none;" d="M278 270L279 271L278 270z"/>
<path style="fill:#66ade2; stroke:none;" d="M279 270L280 271L279 270z"/>
<path style="fill:#eab56e; stroke:none;" d="M280 270L281 271L280 270M292.667 270.333L293.333 270.667L292.667 270.333z"/>
<path style="fill:#7f3212; stroke:none;" d="M294.667 270.333L295.333 270.667L294.667 270.333z"/>
<path style="fill:#66ade2; stroke:none;" d="M337 270L338 271L337 270M476.333 270.667L476.667 271.333L476.333 270.667z"/>
<path style="fill:#7f3212; stroke:none;" d="M30 271L31 272L30 271z"/>
<path style="fill:#66ade2; stroke:none;" d="M136 271L137 272L136 271z"/>
<path style="fill:#7f3212; stroke:none;" d="M236 271L237 272L236 271M31 272L32 273L31 272z"/>
<path style="fill:#66ade2; stroke:none;" d="M135 272L136 273L135 272z"/>
<path style="fill:#7f3212; stroke:none;" d="M237 272L238 273L237 272z"/>
<path style="fill:#66ade2; stroke:none;" d="M336 272L337 273L336 272M475 272L476 273L475 272z"/>
<path style="fill:#7f3212; stroke:none;" d="M32 273L33 274L32 273z"/>
<path style="fill:#66ade2; stroke:none;" d="M134 273L135 274L134 273z"/>
<path style="fill:#eab56e; stroke:none;" d="M237 273L238 274L237 273M32 274L33 275L32 274z"/>
<path style="fill:#66ade2; stroke:none;" d="M133 274L134 275L133 274z"/>
<path style="fill:#7f3212; stroke:none;" d="M238 274L239 275L238 274z"/>
<path style="fill:#66ade2; stroke:none;" d="M335 274L336 275L335 274M474 274L475 275L474 274z"/>
<path style="fill:#eab56e; stroke:none;" d="M33 275L34 276L33 275z"/>
<path style="fill:#7f3212; stroke:none;" d="M239 275L240 276L239 275z"/>
<path style="fill:#66ade2; stroke:none;" d="M334 275L335 276L334 275z"/>
<path style="fill:#eab56e; stroke:none;" d="M34 276L35 277L34 276M239 276L240 277L239 276z"/>
<path style="fill:#66ade2; stroke:none;" d="M473 276L474 277L473 276z"/>
<path style="fill:#eab56e; stroke:none;" d="M35 277L36 278L35 277M240 277L241 278L240 277z"/>
<path style="fill:#66ade2; stroke:none;" d="M472 277L473 278L472 277z"/>
<path style="fill:#eab56e; stroke:none;" d="M36 278L37 279L36 278z"/>
<path style="fill:#7f3212; stroke:none;" d="M241 278L242 279L241 278z"/>
<path style="fill:#66ade2; stroke:none;" d="M332 278L333 279L332 278M471 278L472 279L471 278z"/>
<path style="fill:#eab56e; stroke:none;" d="M37 279L38 280L37 279z"/>
<path style="fill:#66ade2; stroke:none;" d="M128 279L129 280L128 279z"/>
<path style="fill:#7f3212; stroke:none;" d="M242 279L243 280L242 279z"/>
<path style="fill:#66ade2; stroke:none;" d="M331 279L332 280L331 279z"/>
<path style="fill:#7f3212; stroke:none;" d="M39 280L40 281L39 280z"/>
<path style="fill:#66ade2; stroke:none;" d="M127 280L128 281L127 280z"/>
<path style="fill:#7f3212; stroke:none;" d="M243 280L244 281L243 280z"/>
<path style="fill:#66ade2; stroke:none;" d="M330 280L331 281L330 280z"/>
<path style="fill:#7f3212; stroke:none;" d="M40 281L41 282L40 281z"/>
<path style="fill:#66ade2; stroke:none;" d="M126 281L127 282L126 281z"/>
<path style="fill:#7f3212; stroke:none;" d="M244 281L245 282L244 281z"/>
<path style="fill:#66ade2; stroke:none;" d="M329 281L330 282L329 281z"/>
<path style="fill:#eab56e; stroke:none;" d="M41 282L42 283L41 282z"/>
<path style="fill:#7f3212; stroke:none;" d="M245 282L246 283L245 282z"/>
<path style="fill:#66ade2; stroke:none;" d="M328 282L329 283L328 282z"/>
<path style="fill:#7f3212; stroke:none;" d="M43 283L44 284L43 283z"/>
<path style="fill:#66ade2; stroke:none;" d="M123 283L124 284L123 283z"/>
<path style="fill:#eab56e; stroke:none;" d="M246 283L247 284L246 283z"/>
<path style="fill:#66ade2; stroke:none;" d="M327 283L328 284L327 283z"/>
<path style="fill:#7f3212; stroke:none;" d="M44 284L45 285L44 284z"/>
<path style="fill:#66ade2; stroke:none;" d="M122 284L123 285L122 284z"/>
<path style="fill:#eab56e; stroke:none;" d="M247 284L248 285L247 284z"/>
<path style="fill:#66ade2; stroke:none;" d="M465 284L466 285L465 284z"/>
<path style="fill:#7f3212; stroke:none;" d="M46 285L47 286L46 285z"/>
<path style="fill:#66ade2; stroke:none;" d="M120 285L121 286L120 285z"/>
<path style="fill:#7f3212; stroke:none;" d="M249 285L250 286L249 285z"/>
<path style="fill:#66ade2; stroke:none;" d="M324 285L325 286L324 285M464 285L465 286L464 285z"/>
<path style="fill:#eab56e; stroke:none;" d="M47 286L48 287L47 286z"/>
<path style="fill:#66ade2; stroke:none;" d="M118 286L119 287L118 286z"/>
<path style="fill:#eab56e; stroke:none;" d="M250 286L251 287L250 286z"/>
<path style="fill:#66ade2; stroke:none;" d="M323 286L324 287L323 286M462 286L463 287L462 286z"/>
<path style="fill:#eab56e; stroke:none;" d="M49 287L50 288L49 287z"/>
<path style="fill:#7f3212; stroke:none;" d="M252 287L253 288L252 287z"/>
<path style="fill:#66ade2; stroke:none;" d="M321 287L322 288L321 287z"/>
<path style="fill:#eab56e; stroke:none;" d="M51 288L52 289L51 288z"/>
<path style="fill:#7f3212; stroke:none;" d="M254 288L255 289L254 288z"/>
<path style="fill:#66ade2; stroke:none;" d="M319 288L320 289L319 288z"/>
<path style="fill:#eab56e; stroke:none;" d="M53 289L54 290L53 289z"/>
<path style="fill:#7f3212; stroke:none;" d="M54 289L55 290L54 289z"/>
<path style="fill:#66ade2; stroke:none;" d="M112 289L113 290L112 289z"/>
<path style="fill:#7f3212; stroke:none;" d="M256 289L257 290L256 289z"/>
<path style="fill:#66ade2; stroke:none;" d="M317 289L318 290L317 289M456 289L457 290L456 289z"/>
<path style="fill:#7f3212; stroke:none;" d="M56 290L57 291L56 290z"/>
<path style="fill:#66ade2; stroke:none;" d="M110 290L111 291L110 290z"/>
<path style="fill:#eab56e; stroke:none;" d="M258 290L259 291L258 290z"/>
<path style="fill:#7f3212; stroke:none;" d="M259 290L260 291L259 290M314 290L315 291L314 290z"/>
<path style="fill:#66ade2; stroke:none;" d="M315 290L316 291L315 290M453 290L454 291L453 290z"/>
<path style="fill:#7f3212; stroke:none;" d="M59 291L60 292L59 291z"/>
<path style="fill:#66ade2; stroke:none;" d="M107 291L108 292L107 291z"/>
<path style="fill:#eab56e; stroke:none;" d="M261 291L262 292L261 291z"/>
<path style="fill:#66ade2; stroke:none;" d="M312 291L313 292L312 291z"/>
<path style="fill:#7f3212; stroke:none;" d="M447.667 291.333L448.333 291.667L447.667 291.333z"/>
<path style="fill:#66ade2; stroke:none;" d="M449 291L450 292L449 291z"/>
<path style="fill:#eab56e; stroke:none;" d="M62 292L63 293L62 292z"/>
<path style="fill:#7f3212; stroke:none;" d="M63 292L64 293L63 292z"/>
<path style="fill:#66ade2; stroke:none;" d="M103.667 292.333L104.333 292.667L103.667 292.333z"/>
<path style="fill:#eab56e; stroke:none;" d="M264 292L265 293L264 292z"/>
<path style="fill:#7f3212; stroke:none;" d="M265 292L266 293L265 292z"/>
<path style="fill:#66ade2; stroke:none;" d="M308 292L309 293L308 292z"/>
<path style="fill:#7f3212; stroke:none;" d="M423 292L423 293L439 293L423 292z"/>
<path style="fill:#eab56e; stroke:none;" d="M439 292L439 293L443 293L439 292M66 293L67 294L66 293z"/>
<path style="fill:#7f3212; stroke:none;" d="M67.6667 293.333L68.3333 293.667L67.6667 293.333M98 293L99 294L98 293z"/>
<path style="fill:#66ade2; stroke:none;" d="M99 293L100 294L99 293z"/>
<path style="fill:#eab56e; stroke:none;" d="M100 293L101 294L100 293M268 293L269 294L268 293z"/>
<path style="fill:#7f3212; stroke:none;" d="M269.667 293.333L270.333 293.667L269.667 293.333M302.667 293.333L303.333 293.667L302.667 293.333z"/>
<path style="fill:#66ade2; stroke:none;" d="M304 293L305 294L304 293z"/>
<path style="fill:#eab56e; stroke:none;" d="M72.6667 294.333L73.3333 294.667L72.6667 294.333z"/>
<path style="fill:#7f3212; stroke:none;" d="M74 294L74 295L79 295L74 294M88 294L88 295L93 295L88 294z"/>
<path style="fill:#66ade2; stroke:none;" d="M93 294L94 295L93 294z"/>
<path style="fill:#eab56e; stroke:none;" d="M94 294L95 295L94 294M274.667 294.333L275.333 294.667L274.667 294.333z"/>
<path style="fill:#7f3212; stroke:none;" d="M276 294L276 295L281 295L276 294M292 294L292 295L297 295L292 294z"/>
<path style="fill:#66ade2; stroke:none;" d="M297 294L298 295L297 294z"/>
<path style="fill:#eab56e; stroke:none;" d="M298 294L299 295L298 294z"/>
</svg>
