<?xml version="1.0" standalone="yes"?>
<svg xmlns="http://www.w3.org/2000/svg" width="494" height="468">
<path style="fill:#010101; stroke:none;" d="M0 0L0 468L494 468L494 0L0 0z"/>
<path style="fill:#ffffff; stroke:none;" d="M5 4L5 463L489 463L489 4L5 4z"/>
<path style="fill:#010101; stroke:none;" d="M87 283L40 287C45.9014 309.81 50.2102 332.864 70 348.482C117.546 386.006 219.542 375.387 233.334 308C234.592 301.855 234.029 295.244 233.999 289C233.771 241.601 187.253 225.937 149 216.373C133.323 212.454 103.323 208.66 97.0285 191C91.4993 175.488 109.503 166.122 122 163.924C147.182 159.493 175.083 167.055 179 196L227 195C226.995 187.188 226.046 179.461 223.656 172C210.409 130.657 169.18 122 131 122C98.3094 122 63.6125 135.465 52.6713 169C50.4954 175.669 49.9973 182.035 50 189C50.0189 238.062 96.588 252.753 136 263.116C152.013 267.326 182.061 270.824 185.671 291C189.559 312.74 165.592 326.145 147 326.961C117.349 328.261 91.3247 315.09 87 283M275 125L275 364L323 364L323 262L423 262L423 222L323 222L323 165L437 165L437 125L275 125z"/>
</svg>
