<?xml version="1.0" standalone="yes"?>
<svg xmlns="http://www.w3.org/2000/svg" width="494" height="468">
<path style="fill:#010101; stroke:none;" d="M0 0L0 468L494 468L494 0L0 0z"/>
<path style="fill:#ffffff; stroke:none;" d="M5 4L5 463L489 463L489 4L5 4z"/>
<path style="fill:#010101; stroke:none;" d="M68 278L21 282C26.9015 304.81 31.2102 327.864 51 343.482C98.5464 381.006 200.542 370.387 214.334 303C215.592 296.855 215.029 290.244 214.999 284C214.771 236.601 168.253 220.937 130 211.373C114.323 207.454 84.3234 203.66 78.0285 186C72.4994 170.488 90.5027 161.122 103 158.924C128.182 154.493 156.083 162.055 160 191L208 190C207.995 182.188 207.046 174.461 204.656 167C191.409 125.657 150.18 117 112 117C79.3094 117 44.6125 130.465 33.6713 164C31.4954 170.669 30.9973 177.035 31 184C31.0189 233.062 77.588 247.753 117 258.116C133.013 262.326 163.061 265.824 166.671 286C170.559 307.74 146.592 321.145 128 321.961C98.3485 323.261 72.3247 310.09 68 278M256 120L256 359L362 359C383.843 359 407.895 359.827 427 347.452C468.861 320.339 466.166 242.493 411 233C420.828 226.375 430.378 220.517 436.648 210C454.2 180.564 440.059 140.739 409 127.338C392.392 120.172 374.548 121.729 357 120.961C323.41 119.49 289.671 120 256 120z"/>
<path style="fill:#ffffff; stroke:none;" d="M304 160L304 215L355 215C365.527 215 376.757 215.625 385.996 209.612C401.369 199.606 401.135 172.739 384 164.543C373.778 159.654 361.98 161 351 161C335.304 161 319.723 160 304 160M304 255L304 319L360 319C371.054 319 383.09 319.964 392.999 314.02C411.25 303.071 410.538 271.97 392 261.799C379.614 255.004 364.66 256.065 351 255.999C335.385 255.924 319.688 255 304 255z"/>
</svg>
