<?xml version="1.0" standalone="yes"?>
<svg xmlns="http://www.w3.org/2000/svg" width="494" height="468">
<path style="fill:#010102; stroke:none;" d="M0 0L0 468L494 468L494 0L0 0z"/>
<path style="fill:#ffffff; stroke:none;" d="M5 4L5 463L489 463L489 4L5 4z"/>
<path style="fill:#934308; stroke:none;" d="M20 153L20 177L21 177L20 153z"/>
<path style="fill:#010102; stroke:none;" d="M21 153L21 177L63 177L63 296L91 296L91 177L133 177L133 153L21 153z"/>
<path style="fill:#6ab7f0; stroke:none;" d="M133 153L133 177L134 177L133 153z"/>
<path style="fill:#eca654; stroke:none;" d="M151 153L151 296L152 296L152 196C152 183.794 155.707 164.218 151 153z"/>
<path style="fill:#010102; stroke:none;" d="M152 153L152 296L260 296L260 272L180 272L180 233L252 233L252 209L180 209L180 177L257 177L257 153L152 153z"/>
<path style="fill:#6ab7f0; stroke:none;" d="M257 153L257 177L258 177L257 153z"/>
<path style="fill:#eca654; stroke:none;" d="M351 153L351 296L352 296L352 196C352 183.794 355.707 164.218 351 153z"/>
<path style="fill:#010102; stroke:none;" d="M352 153L352 296C373.378 296 394.69 295.973 416 295.039C428.127 294.508 439.757 295.963 451 290.179C470.715 280.038 477.311 250.697 464.073 233.015C458.937 226.155 451.521 223.351 444 220C468.951 209.232 470.555 172.788 447 159.338C438.545 154.51 430.329 154.718 421 153.83C398.242 151.665 374.875 153 352 153z"/>
<path style="fill:#934308; stroke:none;" d="M418 153L418 154L425 154L418 153z"/>
<path style="fill:#6ab7f0; stroke:none;" d="M425 153L426 154L425 153z"/>
<path style="fill:#eca654; stroke:none;" d="M426.667 153.333L427.333 153.667L426.667 153.333z"/>
<path style="fill:#934308; stroke:none;" d="M432.667 154.333L433.333 154.667L432.667 154.333z"/>
<path style="fill:#6ab7f0; stroke:none;" d="M434 154L435 155L434 154M438 155L439 156L438 155M441 156L442 157L441 156z"/>
<path style="fill:#934308; stroke:none;" d="M443 157L444 158L443 157M445 158L446 159L445 158z"/>
<path style="fill:#6ab7f0; stroke:none;" d="M447 159L448 160L447 159M450 161L451 162L450 161M451 162L452 163L451 162M455 166L456 167L455 166M456 167L457 168L456 167M457 168L458 169L457 168M458 170L459 171L458 170M459 171L460 172L459 171M460 173L461 174L460 173M461 175L462 176L461 175z"/>
<path style="fill:#934308; stroke:none;" d="M62 177L62 296L63 296L63 213L62 177z"/>
<path style="fill:#6ab7f0; stroke:none;" d="M91 177L91 296L92 296L92 213L91 177M180 177L180 209L181 209L180 177M380 177L380 210L381 210L380 177z"/>
<path style="fill:#ffffff; stroke:none;" d="M381 177L381 210C394.663 210 414.37 213.506 426.999 207.427C437.041 202.594 439.252 187.458 429.956 180.653C418.749 172.449 394.222 177 381 177z"/>
<path style="fill:#eca654; stroke:none;" d="M419 177L419 178L422 178L419 177z"/>
<path style="fill:#934308; stroke:none;" d="M422.667 177.333L423.333 177.667L422.667 177.333z"/>
<path style="fill:#6ab7f0; stroke:none;" d="M462.333 177.667L462.667 178.333L462.333 177.667z"/>
<path style="fill:#934308; stroke:none;" d="M426 178L427 179L426 178z"/>
<path style="fill:#eca654; stroke:none;" d="M428 179L429 180L428 179z"/>
<path style="fill:#934308; stroke:none;" d="M430 180L431 181L430 180z"/>
<path style="fill:#6ab7f0; stroke:none;" d="M463 180L463 184L464 184L463 180z"/>
<path style="fill:#934308; stroke:none;" d="M431 181L432 182L431 181M432 182L433 183L432 182M433 183L434 184L433 183M434 185L435 186L434 185M435 187L436 188L435 187z"/>
<path style="fill:#6ab7f0; stroke:none;" d="M464 187L464 191L465 191L464 187z"/>
<path style="fill:#eca654; stroke:none;" d="M435.333 188.667L435.667 189.333L435.333 188.667z"/>
<path style="fill:#6ab7f0; stroke:none;" d="M463 195L463 198L464 198L463 195z"/>
<path style="fill:#eca654; stroke:none;" d="M435 197L436 198L435 197z"/>
<path style="fill:#934308; stroke:none;" d="M435 198L436 199L435 198z"/>
<path style="fill:#6ab7f0; stroke:none;" d="M462.333 199.667L462.667 200.333L462.333 199.667z"/>
<path style="fill:#eca654; stroke:none;" d="M434 200L435 201L434 200z"/>
<path style="fill:#934308; stroke:none;" d="M433 202L434 203L433 202z"/>
<path style="fill:#6ab7f0; stroke:none;" d="M461 202L462 203L461 202z"/>
<path style="fill:#eca654; stroke:none;" d="M432 203L433 204L432 203M431 204L432 205L431 204z"/>
<path style="fill:#6ab7f0; stroke:none;" d="M460 204L461 205L460 204z"/>
<path style="fill:#eca654; stroke:none;" d="M430 205L431 206L430 205z"/>
<path style="fill:#934308; stroke:none;" d="M429 206L430 207L429 206z"/>
<path style="fill:#6ab7f0; stroke:none;" d="M459 206L460 207L459 206z"/>
<path style="fill:#eca654; stroke:none;" d="M427 207L428 208L427 207M424 208L425 209L424 208z"/>
<path style="fill:#934308; stroke:none;" d="M425 208L426 209L425 208z"/>
<path style="fill:#6ab7f0; stroke:none;" d="M458 208L459 209L458 208z"/>
<path style="fill:#eca654; stroke:none;" d="M418 209L418 210L421 210L418 209z"/>
<path style="fill:#934308; stroke:none;" d="M421 209L422 210L421 209z"/>
<path style="fill:#6ab7f0; stroke:none;" d="M457 209L458 210L457 209M456 210L457 211L456 210M450 216L451 217L450 216M447 218L448 219L447 218M445.333 219.667L445.667 220.333L445.333 219.667z"/>
<path style="fill:#934308; stroke:none;" d="M444 220L445 221L444 220M447 221L448 222L447 221z"/>
<path style="fill:#6ab7f0; stroke:none;" d="M450 222L451 223L450 222M452 223L453 224L452 223M454 224L455 225L454 224z"/>
<path style="fill:#934308; stroke:none;" d="M455 225L456 226L455 225z"/>
<path style="fill:#6ab7f0; stroke:none;" d="M457 226L458 227L457 226M458 227L459 228L458 227z"/>
<path style="fill:#934308; stroke:none;" d="M281 231L281 258L282 258L281 231z"/>
<path style="fill:#010102; stroke:none;" d="M282 231L282 258L335 258L335 231L282 231z"/>
<path style="fill:#6ab7f0; stroke:none;" d="M335 231L335 258L336 258L335 231M463 232L464 233L463 232M180 233L180 272L181 272C181 260.828 184.311 243.274 180 233M464 233L465 234L464 233M380 234L380 272L381 272C381 261.089 384.211 244.036 380 234z"/>
<path style="fill:#ffffff; stroke:none;" d="M381 234L381 272C395.684 272 419.918 276.488 432.996 268.772C444.404 262.04 443.584 243.551 431.999 237.442C418.304 230.221 396.007 234 381 234z"/>
<path style="fill:#eca654; stroke:none;" d="M417 234L417 235L420 235L417 234z"/>
<path style="fill:#934308; stroke:none;" d="M420 234L420 235L423 235L420 234z"/>
<path style="fill:#6ab7f0; stroke:none;" d="M465 234L466 235L465 234z"/>
<path style="fill:#eca654; stroke:none;" d="M426.667 235.333L427.333 235.667L426.667 235.333z"/>
<path style="fill:#934308; stroke:none;" d="M428 235L429 236L428 235z"/>
<path style="fill:#eca654; stroke:none;" d="M430 236L431 237L430 236z"/>
<path style="fill:#6ab7f0; stroke:none;" d="M466 236L467 237L466 236z"/>
<path style="fill:#eca654; stroke:none;" d="M432 237L433 238L432 237z"/>
<path style="fill:#934308; stroke:none;" d="M434 238L435 239L434 238z"/>
<path style="fill:#6ab7f0; stroke:none;" d="M467 238L468 239L467 238z"/>
<path style="fill:#eca654; stroke:none;" d="M435 239L436 240L435 239M436 240L437 241L436 240z"/>
<path style="fill:#6ab7f0; stroke:none;" d="M468 240L469 241L468 240z"/>
<path style="fill:#eca654; stroke:none;" d="M437 241L438 242L437 241z"/>
<path style="fill:#934308; stroke:none;" d="M438 242L439 243L438 242z"/>
<path style="fill:#6ab7f0; stroke:none;" d="M469.333 242.667L469.667 243.333L469.333 242.667z"/>
<path style="fill:#934308; stroke:none;" d="M439 244L440 245L439 244z"/>
<path style="fill:#6ab7f0; stroke:none;" d="M470 245L470 249L471 249L470 245z"/>
<path style="fill:#934308; stroke:none;" d="M440 246L441 247L440 246z"/>
<path style="fill:#eca654; stroke:none;" d="M440 247L441 248L440 247z"/>
<path style="fill:#934308; stroke:none;" d="M441 250L441 257L442 257L441 250z"/>
<path style="fill:#6ab7f0; stroke:none;" d="M471 252L471 258L472 258L471 252z"/>
<path style="fill:#eca654; stroke:none;" d="M440 259L441 260L440 259z"/>
<path style="fill:#934308; stroke:none;" d="M440 260L441 261L440 260z"/>
<path style="fill:#6ab7f0; stroke:none;" d="M470 261L470 264L471 264L470 261z"/>
<path style="fill:#934308; stroke:none;" d="M439 262L440 263L439 262M438 264L439 265L438 264M437 265L438 266L437 265M436 266L437 267L436 266z"/>
<path style="fill:#6ab7f0; stroke:none;" d="M469.333 266.667L469.667 267.333L469.333 266.667z"/>
<path style="fill:#934308; stroke:none;" d="M435 267L436 268L435 267z"/>
<path style="fill:#eca654; stroke:none;" d="M433 268L434 269L433 268z"/>
<path style="fill:#934308; stroke:none;" d="M432 269L433 270L432 269z"/>
<path style="fill:#6ab7f0; stroke:none;" d="M468 269L469 270L468 269z"/>
<path style="fill:#eca654; stroke:none;" d="M429 270L430 271L429 270M422.667 271.333L423.333 271.667L422.667 271.333z"/>
<path style="fill:#934308; stroke:none;" d="M424 271L424 272L427 272L424 271z"/>
<path style="fill:#6ab7f0; stroke:none;" d="M467.333 271.667L467.667 272.333L467.333 271.667M260 272L260 296L261 296L260 272M466.333 273.667L466.667 274.333L466.333 273.667M465.333 275.667L465.667 276.333L465.333 275.667M464 277L465 278L464 277M463 279L464 280L463 279M462 280L463 281L462 280M461 281L462 282L461 281M460 282L461 283L460 282M456 286L457 287L456 286M455 287L456 288L455 287M452 289L453 290L452 289M450 290L451 291L450 290M448 291L449 292L448 291z"/>
<path style="fill:#934308; stroke:none;" d="M445 292L446 293L445 292z"/>
<path style="fill:#6ab7f0; stroke:none;" d="M446 292L447 293L446 292z"/>
<path style="fill:#934308; stroke:none;" d="M442 293L443 294L442 293z"/>
<path style="fill:#6ab7f0; stroke:none;" d="M443 293L444 294L443 293z"/>
<path style="fill:#934308; stroke:none;" d="M437 294L438 295L437 294z"/>
<path style="fill:#6ab7f0; stroke:none;" d="M438.667 294.333L439.333 294.667L438.667 294.333z"/>
<path style="fill:#934308; stroke:none;" d="M411 295L411 296L427 296L411 295z"/>
<path style="fill:#6ab7f0; stroke:none;" d="M427 295L428 296L427 295z"/>
<path style="fill:#eca654; stroke:none;" d="M428 295L428 296L431 296L428 295z"/>
<path style="fill:#6ab7f0; stroke:none;" d="M431 295L432 296L431 295z"/>
</svg>
